<svg width="24" height="24" viewBox="0 0 24 24" fill="none" xmlns="http://www.w3.org/2000/svg">
<path fill-rule="evenodd" clip-rule="evenodd" d="M11.9967 22.2858C17.6773 22.2858 22.2824 17.6807 22.2824 12.0001C22.2824 6.31943 17.6773 1.71436 11.9967 1.71436C6.31601 1.71436 1.71094 6.31943 1.71094 12.0001C1.71094 17.6807 6.31601 22.2858 11.9967 22.2858ZM8.90059 11.7746C8.90059 11.9147 8.89184 12.0607 8.87432 12.2125H5.48535C5.5087 12.516 5.60503 12.7496 5.77433 12.913C5.94947 13.0707 6.16256 13.1495 6.41359 13.1495C6.78723 13.1495 7.04702 12.9918 7.19297 12.6766H8.78675C8.70502 12.9977 8.55615 13.2867 8.34014 13.5435C8.12997 13.8004 7.86434 14.0018 7.54325 14.1478C7.22216 14.2937 6.86312 14.3667 6.46614 14.3667C5.98742 14.3667 5.56124 14.2645 5.18761 14.0602C4.81398 13.8559 4.52207 13.564 4.31191 13.1845C4.10174 12.805 3.99665 12.3613 3.99665 11.8534C3.99665 11.3455 4.09882 10.9018 4.30315 10.5224C4.51332 10.1429 4.80522 9.85099 5.17885 9.64665C5.55249 9.44232 5.98158 9.34016 6.46614 9.34016C6.93902 9.34016 7.35935 9.4394 7.72715 9.6379C8.09495 9.83639 8.38101 10.1195 8.58534 10.4873C8.79551 10.8551 8.90059 11.2842 8.90059 11.7746ZM7.36811 11.3805C7.36811 11.1237 7.28054 10.9193 7.1054 10.7676C6.93026 10.6158 6.71133 10.5399 6.44862 10.5399C6.19759 10.5399 5.9845 10.6128 5.80936 10.7588C5.64006 10.9047 5.53497 11.112 5.49411 11.3805H7.36811ZM12.5804 14.2966L11.6434 12.9393L10.8553 14.2966H9.23521L10.8465 11.8009L9.19142 9.41021H10.8728L11.8098 10.7588L12.5979 9.41021H14.218L12.5804 11.8709L14.2617 14.2966H12.5804ZM16.9404 9.55033C16.6836 9.69044 16.4822 9.87434 16.3362 10.102V9.41021H14.8388V16.626H16.3362V13.6136C16.4822 13.8354 16.6836 14.0164 16.9404 14.1565C17.2032 14.2966 17.5038 14.3667 17.8424 14.3667C18.2452 14.3667 18.6101 14.2645 18.937 14.0602C19.264 13.85 19.5209 13.5552 19.7077 13.1757C19.9003 12.7904 19.9967 12.3467 19.9967 11.8447C19.9967 11.3426 19.9003 10.9018 19.7077 10.5224C19.5209 10.1429 19.264 9.85099 18.937 9.64665C18.6101 9.44232 18.2452 9.34016 17.8424 9.34016C17.498 9.34016 17.1973 9.41021 16.9404 9.55033ZM18.1577 10.969C18.3678 11.1791 18.4729 11.471 18.4729 11.8447C18.4729 12.2183 18.3678 12.516 18.1577 12.7379C17.9475 12.9539 17.6936 13.0619 17.3958 13.0619C17.0981 13.0619 16.8441 12.9539 16.6339 12.7379C16.4296 12.5219 16.3275 12.2271 16.3275 11.8534C16.3275 11.4798 16.4296 11.185 16.6339 10.969C16.8441 10.753 17.0981 10.645 17.3958 10.645C17.6994 10.645 17.9533 10.753 18.1577 10.969Z" fill="#F0802F"/>
</svg>
