<svg width="20" height="20" viewBox="0 0 20 20" fill="none" xmlns="http://www.w3.org/2000/svg">
<g clip-path="url(#clip0_3426_9231)">
<path fill-rule="evenodd" clip-rule="evenodd" d="M14.6008 0.833496C12.6547 0.833496 10.9506 2.03224 10 3.82955C9.04937 2.03224 7.3453 0.833496 5.39917 0.833496C1.97179 0.833496 0 3.55866 0 7.02999C0 11.7617 6.48605 16.4788 9.0109 18.1383C9.61366 18.5341 10.3879 18.5341 10.9891 18.1383C13.5139 16.4805 20 11.7617 20 7.02999C20 3.55866 18.0282 0.833496 14.6008 0.833496ZM15.279 6.43347C14.9786 6.43347 14.717 6.49457 14.4925 6.61832V6.61675C14.2681 6.7405 14.0931 6.90342 13.9662 7.10393V6.49457H12.6611V12.856H13.9662V10.2009C14.0947 10.3967 14.2711 10.5564 14.4972 10.6802C14.7232 10.804 14.9833 10.865 15.279 10.865C15.6304 10.865 15.9477 10.7742 16.2326 10.5909C16.5174 10.4076 16.7419 10.1476 16.9075 9.8108C17.0732 9.47401 17.1552 9.08239 17.1552 8.64064C17.1552 8.1989 17.0732 7.81041 16.9075 7.47518C16.7419 7.13996 16.5174 6.88305 16.2326 6.70291C15.9477 6.52433 15.6304 6.43347 15.279 6.43347ZM14.8904 7.58327C15.1551 7.58327 15.3765 7.67726 15.5576 7.86523C15.7387 8.05321 15.8285 8.31168 15.8285 8.64064C15.8285 8.9696 15.7372 9.23121 15.5545 9.42388C15.3703 9.61656 15.1489 9.71368 14.8904 9.71368C14.6319 9.71368 14.412 9.61969 14.2309 9.42858C14.0498 9.23747 13.96 8.97744 13.96 8.64847C13.96 8.31951 14.0498 8.05948 14.2309 7.86837C14.4105 7.67882 14.6257 7.58327 14.8904 7.58327ZM7.46606 8.96496H4.51385C4.53398 9.23283 4.61912 9.43648 4.76929 9.57902C4.91945 9.72001 5.10368 9.79207 5.32196 9.79207C5.64706 9.79207 5.87308 9.65265 6.00157 9.37538H7.39021C7.31899 9.65892 7.1905 9.91268 7.00473 10.1398C6.81896 10.367 6.58675 10.544 6.30654 10.6724C6.02634 10.8009 5.71362 10.8651 5.3684 10.8651C4.95196 10.8651 4.58042 10.7758 4.25377 10.5957C3.92867 10.4155 3.67324 10.1586 3.49056 9.8234C3.30789 9.48817 3.21655 9.09811 3.21655 8.6501C3.21655 8.20209 3.30634 7.81204 3.48747 7.47681C3.6686 7.14158 3.92093 6.88468 4.24603 6.70453C4.57113 6.52439 4.94577 6.4351 5.3684 6.4351C5.79103 6.4351 6.14709 6.52282 6.46754 6.69827C6.788 6.87371 7.03879 7.12278 7.21837 7.44705C7.39949 7.77131 7.48928 8.1504 7.48928 8.58274C7.48928 8.7065 7.48154 8.83495 7.46606 8.9681V8.96496ZM6.15328 8.23185C6.15328 8.00471 6.07742 7.82613 5.92416 7.69142C5.7709 7.55827 5.58049 7.49091 5.35137 7.49091C5.12225 7.49091 4.94887 7.55513 4.7987 7.68358C4.64854 7.81203 4.55565 7.99531 4.52005 8.23185H6.15328ZM9.87806 9.60568L10.6939 10.8025V10.8009H12.1584L10.6939 8.66266L12.1212 6.49308H10.7094L10.022 7.68204L9.20619 6.49308H7.7417L9.18297 8.60157L7.77885 10.8025H9.19071L9.87806 9.60568Z" fill="url(#paint0_linear_3426_9231)"/>
</g>
<defs>
<linearGradient id="paint0_linear_3426_9231" x1="8.38806" y1="-4.44699" x2="21.3579" y2="0.54957" gradientUnits="userSpaceOnUse">
<stop stop-color="#F9951F"/>
<stop offset="1" stop-color="#FF8541"/>
</linearGradient>
<clipPath id="clip0_3426_9231">
<rect width="20" height="20" fill="white"/>
</clipPath>
</defs>
</svg>
