<svg width="71" height="79" viewBox="0 0 71 79" fill="none" xmlns="http://www.w3.org/2000/svg">
<g filter="url(#filter0_d_3531_55339)">
<path d="M57.6318 30.4819L56.6986 29.3176C54.7631 26.9083 52.1939 25.1215 49.2792 24.1647C49.2331 24.1417 48.1156 23.7382 47.3667 23.5307C47.3667 23.5307 47.3552 23.5307 47.3437 23.5307L47.1939 23.4846C46.7561 23.3463 46.3068 23.2771 45.8575 23.2771C45.8344 23.2771 45.8114 23.2771 45.8114 23.2771C45.7768 23.2771 45.7538 23.2771 45.7192 23.2771C45.3851 23.2771 45.051 23.3232 44.7284 23.4154L43.1385 23.8304C40.7652 22.5047 38.1039 21.79 35.3274 21.79C32.5509 21.79 29.855 22.5278 27.5393 23.8189L25.984 23.4039C25.6614 23.3117 25.3273 23.2771 24.9932 23.2656C24.9586 23.2656 24.9356 23.254 24.901 23.2656C24.901 23.2656 24.878 23.2656 24.8549 23.2656C24.4056 23.2656 23.9448 23.3347 23.5185 23.4731L23.3687 23.5192C23.3687 23.5192 23.3572 23.5192 23.3457 23.5192C22.5853 23.7267 21.4793 24.1302 21.4447 24.1417C18.5069 25.11 15.9378 26.8968 14.0138 29.3061L13.0806 30.4704C12.1704 31.6001 11.7903 33.0641 12.0322 34.4935C12.2741 35.9229 13.1152 37.1794 14.3364 37.9518L18.3802 40.4879C18.4608 40.534 18.5415 40.5686 18.6221 40.6147C18.6221 40.6377 18.6106 40.6608 18.5991 40.6723L18.5645 40.753C18.5645 40.753 18.53 40.8452 18.5184 40.8913L18.4839 40.972C18.4839 40.972 18.4493 41.0643 18.4378 41.1104L18.4148 41.1911C18.4148 41.1911 18.3802 41.2833 18.3687 41.3294L18.2765 41.6291C18.2535 41.7329 18.2189 41.8366 18.1959 41.9403L18.0461 42.7127L17.9424 43.5658C17.9424 43.5658 17.9424 43.658 17.9424 43.7156V43.8078C17.9424 43.8885 17.9309 43.9577 17.9309 44.0384V44.1306C17.9309 44.1882 17.9309 44.2574 17.9309 44.315C17.9309 44.4303 17.9309 44.5225 17.9309 44.6263C17.9309 44.6955 17.9309 44.7646 17.9309 44.8453V44.8799C18.0922 48.2921 20.5807 51.5659 24.9471 54.079C28.3918 56.0617 32.7582 57.3874 35.8228 57.3874C38.8873 57.3874 43.2422 56.0387 46.6985 54.0328C51.0649 51.4968 53.5534 48.246 53.7147 44.8684V44.8453C53.7147 44.7762 53.7147 44.707 53.7147 44.6378C53.7147 44.5456 53.7147 44.4534 53.7147 44.3612V44.3266C53.7147 44.2689 53.7147 44.2113 53.7147 44.1421V44.0269C53.7147 43.9462 53.7147 43.877 53.7147 43.7963L53.611 42.7934C53.611 42.7934 53.5995 42.7012 53.588 42.6435L53.4728 42.0672C53.4728 42.0672 53.4497 41.9749 53.4382 41.9288L53.4152 41.8251C53.4152 41.8251 53.3921 41.7329 53.3806 41.6867L53.2884 41.364C53.2884 41.364 53.2539 41.2717 53.2423 41.2141L53.2193 41.1334C53.2193 41.1334 53.1847 41.0297 53.1732 40.9836L53.1502 40.9144C53.1502 40.9144 53.1156 40.8106 53.0926 40.753L53.0695 40.6954C53.0695 40.6954 53.0234 40.5801 53.0004 40.5225V40.4879C52.9543 40.4302 52.9313 40.3611 52.9082 40.3034C52.8852 40.2343 52.8622 40.1881 52.8391 40.142L56.376 37.9287C57.5972 37.1564 58.4498 35.8999 58.6802 34.4704C58.9221 33.041 58.5419 31.577 57.6318 30.4473V30.4819Z" stroke="white" stroke-width="5" stroke-linecap="round" stroke-linejoin="round" shape-rendering="crispEdges"/>
</g>
<path d="M44.8434 23.8417L42.3203 24.5103L48.242 28.96L49.1176 24.591L47.0554 23.9109C46.3411 23.6803 45.5807 23.6573 44.8549 23.8417H44.8434Z" fill="#44382E"/>
<path d="M48.231 29.4438C48.1273 29.4438 48.0236 29.4092 47.9429 29.3516L42.0212 24.9019C41.8714 24.7866 41.8023 24.6137 41.8369 24.4293C41.8714 24.2448 42.0097 24.1065 42.1825 24.0604L44.7056 23.3918C45.5236 23.1728 46.3761 23.1958 47.1826 23.461L49.2448 24.1411C49.4752 24.2218 49.6135 24.4523 49.5674 24.6829L48.6918 29.0519C48.6572 29.2132 48.542 29.3516 48.3922 29.4092C48.3346 29.4323 48.277 29.4438 48.2194 29.4438H48.231ZM43.3807 24.729L47.9084 28.1296L48.5535 24.9134L46.8945 24.3716C46.2724 24.1641 45.6042 24.1411 44.959 24.314L43.3922 24.729H43.3807Z" fill="#231916"/>
<path d="M25.8572 23.8417L28.3803 24.5103L22.4586 28.96L21.583 24.591L23.6452 23.9109C24.3595 23.6803 25.1199 23.6573 25.8457 23.8417H25.8572Z" fill="#44382E"/>
<path d="M22.4701 29.4438C22.4701 29.4438 22.3548 29.4438 22.2972 29.4092C22.1475 29.3516 22.0323 29.2132 21.9977 29.0519L21.1221 24.6829C21.076 24.4408 21.2143 24.2102 21.4447 24.1411L23.5069 23.461C24.3134 23.1958 25.1659 23.1728 25.9839 23.3918L28.507 24.0604C28.6798 24.1065 28.8181 24.2564 28.8526 24.4293C28.8872 24.6022 28.8181 24.7982 28.6683 24.9019L22.7466 29.3516C22.6659 29.4092 22.5622 29.4438 22.4585 29.4438H22.4701ZM22.1475 24.9134L22.7926 28.1296L27.3203 24.729L25.7535 24.314C25.1199 24.1411 24.4516 24.1641 23.818 24.3716L22.159 24.9134H22.1475Z" fill="#231916"/>
<path d="M35.316 55.1161C44.1221 55.1161 51.2609 47.7564 51.2609 38.6777C51.2609 29.599 44.1221 22.2393 35.316 22.2393C26.5099 22.2393 19.3711 29.599 19.3711 38.6777C19.3711 47.7564 26.5099 55.1161 35.316 55.1161Z" fill="#F6F6F6"/>
<path d="M53.2542 44.0952V44.0722C53.2542 44.003 53.2542 43.9339 53.2542 43.8532C53.2542 43.8186 53.2542 43.784 53.2542 43.7494C53.2542 43.7033 53.2542 43.6572 53.2542 43.6111C53.2542 43.5765 53.2542 43.5304 53.2542 43.4958C53.2542 43.4497 53.2542 43.4151 53.2542 43.369C53.2542 43.3344 53.2542 43.2883 53.2427 43.2537C53.2427 43.2191 53.2427 43.173 53.2311 43.1385C53.2311 43.0923 53.2311 43.0578 53.2196 43.0116C53.2196 42.9771 53.2196 42.931 53.2081 42.8964C53.2081 42.8503 53.1966 42.8157 53.1851 42.7696C53.1851 42.735 53.1735 42.7004 53.162 42.6658C53.162 42.6197 53.1505 42.5851 53.139 42.539C53.139 42.5044 53.1274 42.4698 53.1159 42.4353C53.1159 42.3892 53.0929 42.3546 53.0929 42.3085C53.0929 42.2739 53.0814 42.2393 53.0698 42.2047C53.0698 42.1586 53.0468 42.1125 53.0353 42.0779C53.0353 42.0433 53.0238 42.0087 53.0122 41.9857C53.0122 41.9396 52.9892 41.8935 52.9777 41.8474C52.9777 41.8128 52.9662 41.7897 52.9546 41.7551C52.9431 41.709 52.9316 41.6629 52.9201 41.6168C52.9201 41.5937 52.9086 41.5592 52.897 41.5361C52.8855 41.49 52.874 41.4439 52.8509 41.3978C52.8509 41.3747 52.8394 41.3401 52.8279 41.3171C52.8164 41.271 52.7933 41.2249 52.7818 41.1787C52.7818 41.1557 52.7703 41.1326 52.7588 41.1096C52.7357 41.0635 52.7242 41.0058 52.7012 40.9597C52.7012 40.9367 52.6897 40.9251 52.6781 40.9021C52.6551 40.8444 52.632 40.7983 52.6205 40.7407C52.6205 40.7292 52.6205 40.7176 52.609 40.7061C52.586 40.6485 52.5629 40.5908 52.5399 40.5332C52.3095 39.9799 52.0214 39.4611 51.6989 38.977C51.6643 38.9193 51.6182 38.8617 51.5837 38.8041C51.5376 38.7464 51.503 38.6888 51.4569 38.6311C51.4108 38.5735 51.3763 38.5159 51.3302 38.4582C51.2841 38.4006 51.238 38.343 51.1919 38.2853C49.5214 36.2103 47.0329 34.8385 44.2103 34.6656C44.0029 34.6541 43.8071 34.6426 43.5997 34.6426C40.4775 34.6426 37.6895 36.1181 35.9153 38.4006C34.1295 36.1181 31.353 34.6426 28.2309 34.6426C27.7585 34.6426 27.2977 34.6772 26.8484 34.7348C24.0949 35.1267 21.71 36.6714 20.2008 38.8732C20.1662 38.9309 20.1317 38.977 20.0971 39.0346C20.0971 39.0346 20.0971 39.0461 20.0856 39.0577C20.051 39.1038 20.0165 39.1614 19.9819 39.2191C19.9819 39.2191 19.9819 39.2421 19.9704 39.2421C19.9358 39.2882 19.9013 39.3459 19.8782 39.4035C19.8782 39.4035 19.8782 39.4265 19.8667 39.4265C19.8321 39.4842 19.8091 39.5303 19.7745 39.5879C19.7745 39.5879 19.7745 39.5995 19.7745 39.611C19.6132 39.8992 19.4635 40.1989 19.3252 40.5102C19.3252 40.5217 19.3137 40.5447 19.3022 40.5563C19.2791 40.6024 19.2676 40.6485 19.2446 40.6946C19.2446 40.7176 19.2215 40.7407 19.2215 40.7638C19.1985 40.8099 19.187 40.856 19.1639 40.9021C19.1639 40.9251 19.1409 40.9482 19.1409 40.9712C19.1294 41.0174 19.1063 41.0635 19.0948 41.1096C19.0948 41.1326 19.0718 41.1672 19.0718 41.1903C19.0602 41.2364 19.0372 41.2825 19.0257 41.3171C19.0257 41.3401 19.0026 41.3747 19.0026 41.3978C18.9911 41.4439 18.9796 41.49 18.9566 41.5361C18.9566 41.5592 18.945 41.5937 18.9335 41.6168C18.922 41.6629 18.9105 41.709 18.899 41.7551C18.899 41.7782 18.8874 41.8012 18.8759 41.8243C18.8529 41.928 18.8183 42.0203 18.7953 42.124C18.7953 42.1471 18.7953 42.1586 18.7837 42.1817C18.7837 42.2278 18.7607 42.2623 18.7607 42.3085C18.7607 42.343 18.7492 42.3776 18.7377 42.4122C18.7377 42.4468 18.7261 42.4929 18.7146 42.5275C18.7146 42.5621 18.7031 42.5967 18.6916 42.6428C18.6916 42.6773 18.6801 42.7235 18.6685 42.758C18.6685 42.7926 18.657 42.8387 18.6455 42.8733C18.6455 42.9079 18.634 42.954 18.634 42.9886C18.634 43.0232 18.634 43.0693 18.6225 43.1039C18.6225 43.1385 18.6225 43.173 18.6109 43.2191C18.6109 43.2653 18.6109 43.2998 18.5994 43.3459C18.5994 43.3805 18.5994 43.4151 18.5994 43.4497C18.5994 43.4958 18.5994 43.5419 18.5879 43.5765C18.5879 43.6111 18.5879 43.6457 18.5879 43.6803C18.5879 43.7264 18.5879 43.7725 18.5879 43.8301C18.5879 43.8647 18.5879 43.8877 18.5879 43.9223C18.5879 43.9915 18.5879 44.0722 18.5879 44.1413C18.5879 44.1413 18.5879 44.1529 18.5879 44.1644C18.5879 44.2451 18.5879 44.3373 18.5879 44.418C18.5879 44.5102 18.5879 44.6025 18.5879 44.7062C18.5879 44.7869 18.5879 44.8676 18.5879 44.9368C18.9335 52.349 30.512 56.9831 36.0074 56.9831C41.5029 56.9831 53.0814 52.2222 53.427 44.9137V44.8906C53.427 44.8215 53.427 44.7638 53.427 44.6947C53.427 44.6025 53.427 44.4987 53.427 44.4065C53.427 44.3258 53.427 44.2336 53.427 44.1529L53.2542 44.0952Z" fill="#F6F6F6"/>
<path d="M52.6433 40.9483C52.6433 40.9483 52.6318 40.9137 52.6203 40.8907C52.5973 40.833 52.5742 40.7869 52.5627 40.7293C52.5627 40.7178 52.5627 40.7062 52.5512 40.6947C52.5281 40.6371 52.5051 40.5794 52.482 40.5218C52.2516 39.9685 51.9636 39.4497 51.641 38.9656C51.6065 38.9079 51.5604 38.8503 51.5258 38.7927C51.4797 38.735 51.4452 38.6774 51.3991 38.6197C51.3645 38.5736 51.33 38.5275 51.2954 38.4814C51.2148 32.5908 48.1156 27.461 43.5303 24.6367C40.0971 26.0777 37.6777 29.4668 37.6777 33.4323C37.6777 38.7004 41.9405 42.9657 47.2055 42.9657C49.2792 42.9657 51.1802 42.2971 52.747 41.1789C52.747 41.1789 52.747 41.1558 52.747 41.1443C52.724 41.0982 52.7125 41.0406 52.6894 40.9944L52.6433 40.9483Z" fill="#6C6F73"/>
<path d="M35.8226 57.3985C32.758 57.3985 28.3801 56.0729 24.9469 54.0901C20.5805 51.5771 18.092 48.3148 17.9307 44.891V44.8565C17.9307 44.7873 17.9307 44.7181 17.9307 44.6374C17.9307 44.5337 17.9307 44.4415 17.9307 44.3377C17.9307 44.257 17.9307 44.1994 17.9307 44.1302V44.038C17.9307 43.9573 17.9307 43.8881 17.9307 43.8074V43.7152C17.9307 43.6576 17.9422 43.6115 17.9422 43.5654L18.0459 42.7123L18.1956 41.94C18.2187 41.8362 18.2532 41.7325 18.2763 41.6287L18.3685 41.329C18.3685 41.329 18.403 41.2368 18.4145 41.1907L18.4376 41.11C18.4376 41.11 18.4721 41.0178 18.4837 40.9716L18.5182 40.891C18.5182 40.891 18.5528 40.7987 18.5643 40.7526L18.5989 40.6719C18.5989 40.6719 18.6334 40.5797 18.6565 40.5336L18.6795 40.476C18.7026 40.4068 18.7256 40.3607 18.7486 40.3146L18.7717 40.2685C18.8293 40.1417 18.8869 40.0149 18.956 39.8765C18.9215 39.4385 18.9099 39.0465 18.9099 38.6776C18.9099 29.3518 26.2833 21.7666 35.3387 21.7666C39.6821 21.7666 43.7835 23.4957 46.8711 26.6428C49.9241 29.7437 51.6522 33.8706 51.7444 38.2742C51.7444 38.2742 51.7559 38.2857 51.7674 38.2972C51.8135 38.3664 51.8596 38.424 51.9057 38.4817C51.9403 38.5508 51.9863 38.6085 52.0324 38.6776C52.3781 39.1964 52.6776 39.7497 52.9195 40.3146C52.9426 40.3953 52.9656 40.4529 53.0002 40.5105V40.5451C53.0002 40.5451 53.0578 40.6604 53.0808 40.718L53.1039 40.7757C53.1039 40.7757 53.1384 40.8794 53.1615 40.9371L53.1845 41.0062C53.1845 41.0062 53.2191 41.11 53.2306 41.1561L53.2536 41.2368C53.2536 41.2368 53.2882 41.329 53.2997 41.3866L53.3919 41.7094C53.3919 41.7094 53.4149 41.8016 53.4265 41.8477L53.4495 41.9515C53.4495 41.9515 53.4725 42.0437 53.4841 42.0898L53.5993 42.6662C53.5993 42.7238 53.6108 42.77 53.6223 42.8161L53.726 43.819C53.726 43.8997 53.726 43.9688 53.726 44.0495V44.1648C53.726 44.2224 53.726 44.2801 53.726 44.3492V44.3838C53.726 44.476 53.726 44.5683 53.726 44.6605C53.726 44.7297 53.726 44.7988 53.726 44.868V44.891C53.5647 48.2686 51.0762 51.5194 46.7098 54.0555C43.2535 56.0613 38.8756 57.4101 35.8341 57.4101L35.8226 57.3985ZM18.8639 44.3262C18.8639 44.4299 18.8639 44.5222 18.8639 44.6144C18.8639 44.6835 18.8639 44.7527 18.8639 44.8219V44.8565C19.2095 52.0728 30.7995 56.4533 35.7995 56.4533C38.2074 56.4533 42.3549 55.4504 46.2029 53.2255C48.5646 51.8537 52.5393 48.9488 52.7467 44.8565V44.8219C52.7467 44.7642 52.7467 44.6951 52.7467 44.6374C52.7467 44.5452 52.7467 44.453 52.7467 44.3608V44.3262C52.7467 44.3262 52.7467 44.234 52.7467 44.1879V44.1072H53.2191H52.7467V44.0956C52.7467 44.0265 52.7467 43.9573 52.7467 43.8881L52.6546 42.9775L52.5278 42.3204C52.5278 42.3204 52.5048 42.2397 52.4933 42.1936L52.355 41.6748C52.355 41.6748 52.332 41.5826 52.3089 41.548L52.2859 41.4789C52.2859 41.4789 52.2513 41.3751 52.2398 41.329L52.2168 41.2598C52.2168 41.2598 52.1822 41.1676 52.1707 41.1215L52.1476 41.0639C52.1476 41.0639 52.1131 40.9601 52.09 40.914V40.8794C52.09 40.8794 52.0324 40.7757 52.0094 40.7296V40.7065C51.779 40.1993 51.514 39.7036 51.2029 39.231C51.1568 39.1733 51.1223 39.1157 51.0877 39.0581C51.0416 38.9889 51.0071 38.9428 50.961 38.8851C50.9264 38.8275 50.8919 38.7814 50.8573 38.7353L50.7651 38.6085V38.4471C50.6384 29.7783 43.7028 22.7234 35.2926 22.7234C26.8824 22.7234 19.8201 29.8821 19.8201 38.6776C19.8201 39.0581 19.8316 39.4615 19.8777 39.9342V40.061L19.8316 40.1762C19.751 40.3376 19.6818 40.4875 19.6127 40.6373L19.5897 40.6835C19.5897 40.6835 19.5551 40.7757 19.5321 40.8218L19.509 40.8794C19.509 40.8794 19.4745 40.9716 19.4629 41.0062L19.4399 41.0754C19.4399 41.0754 19.4053 41.1561 19.3938 41.2022L19.3708 41.2714C19.3708 41.2714 19.3362 41.3636 19.3247 41.3982L19.1749 41.8823C19.1519 41.9746 19.1288 42.0668 19.1058 42.1705L18.9675 42.8737L18.8754 43.6461C18.8754 43.6461 18.8754 43.7268 18.8754 43.7729V43.8766C18.8754 43.9458 18.8639 44.0149 18.8639 44.0841V44.1648C18.8639 44.1648 18.8639 44.2686 18.8639 44.3262Z" fill="#231916"/>
<path d="M35.7655 39.4499C34.7516 39.0925 32.1479 39.1963 31.9866 42.816C31.8253 46.4356 35.489 47.5423 35.9037 47.427C36.3185 47.3117 38.5074 45.3405 38.807 44.8679C39.1065 44.3952 40.2586 41.6517 38.4729 40.764C36.6871 39.8764 36.7217 39.7957 35.777 39.4499H35.7655Z" fill="#ED7C2E"/>
<path d="M33.5882 48.868C31.7103 48.868 30.996 47.5769 30.9615 47.5192C30.8347 47.2771 30.9269 46.9774 31.1573 46.8506C31.3992 46.7238 31.6988 46.8045 31.8255 47.0466C31.8486 47.0927 32.3209 47.8766 33.5767 47.8766C33.8762 47.8766 34.2219 47.7844 34.6136 47.623C33.3232 46.7469 31.9062 45.5595 31.5605 43.5768C31.284 41.9744 31.7679 40.5335 32.92 39.6228C33.8993 38.8389 35.1781 38.6314 36.2265 39.0695C36.7219 39.277 37.079 39.5421 37.3325 39.8072C37.7588 39.8533 38.1966 40.0147 38.6228 40.2914C40.0169 41.1905 40.1782 42.7353 39.9016 43.7843C39.5215 45.1791 38.2081 46.2858 37.7127 46.7008L37.6205 46.7815C37.2749 47.0812 36.6182 47.6345 35.8578 48.0956C35.8578 48.0956 35.8463 48.0956 35.8348 48.0956C34.9822 48.6143 34.2334 48.868 33.5767 48.868H33.5882ZM35.0859 39.8188C34.556 39.8188 34.003 40.0147 33.5421 40.3836C32.6896 41.0637 32.3209 42.1589 32.5398 43.3923C32.8624 45.2022 34.3255 46.2397 35.5928 47.0696C36.1804 46.6777 36.6873 46.2512 36.9753 46.0091L37.0675 45.9399C37.5053 45.5711 38.6459 44.6143 38.9454 43.5076C39.1413 42.7814 39.0376 41.7093 38.0929 41.0983C38.0468 41.0637 38.0007 41.0407 37.9431 41.0061C38.0353 41.6632 37.8394 42.3664 37.3786 42.9658C36.503 44.107 35.4892 44.0033 34.8786 43.5652C34.5905 43.3577 34.4177 43.0004 34.3716 42.5623C34.314 41.8937 34.602 41.1905 35.1435 40.6372C35.4085 40.3721 35.685 40.1646 35.9846 40.0263C35.9385 40.0032 35.8924 39.9801 35.8463 39.9686C35.6044 39.8649 35.3509 39.8188 35.0859 39.8188ZM36.8486 40.7871C36.4915 40.8447 36.1574 41.0292 35.8578 41.3404C35.3624 41.8476 35.3624 42.3548 35.3739 42.4932C35.3855 42.6776 35.4546 42.7583 35.4776 42.7814C35.9269 43.1157 36.3763 42.6776 36.6067 42.3779C36.9408 41.9398 37.0675 41.4557 36.9523 41.0292C36.9293 40.9485 36.9062 40.8678 36.8601 40.7986L36.8486 40.7871Z" fill="#231916"/>
<path d="M37.6085 48.8677C36.9518 48.8677 36.1914 48.6025 35.3389 48.0838C35.1085 47.9455 35.0278 47.6342 35.1776 47.4037C35.3274 47.1731 35.6269 47.0924 35.8573 47.2423C36.5486 47.6688 37.1362 47.8763 37.6085 47.8763C38.8758 47.8763 39.3482 47.0809 39.3597 47.0463C39.4979 46.8158 39.7975 46.7235 40.0279 46.8619C40.2698 46.9887 40.3505 47.2884 40.2238 47.5305C40.1892 47.5881 39.4749 48.8792 37.597 48.8792L37.6085 48.8677Z" fill="#231916"/>
<path d="M24.9352 23.7148C24.9352 23.7148 23.2417 24.2336 23.7025 26.4815C24.1057 28.4297 24.6818 31.4384 24.9929 33.0522C25.327 34.7814 25.1657 36.5797 24.4398 38.182C24.3938 38.2743 24.3477 38.378 24.3016 38.4702C23.2647 40.5798 20.6264 41.3291 18.6333 40.0726L14.5895 37.5365C12.2623 36.0725 11.7208 32.9024 13.4489 30.7582L14.3821 29.5939C16.2485 27.2654 18.7601 25.5247 21.5942 24.5909C21.5942 24.5909 22.7232 24.176 23.4721 23.9685C24.221 23.761 24.9468 23.7148 24.9468 23.7148H24.9352Z" fill="#725C48"/>
<path d="M20.742 41.1678C19.9125 41.1678 19.0945 40.9372 18.3802 40.4876L14.3364 37.9516C13.1152 37.1792 12.2626 35.9227 12.0322 34.4933C11.7903 33.0638 12.1704 31.5998 13.0806 30.4701L14.0138 29.3058C15.9493 26.8966 18.5184 25.1098 21.4447 24.1414C21.4793 24.1299 22.5853 23.7149 23.3457 23.519C24.1176 23.3115 24.878 23.2538 24.901 23.2423C25.1429 23.2192 25.3618 23.3922 25.4079 23.6342C25.454 23.8763 25.3158 24.1069 25.0853 24.176C24.9471 24.2221 23.818 24.6487 24.1752 26.3893C24.5784 28.3606 25.1545 31.3578 25.4655 32.9716C25.8227 34.8506 25.6268 36.7296 24.878 38.3896C24.8319 38.4934 24.7858 38.5971 24.7397 38.6893C24.1867 39.819 23.1729 40.6606 21.9632 40.9949C21.5715 41.1101 21.1567 41.1678 20.7535 41.1678H20.742ZM23.4148 24.4873C22.712 24.6948 21.7558 25.0406 21.7443 25.0406C18.9678 25.9513 16.5484 27.6343 14.7396 29.8937L13.8064 31.058C13.0691 31.9802 12.758 33.1676 12.9539 34.3319C13.1497 35.4962 13.8295 36.5106 14.8318 37.1446L18.8756 39.6807C19.7051 40.1995 20.7304 40.3493 21.6867 40.0842C22.6314 39.819 23.4263 39.1504 23.8641 38.2743C23.9102 38.1821 23.9563 38.0899 23.9909 37.9977C24.6591 36.5221 24.8319 34.8506 24.5093 33.1561C24.1982 31.5422 23.6222 28.545 23.219 26.5853C23.0346 25.6977 23.1498 25.006 23.4148 24.4873Z" fill="#231916"/>
<path d="M45.766 23.7148C45.766 23.7148 47.4596 24.2336 46.9988 26.4815C46.5955 28.4297 46.0195 31.4384 45.7084 33.0522C45.3743 34.7814 45.5356 36.5797 46.2614 38.182C46.3075 38.2743 46.3536 38.378 46.3997 38.4702C47.4366 40.5798 50.0748 41.3291 52.0679 40.0726L56.1118 37.5365C58.439 36.0725 58.9805 32.9024 57.2523 30.7582L56.3191 29.5939C54.4528 27.2654 51.9412 25.5247 49.1071 24.5909C49.1071 24.5909 47.978 24.176 47.2292 23.9685C46.4803 23.761 45.7545 23.7148 45.7545 23.7148H45.766Z" fill="#725C48"/>
<path d="M49.9592 41.1679C49.556 41.1679 49.1413 41.1103 48.7496 40.995C47.5399 40.6492 46.526 39.8076 45.973 38.6895C45.9269 38.5857 45.8809 38.4935 45.8348 38.3897C45.0859 36.7298 44.8901 34.8623 45.2472 32.9718C45.5583 31.3579 46.1343 28.3607 46.5375 26.3895C46.8947 24.6488 45.7541 24.2223 45.6274 24.1762C45.397 24.0955 45.2587 23.8649 45.3048 23.6228C45.3509 23.3808 45.5698 23.2194 45.8117 23.2424C45.8463 23.2424 46.5952 23.3001 47.3671 23.5191C48.1274 23.7266 49.2334 24.1301 49.2795 24.1531C52.1943 25.1099 54.7634 26.8967 56.699 29.306L57.6321 30.4702C58.5423 31.6 58.9225 33.064 58.6805 34.4934C58.4386 35.9228 57.5976 37.1793 56.3764 37.9517L52.3325 40.4878C51.6182 40.9373 50.8003 41.1679 49.9708 41.1679H49.9592ZM47.2864 24.4874C47.5399 25.0062 47.6551 25.6978 47.4823 26.5854C47.079 28.5451 46.503 31.5423 46.1919 33.1562C45.8693 34.8508 46.0421 36.5223 46.7104 37.9978C46.7564 38.09 46.791 38.1822 46.8371 38.2745C47.2749 39.1621 48.0698 39.8192 49.0145 40.0843C49.9592 40.3494 50.9846 40.2111 51.8256 39.6808L55.8694 37.1448C56.8602 36.5223 57.5515 35.4963 57.7474 34.332C57.9432 33.1677 57.6321 31.9804 56.8948 31.0582L55.9616 29.8939C54.1413 27.6229 51.7335 25.9514 48.9685 25.0407C48.9454 25.0407 47.9892 24.6834 47.2864 24.4759V24.4874Z" fill="#231916"/>
<path d="M28.7486 38.9663C29.8621 38.9663 30.7647 38.0631 30.7647 36.949C30.7647 35.8348 29.8621 34.9316 28.7486 34.9316C27.6351 34.9316 26.7324 35.8348 26.7324 36.949C26.7324 38.0631 27.6351 38.9663 28.7486 38.9663Z" fill="black"/>
<path d="M42.3199 38.9663C43.4334 38.9663 44.336 38.0631 44.336 36.949C44.336 35.8348 43.4334 34.9316 42.3199 34.9316C41.2064 34.9316 40.3037 35.8348 40.3037 36.949C40.3037 38.0631 41.2064 38.9663 42.3199 38.9663Z" fill="black"/>
<defs>
<filter id="filter0_d_3531_55339" x="5.46094" y="17.29" width="59.79" height="48.5977" filterUnits="userSpaceOnUse" color-interpolation-filters="sRGB">
<feFlood flood-opacity="0" result="BackgroundImageFix"/>
<feColorMatrix in="SourceAlpha" type="matrix" values="0 0 0 0 0 0 0 0 0 0 0 0 0 0 0 0 0 0 127 0" result="hardAlpha"/>
<feOffset dy="2"/>
<feGaussianBlur stdDeviation="2"/>
<feComposite in2="hardAlpha" operator="out"/>
<feColorMatrix type="matrix" values="0 0 0 0 0 0 0 0 0 0 0 0 0 0 0 0 0 0 0.2 0"/>
<feBlend mode="normal" in2="BackgroundImageFix" result="effect1_dropShadow_3531_55339"/>
<feBlend mode="normal" in="SourceGraphic" in2="effect1_dropShadow_3531_55339" result="shape"/>
</filter>
</defs>
</svg>
