<svg width="73" height="73" viewBox="0 0 73 73" fill="none" xmlns="http://www.w3.org/2000/svg">
<circle opacity="0.3" cx="36.7195" cy="36.1194" r="36.1194" fill="#FF7D1F"/>
<circle opacity="0.2" cx="36.7192" cy="36.1194" r="20" fill="#FF7D1F"/>
<path d="M36.7197 13L41.9159 21.25H31.5236L36.7197 13Z" fill="#FF7D1F"/>
<g filter="url(#filter0_d_3490_56699)">
<path fill-rule="evenodd" clip-rule="evenodd" d="M36.7192 46.1194C42.2421 46.1194 46.7192 41.6422 46.7192 36.1194C46.7192 30.5965 42.2421 26.1194 36.7192 26.1194C31.1964 26.1194 26.7192 30.5965 26.7192 36.1194C26.7192 41.6422 31.1964 46.1194 36.7192 46.1194Z" fill="#FF7D1F"/>
<path d="M36.7192 47.1194C42.7944 47.1194 47.7192 42.1945 47.7192 36.1194C47.7192 30.0443 42.7944 25.1194 36.7192 25.1194C30.6441 25.1194 25.7192 30.0443 25.7192 36.1194C25.7192 42.1945 30.6441 47.1194 36.7192 47.1194Z" stroke="white" stroke-width="2"/>
</g>
<path fill-rule="evenodd" clip-rule="evenodd" d="M35.0147 33.8312C35.6705 33.8312 36.2021 33.2996 36.2021 32.6438C36.2021 31.9879 35.6705 31.4563 35.0147 31.4563C34.3589 31.4563 33.8272 31.9879 33.8272 32.6438C33.8272 33.2996 34.3589 33.8312 35.0147 33.8312ZM38.2972 33.8312C38.953 33.8312 39.4846 33.2996 39.4846 32.6438C39.4846 31.9879 38.953 31.4563 38.2972 31.4563C37.6414 31.4563 37.1097 31.9879 37.1097 32.6438C37.1097 33.2996 37.6414 33.8312 38.2972 33.8312ZM34.0312 34.8309C34.0312 35.4867 33.4995 36.0183 32.8437 36.0183C32.1879 36.0183 31.6562 35.4867 31.6562 34.8309C31.6562 34.1751 32.1879 33.6434 32.8437 33.6434C33.4995 33.6434 34.0312 34.1751 34.0312 34.8309ZM40.4686 36.0183C41.1244 36.0183 41.6561 35.4867 41.6561 34.8309C41.6561 34.1751 41.1244 33.6434 40.4686 33.6434C39.8128 33.6434 39.2812 34.1751 39.2812 34.8309C39.2812 35.4867 39.8128 36.0183 40.4686 36.0183ZM38.4964 35.3649C38.7839 35.8648 39.1422 36.244 39.6381 36.5398V36.5315C40.6797 37.1523 40.9964 38.5023 40.3922 39.5606C39.7839 40.623 38.5298 40.9772 37.434 40.373C36.8757 40.0689 36.3715 40.1022 35.8174 40.3939C34.3091 41.1897 32.6091 40.1397 32.6091 38.3231C32.6216 37.5939 32.9674 36.9315 33.6966 36.5106C34.1757 36.2357 34.5091 35.869 34.7799 35.3899C35.6049 33.9316 37.659 33.9149 38.4964 35.3649Z" fill="white"/>
<defs>
<filter id="filter0_d_3490_56699" x="20.7192" y="22.1194" width="32" height="32" filterUnits="userSpaceOnUse" color-interpolation-filters="sRGB">
<feFlood flood-opacity="0" result="BackgroundImageFix"/>
<feColorMatrix in="SourceAlpha" type="matrix" values="0 0 0 0 0 0 0 0 0 0 0 0 0 0 0 0 0 0 127 0" result="hardAlpha"/>
<feOffset dy="2"/>
<feGaussianBlur stdDeviation="2"/>
<feComposite in2="hardAlpha" operator="out"/>
<feColorMatrix type="matrix" values="0 0 0 0 0.960784 0 0 0 0 0.576471 0 0 0 0 0 0 0 0 0.3 0"/>
<feBlend mode="normal" in2="BackgroundImageFix" result="effect1_dropShadow_3490_56699"/>
<feBlend mode="normal" in="SourceGraphic" in2="effect1_dropShadow_3490_56699" result="shape"/>
</filter>
</defs>
</svg>
