<svg width="24" height="24" viewBox="0 0 24 24" fill="none" xmlns="http://www.w3.org/2000/svg">
<path d="M11.4835 16.2643L16.2649 11.4829C16.6292 11.1185 17.0401 11.3481 18.025 11.3481C21.5651 11.3481 21.6577 7.54451 18.5788 6.82296C18.2932 6.75595 18.0337 6.49648 17.9667 6.21112C17.2447 3.13232 13.4415 3.22483 13.4412 6.7648C13.4412 7.74948 13.6708 8.16042 13.3064 8.52489L8.52503 13.3059C8.16066 13.6704 7.74976 13.4407 6.76494 13.4407C3.22483 13.4407 3.13222 17.2443 6.21126 17.9662C6.49688 18.0332 6.75635 18.2927 6.8231 18.578C7.54505 21.6568 11.3486 21.5643 11.3486 18.0244C11.3489 17.0396 11.1191 16.6286 11.4835 16.2641L11.4835 16.2643Z" fill="#333333"/>
<path d="M11.4835 16.2643L16.2649 11.4829C16.6292 11.1185 17.0401 11.3481 18.025 11.3481C21.5651 11.3481 21.6577 7.54451 18.5788 6.82296C18.2932 6.75595 18.0337 6.49648 17.9667 6.21112C17.2447 3.13232 13.4415 3.22483 13.4412 6.7648C13.4412 7.74948 13.6708 8.16042 13.3064 8.52489L8.52503 13.3059C8.16066 13.6704 7.74976 13.4407 6.76494 13.4407C3.22483 13.4407 3.13222 17.2443 6.21126 17.9662C6.49688 18.0332 6.75635 18.2927 6.8231 18.578C7.54505 21.6568 11.3486 21.5643 11.3486 18.0244C11.3489 17.0396 11.1191 16.6286 11.4835 16.2641L11.4835 16.2643Z" fill="#333333"/>
</svg>
