<svg width="24" height="24" viewBox="0 0 24 24" fill="none" xmlns="http://www.w3.org/2000/svg">
<path fill-rule="evenodd" clip-rule="evenodd" d="M16.0501 10.075C16.0501 13.3749 13.3749 16.0501 10.075 16.0501C6.77511 16.0501 4.1 13.3749 4.1 10.075C4.1 6.77511 6.77511 4.1 10.075 4.1C13.3749 4.1 16.0501 6.77511 16.0501 10.075ZM15.3194 16.2155C13.9085 17.4217 12.0768 18.1501 10.075 18.1501C5.61531 18.1501 2 14.5347 2 10.075C2 5.61531 5.61531 2 10.075 2C14.5347 2 18.1501 5.61531 18.1501 10.075C18.1501 11.776 17.6241 13.3541 16.726 14.6557L22.3068 19.356L21.0001 21L15.3194 16.2155Z" fill="#333333"/>
</svg>
