<svg width="375" height="240" viewBox="0 0 375 240" fill="none" xmlns="http://www.w3.org/2000/svg">
<line opacity="0.5" y1="14.75" x2="375" y2="14.75" stroke="#49C6FE" stroke-width="0.5"/>
<line opacity="0.5" y1="29.75" x2="375" y2="29.75" stroke="#49C6FE" stroke-width="0.5"/>
<line opacity="0.5" y1="44.75" x2="375" y2="44.75" stroke="#49C6FE" stroke-width="0.5"/>
<line opacity="0.5" y1="59.75" x2="375" y2="59.75" stroke="#49C6FE" stroke-width="0.5"/>
<line opacity="0.5" y1="74.75" x2="375" y2="74.75" stroke="#49C6FE" stroke-width="0.5"/>
<line opacity="0.5" y1="89.75" x2="375" y2="89.75" stroke="#49C6FE" stroke-width="0.5"/>
<line opacity="0.5" y1="104.75" x2="375" y2="104.75" stroke="#49C6FE" stroke-width="0.5"/>
<line opacity="0.5" y1="119.75" x2="375" y2="119.75" stroke="#49C6FE" stroke-width="0.5"/>
<line opacity="0.5" y1="134.75" x2="375" y2="134.75" stroke="#49C6FE" stroke-width="0.5"/>
<line opacity="0.5" y1="149.75" x2="375" y2="149.75" stroke="#49C6FE" stroke-width="0.5"/>
<line opacity="0.5" y1="164.75" x2="375" y2="164.75" stroke="#49C6FE" stroke-width="0.5"/>
<line opacity="0.5" y1="179.75" x2="375" y2="179.75" stroke="#49C6FE" stroke-width="0.5"/>
<line opacity="0.5" y1="194.75" x2="375" y2="194.75" stroke="#49C6FE" stroke-width="0.5"/>
<line opacity="0.5" y1="209.75" x2="375" y2="209.75" stroke="#49C6FE" stroke-width="0.5"/>
<line opacity="0.5" y1="224.75" x2="375" y2="224.75" stroke="#49C6FE" stroke-width="0.5"/>
<line opacity="0.5" x1="15.25" y1="1.09278e-08" x2="15.25" y2="240" stroke="#49C6FE" stroke-width="0.5"/>
<line opacity="0.5" x1="30.25" y1="1.09278e-08" x2="30.25" y2="240" stroke="#49C6FE" stroke-width="0.5"/>
<line opacity="0.5" x1="45.25" y1="1.09278e-08" x2="45.25" y2="240" stroke="#49C6FE" stroke-width="0.5"/>
<line opacity="0.5" x1="60.25" y1="1.09278e-08" x2="60.25" y2="240" stroke="#49C6FE" stroke-width="0.5"/>
<line opacity="0.5" x1="75.25" y1="1.09278e-08" x2="75.25" y2="240" stroke="#49C6FE" stroke-width="0.5"/>
<line opacity="0.5" x1="90.25" y1="1.09278e-08" x2="90.25" y2="240" stroke="#49C6FE" stroke-width="0.5"/>
<line opacity="0.5" x1="105.25" y1="1.09278e-08" x2="105.25" y2="240" stroke="#49C6FE" stroke-width="0.5"/>
<line opacity="0.5" x1="120.25" y1="1.09278e-08" x2="120.25" y2="240" stroke="#49C6FE" stroke-width="0.5"/>
<line opacity="0.5" x1="135.25" y1="1.09278e-08" x2="135.25" y2="240" stroke="#49C6FE" stroke-width="0.5"/>
<line opacity="0.5" x1="150.25" y1="1.09278e-08" x2="150.25" y2="240" stroke="#49C6FE" stroke-width="0.5"/>
<line opacity="0.5" x1="165.25" y1="1.09278e-08" x2="165.25" y2="240" stroke="#49C6FE" stroke-width="0.5"/>
<line opacity="0.5" x1="180.25" y1="1.09278e-08" x2="180.25" y2="240" stroke="#49C6FE" stroke-width="0.5"/>
<line opacity="0.5" x1="195.25" y1="1.09278e-08" x2="195.25" y2="240" stroke="#49C6FE" stroke-width="0.5"/>
<line opacity="0.5" x1="210.25" y1="1.09278e-08" x2="210.25" y2="240" stroke="#49C6FE" stroke-width="0.5"/>
<line opacity="0.5" x1="225.25" y1="1.09278e-08" x2="225.25" y2="240" stroke="#49C6FE" stroke-width="0.5"/>
<line opacity="0.5" x1="240.25" y1="1.09278e-08" x2="240.25" y2="240" stroke="#49C6FE" stroke-width="0.5"/>
<line opacity="0.5" x1="255.25" y1="1.09278e-08" x2="255.25" y2="240" stroke="#49C6FE" stroke-width="0.5"/>
<line opacity="0.5" x1="270.25" y1="1.09278e-08" x2="270.25" y2="240" stroke="#49C6FE" stroke-width="0.5"/>
<line opacity="0.5" x1="285.25" y1="1.09278e-08" x2="285.25" y2="240" stroke="#49C6FE" stroke-width="0.5"/>
<line opacity="0.5" x1="300.25" y1="1.09278e-08" x2="300.25" y2="240" stroke="#49C6FE" stroke-width="0.5"/>
<line opacity="0.5" x1="315.25" y1="1.09278e-08" x2="315.25" y2="240" stroke="#49C6FE" stroke-width="0.5"/>
<line opacity="0.5" x1="330.25" y1="1.09278e-08" x2="330.25" y2="240" stroke="#49C6FE" stroke-width="0.5"/>
<line opacity="0.5" x1="345.25" y1="1.09278e-08" x2="345.25" y2="240" stroke="#49C6FE" stroke-width="0.5"/>
<line opacity="0.5" x1="360.25" y1="1.09278e-08" x2="360.25" y2="240" stroke="#49C6FE" stroke-width="0.5"/>
</svg>
