<svg width="80" height="90" viewBox="0 0 80 90" fill="none" xmlns="http://www.w3.org/2000/svg">
<g filter="url(#filter0_d_3490_54206)">
<path d="M37.6309 13.3738C24.2151 13.3738 13.3438 24.267 13.3438 37.7097C13.3438 43.8249 15.6034 49.4052 19.3221 53.6841L19.42 53.791C19.8114 54.2368 20.2118 54.6646 20.6388 55.0836L35.4157 70.7371C36.6256 72.0207 38.654 72.0207 39.8639 70.7371L54.6497 55.0836C55.0678 54.6736 55.4682 54.2457 55.8507 53.8089L55.9575 53.7019H55.9486C59.6673 49.4231 61.927 43.8427 61.927 37.7275C61.927 24.2938 51.0556 13.3916 37.6398 13.3916L37.6309 13.3738Z" fill="white"/>
</g>
<path opacity="0.2" d="M37.6307 57.0805C48.3074 57.0805 56.9626 48.4079 56.9626 37.7098C56.9626 27.0117 48.3074 18.3391 37.6307 18.3391C26.954 18.3391 18.2988 27.0117 18.2988 37.7098C18.2988 48.4079 26.954 57.0805 37.6307 57.0805Z" fill="#E5E7EB"/>
<path d="M47.9598 33.6003H26.4483V36.5777C26.4483 36.6758 26.4572 36.7738 26.475 36.863H26.4483C26.4483 40.7763 28.5301 44.1994 31.6349 46.0892H27.6316C26.9732 46.0892 26.4395 46.6241 26.4395 47.2837C26.4395 47.9434 26.9732 48.4782 27.6316 48.4782H46.7677C47.4261 48.4782 47.9598 47.9434 47.9598 47.2837C47.9598 46.6241 47.4261 46.0892 46.7677 46.0892H42.7643C44.8372 44.8323 46.4563 42.889 47.3015 40.5713C47.515 40.607 47.7285 40.6337 47.9509 40.6337C49.8904 40.6337 51.4561 39.0559 51.4561 37.1215C51.4561 35.1871 49.8815 33.6093 47.9509 33.6093L47.9598 33.6003ZM47.9598 38.5032C47.9598 38.5032 47.8798 38.5032 47.8353 38.4943C47.9154 37.9683 47.9598 37.4246 47.9598 36.8719H47.9331C47.9509 36.7827 47.9598 36.6847 47.9598 36.5866V35.7398C48.7249 35.7398 49.3388 36.3638 49.3388 37.1215C49.3388 37.8792 48.716 38.5032 47.9598 38.5032Z" fill="#E5E7EB"/>
<path d="M30.5142 28.7064C30.8166 28.8491 30.8611 29.1254 30.8611 29.2413C30.8611 29.3572 30.8433 29.6335 30.5586 29.8029L29.7669 30.2664C29.411 30.4715 29.2954 30.9261 29.5089 31.2827C29.6512 31.5144 29.8914 31.6481 30.1494 31.6481C30.274 31.6481 30.4074 31.6125 30.5231 31.5412L31.3148 31.0776C31.9821 30.6854 32.3735 29.9544 32.3379 29.1789C32.3023 28.4033 31.8486 27.708 31.1547 27.3782C30.8611 27.2356 30.8166 26.9682 30.8077 26.8612C30.8077 26.7542 30.8077 26.4779 31.0835 26.2996L31.9732 25.7202C32.3112 25.4973 32.4091 25.0338 32.1867 24.695C31.9643 24.3474 31.5017 24.2582 31.1636 24.4811L30.274 25.0605C29.6334 25.4795 29.2776 26.1926 29.3309 26.9592C29.3843 27.7259 29.8202 28.3855 30.5142 28.7153V28.7064Z" fill="#E5E7EB"/>
<path d="M36.519 28.7064C36.8215 28.8491 36.866 29.1254 36.866 29.2413C36.866 29.3572 36.8482 29.6335 36.5635 29.8029L35.7717 30.2664C35.4159 30.4715 35.3002 30.9261 35.5138 31.2827C35.6561 31.5144 35.8963 31.6481 36.1543 31.6481C36.2788 31.6481 36.4123 31.6125 36.5279 31.5412L37.3197 31.0776C37.9869 30.6854 38.3784 29.9544 38.3428 29.1789C38.3072 28.4033 37.8535 27.708 37.1596 27.3782C36.866 27.2356 36.8215 26.9682 36.8126 26.8612C36.8126 26.7542 36.8126 26.4779 37.0884 26.2996L37.9781 25.7202C38.3161 25.4973 38.414 25.0338 38.1916 24.695C37.9692 24.3474 37.5065 24.2582 37.1685 24.4811L36.2788 25.0605C35.6383 25.4795 35.2824 26.1926 35.3358 26.9592C35.3892 27.7259 35.8251 28.3855 36.519 28.7153V28.7064Z" fill="#E5E7EB"/>
<path d="M42.5332 28.7064C42.8357 28.8491 42.8802 29.1254 42.8802 29.2413C42.8802 29.3572 42.8624 29.6335 42.5777 29.8029L41.7859 30.2664C41.4301 30.4715 41.3144 30.9261 41.5279 31.2827C41.6703 31.5144 41.9105 31.6481 42.1685 31.6481C42.293 31.6481 42.4264 31.6125 42.5421 31.5412L43.3339 31.0776C44.0011 30.6854 44.3926 29.9544 44.357 29.1789C44.3214 28.4033 43.8677 27.708 43.1737 27.3782C42.8802 27.2356 42.8357 26.9682 42.8268 26.8612C42.8268 26.7542 42.8268 26.4779 43.1026 26.2996L43.9922 25.7202C44.3303 25.4973 44.4281 25.0338 44.2057 24.695C43.9833 24.3474 43.5207 24.2582 43.1826 24.4811L42.293 25.0605C41.6525 25.4795 41.2966 26.1926 41.35 26.9592C41.4034 27.7259 41.8393 28.3855 42.5332 28.7153V28.7064Z" fill="#E5E7EB"/>
<defs>
<filter id="filter0_d_3490_54206" x="4.83375" y="4.86378" width="71.263" height="81.0059" filterUnits="userSpaceOnUse" color-interpolation-filters="sRGB">
<feFlood flood-opacity="0" result="BackgroundImageFix"/>
<feColorMatrix in="SourceAlpha" type="matrix" values="0 0 0 0 0 0 0 0 0 0 0 0 0 0 0 0 0 0 127 0" result="hardAlpha"/>
<feOffset dx="2.83" dy="2.83"/>
<feGaussianBlur stdDeviation="5.67"/>
<feColorMatrix type="matrix" values="0 0 0 0 0 0 0 0 0 0 0 0 0 0 0 0 0 0 0.15 0"/>
<feBlend mode="normal" in2="BackgroundImageFix" result="effect1_dropShadow_3490_54206"/>
<feBlend mode="normal" in="SourceGraphic" in2="effect1_dropShadow_3490_54206" result="shape"/>
</filter>
</defs>
</svg>
