<svg width="24" height="24" viewBox="0 0 24 24" fill="none" xmlns="http://www.w3.org/2000/svg">
<path d="M3 6.50078V9.35932C3 9.81342 3.36604 10.186 3.82505 10.186H4.48741V19.6058C4.48741 20.0599 4.85345 20.4325 5.31246 20.4325H7.7876V14.7154H16.4216V20.4325H18.6875C19.1407 20.4325 19.5126 20.0657 19.5126 19.6058V10.186H20.175C20.6281 10.186 21 9.81924 21 9.35932V6.50078C21 6.04667 20.634 5.67407 20.175 5.67407H3.82505C3.37185 5.67407 3 6.04085 3 6.50078V6.50078Z" fill="#00B189"/>
<path d="M15.5906 12.4688H8.60679C8.15359 12.4688 7.78174 12.8355 7.78174 13.2955V20.4272H16.4157V13.2955C16.4157 12.8414 16.0497 12.4688 15.5906 12.4688V12.4688Z" fill="white"/>
<path d="M13.9 17.5097C13.6501 17.5097 13.4468 17.306 13.4468 17.0556V15.7632C13.4468 15.5128 13.6501 15.3091 13.9 15.3091C14.1498 15.3091 14.3532 15.5128 14.3532 15.7632V17.0556C14.3532 17.306 14.1498 17.5097 13.9 17.5097Z" fill="#231916"/>
<path d="M10.2979 17.5097C10.0481 17.5097 9.84473 17.306 9.84473 17.0556V15.7632C9.84473 15.5128 10.0481 15.3091 10.2979 15.3091C10.5478 15.3091 10.7511 15.5128 10.7511 15.7632V17.0556C10.7511 17.306 10.5478 17.5097 10.2979 17.5097Z" fill="#231916"/>
<path d="M12.0986 11.2225C14.778 11.2225 16.9501 9.04606 16.9501 6.36126C16.9501 3.67646 14.778 1.5 12.0986 1.5C9.41917 1.5 7.24707 3.67646 7.24707 6.36126C7.24707 9.04606 9.41917 11.2225 12.0986 11.2225Z" fill="white"/>
<path d="M15.3292 5.19144H13.1794V3.03735H11.018V5.19144H8.87402V7.35136H11.018V9.50545H13.1794V7.35136H15.3292V5.19144Z" fill="#FF5C35"/>
</svg>
