<svg width="25" height="24" viewBox="0 0 25 24" fill="none" xmlns="http://www.w3.org/2000/svg">
<path d="M20.66 7.8C20.57 7.34 20.16 7 19.68 7H5.32C4.84 7 4.43 7.34 4.34 7.8L3.5 12V13C3.5 13.55 3.95 14 4.5 14V19C4.5 19.55 4.95 20 5.5 20H13.5C14.05 20 14.5 19.55 14.5 19V14H18.5V19C18.5 19.55 18.95 20 19.5 20C20.05 20 20.5 19.55 20.5 19V14C21.05 14 21.5 13.55 21.5 13V12L20.66 7.8ZM12.5 18H6.5V14H12.5V18ZM5.5 6H19.5C20.05 6 20.5 5.55 20.5 5C20.5 4.45 20.05 4 19.5 4H5.5C4.95 4 4.5 4.45 4.5 5C4.5 5.55 4.95 6 5.5 6Z" fill="white"/>
</svg>
