<svg width="72" height="72" viewBox="0 0 72 72" fill="none" xmlns="http://www.w3.org/2000/svg">
<path fill-rule="evenodd" clip-rule="evenodd" d="M36 72C55.8822 72 72 55.8822 72 36C72 16.1178 55.8822 0 36 0C16.1178 0 0 16.1178 0 36C0 55.8822 16.1178 72 36 72Z" fill="#1F86FF" fill-opacity="0.16"/>
<path fill-rule="evenodd" clip-rule="evenodd" d="M36 56C47.0457 56 56 47.0457 56 36C56 24.9543 47.0457 16 36 16C24.9543 16 16 24.9543 16 36C16 47.0457 24.9543 56 36 56Z" fill="#1F78FF"/>
<path fill-rule="evenodd" clip-rule="evenodd" d="M33.0137 31.9872C34.2067 31.9872 35.1739 31.0201 35.1739 29.8271C35.1739 28.6341 34.2067 27.667 33.0137 27.667C31.8207 27.667 30.8536 28.6341 30.8536 29.8271C30.8536 31.0201 31.8207 31.9872 33.0137 31.9872ZM38.9862 31.9872C40.1792 31.9872 41.1463 31.0201 41.1463 29.8271C41.1463 28.6341 40.1792 27.667 38.9862 27.667C37.7932 27.667 36.8261 28.6341 36.8261 29.8271C36.8261 31.0201 37.7932 31.9872 38.9862 31.9872ZM31.2253 33.8058C31.2253 34.9988 30.2582 35.9659 29.0652 35.9659C27.8722 35.9659 26.905 34.9988 26.905 33.8058C26.905 32.6128 27.8722 31.6457 29.0652 31.6457C30.2582 31.6457 31.2253 32.6128 31.2253 33.8058ZM42.9356 35.9659C44.1286 35.9659 45.0957 34.9988 45.0957 33.8058C45.0957 32.6128 44.1286 31.6457 42.9356 31.6457C41.7426 31.6457 40.7755 32.6128 40.7755 33.8058C40.7755 34.9988 41.7426 35.9659 42.9356 35.9659ZM39.3506 34.7772C39.8735 35.6867 40.5254 36.3764 41.4273 36.9146V36.8994C43.3222 38.0288 43.8982 40.4845 42.7992 42.4096C41.6926 44.3424 39.4112 44.9866 37.4178 43.8876C36.4022 43.3343 35.4851 43.395 34.477 43.9255C31.7333 45.3732 28.6409 43.4632 28.6409 40.1586C28.6636 38.8322 29.2927 37.627 30.6191 36.8615C31.4907 36.3613 32.0971 35.6943 32.5897 34.8227C34.0905 32.1699 37.8271 32.1396 39.3506 34.7772Z" fill="white"/>
<path d="M36 4.06836L41.1962 12.3184H30.8038L36 4.06836Z" fill="#1F78FF"/>
</svg>
