<svg width="24" height="24" viewBox="0 0 24 24" fill="none" xmlns="http://www.w3.org/2000/svg">
<circle cx="12" cy="12" r="12" fill="#D4D8E1"/>
<path fill-rule="evenodd" clip-rule="evenodd" d="M9.63245 7.94645C10.7222 7.94645 11.6057 7.06301 11.6057 5.97322C11.6057 4.88344 10.7222 4 9.63245 4C8.54267 4 7.65923 4.88344 7.65923 5.97322C7.65923 7.06301 8.54267 7.94645 9.63245 7.94645ZM6.08065 11.1036C7.17043 11.1036 8.05387 10.2202 8.05387 9.13038C8.05387 8.0406 7.17043 7.15716 6.08065 7.15716C4.99086 7.15716 4.10742 8.0406 4.10742 9.13038C4.10742 10.2202 4.99086 11.1036 6.08065 11.1036ZM16.3414 5.97322C16.3414 7.06301 15.458 7.94645 14.3682 7.94645C13.2784 7.94645 12.395 7.06301 12.395 5.97322C12.395 4.88344 13.2784 4 14.3682 4C15.458 4 16.3414 4.88344 16.3414 5.97322ZM17.92 11.1036C19.0098 11.1036 19.8932 10.2202 19.8932 9.13038C19.8932 8.0406 19.0098 7.15716 17.92 7.15716C16.8302 7.15716 15.9468 8.0406 15.9468 9.13038C15.9468 10.2202 16.8302 11.1036 17.92 11.1036ZM15.5074 12.5287C15.7361 12.7982 15.9683 13.072 16.2149 13.361C16.2764 13.4225 16.3387 13.4844 16.4015 13.5467C17.3946 14.5327 18.505 15.6352 18.2749 17.1496C18.046 17.9468 17.4698 18.7518 16.4359 18.9807C16.1707 19.0316 15.638 18.9621 14.9495 18.8722C14.1419 18.7668 13.1198 18.6334 12.0632 18.6334H11.9211C10.8734 18.6334 9.85963 18.7668 9.05526 18.8727C8.3568 18.9646 7.81624 19.0357 7.54845 18.9807C6.51448 18.7518 5.9383 17.9546 5.70941 17.1496C5.48681 15.6433 6.5965 14.5416 7.5893 13.556C7.65259 13.4932 7.71539 13.4308 7.77735 13.3689C8.22256 12.8528 8.61914 12.3854 9.02735 11.9043C9.25598 11.6348 9.48826 11.3611 9.73479 11.072C10.1058 10.6458 10.5635 10.2196 11.116 10.0302C11.2029 9.9986 11.2897 9.97493 11.3765 9.95914C11.5817 9.91968 11.7948 9.91968 12 9.91968C12.2053 9.91968 12.4184 9.91968 12.6157 9.95125C12.7025 9.96703 12.7893 9.99071 12.8762 10.0223C13.4287 10.2117 13.8943 10.6379 14.2574 11.0641C14.7026 11.5802 15.0992 12.0476 15.5074 12.5287Z" fill="#F1F2F5"/>
</svg>
