<svg width="16" height="16" viewBox="0 0 16 16" fill="none" xmlns="http://www.w3.org/2000/svg">
<path d="M15.3327 8L13.706 6.14L13.9327 3.68L11.526 3.13333L10.266 1L7.99935 1.97333L5.73268 1L4.47268 3.12667L2.06602 3.66667L2.29268 6.13333L0.666016 8L2.29268 9.86L2.06602 12.3267L4.47268 12.8733L5.73268 15L7.99935 14.02L10.266 14.9933L11.526 12.8667L13.9327 12.32L13.706 9.86L15.3327 8ZM6.25268 10.6733L4.66602 9.07333C4.40602 8.81333 4.40602 8.39333 4.66602 8.13333L4.71268 8.08667C4.97268 7.82667 5.39935 7.82667 5.65935 8.08667L6.73268 9.16667L10.166 5.72667C10.426 5.46667 10.8527 5.46667 11.1127 5.72667L11.1593 5.77333C11.4193 6.03333 11.4193 6.45333 11.1593 6.71333L7.21268 10.6733C6.93935 10.9333 6.51935 10.9333 6.25268 10.6733Z" fill="#13CEA1"/>
</svg>
