<svg width="200" height="150" viewBox="0 0 200 150" fill="none" xmlns="http://www.w3.org/2000/svg">
<rect width="200" height="150" fill="#F1F2F5"/>
<path d="M124.507 81.5062L122.427 79.4262L116 72.9996L103.76 60.7596L77.5735 34.5729L75.4935 32.4929C74.4535 31.4529 72.7735 31.4529 71.7335 32.4929C70.6669 33.5329 70.6669 35.2129 71.7069 36.2529L76.0002 40.5462V75.6662C76.0002 78.5996 78.4002 80.9996 81.3335 80.9996H116.454L120.747 85.2929C121.787 86.3329 123.467 86.3329 124.507 85.2929C125.547 84.2529 125.547 82.5462 124.507 81.5062ZM84.0535 72.9996C82.9335 72.9996 82.3202 71.7196 83.0135 70.8396L89.6535 62.3062C90.1869 61.6396 91.2002 61.6129 91.7335 62.2796L97.3335 69.0262L100.454 64.9996L108.454 72.9996H84.0535ZM124 73.4529L83.5469 32.9996H118.667C121.6 32.9996 124 35.3996 124 38.3329V73.4529Z" fill="#D4D8E1"/>
<path d="M68.7704 117H65.6924L60.5444 109.206V117H57.4664V104.364H60.5444L65.6924 112.194V104.364H68.7704V117ZM75.3735 117.144C74.3895 117.144 73.5015 116.934 72.7095 116.514C71.9295 116.094 71.3115 115.494 70.8555 114.714C70.4115 113.934 70.1895 113.022 70.1895 111.978C70.1895 110.946 70.4175 110.04 70.8735 109.26C71.3295 108.468 71.9535 107.862 72.7455 107.442C73.5375 107.022 74.4255 106.812 75.4095 106.812C76.3935 106.812 77.2815 107.022 78.0735 107.442C78.8655 107.862 79.4895 108.468 79.9455 109.26C80.4015 110.04 80.6295 110.946 80.6295 111.978C80.6295 113.01 80.3955 113.922 79.9275 114.714C79.4715 115.494 78.8415 116.094 78.0375 116.514C77.2455 116.934 76.3575 117.144 75.3735 117.144ZM75.3735 114.48C75.9615 114.48 76.4595 114.264 76.8675 113.832C77.2875 113.4 77.4975 112.782 77.4975 111.978C77.4975 111.174 77.2935 110.556 76.8855 110.124C76.4895 109.692 75.9975 109.476 75.4095 109.476C74.8095 109.476 74.3115 109.692 73.9155 110.124C73.5195 110.544 73.3215 111.162 73.3215 111.978C73.3215 112.782 73.5135 113.4 73.8975 113.832C74.2935 114.264 74.7855 114.48 75.3735 114.48ZM87.2249 105.912C86.6849 105.912 86.2409 105.756 85.8929 105.444C85.5569 105.12 85.3889 104.724 85.3889 104.256C85.3889 103.776 85.5569 103.38 85.8929 103.068C86.2409 102.744 86.6849 102.582 87.2249 102.582C87.7529 102.582 88.1849 102.744 88.5209 103.068C88.8689 103.38 89.0429 103.776 89.0429 104.256C89.0429 104.724 88.8689 105.12 88.5209 105.444C88.1849 105.756 87.7529 105.912 87.2249 105.912ZM88.7549 106.956V117H85.6769V106.956H88.7549ZM103.602 106.848C104.85 106.848 105.84 107.226 106.572 107.982C107.316 108.738 107.688 109.788 107.688 111.132V117H104.628V111.546C104.628 110.898 104.454 110.4 104.106 110.052C103.77 109.692 103.302 109.512 102.702 109.512C102.102 109.512 101.628 109.692 101.28 110.052C100.944 110.4 100.776 110.898 100.776 111.546V117H97.7155V111.546C97.7155 110.898 97.5415 110.4 97.1935 110.052C96.8575 109.692 96.3895 109.512 95.7895 109.512C95.1895 109.512 94.7155 109.692 94.3675 110.052C94.0315 110.4 93.8635 110.898 93.8635 111.546V117H90.7855V106.956H93.8635V108.216C94.1755 107.796 94.5835 107.466 95.0875 107.226C95.5915 106.974 96.1615 106.848 96.7975 106.848C97.5535 106.848 98.2255 107.01 98.8135 107.334C99.4135 107.658 99.8815 108.12 100.218 108.72C100.566 108.168 101.04 107.718 101.64 107.37C102.24 107.022 102.894 106.848 103.602 106.848ZM109.028 111.96C109.028 110.928 109.22 110.022 109.604 109.242C110 108.462 110.534 107.862 111.206 107.442C111.878 107.022 112.628 106.812 113.456 106.812C114.164 106.812 114.782 106.956 115.31 107.244C115.85 107.532 116.264 107.91 116.552 108.378V106.956H119.63V117H116.552V115.578C116.252 116.046 115.832 116.424 115.292 116.712C114.764 117 114.146 117.144 113.438 117.144C112.622 117.144 111.878 116.934 111.206 116.514C110.534 116.082 110 115.476 109.604 114.696C109.22 113.904 109.028 112.992 109.028 111.96ZM116.552 111.978C116.552 111.21 116.336 110.604 115.904 110.16C115.484 109.716 114.968 109.494 114.356 109.494C113.744 109.494 113.222 109.716 112.79 110.16C112.37 110.592 112.16 111.192 112.16 111.96C112.16 112.728 112.37 113.34 112.79 113.796C113.222 114.24 113.744 114.462 114.356 114.462C114.968 114.462 115.484 114.24 115.904 113.796C116.336 113.352 116.552 112.746 116.552 111.978ZM125.473 106.812C126.181 106.812 126.799 106.956 127.327 107.244C127.867 107.532 128.281 107.91 128.569 108.378V106.956H131.647V116.982C131.647 117.906 131.461 118.74 131.089 119.484C130.729 120.24 130.171 120.84 129.415 121.284C128.671 121.728 127.741 121.95 126.625 121.95C125.137 121.95 123.931 121.596 123.007 120.888C122.083 120.192 121.555 119.244 121.423 118.044H124.465C124.561 118.428 124.789 118.728 125.149 118.944C125.509 119.172 125.953 119.286 126.481 119.286C127.117 119.286 127.621 119.1 127.993 118.728C128.377 118.368 128.569 117.786 128.569 116.982V115.56C128.269 116.028 127.855 116.412 127.327 116.712C126.799 117 126.181 117.144 125.473 117.144C124.645 117.144 123.895 116.934 123.223 116.514C122.551 116.082 122.017 115.476 121.621 114.696C121.237 113.904 121.045 112.992 121.045 111.96C121.045 110.928 121.237 110.022 121.621 109.242C122.017 108.462 122.551 107.862 123.223 107.442C123.895 107.022 124.645 106.812 125.473 106.812ZM128.569 111.978C128.569 111.21 128.353 110.604 127.921 110.16C127.501 109.716 126.985 109.494 126.373 109.494C125.761 109.494 125.239 109.716 124.807 110.16C124.387 110.592 124.177 111.192 124.177 111.96C124.177 112.728 124.387 113.34 124.807 113.796C125.239 114.24 125.761 114.462 126.373 114.462C126.985 114.462 127.501 114.24 127.921 113.796C128.353 113.352 128.569 112.746 128.569 111.978ZM143.142 111.816C143.142 112.104 143.124 112.404 143.088 112.716H136.122C136.17 113.34 136.368 113.82 136.716 114.156C137.076 114.48 137.514 114.642 138.03 114.642C138.798 114.642 139.332 114.318 139.632 113.67H142.908C142.74 114.33 142.434 114.924 141.99 115.452C141.558 115.98 141.012 116.394 140.352 116.694C139.692 116.994 138.954 117.144 138.138 117.144C137.154 117.144 136.278 116.934 135.51 116.514C134.742 116.094 134.142 115.494 133.71 114.714C133.278 113.934 133.062 113.022 133.062 111.978C133.062 110.934 133.272 110.022 133.692 109.242C134.124 108.462 134.724 107.862 135.492 107.442C136.26 107.022 137.142 106.812 138.138 106.812C139.11 106.812 139.974 107.016 140.73 107.424C141.486 107.832 142.074 108.414 142.494 109.17C142.926 109.926 143.142 110.808 143.142 111.816ZM139.992 111.006C139.992 110.478 139.812 110.058 139.452 109.746C139.092 109.434 138.642 109.278 138.102 109.278C137.586 109.278 137.148 109.428 136.788 109.728C136.44 110.028 136.224 110.454 136.14 111.006H139.992Z" fill="#D4D8E1"/>
</svg>
