<svg width="375" height="281" viewBox="0 0 375 281" fill="none" xmlns="http://www.w3.org/2000/svg">
<rect width="375" height="281" fill="#F1F2F5"/>
<path d="M163.633 78.0429C153.976 82.5303 145.817 87.877 139.361 93.9603C130.807 102.021 125.277 111.351 122.92 121.676C121.218 129.123 121.899 135.616 124.786 139.53C127.075 142.163 129.935 143.622 132.863 143.622H132.932C134.702 143.622 136.568 143.295 138.462 142.667C142.453 141.372 146.43 138.821 150.298 135.07C162.312 123.504 172.023 101.817 177.689 73.9919L178.003 72.4233L177.662 72.5325C172.813 74.1283 168.114 75.9696 163.701 77.9883L163.646 78.0156L163.633 78.0429Z" fill="white"/>
<path d="M243.771 112.006C243.444 111.392 243.144 110.764 242.858 110.137C242.436 109.182 242.068 108.214 241.741 107.218C241.496 106.222 241.278 105.227 241.087 104.217C240.897 103.208 240.72 102.199 240.556 101.189C240.529 100.207 240.447 99.2254 240.325 98.2433C240.202 97.2613 240.025 96.2929 239.807 95.3108C238.05 85.8995 232.22 79.7071 224.702 75.4106C222.195 73.9785 219.498 72.7645 216.693 71.7143C213.696 70.8277 210.441 70.0912 207.022 69.5592C204.257 69.1773 201.369 69 198.414 69C198.25 69 198.1 69 197.937 69C194.695 69.0682 191.249 69.3819 187.721 69.9821C187.326 70.0366 186.931 70.0912 186.536 70.1594L185.433 75.6016C177.764 113.261 165.084 131.838 155.781 140.799C154.527 142.026 153.247 143.131 151.953 144.154C156.571 154.684 164.893 162.595 175.054 167.369C176.021 167.833 177.015 168.255 178.023 168.651C181.537 169.851 185.065 170.724 188.634 171.338C189.519 171.488 190.418 171.624 191.303 171.747C194.722 172.388 198.155 172.688 201.587 172.688C205.837 172.688 210.059 172.225 214.159 171.393C215.222 171.174 216.27 170.929 217.333 170.67C224.416 168.665 231.349 166.687 236.988 162.8C237.491 162.431 237.927 162.09 238.309 161.777C242.231 158.762 245.201 154.793 247.884 150.824C248.524 149.869 249.124 148.901 249.682 147.905C256.315 135.97 256.016 121.513 243.757 112.033L243.771 112.006Z" fill="white"/>
<path d="M225.339 152.106C217.984 152.106 213.462 148.165 213.271 147.987C212.113 146.964 212.004 145.191 213.04 144.032C214.061 142.872 215.832 142.763 216.99 143.8C217.099 143.895 220.191 146.501 225.339 146.501C230.488 146.501 233.58 143.895 233.702 143.786C234.874 142.791 236.631 142.9 237.652 144.059C238.66 145.218 238.565 146.964 237.407 147.987C237.217 148.151 232.694 152.106 225.339 152.106Z" fill="#F1F2F5"/>
<path d="M199.275 110.315C202.435 110.315 204.996 107.262 204.996 103.496C204.996 99.7291 202.435 96.6758 199.275 96.6758C196.116 96.6758 193.555 99.7291 193.555 103.496C193.555 107.262 196.116 110.315 199.275 110.315Z" fill="#F1F2F5"/>
<path d="M231.002 110.315C234.161 110.315 236.722 107.262 236.722 103.496C236.722 99.7291 234.161 96.6758 231.002 96.6758C227.842 96.6758 225.281 99.7291 225.281 103.496C225.281 107.262 227.842 110.315 231.002 110.315Z" fill="#F1F2F5"/>
<path d="M242.772 133.94L246.177 128.034C248.029 124.828 245.714 120.818 242.023 120.818H235.213C231.522 120.818 229.206 124.828 231.058 128.034L234.463 133.94C236.316 137.145 240.933 137.145 242.772 133.94Z" fill="#F1F2F5"/>
<path d="M210.494 209.339C215.52 198.727 218.517 188.061 219.497 178.282C219.497 178.282 219.497 178.282 219.484 178.282L219.375 178.309L219.266 178.336C218.081 178.636 216.896 178.909 215.738 179.141C210.998 180.109 206.231 180.6 201.586 180.6C197.663 180.6 193.781 180.246 190.049 179.564C189.123 179.441 188.197 179.291 187.284 179.127C183.225 178.418 179.248 177.422 175.475 176.14L175.298 176.086L175.121 176.018C173.977 175.567 172.819 175.063 171.689 174.531C163.734 170.794 157.005 165.515 151.829 159.077C146.817 164.588 142.118 170.971 138.018 178.091C135.893 181.773 134.041 185.483 132.406 189.193C147.321 203.324 167.425 211.999 189.573 211.999C196.792 211.999 203.793 211.071 210.48 209.339H210.494Z" fill="white"/>
</svg>
