<svg width="65" height="64" viewBox="0 0 65 64" fill="none" xmlns="http://www.w3.org/2000/svg">
<path d="M32.4997 5.33337C17.7797 5.33337 5.83301 17.28 5.83301 32C5.83301 46.72 17.7797 58.6667 32.4997 58.6667C47.2197 58.6667 59.1663 46.72 59.1663 32C59.1663 17.28 47.2197 5.33337 32.4997 5.33337ZM25.273 43.44L15.6997 33.8667C14.6597 32.8267 14.6597 31.1467 15.6997 30.1067C16.7397 29.0667 18.4197 29.0667 19.4597 30.1067L27.1663 37.7867L45.513 19.44C46.553 18.4 48.233 18.4 49.273 19.44C50.313 20.48 50.313 22.16 49.273 23.2L29.033 43.44C28.0197 44.48 26.313 44.48 25.273 43.44Z" fill="#FF9015"/>
</svg>
