<svg width="70" height="78" viewBox="0 0 70 78" fill="none" xmlns="http://www.w3.org/2000/svg">
<g filter="url(#filter0_d_3530_55042)">
<path d="M57.3464 39.0542L48.7393 27.8916C48.0764 26.7936 47.2991 25.7643 46.3732 24.8379C43.3099 21.7156 39.2407 20 34.9314 20C28.8733 20 23.581 23.4311 20.7692 28.4978L12.6765 39.0657C10.9962 41.2501 10.0589 44.0637 10.0017 46.9916C9.95602 49.9195 10.8133 52.7788 12.4136 55.0319C13.3966 56.4158 14.7796 57.1592 16.2542 57.1592C16.6199 57.1592 16.9971 57.1134 17.3858 57.0105C19.4661 56.4729 20.9978 54.5515 21.2835 52.1154L21.5464 49.8737C22.438 50.6515 23.4553 51.3834 24.6326 52.0582C28.0503 54.0254 32.3824 55.3407 35.4229 55.3407C38.4634 55.3407 42.7841 54.0025 46.2132 52.0125C47.0705 51.5207 47.8249 50.9831 48.5221 50.4456L48.7165 52.1268C49.0022 54.5629 50.5339 56.4844 52.6142 57.0219C52.9914 57.1134 53.3686 57.1706 53.7458 57.1706C55.2204 57.1706 56.6034 56.4158 57.5864 55.0433C59.1867 52.7902 60.044 49.9309 59.9983 47.003C59.9525 44.0751 59.0038 41.2616 57.3235 39.0657L57.3464 39.0542Z" stroke="white" stroke-width="5" stroke-linecap="round" stroke-linejoin="round" shape-rendering="crispEdges"/>
</g>
<path d="M23.993 25.0771L20.8039 52.0802C20.2667 56.6779 15.3288 58.3363 12.7912 54.7679C9.59072 50.2731 9.70503 43.7082 13.0313 39.3621L23.9816 25.0771H23.993Z" fill="#BD8556"/>
<path d="M16.2542 57.1702C14.7796 57.1702 13.3966 56.4153 12.4136 55.0429C10.8133 52.7898 9.95602 49.9305 10.0017 47.0026C10.0475 44.0747 10.9962 41.2612 12.6764 39.0767L23.6268 24.7917C23.7525 24.6202 23.9811 24.563 24.1754 24.643C24.3697 24.7231 24.4955 24.929 24.4726 25.1348L21.2835 52.1378C20.9978 54.5739 19.4661 56.4954 17.3858 57.0329C17.0086 57.1244 16.6314 57.1816 16.2542 57.1816V57.1702ZM23.3296 26.7246L13.4309 39.6485C10.2418 43.8116 10.1389 50.1935 13.1908 54.4939C14.1853 55.8892 15.6598 56.4954 17.1457 56.1065C18.8489 55.6719 20.1062 54.0707 20.3462 52.0235L23.3296 26.7246Z" fill="#231916"/>
<path d="M46.0078 25.1582L49.1969 52.0812C49.7341 56.6789 54.672 58.3373 57.2096 54.7689C60.4101 50.2741 60.2958 43.7092 56.9696 39.3631L46.0192 25.1582H46.0078Z" fill="#BD8556"/>
<path d="M53.7575 57.1709C53.3917 57.1709 53.0145 57.1251 52.6259 57.0222C50.5455 56.4847 49.0139 54.5632 48.7281 52.1271L45.539 25.2042C45.5162 24.9869 45.6305 24.7924 45.8248 24.7124C46.0191 24.6323 46.2477 24.6895 46.3734 24.8611L57.3238 39.0659C59.004 41.2504 59.9527 44.064 59.9985 47.0033C60.0442 49.9312 59.1869 52.7905 57.5867 55.0436C56.6036 56.4275 55.2206 57.1709 53.746 57.1709H53.7575ZM46.6821 26.8054L49.6654 52.0242C49.9054 54.0714 51.1628 55.6726 52.8659 56.1072C54.3519 56.4847 55.8378 55.8785 56.8208 54.4946C59.8727 50.1942 59.7813 43.8123 56.5808 39.6492L46.6821 26.8054Z" fill="#231916"/>
<path d="M34.9202 53.0991C43.6572 53.0991 50.7399 45.7972 50.7399 36.7898C50.7399 27.7824 43.6572 20.4805 34.9202 20.4805C26.1833 20.4805 19.1006 27.7824 19.1006 36.7898C19.1006 45.7972 26.1833 53.0991 34.9202 53.0991Z" fill="#F8CFAF"/>
<path d="M52.7056 42.1538V42.1309C52.7056 42.0623 52.7056 41.9937 52.7056 41.9136C52.7056 41.8793 52.7056 41.845 52.7056 41.8107C52.7056 41.765 52.7056 41.7192 52.7056 41.6735C52.7056 41.6391 52.7056 41.5934 52.7056 41.5591C52.7056 41.5133 52.7056 41.479 52.7056 41.4333C52.7056 41.399 52.7056 41.3532 52.6941 41.3189C52.6941 41.2846 52.6941 41.2389 52.6827 41.2045C52.6827 41.1588 52.6827 41.1245 52.6713 41.0787C52.6713 41.0444 52.6713 40.9987 52.6598 40.9644C52.6598 40.9186 52.6484 40.8843 52.637 40.8386C52.637 40.8042 52.6255 40.7699 52.6141 40.7356C52.6141 40.6899 52.6027 40.6556 52.5913 40.6098C52.5913 40.5755 52.5798 40.5412 52.5684 40.5069C52.5684 40.4611 52.5455 40.4268 52.5455 40.3811C52.5455 40.3468 52.5341 40.3124 52.5227 40.2781C52.5227 40.2324 52.4998 40.1866 52.4884 40.1523C52.4884 40.118 52.477 40.0837 52.4655 40.0608C52.4655 40.0151 52.4427 39.9693 52.4312 39.9236C52.4312 39.8893 52.4198 39.8664 52.4084 39.8321C52.3969 39.7863 52.3855 39.7406 52.3741 39.6948C52.3741 39.672 52.3626 39.6377 52.3512 39.6148C52.3398 39.569 52.3284 39.5233 52.3055 39.4775C52.3055 39.4547 52.2941 39.4204 52.2826 39.3975C52.2712 39.3517 52.2483 39.306 52.2369 39.2602C52.2369 39.2374 52.2255 39.2145 52.2141 39.1916C52.1912 39.1459 52.1798 39.0887 52.1569 39.0429C52.1569 39.0201 52.1455 39.0086 52.134 38.9857C52.1112 38.9286 52.0883 38.8828 52.0769 38.8256C52.0769 38.8142 52.0769 38.8027 52.0655 38.7913C52.0426 38.7341 52.0197 38.6769 51.9969 38.6198C51.7683 38.0708 51.4825 37.5561 51.1625 37.0757C51.1282 37.0186 51.0824 36.9614 51.0482 36.9042C51.0024 36.847 50.9681 36.7898 50.9224 36.7326C50.8767 36.6754 50.8424 36.6183 50.7967 36.5611C50.751 36.5039 50.7052 36.4467 50.6595 36.3895C49.0021 34.3308 46.5332 32.9698 43.7327 32.7983C43.527 32.7868 43.3326 32.7754 43.1269 32.7754C40.0293 32.7754 37.2631 34.2393 35.5028 36.5039C33.7311 34.2393 30.9764 32.7754 27.8788 32.7754C27.4101 32.7754 26.9529 32.8097 26.5071 32.8669C23.7752 33.2557 21.4092 34.7883 19.9118 36.9728C19.8775 37.03 19.8432 37.0757 19.8089 37.1329C19.8089 37.1329 19.8089 37.1444 19.7975 37.1558C19.7632 37.2016 19.7289 37.2587 19.6946 37.3159C19.6946 37.3159 19.6946 37.3388 19.6832 37.3388C19.6489 37.3845 19.6146 37.4417 19.5917 37.4989C19.5917 37.4989 19.5917 37.5218 19.5803 37.5218C19.546 37.579 19.5231 37.6247 19.4889 37.6819C19.4889 37.6819 19.4889 37.6933 19.4889 37.7048C19.3288 37.9907 19.1802 38.2881 19.0431 38.5969C19.0431 38.6083 19.0316 38.6312 19.0202 38.6426C18.9973 38.6884 18.9859 38.7341 18.9631 38.7799C18.9631 38.8027 18.9402 38.8256 18.9402 38.8485C18.9173 38.8942 18.9059 38.94 18.883 38.9857C18.883 39.0086 18.8602 39.0315 18.8602 39.0544C18.8488 39.1001 18.8259 39.1459 18.8145 39.1916C18.8145 39.2145 18.7916 39.2488 18.7916 39.2717C18.7802 39.3174 18.7573 39.3632 18.7459 39.3975C18.7459 39.4204 18.723 39.4547 18.723 39.4775C18.7116 39.5233 18.7002 39.569 18.6773 39.6148C18.6773 39.6377 18.6659 39.672 18.6544 39.6948C18.643 39.7406 18.6316 39.7863 18.6201 39.8321C18.6201 39.855 18.6087 39.8778 18.5973 39.9007C18.5744 40.0036 18.5401 40.0951 18.5173 40.1981C18.5173 40.2209 18.5173 40.2324 18.5058 40.2553C18.5058 40.301 18.483 40.3353 18.483 40.3811C18.483 40.4154 18.4715 40.4497 18.4601 40.484C18.4601 40.5183 18.4487 40.5641 18.4373 40.5984C18.4373 40.6327 18.4258 40.667 18.4144 40.7127C18.4144 40.7471 18.403 40.7928 18.3915 40.8271C18.3915 40.8614 18.3801 40.9072 18.3687 40.9415C18.3687 40.9758 18.3572 41.0215 18.3572 41.0559C18.3572 41.0902 18.3572 41.1359 18.3458 41.1702C18.3458 41.2045 18.3458 41.2389 18.3344 41.2846C18.3344 41.3303 18.3344 41.3647 18.323 41.4104C18.323 41.4447 18.323 41.479 18.323 41.5133C18.323 41.5591 18.323 41.6048 18.3115 41.6391C18.3115 41.6735 18.3115 41.7078 18.3115 41.7421C18.3115 41.7878 18.3115 41.8336 18.3115 41.8908C18.3115 41.9251 18.3115 41.9479 18.3115 41.9823C18.3115 42.0509 18.3115 42.1309 18.3115 42.1996C18.3115 42.1996 18.3115 42.211 18.3115 42.2224C18.3115 42.3025 18.3115 42.394 18.3115 42.4741C18.3115 42.5656 18.3115 42.6571 18.3115 42.76C18.3115 42.84 18.3115 42.9201 18.3115 42.9887C18.6544 50.3428 30.142 54.9405 35.5943 54.9405C41.0466 54.9405 52.5341 50.217 52.877 42.9659V42.943C52.877 42.8744 52.877 42.8172 52.877 42.7485C52.877 42.6571 52.877 42.5541 52.877 42.4626C52.877 42.3826 52.877 42.2911 52.877 42.211L52.7056 42.1538Z" fill="#F8CFAF"/>
<path d="M35.4233 55.3635C32.3828 55.3635 28.0392 54.0483 24.633 52.0811C20.3009 49.5878 17.8319 46.3511 17.6719 42.9543V42.92C17.6719 42.8513 17.6719 42.7827 17.6719 42.7027C17.6719 42.5997 17.6719 42.5082 17.6719 42.4053C17.6719 42.3252 17.6719 42.268 17.6719 42.1994V42.1079C17.6719 42.0279 17.6719 41.9478 17.6719 41.8792V41.7877C17.6719 41.7305 17.6833 41.6848 17.6833 41.639L17.7862 40.7927L17.9005 40.1865C17.9005 40.1865 17.9119 40.1179 17.9233 40.0836V40.0264C17.9576 39.9234 17.9919 39.8205 18.0148 39.7176L18.0376 39.6375C18.0376 39.6375 18.0605 39.5575 18.0719 39.5117L18.5292 39.6261L18.0719 39.4888L18.0948 39.4088C18.0948 39.4088 18.1291 39.3173 18.1405 39.2715L18.1634 39.1915C18.1634 39.1915 18.1977 39.1 18.2091 39.0542L18.2434 38.9742C18.2434 38.9742 18.2777 38.8827 18.2891 38.8369L18.3234 38.7569C18.3234 38.7569 18.3577 38.6654 18.3806 38.6196L18.4034 38.551C18.4034 38.551 18.4491 38.4481 18.472 38.4023L18.4949 38.3566C18.552 38.2307 18.6092 38.1049 18.6777 37.9677C18.6435 37.5331 18.632 37.1442 18.632 36.7782C18.632 27.5256 25.9475 20 34.9318 20C39.241 20 43.3102 21.7156 46.3736 24.8379C49.4026 27.9145 51.1172 32.009 51.2086 36.3779C51.2086 36.3779 51.2201 36.3894 51.2315 36.4008C51.2772 36.4694 51.3229 36.5266 51.3687 36.5838C51.4144 36.6524 51.4601 36.7096 51.4944 36.7782C51.8373 37.2929 52.1231 37.819 52.3631 38.3794V38.4137C52.4088 38.4709 52.4317 38.5396 52.4545 38.5967V38.631C52.4888 38.6882 52.5117 38.7454 52.5346 38.8026L52.5574 38.8598C52.5574 38.8598 52.5917 38.9627 52.6146 39.0199L52.6374 39.0885C52.6374 39.0885 52.6717 39.1915 52.6832 39.2372L52.706 39.3173C52.706 39.3173 52.7403 39.4088 52.7517 39.466L52.8432 39.7862C52.8432 39.7862 52.866 39.8777 52.8775 39.9234L52.9003 40.0264C52.9003 40.0264 52.9232 40.1179 52.9346 40.1636L53.0489 40.7355C53.0489 40.7927 53.0604 40.8384 53.0718 40.8842L53.1747 41.8792C53.1747 41.9592 53.1747 42.0279 53.1747 42.1079V42.2223C53.1747 42.2795 53.1747 42.3367 53.1747 42.4053V42.4396C53.1747 42.5311 53.1747 42.6226 53.1747 42.7141C53.1747 42.7827 53.1747 42.8513 53.1747 42.92V42.9428C53.0146 46.2939 50.5457 49.5192 46.2136 52.0353C42.7844 54.0254 38.4409 55.3635 35.4233 55.3635ZM18.5977 42.3939C18.5977 42.4968 18.5977 42.5883 18.5977 42.6798C18.5977 42.7484 18.5977 42.817 18.5977 42.8857V42.92C18.9406 50.0796 30.4396 54.4257 35.4004 54.4257C37.7894 54.4257 41.9043 53.4307 45.722 51.2233C48.0653 49.8623 52.0088 46.9801 52.2145 42.92V42.8857C52.2145 42.8285 52.2145 42.7598 52.2145 42.7027C52.2145 42.6112 52.2145 42.5197 52.2145 42.4282V42.3939C52.2145 42.3939 52.2145 42.3024 52.2145 42.2566V42.1537C52.2145 42.0851 52.2145 42.0164 52.2145 41.9478L52.1231 41.0443L51.9973 40.3924C51.9973 40.3924 51.9745 40.3123 51.963 40.2666L51.8259 39.7519C51.8259 39.7519 51.803 39.6604 51.7802 39.6261L51.7573 39.546C51.7573 39.546 51.723 39.4545 51.7116 39.4088L51.6887 39.3401C51.6887 39.3401 51.6544 39.2487 51.643 39.2029L51.6201 39.1457C51.6201 39.1457 51.5858 39.0428 51.563 38.997V38.9627C51.563 38.9627 51.5173 38.8712 51.4944 38.8369L51.4715 38.7912C51.2544 38.2879 50.9915 37.7961 50.6828 37.3272C50.6371 37.27 50.6028 37.2128 50.5685 37.1557C50.5228 37.087 50.4885 37.0413 50.4428 36.9841C50.3971 36.9269 50.3628 36.8812 50.3399 36.8354L50.2485 36.7096V36.5495C50.1227 27.9488 43.2417 20.9493 34.8975 20.9493C26.5533 20.9493 19.5465 28.0517 19.5465 36.7782C19.5465 37.1557 19.5579 37.556 19.6036 38.0249V38.1507L19.5579 38.2651C19.4779 38.4252 19.4093 38.5739 19.3407 38.7225L19.3179 38.7683C19.3179 38.7683 19.2836 38.8598 19.2607 38.9055L19.2378 38.9627C19.2378 38.9627 19.2035 39.0428 19.1921 39.0885L19.1693 39.1572C19.1693 39.1572 19.135 39.2372 19.1235 39.283L19.1007 39.3401C19.0778 39.3973 19.0664 39.4431 19.055 39.4774L18.9064 39.9578C18.8835 40.0492 18.8606 40.1407 18.8378 40.2437L18.7006 40.9413L18.6092 41.7076C18.6092 41.7076 18.6092 41.7877 18.6092 41.8334V41.9249C18.6092 41.9936 18.5977 42.0622 18.5977 42.1308V42.2109C18.5977 42.2109 18.5977 42.3138 18.5977 42.371V42.3939Z" fill="#231916"/>
<path d="M28.4043 35.4516C29.5154 35.4516 30.4161 34.5504 30.4161 33.4387C30.4161 32.327 29.5154 31.4258 28.4043 31.4258C27.2933 31.4258 26.3926 32.327 26.3926 33.4387C26.3926 34.5504 27.2933 35.4516 28.4043 35.4516Z" fill="black"/>
<path d="M41.3321 35.4516C42.4431 35.4516 43.3438 34.5504 43.3438 33.4387C43.3438 32.327 42.4431 31.4258 41.3321 31.4258C40.221 31.4258 39.3203 32.327 39.3203 33.4387C39.3203 34.5504 40.221 35.4516 41.3321 35.4516Z" fill="black"/>
<path d="M34.8968 47.781C36.337 47.781 37.6058 46.5915 38.3259 44.7959C38.3259 44.7959 37.6629 45.6422 37.1486 45.6422C36.6342 45.6422 34.8053 44.7959 34.8053 44.7959C34.8053 44.7959 33.1251 45.5965 32.6564 45.5965C32.1878 45.5965 31.502 45.1276 31.502 45.1276C31.662 45.5164 31.7991 45.5393 32.0049 45.871C32.7479 47.049 33.7652 47.781 34.8968 47.781Z" fill="#CF7A8D"/>
<path d="M35.0346 36.5719C34.0287 36.2173 31.4454 36.3202 31.2854 39.9115C31.1254 43.5027 34.7602 44.6007 35.1717 44.4863C35.5832 44.372 37.755 42.4162 38.0522 41.9473C38.3494 41.4784 39.4924 38.7563 37.7207 37.8757C35.949 36.995 35.9833 36.915 35.046 36.5719H35.0346Z" fill="#ED7C2E"/>
<path d="M32.8738 45.9162C31.0106 45.9162 30.3019 44.6352 30.2676 44.578C30.1419 44.3379 30.2334 44.0405 30.462 43.9147C30.702 43.7889 30.9992 43.8689 31.1249 44.1091C31.1478 44.1549 31.6164 44.9326 32.8623 44.9326C33.1595 44.9326 33.5024 44.8411 33.8911 44.681C32.6109 43.8232 31.2049 42.6337 30.862 40.6666C30.5877 39.0768 31.0678 37.6472 32.2108 36.7436C33.1824 35.9659 34.4512 35.76 35.4913 36.1946C35.9828 36.4005 36.3372 36.6636 36.5887 36.9266C37.0116 36.9724 37.4459 37.1325 37.8689 37.407C39.2519 38.2991 39.412 39.8316 39.1376 40.8724C38.7604 42.2563 37.4574 43.3543 36.9659 43.766L36.8744 43.8346C36.5315 44.132 35.88 44.681 35.1256 45.1385C35.1256 45.1385 35.1141 45.1385 35.1027 45.1385C34.2569 45.6531 33.5139 45.9047 32.8623 45.9047L32.8738 45.9162ZM34.3597 36.9381C33.8339 36.9381 33.2853 37.1325 32.8281 37.4985C31.9822 38.1733 31.6164 39.2598 31.8336 40.4836C32.1537 42.2792 33.6053 43.3085 34.8627 44.132C35.4456 43.7431 35.9486 43.32 36.2343 43.0798L36.3143 43.0112C36.7487 42.6452 37.8803 41.6959 38.1775 40.5979C38.3718 39.8774 38.2689 38.8137 37.3316 38.2076C37.2859 38.1733 37.2402 38.1504 37.183 38.1161C37.2745 38.768 37.0802 39.4657 36.6229 40.0604C35.7542 41.1927 34.7484 41.0897 34.1426 40.6551C33.8568 40.4492 33.6853 40.0947 33.651 39.6601C33.5939 38.9967 33.8797 38.2991 34.4169 37.7501C34.6798 37.487 34.9541 37.2812 35.2513 37.1439C35.2056 37.1211 35.1599 37.0982 35.1141 37.0867C34.8741 36.9838 34.6226 36.9381 34.3597 36.9381ZM36.1086 37.8988C35.7542 37.956 35.4228 38.139 35.1256 38.4478C34.6341 38.951 34.6226 39.4542 34.6455 39.5915C34.6569 39.7745 34.7255 39.8545 34.7484 39.8774C35.2056 40.2091 35.6399 39.7745 35.8685 39.4771C36.2 39.0425 36.3258 38.5621 36.2115 38.139C36.1886 38.0589 36.1657 37.9788 36.12 37.9102L36.1086 37.8988Z" fill="#231916"/>
<path d="M36.8635 45.9159C36.212 45.9159 35.4576 45.6528 34.6232 45.1381C34.3946 45.0009 34.3146 44.6921 34.4631 44.4634C34.6003 44.2346 34.9089 44.1546 35.1375 44.3032C35.8234 44.7264 36.4063 44.9323 36.875 44.9323C38.1323 44.9323 38.6009 44.1431 38.6124 44.1088C38.7495 43.8801 39.0467 43.7886 39.2753 43.9258C39.5154 44.0516 39.5954 44.349 39.4697 44.5892C39.4354 44.6464 38.7267 45.9273 36.8635 45.9273V45.9159Z" fill="#231916"/>
<defs>
<filter id="filter0_d_3530_55042" x="3.5" y="15.5" width="63" height="50.1709" filterUnits="userSpaceOnUse" color-interpolation-filters="sRGB">
<feFlood flood-opacity="0" result="BackgroundImageFix"/>
<feColorMatrix in="SourceAlpha" type="matrix" values="0 0 0 0 0 0 0 0 0 0 0 0 0 0 0 0 0 0 127 0" result="hardAlpha"/>
<feOffset dy="2"/>
<feGaussianBlur stdDeviation="2"/>
<feComposite in2="hardAlpha" operator="out"/>
<feColorMatrix type="matrix" values="0 0 0 0 0 0 0 0 0 0 0 0 0 0 0 0 0 0 0.2 0"/>
<feBlend mode="normal" in2="BackgroundImageFix" result="effect1_dropShadow_3530_55042"/>
<feBlend mode="normal" in="SourceGraphic" in2="effect1_dropShadow_3530_55042" result="shape"/>
</filter>
</defs>
</svg>
