<svg width="24" height="24" viewBox="0 0 24 24" fill="none" xmlns="http://www.w3.org/2000/svg">
<path d="M14.2632 2H5.57895C4.71053 2 4 2.73636 4 3.63636V14.2727C4 14.7227 4.35526 15.0909 4.78947 15.0909C5.22368 15.0909 5.57895 14.7227 5.57895 14.2727V4.45455C5.57895 4.00455 5.93421 3.63636 6.36842 3.63636H14.2632C14.6974 3.63636 15.0526 3.26818 15.0526 2.81818C15.0526 2.36818 14.6974 2 14.2632 2ZM17.4211 5.27273H8.73684C7.86842 5.27273 7.15789 6.00909 7.15789 6.90909V18.3636C7.15789 19.2636 7.86842 20 8.73684 20H17.4211C18.2895 20 19 19.2636 19 18.3636V6.90909C19 6.00909 18.2895 5.27273 17.4211 5.27273ZM16.6316 18.3636H9.52632C9.09211 18.3636 8.73684 17.9955 8.73684 17.5455V7.72727C8.73684 7.27727 9.09211 6.90909 9.52632 6.90909H16.6316C17.0658 6.90909 17.4211 7.27727 17.4211 7.72727V17.5455C17.4211 17.9955 17.0658 18.3636 16.6316 18.3636Z" fill="#333333"/>
</svg>
