<svg width="72" height="72" viewBox="0 0 72 72" fill="none" xmlns="http://www.w3.org/2000/svg">
<g clip-path="url(#clip0_3917_62784)">
<g filter="url(#filter0_d_3917_62784)">
<path d="M35.9956 7C22.7409 7 12 17.4588 12 30.3654C12 36.2367 14.2326 41.5945 17.9066 45.7027L18.0033 45.8054C18.39 46.2334 18.7856 46.6442 19.2075 47.0465L33.807 62.0757C35.0024 63.3081 37.0064 63.3081 38.2018 62.0757L52.8101 47.0465C53.2232 46.6528 53.6188 46.2419 53.9967 45.8226L54.1022 45.7199H54.0934C57.7674 41.6116 60 36.2539 60 30.3825C60 17.4845 49.2591 7.01712 36.0044 7.01712L35.9956 7Z" fill="#FF7D1F"/>
</g>
<path d="M36 50C47.0457 50 56 41.0457 56 30C56 18.9543 47.0457 10 36 10C24.9543 10 16 18.9543 16 30C16 41.0457 24.9543 50 36 50Z" fill="white"/>
<g opacity="0.5">
<path d="M38.7999 23.0003L38.5199 21.6003C38.4149 21.0637 37.9366 20.667 37.3766 20.667H28.9999C28.3583 20.667 27.8333 21.192 27.8333 21.8337V39.3337C27.8333 39.9753 28.3583 40.5003 28.9999 40.5003C29.6416 40.5003 30.1666 39.9753 30.1666 39.3337V32.3337H36.6999L36.9799 33.7337C37.0849 34.282 37.5633 34.667 38.1233 34.667H44.1666C44.8083 34.667 45.3333 34.142 45.3333 33.5003V24.167C45.3333 23.5253 44.8083 23.0003 44.1666 23.0003H38.7999Z" fill="#FF7D1F"/>
</g>
</g>
<defs>
<filter id="filter0_d_3917_62784" x="3.49" y="-1.51" width="70.68" height="78.68" filterUnits="userSpaceOnUse" color-interpolation-filters="sRGB">
<feFlood flood-opacity="0" result="BackgroundImageFix"/>
<feColorMatrix in="SourceAlpha" type="matrix" values="0 0 0 0 0 0 0 0 0 0 0 0 0 0 0 0 0 0 127 0" result="hardAlpha"/>
<feOffset dx="2.83" dy="2.83"/>
<feGaussianBlur stdDeviation="5.67"/>
<feColorMatrix type="matrix" values="0 0 0 0 0 0 0 0 0 0 0 0 0 0 0 0 0 0 0.15 0"/>
<feBlend mode="normal" in2="BackgroundImageFix" result="effect1_dropShadow_3917_62784"/>
<feBlend mode="normal" in="SourceGraphic" in2="effect1_dropShadow_3917_62784" result="shape"/>
</filter>
<clipPath id="clip0_3917_62784">
<rect width="72" height="72" fill="white"/>
</clipPath>
</defs>
</svg>
