<svg width="24" height="24" viewBox="0 0 24 24" fill="none" xmlns="http://www.w3.org/2000/svg">
<path d="M18.6998 12.3996C18.4198 12.2396 18.1298 12.1096 17.8398 11.9996C18.1298 11.8896 18.4198 11.7596 18.6998 11.5996C20.6198 10.4896 21.6898 8.47957 21.6998 6.40957C19.9098 5.37957 17.6298 5.29957 15.6998 6.40957C15.4198 6.56957 15.1598 6.75957 14.9198 6.94957C14.9698 6.63957 14.9998 6.31957 14.9998 5.99957C14.9998 3.77957 13.7898 1.84957 11.9998 0.80957C10.2098 1.84957 8.9998 3.77957 8.9998 5.99957C8.9998 6.31957 9.0298 6.63957 9.0798 6.94957C8.8398 6.74957 8.5798 6.55957 8.2998 6.39957C6.3798 5.28957 4.0998 5.36957 2.2998 6.39957C2.2998 8.46957 3.3698 10.4796 5.2998 11.5896C5.5798 11.7496 5.8698 11.8796 6.1598 11.9896C5.8698 12.0996 5.5798 12.2296 5.2998 12.3896C3.3798 13.4996 2.3098 15.5096 2.2998 17.5796C4.0898 18.6096 6.3698 18.6896 8.2998 17.5796C8.5798 17.4196 8.8398 17.2296 9.0798 17.0396C9.0298 17.3596 8.9998 17.6796 8.9998 17.9996C8.9998 20.2196 10.2098 22.1496 11.9998 23.1896C13.7898 22.1496 14.9998 20.2196 14.9998 17.9996C14.9998 17.6796 14.9698 17.3596 14.9198 17.0496C15.1598 17.2496 15.4198 17.4296 15.6998 17.5896C17.6198 18.6996 19.8998 18.6196 21.6998 17.5896C21.6898 15.5196 20.6198 13.5096 18.6998 12.3996ZM11.9998 15.9996C9.7898 15.9996 7.9998 14.2096 7.9998 11.9996C7.9998 9.78957 9.7898 7.99957 11.9998 7.99957C14.2098 7.99957 15.9998 9.78957 15.9998 11.9996C15.9998 14.2096 14.2098 15.9996 11.9998 15.9996Z" fill="#333333"/>
</svg>
