<svg width="80" height="89" viewBox="0 0 80 89" fill="none" xmlns="http://www.w3.org/2000/svg">
<g filter="url(#filter0_d_3531_56075)">
<path d="M37.3389 12.7471C23.9232 12.7471 13.0518 23.6403 13.0518 37.083C13.0518 43.1982 15.3114 48.7785 19.0301 53.0574L19.128 53.1643C19.5194 53.6101 19.9198 54.0379 20.3468 54.4569L35.1237 70.1104C36.3336 71.394 38.362 71.394 39.5719 70.1104L54.3577 54.4569C54.7759 54.0469 55.1762 53.619 55.5587 53.1822L55.6655 53.0752H55.6566C59.3753 48.7964 61.635 43.216 61.635 37.1008C61.635 23.667 50.7636 12.7649 37.3478 12.7649L37.3389 12.7471Z" fill="white"/>
</g>
<path opacity="0.2" d="M37.339 56.4543C48.0156 56.4543 56.6708 47.7817 56.6708 37.0836C56.6708 26.3854 48.0156 17.7129 37.339 17.7129C26.6623 17.7129 18.0071 26.3854 18.0071 37.0836C18.0071 47.7817 26.6623 56.4543 37.339 56.4543Z" fill="#E5E7EB"/>
<path d="M47.6678 32.9736H26.1564V35.951C26.1564 36.0491 26.1653 36.1471 26.183 36.2363H26.1564C26.1564 40.1496 28.2381 43.5727 31.343 45.4625H27.3396C26.6812 45.4625 26.1475 45.9974 26.1475 46.657C26.1475 47.3167 26.6812 47.8515 27.3396 47.8515H46.4757C47.1341 47.8515 47.6678 47.3167 47.6678 46.657C47.6678 45.9974 47.1341 45.4625 46.4757 45.4625H42.4723C44.5452 44.2056 46.1644 42.2623 47.0095 39.9446C47.223 39.9802 47.4365 40.007 47.6589 40.007C49.5984 40.007 51.1641 38.4292 51.1641 36.4948C51.1641 34.5604 49.5895 32.9825 47.6589 32.9825L47.6678 32.9736ZM47.6678 37.8765C47.6678 37.8765 47.5878 37.8765 47.5433 37.8676C47.6234 37.3416 47.6678 36.7979 47.6678 36.2452H47.6412C47.6589 36.156 47.6678 36.058 47.6678 35.9599V35.1131C48.4329 35.1131 49.0468 35.7371 49.0468 36.4948C49.0468 37.2525 48.424 37.8765 47.6678 37.8765Z" fill="#E5E7EB"/>
<path d="M30.2219 28.0797C30.5244 28.2224 30.5689 28.4987 30.5689 28.6146C30.5689 28.7305 30.5511 29.0068 30.2664 29.1762L29.4746 29.6397C29.1188 29.8447 29.0031 30.2994 29.2166 30.6559C29.359 30.8877 29.5992 31.0214 29.8572 31.0214C29.9817 31.0214 30.1152 30.9858 30.2308 30.9145L31.0226 30.4509C31.6898 30.0587 32.0813 29.3277 32.0457 28.5522C32.0101 27.7766 31.5564 27.0813 30.8625 26.7515C30.5689 26.6089 30.5244 26.3414 30.5155 26.2345C30.5155 26.1275 30.5155 25.8512 30.7913 25.6729L31.6809 25.0934C32.019 24.8706 32.1169 24.407 31.8944 24.0683C31.672 23.7207 31.2094 23.6315 30.8714 23.8544L29.9817 24.4338C29.3412 24.8528 28.9853 25.5659 29.0387 26.3325C29.0921 27.0992 29.528 27.7588 30.2219 28.0886V28.0797Z" fill="#E5E7EB"/>
<path d="M36.2271 28.0797C36.5295 28.2224 36.574 28.4987 36.574 28.6146C36.574 28.7305 36.5562 29.0068 36.2715 29.1762L35.4798 29.6397C35.1239 29.8447 35.0082 30.2994 35.2218 30.6559C35.3641 30.8877 35.6043 31.0214 35.8623 31.0214C35.9869 31.0214 36.1203 30.9858 36.2359 30.9145L37.0277 30.4509C37.695 30.0587 38.0864 29.3277 38.0508 28.5522C38.0152 27.7766 37.5615 27.0813 36.8676 26.7515C36.574 26.6089 36.5295 26.3414 36.5206 26.2345C36.5206 26.1275 36.5206 25.8512 36.7964 25.6729L37.6861 25.0934C38.0241 24.8706 38.122 24.407 37.8996 24.0683C37.6772 23.7207 37.2146 23.6315 36.8765 23.8544L35.9869 24.4338C35.3463 24.8528 34.9905 25.5659 35.0438 26.3325C35.0972 27.0992 35.5331 27.7588 36.2271 28.0886V28.0797Z" fill="#E5E7EB"/>
<path d="M42.241 28.0797C42.5434 28.2224 42.5879 28.4987 42.5879 28.6146C42.5879 28.7305 42.5701 29.0068 42.2855 29.1762L41.4937 29.6397C41.1378 29.8447 41.0222 30.2994 41.2357 30.6559C41.378 30.8877 41.6182 31.0214 41.8762 31.0214C42.0008 31.0214 42.1342 30.9858 42.2499 30.9145L43.0416 30.4509C43.7089 30.0587 44.1003 29.3277 44.0647 28.5522C44.0291 27.7766 43.5754 27.0813 42.8815 26.7515C42.5879 26.6089 42.5434 26.3414 42.5346 26.2345C42.5346 26.1275 42.5345 25.8512 42.8103 25.6729L43.7 25.0934C44.038 24.8706 44.1359 24.407 43.9135 24.0683C43.6911 23.7207 43.2285 23.6315 42.8904 23.8544L42.0008 24.4338C41.3602 24.8528 41.0044 25.5659 41.0577 26.3325C41.1111 27.0992 41.5471 27.7588 42.241 28.0886V28.0797Z" fill="#E5E7EB"/>
<g style="mix-blend-mode:multiply">
<circle cx="43.793" cy="45.5088" r="11" fill="#FF7D1F"/>
<g clip-path="url(#clip0_3531_56075)">
<path d="M41.3455 42.1797C42.3231 42.1797 43.1155 41.3873 43.1155 40.4097C43.1155 39.4321 42.3231 38.6396 41.3455 38.6396C40.3679 38.6396 39.5754 39.4321 39.5754 40.4097C39.5754 41.3873 40.3679 42.1797 41.3455 42.1797Z" fill="white"/>
<path d="M46.2395 42.1797C47.2171 42.1797 48.0096 41.3873 48.0096 40.4097C48.0096 39.4321 47.2171 38.6396 46.2395 38.6396C45.262 38.6396 44.4695 39.4321 44.4695 40.4097C44.4695 41.3873 45.262 42.1797 46.2395 42.1797Z" fill="white"/>
<path d="M38.1097 45.4405C39.0872 45.4405 39.8797 44.648 39.8797 43.6704C39.8797 42.6929 39.0872 41.9004 38.1097 41.9004C37.1321 41.9004 36.3396 42.6929 36.3396 43.6704C36.3396 44.648 37.1321 45.4405 38.1097 45.4405Z" fill="white"/>
<path d="M49.4751 45.4405C50.4527 45.4405 51.2452 44.648 51.2452 43.6704C51.2452 42.6929 50.4527 41.9004 49.4751 41.9004C48.4976 41.9004 47.7051 42.6929 47.7051 43.6704C47.7051 44.648 48.4976 45.4405 49.4751 45.4405Z" fill="white"/>
<path d="M48.2394 46.2169C47.5003 45.776 46.9662 45.2108 46.5377 44.4655C45.2893 42.3042 42.2275 42.329 40.9977 44.5028C40.594 45.217 40.0972 45.7635 39.383 46.1734C38.2961 46.8007 37.7806 47.7882 37.762 48.8751C37.762 51.583 40.2959 53.1481 42.5442 51.9618C43.3702 51.5271 44.1217 51.4774 44.954 51.9308C46.5874 52.8313 48.4568 52.3034 49.3636 50.7197C50.2641 49.1422 49.7921 47.1299 48.2394 46.2045V46.2169Z" fill="white"/>
</g>
</g>
<defs>
<filter id="filter0_d_3531_56075" x="4.54176" y="4.23707" width="71.2633" height="81.0062" filterUnits="userSpaceOnUse" color-interpolation-filters="sRGB">
<feFlood flood-opacity="0" result="BackgroundImageFix"/>
<feColorMatrix in="SourceAlpha" type="matrix" values="0 0 0 0 0 0 0 0 0 0 0 0 0 0 0 0 0 0 127 0" result="hardAlpha"/>
<feOffset dx="2.83" dy="2.83"/>
<feGaussianBlur stdDeviation="5.67"/>
<feColorMatrix type="matrix" values="0 0 0 0 0 0 0 0 0 0 0 0 0 0 0 0 0 0 0.15 0"/>
<feBlend mode="normal" in2="BackgroundImageFix" result="effect1_dropShadow_3531_56075"/>
<feBlend mode="normal" in="SourceGraphic" in2="effect1_dropShadow_3531_56075" result="shape"/>
</filter>
<clipPath id="clip0_3531_56075">
<rect width="14.9057" height="13.7381" fill="white" transform="translate(36.3396 38.6396)"/>
</clipPath>
</defs>
</svg>
