<svg width="72" height="72" viewBox="0 0 72 72" fill="none" xmlns="http://www.w3.org/2000/svg">
<g clip-path="url(#clip0_3917_62713)">
<g filter="url(#filter0_d_3917_62713)">
<path d="M35.9956 7C22.7409 7 12 17.4588 12 30.3654C12 36.2367 14.2326 41.5945 17.9066 45.7027L18.0033 45.8054C18.39 46.2334 18.7856 46.6442 19.2075 47.0465L33.807 62.0757C35.0024 63.3081 37.0064 63.3081 38.2018 62.0757L52.8101 47.0465C53.2232 46.6528 53.6188 46.2419 53.9967 45.8226L54.1022 45.7199H54.0934C57.7674 41.6116 60 36.2539 60 30.3825C60 17.4845 49.2591 7.01712 36.0044 7.01712L35.9956 7Z" fill="#965F36"/>
</g>
<path d="M36 50C47.0457 50 56 41.0457 56 30C56 18.9543 47.0457 10 36 10C24.9543 10 16 18.9543 16 30C16 41.0457 24.9543 50 36 50Z" fill="white"/>
<path d="M45.1021 26.8125H24.5888V29.6517C24.5888 29.7452 24.5973 29.8387 24.6143 29.9237H24.5888C24.5888 33.6555 26.574 36.9198 29.5347 38.7219H25.7171C25.0893 38.7219 24.5803 39.2319 24.5803 39.861C24.5803 40.49 25.0893 41.0001 25.7171 41.0001H43.9653C44.5931 41.0001 45.1021 40.49 45.1021 39.861C45.1021 39.2319 44.5931 38.7219 43.9653 38.7219H40.1477C42.1244 37.5233 43.6684 35.6702 44.4744 33.46C44.678 33.494 44.8816 33.5195 45.0937 33.5195C46.9431 33.5195 48.4362 32.0149 48.4362 30.1702C48.4362 28.3256 46.9346 26.821 45.0937 26.821L45.1021 26.8125ZM45.1021 31.4879C45.1021 31.4879 45.0258 31.4878 44.9834 31.4793C45.0597 30.9778 45.1021 30.4593 45.1021 29.9322H45.0767C45.0937 29.8472 45.1021 29.7537 45.1021 29.6602V28.8527C45.8317 28.8527 46.4171 29.4477 46.4171 30.1702C46.4171 30.8928 45.8233 31.4879 45.1021 31.4879Z" fill="#965F36"/>
<path d="M28.4659 22.1456C28.7543 22.2816 28.7967 22.5451 28.7967 22.6556C28.7967 22.7661 28.7797 23.0297 28.5083 23.1912L27.7532 23.6332C27.4139 23.8287 27.3036 24.2622 27.5072 24.6023C27.6429 24.8233 27.872 24.9508 28.118 24.9508C28.2368 24.9508 28.364 24.9168 28.4743 24.8488L29.2294 24.4068C29.8656 24.0327 30.2389 23.3357 30.205 22.5961C30.1711 21.8566 29.7384 21.1935 29.0767 20.879C28.7967 20.743 28.7543 20.488 28.7458 20.386C28.7458 20.2839 28.7458 20.0204 29.0088 19.8504L29.8572 19.2979C30.1795 19.0854 30.2729 18.6433 30.0608 18.3203C29.8487 17.9888 29.4075 17.9038 29.0852 18.1163L28.2368 18.6688C27.626 19.0684 27.2866 19.7484 27.3375 20.4795C27.3884 21.2105 27.8041 21.8396 28.4659 22.1541V22.1456Z" fill="#965F36"/>
<path d="M34.1922 22.1456C34.4806 22.2816 34.523 22.5451 34.523 22.6556C34.523 22.7661 34.5061 23.0297 34.2346 23.1912L33.4795 23.6332C33.1402 23.8287 33.0299 24.2622 33.2335 24.6023C33.3693 24.8233 33.5983 24.9508 33.8443 24.9508C33.9631 24.9508 34.0904 24.9168 34.2007 24.8488L34.9557 24.4068C35.592 24.0327 35.9652 23.3357 35.9313 22.5961C35.8974 21.8566 35.4647 21.1935 34.803 20.879C34.523 20.743 34.4806 20.488 34.4721 20.386C34.4721 20.2839 34.4721 20.0204 34.7351 19.8504L35.5835 19.2979C35.9059 19.0854 35.9992 18.6433 35.7871 18.3203C35.575 17.9888 35.1339 17.9038 34.8115 18.1163L33.9631 18.6688C33.3523 19.0684 33.0129 19.7484 33.0639 20.4795C33.1148 21.2105 33.5305 21.8396 34.1922 22.1541V22.1456Z" fill="#965F36"/>
<path d="M39.927 22.1456C40.2155 22.2816 40.2579 22.5451 40.2579 22.6556C40.2579 22.7661 40.2409 23.0297 39.9695 23.1912L39.2144 23.6332C38.8751 23.8287 38.7648 24.2622 38.9684 24.6023C39.1041 24.8233 39.3332 24.9508 39.5792 24.9508C39.698 24.9508 39.8252 24.9168 39.9355 24.8488L40.6906 24.4068C41.3268 24.0327 41.7001 23.3357 41.6662 22.5961C41.6322 21.8566 41.1996 21.1935 40.5379 20.879C40.2579 20.743 40.2155 20.488 40.207 20.386C40.207 20.2839 40.207 20.0204 40.47 19.8504L41.3183 19.2979C41.6407 19.0854 41.734 18.6433 41.522 18.3203C41.3099 17.9888 40.8687 17.9038 40.5463 18.1163L39.698 18.6688C39.0872 19.0684 38.7478 19.7484 38.7987 20.4795C38.8496 21.2105 39.2653 21.8396 39.927 22.1541V22.1456Z" fill="#965F36"/>
</g>
<defs>
<filter id="filter0_d_3917_62713" x="3.49" y="-1.51" width="70.68" height="78.68" filterUnits="userSpaceOnUse" color-interpolation-filters="sRGB">
<feFlood flood-opacity="0" result="BackgroundImageFix"/>
<feColorMatrix in="SourceAlpha" type="matrix" values="0 0 0 0 0 0 0 0 0 0 0 0 0 0 0 0 0 0 127 0" result="hardAlpha"/>
<feOffset dx="2.83" dy="2.83"/>
<feGaussianBlur stdDeviation="5.67"/>
<feColorMatrix type="matrix" values="0 0 0 0 0 0 0 0 0 0 0 0 0 0 0 0 0 0 0.15 0"/>
<feBlend mode="normal" in2="BackgroundImageFix" result="effect1_dropShadow_3917_62713"/>
<feBlend mode="normal" in="SourceGraphic" in2="effect1_dropShadow_3917_62713" result="shape"/>
</filter>
<clipPath id="clip0_3917_62713">
<rect width="72" height="72" fill="white"/>
</clipPath>
</defs>
</svg>
