<svg width="28" height="28" viewBox="0 0 28 28" fill="none" xmlns="http://www.w3.org/2000/svg">
<path d="M13.8457 23.7148L14.0013 23.7658L14.1569 23.7148C18.4091 22.3221 21.5013 17.7971 21.5013 12.938V7.36134V7.00771L21.1679 6.8899L14.1679 4.41657L14.0013 4.35771L13.8347 4.41657L6.83473 6.8899L6.5013 7.00771V7.36134V12.938C6.5013 17.809 9.59377 22.3222 13.8457 23.7148ZM12.4236 15.1824L12.7771 15.5343L13.1299 15.1816L17.723 10.5884L18.6609 11.5263L12.7646 17.4226L9.34299 14.0009L10.2909 13.0597L12.4236 15.1824ZM5.16797 6.17951L14.0013 2.86701L22.8346 6.17951V12.938C22.8346 18.5825 19.0477 23.8179 14.0013 25.1501C8.95489 23.8179 5.16797 18.5825 5.16797 12.938V6.17951Z" fill="black" stroke="#333333"/>
</svg>
