<svg width="28" height="28" viewBox="0 0 28 28" fill="none" xmlns="http://www.w3.org/2000/svg">
<path fill-rule="evenodd" clip-rule="evenodd" d="M14.0026 9.3335C14.6469 9.3335 15.1693 9.85583 15.1693 10.5002V12.8335H17.5026C18.1469 12.8335 18.6693 13.3558 18.6693 14.0002C18.6693 14.6445 18.1469 15.1668 17.5026 15.1668H15.1693V17.5002C15.1693 18.1445 14.6469 18.6668 14.0026 18.6668C13.3583 18.6668 12.8359 18.1445 12.8359 17.5002V15.1668H10.5026C9.85827 15.1668 9.33594 14.6445 9.33594 14.0002C9.33594 13.3558 9.85827 12.8335 10.5026 12.8335H12.8359V10.5002C12.8359 9.85583 13.3583 9.3335 14.0026 9.3335Z" fill="#333333"/>
<path fill-rule="evenodd" clip-rule="evenodd" d="M2.33594 14.0002C2.33594 7.55684 7.55928 2.3335 14.0026 2.3335C20.4459 2.3335 25.6693 7.55683 25.6693 14.0002C25.6693 20.4434 20.4459 25.6668 14.0026 25.6668C12.0368 25.6668 10.1818 25.1797 8.55458 24.3191L4.24114 25.1221C3.86306 25.1925 3.47458 25.0721 3.20264 24.8001C2.93071 24.5282 2.81026 24.1397 2.88065 23.7616L3.68373 19.4482C2.82304 17.821 2.33594 15.9659 2.33594 14.0002ZM14.0026 4.66683C8.84794 4.66683 4.66927 8.8455 4.66927 14.0002C4.66927 15.7021 5.12375 17.2943 5.91719 18.666C6.05662 18.907 6.10524 19.19 6.05427 19.4637L5.48581 22.517L8.53907 21.9485C8.8128 21.8976 9.09574 21.9462 9.33676 22.0856C10.7084 22.879 12.3007 23.3335 14.0026 23.3335C19.1572 23.3335 23.3359 19.1548 23.3359 14.0002C23.3359 8.84551 19.1572 4.66683 14.0026 4.66683Z" fill="#333333"/>
</svg>
