<svg width="24" height="24" viewBox="0 0 24 24" fill="none" xmlns="http://www.w3.org/2000/svg">
<path fill-rule="evenodd" clip-rule="evenodd" d="M8.41637 7.18431C9.84798 7.18431 11.0085 6.02376 11.0085 4.59215C11.0085 3.16055 9.84798 2 8.41637 2C6.98477 2 5.82422 3.16055 5.82422 4.59215C5.82422 6.02376 6.98477 7.18431 8.41637 7.18431ZM15.5834 7.18431C17.015 7.18431 18.1755 6.02376 18.1755 4.59215C18.1755 3.16055 17.015 2 15.5834 2C14.1518 2 12.9912 3.16055 12.9912 4.59215C12.9912 6.02376 14.1518 7.18431 15.5834 7.18431ZM6.27025 9.36657C6.27025 10.7982 5.1097 11.9587 3.67809 11.9587C2.24648 11.9587 1.08594 10.7982 1.08594 9.36657C1.08594 7.93496 2.24648 6.77441 3.67809 6.77441C5.1097 6.77441 6.27025 7.93496 6.27025 9.36657ZM20.3226 11.9587C21.7542 11.9587 22.9148 10.7982 22.9148 9.36657C22.9148 7.93496 21.7542 6.77441 20.3226 6.77441C18.891 6.77441 17.7305 7.93496 17.7305 9.36657C17.7305 10.7982 18.891 11.9587 20.3226 11.9587ZM16.0206 10.5322C16.6481 11.6237 17.4303 12.4513 18.5127 13.0971V13.0789C20.7865 14.4341 21.4777 17.381 20.1589 19.6912C18.831 22.0105 16.0933 22.7836 13.7013 21.4648C12.4825 20.8008 11.382 20.8736 10.1723 21.5102C6.87982 23.2474 3.16895 20.9554 3.16895 16.9899C3.19623 15.3982 3.95114 13.9521 5.54281 13.0334C6.58877 12.4332 7.31639 11.6328 7.90759 10.5868C9.70845 7.40346 14.1924 7.36708 16.0206 10.5322Z" fill="url(#paint0_linear_3469_43741)"/>
<defs>
<linearGradient id="paint0_linear_3469_43741" x1="10.241" y1="-4.03197" x2="24.558" y2="1.23793" gradientUnits="userSpaceOnUse">
<stop stop-color="#F9951F"/>
<stop offset="1" stop-color="#FF8541"/>
</linearGradient>
</defs>
</svg>
