<svg width="24" height="24" viewBox="0 0 24 24" fill="none" xmlns="http://www.w3.org/2000/svg">
<path d="M17.8777 1.5C13.9702 1.5 10.0627 1.5 6.16433 1.5C5.9075 1.5 5.48556 1.52699 5.22873 1.57197C2.7705 2.02176 1.03689 4.04581 1.01854 6.51966C1.00937 8.70565 0.981852 10.8916 1.01854 13.0776C1.03689 14.2651 1.40379 15.4255 2.11007 16.3881C3.09153 17.7194 4.31148 18.2592 5.73322 18.3851V21.7136C5.73322 22.4153 6.59544 22.7661 7.09993 22.2623L10.8056 18.583C10.9249 18.4661 11.0349 18.4211 11.2092 18.4211C13.4106 18.4211 15.612 18.4211 17.8043 18.4211C18.0519 18.4211 18.3088 18.4211 18.5564 18.3761C21.1156 18.0343 22.9868 15.9563 22.9959 13.4195C23.0051 11.1165 22.9959 8.8136 22.9959 6.51067C22.9959 3.74895 20.7028 1.5 17.8777 1.5ZM6.02674 11.6563C5.01777 11.6563 4.19224 10.8556 4.19224 9.85711C4.19224 8.85857 5.00859 8.05795 6.02674 8.05795C7.04489 8.05795 7.86125 8.85857 7.86125 9.85711C7.86125 10.8556 7.04489 11.6563 6.02674 11.6563ZM12.0072 11.6563C10.9983 11.6563 10.1727 10.8556 10.1727 9.85711C10.1727 8.85857 10.9891 8.05795 12.0072 8.05795C13.0254 8.05795 13.8417 8.85857 13.8417 9.85711C13.8417 10.8556 13.0254 11.6563 12.0072 11.6563ZM17.9877 11.6563C16.9787 11.6563 16.1532 10.8556 16.1532 9.85711C16.1532 8.85857 16.9696 8.05795 17.9877 8.05795C19.0059 8.05795 19.8222 8.85857 19.8222 9.85711C19.8222 10.8556 19.0059 11.6563 17.9877 11.6563Z" fill="#A7ABB5"/>
</svg>
