<svg width="80" height="89" viewBox="0 0 80 89" fill="none" xmlns="http://www.w3.org/2000/svg">
<g filter="url(#filter0_d_3464_53782)">
<path d="M37.6309 12.7473C24.2151 12.7473 13.3438 23.6405 13.3438 37.0833C13.3438 43.1984 15.6034 48.7788 19.3221 53.0576L19.42 53.1646C19.8114 53.6103 20.2118 54.0382 20.6388 54.4572L35.4157 70.1106C36.6256 71.3943 38.654 71.3943 39.8639 70.1106L54.6497 54.4572C55.0678 54.0471 55.4682 53.6192 55.8507 53.1824L55.9575 53.0754H55.9486C59.6673 48.7966 61.927 43.2163 61.927 37.1011C61.927 23.6673 51.0556 12.7651 37.6398 12.7651L37.6309 12.7473Z" fill="#FF7D1F"/>
</g>
<path d="M37.6307 56.454C48.3074 56.454 56.9626 47.7815 56.9626 37.0833C56.9626 26.3852 48.3074 17.7126 37.6307 17.7126C26.954 17.7126 18.2988 26.3852 18.2988 37.0833C18.2988 47.7815 26.954 56.454 37.6307 56.454Z" fill="white"/>
<path d="M41.1098 29.194L40.7628 27.4557C40.6327 26.7894 40.04 26.2969 39.346 26.2969H28.9662C28.1711 26.2969 27.5205 26.9487 27.5205 27.7454V49.474C27.5205 50.2707 28.1711 50.9225 28.9662 50.9225C29.7613 50.9225 30.4118 50.2707 30.4118 49.474V40.7826H38.5076L38.8545 42.5208C38.9846 43.2017 39.5773 43.6797 40.2713 43.6797H47.7598C48.5549 43.6797 49.2055 43.0278 49.2055 42.2311V30.6426C49.2055 29.8459 48.5549 29.194 47.7598 29.194H41.1098Z" fill="#FF7D1F"/>
<defs>
<filter id="filter0_d_3464_53782" x="4.83375" y="4.23731" width="71.263" height="81.0059" filterUnits="userSpaceOnUse" color-interpolation-filters="sRGB">
<feFlood flood-opacity="0" result="BackgroundImageFix"/>
<feColorMatrix in="SourceAlpha" type="matrix" values="0 0 0 0 0 0 0 0 0 0 0 0 0 0 0 0 0 0 127 0" result="hardAlpha"/>
<feOffset dx="2.83" dy="2.83"/>
<feGaussianBlur stdDeviation="5.67"/>
<feColorMatrix type="matrix" values="0 0 0 0 0 0 0 0 0 0 0 0 0 0 0 0 0 0 0.15 0"/>
<feBlend mode="normal" in2="BackgroundImageFix" result="effect1_dropShadow_3464_53782"/>
<feBlend mode="normal" in="SourceGraphic" in2="effect1_dropShadow_3464_53782" result="shape"/>
</filter>
</defs>
</svg>
