<svg width="144" height="65" viewBox="0 0 144 65" fill="none" xmlns="http://www.w3.org/2000/svg">
<g clip-path="url(#clip0_7962_189051)">
<path d="M46.3198 40.2898C45.9698 40.0098 45.7498 39.5698 45.6398 38.9698C45.6098 38.7798 45.5898 38.4598 45.5898 38.0198L45.6498 2.86984C45.6498 2.00984 45.8098 1.45984 46.1198 1.20984C46.4298 0.969844 47.0598 0.839844 47.9898 0.839844H70.0598C71.3698 0.839844 72.1198 1.39984 72.3198 2.51984C72.3498 2.66984 72.3698 3.00984 72.3798 3.52984L72.3598 8.57984C72.3798 9.32984 72.2498 9.85984 71.9598 10.1798C71.6798 10.4998 71.1098 10.6598 70.2498 10.6598H56.7698L56.7398 15.6598H66.7898C67.5798 15.6598 68.1598 15.7998 68.5498 16.0798C68.9398 16.3598 69.1798 16.7998 69.2798 17.3998C69.3098 17.5898 69.3298 17.9098 69.3298 18.3498L69.3698 23.3998C69.3598 24.1898 69.2098 24.7298 68.9198 25.0298C68.6398 25.3298 68.0598 25.4798 67.1998 25.4798H56.6998L56.6798 30.8698H70.3198C71.1098 30.8698 71.6798 31.0098 72.0498 31.2898C72.4198 31.5698 72.6498 32.0098 72.7598 32.6098C72.7898 32.7998 72.8098 33.1198 72.8098 33.5598L72.7998 38.6698C72.7898 39.4898 72.6198 40.0398 72.2698 40.2998C71.9198 40.5598 71.2798 40.6898 70.3398 40.6898H47.8498C47.1698 40.7098 46.6598 40.5698 46.3198 40.2898Z" fill="white"/>
<path d="M77.0803 38.9698C77.0503 38.7798 77.0303 38.4598 77.0303 38.0198L77.0903 2.85984C77.1003 2.03984 77.2603 1.48984 77.5903 1.22984C77.9203 0.969844 78.4903 0.839844 79.3203 0.839844H92.8503C96.5903 0.839844 99.7903 1.80984 102.43 3.75984C105.07 5.70984 106.69 8.39984 107.29 11.8498C107.83 14.9598 107.63 17.6498 106.67 19.9398C105.72 22.2198 104.01 24.1498 101.56 25.7198C101.67 25.9398 101.84 26.2498 102.06 26.6498C102.28 27.0398 102.53 27.5398 102.82 28.1398L107.74 38.3598C107.88 38.7298 107.96 38.9798 107.98 39.0898C108.17 40.1798 107.53 40.7198 106.07 40.7198H99.6703C98.6203 40.7198 97.8503 40.4898 97.3603 40.0198C96.8703 39.5498 96.3803 38.7798 95.8903 37.6898L92.4703 29.9998C92.0403 29.0298 91.6003 28.3598 91.1403 28.0098C90.6903 27.6498 89.9903 27.4798 89.0503 27.4798H88.1503L88.1403 38.7098C88.1303 39.5298 87.9603 40.0798 87.6103 40.3398C87.2603 40.5998 86.6403 40.7298 85.7403 40.7298H79.3403C78.0403 40.7098 77.2803 40.1298 77.0803 38.9698ZM92.4303 18.0798C93.9603 18.0798 95.0803 17.6698 95.7803 16.8398C96.4803 16.0198 96.7203 14.9698 96.5003 13.6998C96.3303 12.7298 95.9403 11.9798 95.3203 11.4498C94.7003 10.9298 93.7803 10.6598 92.5403 10.6598H88.2203L88.1603 18.0698H92.4303V18.0798Z" fill="white"/>
<path d="M116.82 38.24C114 36.03 112.26 32.98 111.58 29.09C111.38 27.97 111.29 26.77 111.29 25.5L111.33 15.39C111.34 10.49 112.69 6.7 115.39 4.02C118.09 1.34 121.96 0 127.02 0C131.62 0 135.36 1.11 138.24 3.34C141.12 5.57 142.89 8.63 143.57 12.52C143.77 13.64 143.86 14.82 143.85 16.06L143.81 26.17C143.8 31.07 142.42 34.86 139.67 37.54C136.92 40.22 132.99 41.55 127.9 41.55C123.33 41.55 119.64 40.45 116.82 38.24ZM122.51 28.02C122.72 29.22 123.22 30.14 124.03 30.77C124.83 31.41 125.89 31.72 127.2 31.72C129.07 31.72 130.46 31.25 131.36 30.32C132.26 29.38 132.72 27.94 132.71 26L132.75 14.94C132.77 14.6 132.72 14.14 132.62 13.54C132.19 11.07 130.61 9.83 127.88 9.83C126.05 9.83 124.68 10.29 123.8 11.21C122.91 12.13 122.45 13.58 122.42 15.56L122.39 26.68C122.43 27.35 122.47 27.8 122.51 28.02Z" fill="white"/>
<path d="M39.58 15.9196C40.25 14.2896 40.39 12.3196 39.98 9.99961C39.48 7.11961 38.09 4.86961 35.8 3.25961C33.52 1.64961 30.52 0.849609 26.82 0.849609H17.84C18.08 5.69961 17.55 9.85961 16.27 13.2396C14.78 17.1696 12.62 19.1296 10.91 20.1096L10.89 33.4896C8.83 32.3796 6.91 31.0996 5.14 29.6896C4.78 29.5296 3.93 29.9596 3.47 30.1996C2.69 30.7796 2.11 31.6896 2 32.5596C2.04 33.3896 2.16 34.2096 2.46 34.9596C2.76 35.7096 3.24 36.3796 4.01 36.9396C4.5 37.4096 5.03 37.8296 5.58 38.2196C6.33 38.6596 7.12 39.0696 7.94 39.4296C8.77 39.7996 9.63 40.1196 10.51 40.4096C18.49 42.8296 27.29 42.2996 35.63 39.5696C35.62 39.5596 35.6 39.5396 35.59 39.5296C36.94 38.9796 38.09 38.2296 39.03 37.2796C41.31 34.9996 42.09 31.7996 41.37 27.6796C40.75 24.1196 38.91 21.5996 35.84 20.0996L35.82 19.9896C37.65 18.8996 38.91 17.5496 39.58 15.9196ZM22.04 9.82961H25.63C26.72 9.82961 27.54 10.0496 28.11 10.4996C28.67 10.9496 29.04 11.6396 29.2 12.5796C29.41 13.7796 29.16 14.6796 28.46 15.2796C27.76 15.8796 26.83 16.1796 25.67 16.1796H22.02L22.04 9.82961ZM22.02 24.8796H26.4C28.76 24.8796 30.08 25.7196 30.38 27.4096C30.61 28.7596 30.42 29.7996 29.8 30.5296C29.18 31.2596 28.19 31.6196 26.85 31.6196H22.02V24.8796Z" fill="white"/>
<path d="M4.57982 17.1199C5.56982 17.7899 6.97982 17.7999 8.35982 17.1299C9.24982 16.6999 10.1298 15.9999 10.9198 14.9999C12.9798 12.4199 14.4998 7.85992 14.2498 0.919922C13.2998 1.37992 12.1398 1.99992 10.9498 2.74992C7.21982 5.08992 3.05982 8.80992 3.10982 13.6899C3.11982 15.2599 3.63982 16.4799 4.57982 17.1199Z" fill="white"/>
<path d="M16.8365 50L14.186 59.9055H12.3094L10.336 52.6118L8.54646 59.9152H6.70853L4 50H5.89597L7.81129 57.226L9.60086 50H11.4098L13.3831 57.226L15.2598 50H16.8365Z" fill="#FFD7B1"/>
<path d="M23.8297 59.915H22.253C22.1079 59.47 22.0305 58.9767 22.0015 58.435C21.5565 59.528 20.7342 60.0697 19.5154 60.0697C18.7802 60.0697 18.1998 59.8569 17.7549 59.4313C17.3099 59.0057 17.0874 58.464 17.0874 57.8159C17.0874 56.1327 18.5674 55.2911 21.5275 55.2911C21.6435 55.2911 21.7983 55.2911 22.0015 55.3008V54.7494C22.0015 53.9852 21.4791 53.608 20.444 53.608C19.438 53.608 18.8673 53.9852 18.7319 54.7494L17.3196 54.5366C17.3969 53.9272 17.7162 53.4242 18.2675 53.0276C18.8189 52.631 19.6218 52.4375 20.6665 52.4375C21.2276 52.4375 21.6919 52.4859 22.0498 52.5826C22.4077 52.6793 22.7076 52.8341 22.9591 53.0663C23.2009 53.2888 23.3751 53.5403 23.4718 53.8014C23.5685 54.0626 23.6169 54.5076 23.6169 55.1364V58.4446C23.6169 58.909 23.6846 59.4023 23.8297 59.915ZM22.0015 56.1811C19.8636 56.1811 18.7899 56.6938 18.7899 57.7095C18.7899 58.019 18.8963 58.2705 19.1091 58.493C19.3219 58.7155 19.6508 58.8122 20.0861 58.8122C20.7149 58.8122 21.1889 58.6091 21.5081 58.2125C21.8273 57.8159 21.9918 57.3612 21.9918 56.8485V56.1811H22.0015Z" fill="#FFD7B1"/>
<path d="M27.2445 59.9152H25.5903V50H27.2445V59.9152Z" fill="#FFD7B1"/>
<path d="M36.0579 59.9152H34.3167L32.4401 56.1522L30.8149 57.9708V59.9055H29.2285V50H30.8149V56.1522C30.96 55.9684 31.0664 55.833 31.1535 55.7363L34.0555 52.5828H35.8354L33.6299 55.0108L36.0579 59.9152Z" fill="#FFD7B1"/>
<path d="M40.9619 59.9152V50H44.8216C45.4794 50 46.0211 50.0677 46.4467 50.2031C46.882 50.3386 47.2496 50.6191 47.5688 51.0544C47.888 51.4897 48.0428 51.9927 48.0428 52.5731C48.0428 53.1245 47.8783 53.5985 47.5591 54.0048C47.2399 54.411 46.7949 54.6625 46.2339 54.7786C46.9304 54.8947 47.4624 55.1849 47.8203 55.6299C48.1782 56.0748 48.362 56.6069 48.362 57.2163C48.362 57.9805 48.1105 58.6286 47.6075 59.1413C47.1045 59.6636 46.3403 59.9248 45.2956 59.9248H40.9619V59.9152ZM42.6547 54.1595H44.8312C45.2762 54.1595 45.6245 54.0241 45.8856 53.7629C46.1468 53.5017 46.2726 53.1535 46.2726 52.7472C46.2726 52.2926 46.1275 51.954 45.8276 51.7412C45.5374 51.5284 45.1892 51.422 44.7926 51.422H42.6547V54.1595ZM42.6547 58.4255H44.9667C45.46 58.4255 45.8373 58.2997 46.1275 58.0385C46.408 57.787 46.5531 57.4388 46.5531 57.0035C46.5531 56.5875 46.408 56.249 46.1178 55.9781C45.8276 55.7073 45.4503 55.5815 44.9763 55.5815H42.6644V58.4255H42.6547Z" fill="#FFD7B1"/>
<path d="M54.5526 57.574L56.052 57.7772C55.8585 58.4446 55.4813 58.9863 54.9202 59.4216C54.3592 59.8569 53.653 60.0697 52.8114 60.0697C51.7957 60.0697 50.9735 59.7312 50.3544 59.0444C49.7353 58.3576 49.4258 57.4386 49.4258 56.2681C49.4258 55.1557 49.7353 54.2464 50.3641 53.5209C50.9929 52.7954 51.8344 52.4375 52.9082 52.4375C53.9529 52.4375 54.7655 52.7954 55.3362 53.5112C55.9069 54.2271 56.1971 55.146 56.1971 56.2681L56.1874 56.4616H51.1573C51.1573 56.9646 51.2057 57.3612 51.3024 57.6611C51.3991 57.961 51.5829 58.2221 51.8635 58.4446C52.144 58.6671 52.4922 58.7832 52.9179 58.7832C53.7207 58.7639 54.2721 58.3672 54.5526 57.574ZM54.4559 55.3782C54.4559 54.8462 54.2915 54.4205 53.9819 54.082C53.6724 53.7434 53.2854 53.5789 52.8211 53.5789C52.3665 53.5789 51.9892 53.7337 51.6797 54.0433C51.3798 54.3528 51.196 54.7978 51.1476 55.3685H54.4559V55.3782Z" fill="#FFD7B1"/>
<path d="M61.0054 58.6193V59.9155C60.5121 60.0219 60.1251 60.08 59.8543 60.08C59.4093 60.08 59.0224 59.9929 58.7032 59.8188C58.3839 59.6447 58.1518 59.4028 58.0067 59.0933C57.8616 58.7838 57.7842 58.3098 57.7842 57.6713V53.8697H56.8652V52.5832H57.8713L58.026 50.6775L59.3803 50.5518V52.5832H60.8506V53.8697H59.3803V57.4488C59.3803 57.9132 59.4674 58.2227 59.6318 58.3871C59.7962 58.5516 60.1155 58.6387 60.5798 58.6387C60.7249 58.6387 60.8603 58.629 61.0054 58.6193Z" fill="#FFD7B1"/>
<path d="M65.7925 58.6193V59.9155C65.2992 60.0219 64.9123 60.08 64.6414 60.08C64.1964 60.08 63.8095 59.9929 63.4903 59.8188C63.1711 59.6447 62.9389 59.4028 62.7938 59.0933C62.6487 58.7838 62.5713 58.3098 62.5713 57.6713V53.8697H61.6523V52.5832H62.6584L62.8131 50.6775L64.1674 50.5518V52.5832H65.6378V53.8697H64.1674V57.4488C64.1674 57.9132 64.2545 58.2227 64.4189 58.3871C64.5834 58.5516 64.9026 58.6387 65.3669 58.6387C65.512 58.6387 65.6474 58.629 65.7925 58.6193Z" fill="#FFD7B1"/>
<path d="M71.6366 57.574L73.136 57.7772C72.9425 58.4446 72.5653 58.9863 72.0042 59.4216C71.4432 59.8569 70.737 60.0697 69.8954 60.0697C68.8797 60.0697 68.0575 59.7312 67.4384 59.0444C66.8193 58.3576 66.5098 57.4386 66.5098 56.2681C66.5098 55.1557 66.8193 54.2464 67.4481 53.5209C68.0768 52.7954 68.9184 52.4375 69.9922 52.4375C71.0369 52.4375 71.8494 52.7954 72.4202 53.5112C72.9909 54.2271 73.2811 55.146 73.2811 56.2681L73.2714 56.4616H68.2413C68.2413 56.9646 68.2897 57.3612 68.3864 57.6611C68.4831 57.961 68.6669 58.2221 68.9474 58.4446C69.228 58.6671 69.5762 58.7832 70.0018 58.7832C70.8047 58.7639 71.3561 58.3672 71.6366 57.574ZM71.5399 55.3782C71.5399 54.8462 71.3754 54.4205 71.0659 54.082C70.7564 53.7434 70.3694 53.5789 69.9051 53.5789C69.4505 53.5789 69.0732 53.7337 68.7636 54.0433C68.4638 54.3528 68.28 54.7978 68.2316 55.3685H71.5399V55.3782Z" fill="#FFD7B1"/>
<path d="M76.4344 59.9152H74.7803V52.5828H76.2796V54.3337C76.4925 53.6469 76.7827 53.1536 77.1599 52.8343C77.5275 52.5151 77.9144 52.3604 78.311 52.3604C78.3594 52.3604 78.4368 52.3603 78.5335 52.37V54.1499C77.6919 54.1499 77.1309 54.4208 76.86 54.9528C76.5892 55.4945 76.4538 56.0072 76.4538 56.5102V59.9152H76.4344Z" fill="#FFD7B1"/>
<path d="M92.6364 52.5829L90.489 59.9153H88.9993L87.674 54.7691L86.3584 59.9056H84.8301L82.5762 52.5732H84.3367L85.778 57.5066L87.0452 52.5732H88.5446L89.8312 57.5066L91.2435 52.5732H92.6364V52.5829Z" fill="#FFD7B1"/>
<path d="M95.4315 51.7219H93.7773V50H95.4315V51.7219ZM95.4315 59.9152H93.7773V52.5828H95.4315V59.9152Z" fill="#FFD7B1"/>
<path d="M100.82 58.6193V59.9155C100.327 60.0219 99.9396 60.08 99.6687 60.08C99.2238 60.08 98.8368 59.9929 98.5176 59.8188C98.1984 59.6447 97.9662 59.4028 97.8211 59.0933C97.676 58.7838 97.5987 58.3098 97.5987 57.6713V53.8697H96.6797V52.5832H97.6857L97.8405 50.6775L99.1948 50.5518V52.5832H100.665V53.8697H99.1948V57.4488C99.1948 57.9132 99.2818 58.2227 99.4463 58.3871C99.6107 58.5516 99.9299 58.6387 100.394 58.6387C100.53 58.6387 100.675 58.629 100.82 58.6193Z" fill="#FFD7B1"/>
<path d="M108.278 59.9152H106.624V55.1172C106.624 54.5948 106.517 54.2369 106.295 54.0241C106.072 53.8113 105.821 53.7049 105.521 53.7049C105.047 53.7049 104.66 53.8887 104.341 54.2659C104.022 54.6432 103.857 55.2526 103.857 56.1135V59.9152H102.203V50H103.857V53.8597C104.273 52.8053 104.989 52.2732 106.024 52.2732C107.533 52.2732 108.278 53.1342 108.278 54.8657V59.9152Z" fill="#FFD7B1"/>
<path d="M114.083 59.9152V50H117.943C118.6 50 119.142 50.0677 119.568 50.2031C120.003 50.3386 120.371 50.6191 120.69 51.0544C121.009 51.4897 121.164 51.9927 121.164 52.5731C121.164 53.1245 120.999 53.5985 120.68 54.0048C120.361 54.411 119.916 54.6625 119.355 54.7786C120.051 54.8947 120.583 55.1849 120.941 55.6299C121.299 56.0748 121.483 56.6069 121.483 57.2163C121.483 57.9805 121.232 58.6286 120.729 59.1413C120.226 59.6636 119.461 59.9248 118.417 59.9248H114.083V59.9152ZM115.776 54.1595H117.952C118.397 54.1595 118.746 54.0241 119.007 53.7629C119.268 53.5017 119.394 53.1535 119.394 52.7472C119.394 52.2926 119.249 51.954 118.949 51.7412C118.658 51.5284 118.31 51.422 117.914 51.422H115.776V54.1595ZM115.776 58.4255H118.088C118.581 58.4255 118.958 58.2997 119.249 58.0385C119.529 57.787 119.674 57.4388 119.674 57.0035C119.674 56.5875 119.529 56.249 119.239 55.9781C118.949 55.7073 118.571 55.5815 118.097 55.5815H115.786V58.4255H115.776Z" fill="#FFD7B1"/>
<path d="M127.674 57.574L129.173 57.7772C128.98 58.4446 128.602 58.9863 128.041 59.4216C127.48 59.8569 126.774 60.0697 125.933 60.0697C124.917 60.0697 124.095 59.7312 123.476 59.0444C122.856 58.3576 122.547 57.4386 122.547 56.2681C122.547 55.1557 122.856 54.2464 123.485 53.5209C124.114 52.7954 124.956 52.4375 126.029 52.4375C127.074 52.4375 127.887 52.7954 128.457 53.5112C129.028 54.2271 129.318 55.146 129.318 56.2681L129.309 56.4616H124.278C124.278 56.9646 124.327 57.3612 124.423 57.6611C124.52 57.961 124.704 58.2221 124.985 58.4446C125.265 58.6671 125.613 58.7832 126.039 58.7832C126.842 58.7639 127.393 58.3672 127.674 57.574ZM127.577 55.3782C127.577 54.8462 127.413 54.4205 127.103 54.082C126.793 53.7434 126.407 53.5789 125.942 53.5789C125.488 53.5789 125.11 53.7337 124.801 54.0433C124.501 54.3528 124.317 54.7978 124.269 55.3685H127.577V55.3782Z" fill="#FFD7B1"/>
<path d="M132.472 59.9152H130.817V52.5828H132.317V54.3337C132.53 53.6469 132.82 53.1536 133.197 52.8343C133.565 52.5151 133.952 52.3604 134.348 52.3604C134.397 52.3604 134.474 52.3603 134.571 52.37V54.1499C133.729 54.1499 133.168 54.4208 132.897 54.9528C132.626 55.4945 132.491 56.0072 132.491 56.5102V59.9152H132.472Z" fill="#FFD7B1"/>
<path d="M138.528 60.0609C137.444 60.0609 136.612 59.6739 136.042 58.8904C135.471 58.1069 135.181 57.2169 135.181 56.2109C135.181 55.1275 135.5 54.2279 136.129 53.5024C136.757 52.7769 137.589 52.4189 138.634 52.4189C139.621 52.4189 140.424 52.7672 141.052 53.4733C141.681 54.1795 142 55.0888 142 56.2109C142 57.3717 141.671 58.3003 141.014 59.0065C140.366 59.7126 139.534 60.0609 138.528 60.0609ZM138.586 58.6969C139.698 58.6969 140.259 57.865 140.259 56.2109C140.259 55.4564 140.124 54.8663 139.863 54.4407C139.592 54.0054 139.185 53.7926 138.634 53.7926C138.063 53.7926 137.638 54.015 137.367 54.46C137.096 54.905 136.951 55.5047 136.951 56.2399C136.951 57.0428 137.096 57.6522 137.386 58.0682C137.676 58.4841 138.073 58.6969 138.586 58.6969Z" fill="#FFD7B1"/>
</g>
<defs>
<clipPath id="clip0_7962_189051">
<rect width="143.96" height="64.38" fill="white"/>
</clipPath>
</defs>
</svg>
