<svg width="24" height="24" viewBox="0 0 24 24" fill="none" xmlns="http://www.w3.org/2000/svg">
<path d="M19.7233 9.7409C19.6232 9.89205 19.5639 10.0675 19.5514 10.2496C19.539 10.4316 19.5737 10.6138 19.6523 10.7777C19.9042 11.3783 20.0815 12.0088 20.1801 12.6544C20.4414 14.3238 20.197 16.0349 19.4797 17.5585C19.3926 17.7256 19.2624 17.8652 19.1031 17.9621C18.9439 18.0589 18.7617 18.1094 18.5763 18.108H5.73624C5.54985 18.1084 5.36695 18.0564 5.2076 17.9576C5.04825 17.8589 4.9186 17.7172 4.83286 17.5481C4.18312 16.2018 3.90324 14.7005 4.02306 13.2045C4.14287 11.7084 4.65789 10.2736 5.51322 9.05297C6.36854 7.83237 7.5321 6.87173 8.87986 6.27347C10.2276 5.67521 11.7091 5.46175 13.1662 5.65584C13.9035 5.74436 14.6247 5.93987 15.308 6.23646C15.4684 6.31668 15.6468 6.35222 15.825 6.33947C16.0032 6.32673 16.175 6.26616 16.323 6.16388C16.4771 6.06014 16.6007 5.91542 16.6803 5.7453C16.76 5.57517 16.7926 5.38608 16.7749 5.19838C16.7572 5.01069 16.6896 4.83149 16.5796 4.68008C16.4696 4.52866 16.3212 4.41077 16.1504 4.33909C14.1896 3.48025 12.0137 3.27437 9.93177 3.75069C7.84985 4.22702 5.96781 5.36132 4.55297 6.99249C3.13814 8.62366 2.26245 10.6687 2.05031 12.8372C1.83817 15.0057 2.30036 17.1874 3.37122 19.0723C3.54835 19.3857 3.8027 19.6463 4.10898 19.8281C4.41525 20.01 4.7628 20.1069 5.11707 20.1091H19.1752C19.5329 20.1105 19.8847 20.0154 20.1948 19.8333C20.505 19.6513 20.7625 19.3887 20.9414 19.0723C21.7254 17.6844 22.1838 16.1299 22.2806 14.5306C22.3775 12.9313 22.1102 11.3309 21.4996 9.85495C21.4223 9.68674 21.3021 9.54285 21.1517 9.43833C21.0013 9.33382 20.8261 9.27253 20.6445 9.26087C20.463 9.24921 20.2817 9.28761 20.1196 9.37206C19.9575 9.45651 19.8207 9.5839 19.7233 9.7409Z" fill="#333333"/>
<path fill-rule="evenodd" clip-rule="evenodd" d="M19.6716 6.32805C20.0426 6.69905 20.0426 7.30056 19.6716 7.67156L13.6716 13.6716C13.3006 14.0426 12.6991 14.0426 12.3281 13.6716C11.9571 13.3006 11.9571 12.6991 12.3281 12.3281L18.3281 6.32805C18.6991 5.95706 19.3006 5.95706 19.6716 6.32805Z" fill="#333333"/>
</svg>
