<svg width="111" height="115" viewBox="0 0 111 115" fill="none" xmlns="http://www.w3.org/2000/svg">
<path d="M105.039 42.0214C106.902 37.4904 107.286 31.9728 106.153 25.5052C104.765 17.4663 100.873 11.2179 94.515 6.72343C88.157 2.24723 79.8075 0 69.4848 0H44.4729C45.1306 13.5017 43.669 25.1032 40.0881 34.5307C35.9407 45.4928 29.9298 50.9556 25.1431 53.6778L25.07 90.9855C19.3332 87.8979 13.98 84.3352 9.02875 80.4071C8.02389 79.9504 5.64878 81.1562 4.36986 81.8322C2.19571 83.44 0.587937 85.9978 0.277344 88.4094C0.386965 90.7297 0.715823 93.0135 1.55625 95.0963C2.39668 97.1791 3.73041 99.061 5.86802 100.596C7.23828 101.893 8.6999 103.08 10.2346 104.158C12.3174 105.401 14.5098 106.515 16.8119 107.538C19.1139 108.561 21.5073 109.475 23.992 110.279C46.2269 117.021 70.7637 115.541 93.9851 107.94C93.9486 107.904 93.9121 107.867 93.8755 107.812C97.6392 106.259 100.836 104.195 103.467 101.546C109.825 95.1877 112 86.2718 110.008 74.7799C108.291 64.8774 103.139 57.8252 94.5881 53.6596L94.5332 53.3489C99.6854 50.3526 103.175 46.5707 105.039 42.0214ZM56.1658 25.0484H66.1779C69.2108 25.0484 71.4945 25.6696 73.084 26.9303C74.6553 28.1909 75.6784 30.1093 76.1169 32.7219C76.7015 36.0653 76.0073 38.5684 74.0524 40.231C72.0974 41.8935 69.5031 42.734 66.2693 42.734H56.0928L56.1658 25.0484ZM56.0928 66.9785H68.2972C74.8745 66.9785 78.5651 69.3354 79.3873 74.0125C80.045 77.7762 79.4969 80.6629 77.7612 82.6909C76.0256 84.7189 73.285 85.742 69.5214 85.742H56.0562L56.0928 66.9785Z" fill="#FF9015"/>
<path d="M7.51253 45.3637C10.2713 47.2455 14.1994 47.2455 18.0544 45.4002C20.5209 44.2127 22.9691 42.2578 25.1981 39.4807C30.9532 32.2822 35.1919 19.5662 34.4793 0.236328C31.8119 1.53351 28.5963 3.25091 25.2711 5.33371C14.8754 11.8744 3.2921 22.2154 3.41999 35.8267C3.43827 40.1932 4.89989 43.5915 7.51253 45.3637Z" fill="#FF9015"/>
</svg>
