<svg width="80" height="89" viewBox="0 0 80 89" fill="none" xmlns="http://www.w3.org/2000/svg">
<g filter="url(#filter0_d_3490_54179)">
<path d="M37.6734 13.2168C24.2938 13.2168 13.4517 24.0136 13.4517 37.3373C13.4517 43.3983 15.7053 48.9292 19.4139 53.1702L19.5115 53.2762C19.9019 53.718 20.3012 54.1421 20.727 54.5574L35.4641 70.0722C36.6708 71.3445 38.6937 71.3445 39.9003 70.0722L54.6463 54.5574C55.0633 54.1509 55.4626 53.7268 55.8441 53.2939L55.9505 53.1879H55.9417C59.6503 48.9469 61.9039 43.416 61.9039 37.3549C61.9039 24.0401 51.0618 13.2345 37.6822 13.2345L37.6734 13.2168Z" fill="white"/>
</g>
<path opacity="0.2" d="M37.6733 56.5366C48.3212 56.5366 56.9531 47.9408 56.9531 37.3374C56.9531 26.734 48.3212 18.1382 37.6733 18.1382C27.0254 18.1382 18.3936 26.734 18.3936 37.3374C18.3936 47.9408 27.0254 56.5366 37.6733 56.5366Z" fill="#E5E7EB"/>
<path d="M48.7457 33.1669L43.3158 28.5283C42.8722 28.1484 42.2245 28.1484 41.7809 28.5283L37.6818 32.036L33.5827 28.5283C33.1391 28.1484 32.4914 28.1484 32.0478 28.5283L26.6179 33.1669C25.7928 33.8737 26.2896 35.2255 27.3809 35.2255H28.3125V51.032C28.3125 51.6416 28.8094 52.1364 29.4216 52.1364H45.8355C46.4477 52.1364 46.9446 51.6416 46.9446 51.032V35.2255H47.9827C49.074 35.2255 49.5797 33.8737 48.7457 33.1669Z" fill="#EAEBEF"/>
<path d="M36.28 41.3837H31.0098V38.7596C31.0098 37.3106 32.1898 36.1355 33.6449 36.1355C35.1 36.1355 36.28 37.3106 36.28 38.7596V41.3837Z" fill="white"/>
<path d="M44.3449 41.3837H39.0747V38.7596C39.0747 37.3106 40.2547 36.1355 41.7098 36.1355C43.1649 36.1355 44.3449 37.3106 44.3449 38.7596V41.3837Z" fill="white"/>
<path d="M36.28 49.1854H31.0098V46.5614C31.0098 45.1124 32.1898 43.9373 33.6449 43.9373C35.1 43.9373 36.28 45.1124 36.28 46.5614V49.1854Z" fill="white"/>
<path d="M44.3449 49.1854H39.0747V46.5614C39.0747 45.1124 40.2547 43.9373 41.7098 43.9373C43.1649 43.9373 44.3449 45.1124 44.3449 46.5614V49.1854Z" fill="white"/>
<path d="M37.4953 25.8337L35.6853 26.779C35.5256 26.8586 35.3393 26.726 35.3747 26.5493L35.7208 24.5437C35.7296 24.473 35.7119 24.4023 35.6587 24.3493L34.1947 22.9268C34.0705 22.8031 34.1415 22.5823 34.3101 22.5646L36.333 22.273C36.4039 22.2642 36.4661 22.22 36.4927 22.1582L37.3977 20.3292C37.4775 20.1702 37.7082 20.1702 37.788 20.3292L38.693 22.1582C38.7285 22.22 38.7818 22.2642 38.8527 22.273L40.8756 22.5646C41.0531 22.5911 41.1241 22.8031 40.991 22.9268L39.527 24.3493C39.4738 24.4023 39.4561 24.473 39.4649 24.5437L39.811 26.5493C39.8376 26.726 39.6601 26.8586 39.5004 26.779L37.6904 25.8337C37.6283 25.7983 37.5485 25.7983 37.4864 25.8337H37.4953Z" fill="#EAEBEF"/>
<path d="M29.9629 27.8747L29.5725 29.1293C29.537 29.2353 29.395 29.2618 29.3241 29.1646L28.561 28.0955C28.561 28.0955 28.4901 28.0337 28.4457 28.0337L27.1237 28.0514C27.0084 28.0514 26.9374 27.9188 27.0084 27.8305L27.798 26.7791C27.798 26.7791 27.8335 26.6907 27.8158 26.6554L27.3899 25.4096C27.3544 25.3036 27.4609 25.1975 27.5673 25.2329L28.8183 25.657C28.8183 25.657 28.9071 25.657 28.9425 25.6393L29.9984 24.853C30.0871 24.7823 30.2202 24.853 30.2202 24.9678L30.2024 26.2843C30.2024 26.3285 30.2202 26.3726 30.2645 26.3992L31.3381 27.159C31.4357 27.2208 31.4091 27.371 31.3026 27.4064L30.0427 27.7951C30.0427 27.7951 29.9629 27.8393 29.954 27.8835L29.9629 27.8747Z" fill="#EAEBEF"/>
<path d="M45.2146 27.8747L45.605 29.1293C45.6404 29.2353 45.7824 29.2618 45.8534 29.1646L46.6164 28.0955C46.6164 28.0955 46.6874 28.0337 46.7318 28.0337L48.0537 28.0514C48.1691 28.0514 48.2401 27.9188 48.1691 27.8305L47.3794 26.7791C47.3794 26.7791 47.3439 26.6907 47.3617 26.6554L47.7876 25.4096C47.8231 25.3036 47.7166 25.1975 47.6101 25.2329L46.3591 25.657C46.3591 25.657 46.2704 25.657 46.2349 25.6393L45.1791 24.853C45.0904 24.7823 44.9573 24.853 44.9573 24.9678L44.975 26.2843C44.975 26.3285 44.9573 26.3726 44.9129 26.3992L43.8393 27.159C43.7417 27.2208 43.7684 27.371 43.8748 27.4064L45.1347 27.7951C45.1347 27.7951 45.2146 27.8393 45.2234 27.8835L45.2146 27.8747Z" fill="#EAEBEF"/>
<defs>
<filter id="filter0_d_3490_54179" x="4.94166" y="4.7068" width="71.1321" height="80.4896" filterUnits="userSpaceOnUse" color-interpolation-filters="sRGB">
<feFlood flood-opacity="0" result="BackgroundImageFix"/>
<feColorMatrix in="SourceAlpha" type="matrix" values="0 0 0 0 0 0 0 0 0 0 0 0 0 0 0 0 0 0 127 0" result="hardAlpha"/>
<feOffset dx="2.83" dy="2.83"/>
<feGaussianBlur stdDeviation="5.67"/>
<feColorMatrix type="matrix" values="0 0 0 0 0 0 0 0 0 0 0 0 0 0 0 0 0 0 0.15 0"/>
<feBlend mode="normal" in2="BackgroundImageFix" result="effect1_dropShadow_3490_54179"/>
<feBlend mode="normal" in="SourceGraphic" in2="effect1_dropShadow_3490_54179" result="shape"/>
</filter>
</defs>
</svg>
