<svg width="40" height="40" viewBox="0 0 40 40" fill="none" xmlns="http://www.w3.org/2000/svg">
<path d="M19.9974 38.3334C30.1226 38.3334 38.3307 30.1253 38.3307 20.0001C38.3307 9.87486 30.1226 1.66675 19.9974 1.66675C9.87218 1.66675 1.66406 9.87486 1.66406 20.0001C1.66406 30.1253 9.87218 38.3334 19.9974 38.3334Z" fill="#FFD815"/>
<ellipse cx="20.103" cy="20.1018" rx="17.0093" ry="17.0093" fill="#FFD815"/>
<path d="M34.1168 19.9993C34.1168 27.7959 27.7964 34.1163 19.9998 34.1163C12.2032 34.1163 5.88281 27.7959 5.88281 19.9993C5.88281 12.2027 12.2032 5.88232 19.9998 5.88232C27.7964 5.88232 34.1168 12.2027 34.1168 19.9993Z" fill="url(#paint0_linear_8459_190154)" stroke="#FFBC1B"/>
<path d="M18.5733 22.6787V28.3334H15V11.6667H20.9148C22.0482 11.6667 23.0493 11.9033 23.918 12.3765C24.7935 12.842 25.4688 13.5097 25.9439 14.3797C26.4257 15.242 26.6667 16.2226 26.6667 17.3215C26.6667 18.947 26.1475 20.2481 25.1091 21.2249C24.0775 22.1941 22.659 22.6787 20.8537 22.6787H18.5733ZM18.5733 19.5765H20.9148C21.607 19.5765 22.133 19.3819 22.4927 18.9928C22.8592 18.6036 23.0425 18.0541 23.0425 17.3444C23.0425 16.566 22.8558 15.9441 22.4825 15.4786C22.1093 15.0131 21.6003 14.7765 20.9555 14.7689H18.5733V19.5765Z" fill="white"/>
<defs>
<linearGradient id="paint0_linear_8459_190154" x1="13.0809" y1="11.4806" x2="28.2218" y2="31.0651" gradientUnits="userSpaceOnUse">
<stop stop-color="#FFD017"/>
<stop offset="0.938927" stop-color="#FFCD1B"/>
</linearGradient>
</defs>
</svg>
