<svg width="39" height="39" viewBox="0 0 39 39" fill="none" xmlns="http://www.w3.org/2000/svg">
<circle cx="19.5" cy="19.5" r="19.5" fill="#FF9015"/>
<path d="M29.0292 18.4735C29.3916 17.5828 29.5954 16.6049 29.5954 15.5803C29.5954 11.4646 26.351 8.12891 22.348 8.12891H13.75C11.5409 8.12891 9.75 9.91977 9.75 12.1289V15.9761V23.0317V24.1727C9.75 27.8751 12.6716 30.8789 16.2726 30.8789H23.6276C27.6307 30.8789 30.875 27.5432 30.875 23.4275C30.875 21.5239 30.1729 19.7892 29.0292 18.4735ZM23.7578 23.2063C22.4329 23.8932 20.9948 24.324 19.5057 24.3124C18.0562 24.3007 16.6633 23.87 15.3724 23.2063C14.6363 22.8279 15.2818 21.6927 16.0179 22.0711C16.9181 22.5369 17.8524 22.8105 18.7922 22.9152V19.0149L16.6294 16.9309C16.1254 16.4477 16.199 15.7084 16.6124 15.2834H16.5954C16.5954 15.2834 16.635 15.2485 16.6973 15.1961C16.7369 15.167 16.7766 15.1379 16.8162 15.1146C17.1672 14.8817 17.9826 14.4975 19.5679 14.4975C21.1646 14.4975 21.98 14.8875 22.3253 15.1204C22.3593 15.1437 22.3933 15.167 22.4273 15.1903C22.5009 15.2426 22.5405 15.2834 22.5405 15.2834H22.5235C22.9368 15.7142 23.0105 16.4477 22.5065 16.9309L20.3436 19.0149V22.9152C21.2835 22.8163 22.2178 22.5369 23.118 22.0711C23.8484 21.6869 24.4939 22.8221 23.7578 23.2063Z" fill="white"/>
</svg>
