<svg width="24" height="24" viewBox="0 0 24 24" fill="none" xmlns="http://www.w3.org/2000/svg">
<path d="M6.14027 11.8603L3.36027 14.6503C3.17027 14.8503 3.17027 15.1603 3.36027 15.3603L6.14027 18.1503C6.45027 18.4703 6.99027 18.2403 6.99027 17.8003V16.0003H13.0003C13.5503 16.0003 14.0003 15.5503 14.0003 15.0003C14.0003 14.4503 13.5503 14.0003 13.0003 14.0003H6.99027V12.2103C6.99027 11.7603 6.45027 11.5403 6.14027 11.8603ZM20.6503 8.65033L17.8703 5.86033C17.5603 5.54033 17.0203 5.77033 17.0203 6.21033V8.00033H11.0003C10.4503 8.00033 10.0003 8.45033 10.0003 9.00033C10.0003 9.55033 10.4503 10.0003 11.0003 10.0003H17.0103V11.7903C17.0103 12.2403 17.5503 12.4603 17.8603 12.1403L20.6403 9.35033C20.8403 9.16033 20.8403 8.84033 20.6503 8.65033Z" fill="#333333"/>
</svg>
