<svg width="71" height="78" viewBox="0 0 71 78" fill="none" xmlns="http://www.w3.org/2000/svg">
<g filter="url(#filter0_dd_3531_55502)">
<path d="M56.7823 46.5681C56.7823 45.4975 56.365 44.4805 55.6161 43.7204C55.9477 43.1209 56.1189 42.4572 56.1189 41.772C56.1189 40.3803 55.4021 39.0207 54.2787 38.2178C54.2787 38.1536 54.3001 38.0894 54.3001 38.0251C54.3001 36.6869 53.6474 35.4344 52.5561 34.6743C53.0055 33.7001 53.059 32.5867 52.6845 31.559C52.2244 30.2958 51.1866 29.3537 49.9027 29.0004C49.9883 27.9299 49.6566 26.8593 48.9612 26.035C48.1052 25.0073 46.7999 24.472 45.4732 24.5898C45.1951 23.5513 44.5103 22.6628 43.5688 22.1168C42.4133 21.4424 41.001 21.3888 39.8027 21.9455C39.1821 21.0677 38.2406 20.4682 37.1707 20.2755C35.8547 20.0399 34.5066 20.4682 33.5758 21.4102C32.6877 20.8 31.6071 20.5538 30.5372 20.7465C29.2212 20.982 28.1085 21.8385 27.5414 23.0375C26.5036 22.7591 25.4016 22.909 24.4494 23.455C23.2938 24.1294 22.5342 25.3177 22.4165 26.6345C21.3466 26.7309 20.3516 27.2447 19.6561 28.0797C18.8002 29.1075 18.5006 30.4885 18.8323 31.7624C17.8587 32.2228 17.1097 33.0471 16.7352 34.0641C16.3073 35.2417 16.4571 36.5478 17.099 37.6076C15.569 38.1964 14.4563 39.8558 14.4563 41.6757C14.4563 42.3608 14.6275 43.0353 14.9592 43.6241C14.2102 44.3842 13.793 45.4012 13.793 46.4717C13.793 47.7885 14.4135 48.9982 15.4834 49.7583C15.4406 49.9831 15.4299 50.2079 15.4299 50.422C15.4299 52.6595 17.2488 54.4687 19.4742 54.4687C19.6454 54.4687 19.8166 54.458 19.9878 54.4366C20.6404 55.8604 22.0741 56.7811 23.6576 56.7811C24.9843 56.7811 26.1505 56.1281 26.8888 55.1432C29.7027 56.4492 32.8375 57.2843 35.1699 57.2843C37.5023 57.2843 40.7014 56.4171 43.5474 55.0575C44.2749 56.1495 45.516 56.8667 46.9176 56.8667C48.5011 56.8667 49.9348 55.9354 50.5874 54.5222C50.7586 54.5437 50.9298 54.5544 51.101 54.5544C53.3371 54.5544 55.1453 52.7344 55.1453 50.5077C55.1453 50.2936 55.1239 50.0688 55.0918 49.844C56.151 49.0839 56.7823 47.8741 56.7823 46.5574V46.5681Z" stroke="white" stroke-width="5" stroke-linecap="round" stroke-linejoin="round" shape-rendering="crispEdges"/>
</g>
<path d="M53.8459 38.0095C53.8459 36.6392 53.0863 35.4402 51.9629 34.8192C52.5085 33.9093 52.6476 32.7745 52.2624 31.7039C51.7917 30.4086 50.6682 29.5521 49.4057 29.3487C49.5983 28.3103 49.3522 27.1862 48.614 26.3191C47.7367 25.27 46.3779 24.8417 45.1261 25.0773C44.9549 24.0281 44.3343 23.0646 43.35 22.4972C42.1624 21.8121 40.7501 21.8656 39.6481 22.5294C39.1345 21.6087 38.2144 20.9128 37.091 20.7094C35.7429 20.4739 34.4269 21.0092 33.6244 22.0048C32.822 21.3089 31.7307 20.9771 30.6073 21.1698C29.2592 21.4053 28.2107 22.3581 27.7934 23.5785C26.7984 23.2038 25.6643 23.2573 24.6692 23.8354C23.4816 24.5206 22.829 25.7731 22.8397 27.0578C21.7805 27.0471 20.7212 27.486 19.9937 28.3638C19.1164 29.413 18.9238 30.8154 19.3838 32.0144C18.3888 32.3677 17.5436 33.1385 17.1584 34.2197C16.6876 35.5151 16.9979 36.8961 17.8325 37.8596C17.0086 38.534 16.4844 39.5511 16.4844 40.6858C16.4844 42.7092 18.1214 44.3364 20.1328 44.3364C20.4217 44.3364 20.6999 44.3043 20.9673 44.24C22.7862 50.5456 28.4567 55.1489 35.1651 55.1489C40.9855 55.1489 46.0248 51.6803 48.4428 46.6488C48.4642 46.6488 48.4749 46.6595 48.4963 46.6702C50.3901 47.3553 52.4871 46.3811 53.1826 44.4863C53.6533 43.1909 53.343 41.8099 52.5085 40.8464C53.3323 40.172 53.8566 39.155 53.8566 38.0202L53.8459 38.0095Z" fill="#F6F6F6"/>
<path d="M35.1643 55.5988C31.8048 55.5988 28.6272 54.4961 25.9631 52.4193C23.4916 50.4923 21.6192 47.7838 20.667 44.7542C20.4851 44.7756 20.3139 44.7863 20.1427 44.7863C17.8852 44.7863 16.0449 42.9449 16.0449 40.6861C16.0449 39.5941 16.4729 38.5664 17.2325 37.8063C16.4729 36.7143 16.291 35.3226 16.7404 34.0594C17.1148 33.0317 17.8638 32.2181 18.8374 31.7577C18.495 30.4731 18.7946 29.1028 19.6612 28.075C20.3567 27.24 21.3517 26.7261 22.4216 26.6298C22.5393 25.313 23.2883 24.114 24.4545 23.4503C25.396 22.9043 26.498 22.7651 27.5465 23.0328C28.1136 21.8337 29.2263 20.9666 30.5423 20.7418C31.6122 20.5491 32.7035 20.7953 33.5809 21.4055C34.5224 20.4742 35.8598 20.0459 37.1758 20.2707C38.2457 20.4634 39.1873 21.063 39.8078 21.9408C41.0061 21.3841 42.4184 21.4376 43.5739 22.1121C44.5154 22.6581 45.1895 23.5466 45.4784 24.5851C46.7944 24.478 48.0997 25.0026 48.9663 26.0303C49.6617 26.8653 50.0041 27.9252 49.9078 28.9957C51.181 29.3383 52.2295 30.2911 52.6896 31.5543C53.0641 32.582 53.0106 33.6954 52.5612 34.6696C53.6418 35.4297 54.3052 36.6822 54.3052 38.0204C54.3052 39.1124 53.8772 40.1401 53.1176 40.9002C53.8772 41.9921 54.0591 43.3839 53.6097 44.6471C52.8715 46.6597 50.721 47.7517 48.6881 47.195C46.0347 52.3871 40.8991 55.5988 35.1858 55.5988H35.1643ZM20.9666 43.8014C21.1591 43.8014 21.341 43.9298 21.3945 44.1225C23.192 50.3531 28.8518 54.7102 35.1643 54.7102C40.6637 54.7102 45.5961 51.5521 48.0462 46.4563C48.1425 46.2529 48.3885 46.1566 48.6025 46.2315C48.6239 46.2315 48.6346 46.2422 48.656 46.2529C50.3144 46.8631 52.1654 45.996 52.7645 44.3366C53.1604 43.2447 52.9357 42.0136 52.1761 41.1357C52.1012 41.0501 52.0584 40.9216 52.0691 40.8038C52.0798 40.6861 52.1333 40.579 52.2295 40.4934C52.9785 39.8832 53.4064 38.9732 53.4064 38.0097C53.4064 36.8428 52.7752 35.7723 51.7588 35.2049C51.6518 35.1513 51.5769 35.0443 51.5448 34.9372C51.5127 34.8195 51.5341 34.7017 51.5876 34.5947C52.0798 33.7596 52.1761 32.764 51.8444 31.8541C51.4485 30.7621 50.4856 29.9699 49.3301 29.7772C49.2124 29.7558 49.1054 29.6916 49.0412 29.5952C48.977 29.4989 48.9449 29.3704 48.9663 29.2526C49.1482 28.2998 48.8914 27.3257 48.2708 26.587C47.5219 25.6984 46.345 25.2809 45.2002 25.495C45.0825 25.5164 44.9648 25.495 44.8578 25.4201C44.7615 25.3558 44.6973 25.2488 44.6759 25.131C44.5154 24.1782 43.9484 23.3432 43.1138 22.8615C42.1081 22.2834 40.8563 22.2941 39.8613 22.8936C39.7543 22.9578 39.6366 22.9685 39.5189 22.9364C39.4012 22.9043 39.3049 22.8294 39.2514 22.7223C38.7807 21.8766 37.9568 21.2985 37.0046 21.1272C35.8598 20.9238 34.6936 21.3627 33.9554 22.262C33.8805 22.3583 33.7735 22.4118 33.6558 22.4225C33.5381 22.4333 33.4204 22.3904 33.3241 22.3155C32.5858 21.6839 31.6229 21.4162 30.6707 21.5875C29.5259 21.7909 28.5737 22.6045 28.1992 23.6965C28.1564 23.8143 28.0815 23.8999 27.9638 23.9534C27.8568 24.007 27.7284 24.007 27.6214 23.9641C26.712 23.6216 25.717 23.6965 24.8824 24.1889C23.8767 24.767 23.2562 25.859 23.2776 27.0259C23.2776 27.1437 23.2348 27.2614 23.1492 27.3471C23.0636 27.4327 22.9459 27.4755 22.8282 27.4755C21.8546 27.4755 20.9451 27.8823 20.3246 28.621C19.5757 29.5096 19.3724 30.7407 19.7896 31.8327C19.8324 31.9397 19.8324 32.0682 19.7789 32.1752C19.7254 32.2823 19.6398 32.3679 19.5222 32.4107C18.6127 32.7319 17.8959 33.4385 17.5642 34.3484C17.1683 35.4404 17.393 36.6715 18.1527 37.5494C18.2276 37.635 18.2704 37.7635 18.2597 37.8812C18.249 37.999 18.1955 38.1061 18.0992 38.1917C17.3502 38.8019 16.9223 39.7119 16.9223 40.6754C16.9223 42.4418 18.3667 43.887 20.132 43.887C20.3674 43.887 20.6135 43.8549 20.8702 43.8014C20.9023 43.8014 20.9345 43.7907 20.9666 43.7907V43.8014Z" fill="#231916"/>
<path d="M19.0409 45.7816C20.7959 45.7816 22.2186 44.0177 22.2186 41.842C22.2186 39.6662 20.7959 37.9023 19.0409 37.9023C17.286 37.9023 15.8633 39.6662 15.8633 41.842C15.8633 44.0177 17.286 45.7816 19.0409 45.7816Z" fill="#F6F6F6"/>
<path d="M23.6525 49.1222C23.3851 49.1222 23.1176 49.1543 22.8608 49.2078C22.5826 48.4156 22.037 47.7519 21.3308 47.3237C21.395 47.0453 21.4378 46.7563 21.4378 46.4565C21.4378 45.7071 21.2024 45.0006 20.8066 44.4225C21.5983 43.7587 22.1012 42.7631 22.1012 41.6605C22.1012 39.6693 20.4856 38.0527 18.4955 38.0527C16.5055 38.0527 14.8899 39.6693 14.8899 41.6605C14.8899 42.4099 15.1253 43.1164 15.5212 43.6945C14.7294 44.3583 14.2266 45.3539 14.2266 46.4565C14.2266 47.7626 14.922 48.9081 15.9705 49.5397C15.9063 49.818 15.8635 50.1071 15.8635 50.4068C15.8635 52.3981 17.4791 54.0146 19.4692 54.0146C19.7366 54.0146 20.0041 53.9825 20.2609 53.9289C20.7531 55.3314 22.0905 56.3377 23.6525 56.3377C25.6426 56.3377 27.2582 54.7211 27.2582 52.7299C27.2582 50.7387 25.6426 49.1222 23.6525 49.1222Z" fill="#F6F6F6"/>
<path d="M23.6527 56.7765C22.0693 56.7765 20.6356 55.8451 19.9829 54.432C19.8117 54.4534 19.6405 54.4641 19.4693 54.4641C17.2332 54.4641 15.4251 52.6441 15.4251 50.4174C15.4251 50.2033 15.4465 49.9785 15.4786 49.7537C14.4193 48.9936 13.7881 47.7839 13.7881 46.4671C13.7881 45.3965 14.2053 44.3795 14.9543 43.6194C14.6226 43.0199 14.4514 42.3562 14.4514 41.671C14.4514 39.5942 15.8958 37.7314 17.7468 37.421C17.9929 37.3781 18.2176 37.5387 18.2604 37.785C18.3031 38.0312 18.1426 38.256 17.8966 38.2988C16.4629 38.5343 15.3395 40.0224 15.3395 41.671C15.3395 42.3134 15.5321 42.9236 15.8851 43.4481C16.0135 43.6408 15.9814 43.8871 15.7995 44.0369C15.0827 44.6365 14.6654 45.525 14.6654 46.4671C14.6654 47.5805 15.2325 48.5868 16.1954 49.1649C16.3559 49.2612 16.4415 49.4646 16.3987 49.6466C16.3345 49.9035 16.3024 50.1605 16.3024 50.4067C16.3024 52.1517 17.7147 53.5648 19.4587 53.5648C19.6833 53.5648 19.9187 53.5434 20.1541 53.4899C20.3681 53.4363 20.5928 53.5648 20.6677 53.7789C21.117 55.0422 22.3046 55.8879 23.642 55.8879C25.386 55.8879 26.7983 54.4748 26.7983 52.7298C26.7983 50.9848 25.386 49.5717 23.642 49.5717C23.4174 49.5717 23.182 49.5931 22.9466 49.6466C22.7326 49.7001 22.5079 49.5717 22.433 49.3576C22.1869 48.6724 21.7162 48.0836 21.0956 47.7089C20.9351 47.6126 20.8495 47.4092 20.8923 47.2272C20.9565 46.9702 20.9886 46.7133 20.9886 46.4671C20.9886 45.8248 20.796 45.2145 20.443 44.69C20.3039 44.4866 20.3574 44.2082 20.5607 44.0691C20.764 43.9299 21.0421 43.9834 21.1812 44.1868C21.6413 44.8613 21.8874 45.6535 21.8874 46.4671C21.8874 46.6812 21.866 46.906 21.8339 47.1308C22.4009 47.5376 22.8503 48.0836 23.1392 48.7152C23.3104 48.6938 23.4815 48.6831 23.6527 48.6831C25.8889 48.6831 27.697 50.5031 27.697 52.7298C27.697 54.9565 25.8782 56.7765 23.6527 56.7765Z" fill="#231916"/>
<path d="M46.9123 49.2071C47.1798 49.2071 47.4472 49.2393 47.704 49.2928C47.9822 48.5006 48.5278 47.8368 49.234 47.4086C49.1698 47.1303 49.127 46.8412 49.127 46.5415C49.127 45.7921 49.3624 45.0855 49.7582 44.5074C48.9665 43.8437 48.4637 42.8481 48.4637 41.7454C48.4637 39.7542 50.0792 38.1377 52.0693 38.1377C54.0593 38.1377 55.6749 39.7542 55.6749 41.7454C55.6749 42.4948 55.4395 43.2014 55.0436 43.7795C55.8354 44.4432 56.3382 45.4388 56.3382 46.5415C56.3382 47.8476 55.6428 48.993 54.5943 49.6247C54.6585 49.903 54.7013 50.1921 54.7013 50.4918C54.7013 52.483 53.0857 54.0995 51.0956 54.0995C50.8282 54.0995 50.5607 54.0674 50.3039 54.0139C49.8117 55.4163 48.4744 56.4226 46.9123 56.4226C44.9222 56.4226 43.3066 54.8061 43.3066 52.8149C43.3066 50.8237 44.9222 49.2071 46.9123 49.2071Z" fill="#F6F6F6"/>
<path d="M46.9134 56.8621C44.6773 56.8621 42.8691 55.0421 42.8691 52.8154C42.8691 50.5887 44.688 48.7687 46.9134 48.7687C47.0846 48.7687 47.2558 48.7794 47.427 48.8008C47.7159 48.1692 48.1759 47.6232 48.7323 47.2164C48.6895 46.9916 48.6788 46.7668 48.6788 46.5527C48.6788 45.7391 48.9249 44.9469 49.3849 44.2724C49.524 44.069 49.8022 44.0155 50.0055 44.1547C50.2088 44.2939 50.2623 44.5722 50.1232 44.7756C49.7594 45.3002 49.5775 45.9211 49.5775 46.5527C49.5775 46.7989 49.6096 47.0559 49.6738 47.3128C49.7166 47.5055 49.6417 47.6982 49.4705 47.7945C48.85 48.1692 48.3685 48.758 48.1331 49.4432C48.0582 49.6573 47.8335 49.775 47.6196 49.7322C47.3842 49.6787 47.1488 49.6573 46.9241 49.6573C45.1802 49.6573 43.7679 51.0704 43.7679 52.8154C43.7679 54.5604 45.1802 55.9735 46.9241 55.9735C48.2615 55.9735 49.4491 55.1278 49.8985 53.8645C49.9734 53.6504 50.1981 53.5327 50.412 53.5755C50.6474 53.629 50.8828 53.6504 51.1075 53.6504C52.8515 53.6504 54.2638 52.2373 54.2638 50.4923C54.2638 50.2461 54.2317 49.9892 54.1675 49.7322C54.1247 49.5395 54.1996 49.3468 54.3708 49.2505C55.323 48.6724 55.9007 47.6554 55.9007 46.5527C55.9007 45.6106 55.4835 44.7328 54.7666 44.1226C54.5954 43.9727 54.5526 43.7158 54.681 43.5338C55.0448 43.0092 55.2267 42.3883 55.2267 41.7567C55.2267 40.5791 54.5847 39.4122 53.6004 38.8019C53.3971 38.6735 53.3329 38.3951 53.4613 38.1917C53.5897 37.9883 53.8679 37.9134 54.0712 38.0526C55.3123 38.8234 56.1254 40.2793 56.1254 41.7674C56.1254 42.4525 55.9542 43.127 55.6226 43.7158C56.3715 44.4758 56.7888 45.4929 56.7888 46.5634C56.7888 47.8802 56.1682 49.0899 55.0983 49.85C55.1411 50.0748 55.1518 50.2996 55.1518 50.5137C55.1518 52.7512 53.3329 54.5604 51.1075 54.5604C50.9363 54.5604 50.7651 54.5497 50.5939 54.5283C49.9413 55.9521 48.5076 56.8728 46.9241 56.8728L46.9134 56.8621Z" fill="#231916"/>
<path d="M51.3423 44.9142V44.8928C51.3423 44.8286 51.3423 44.7644 51.3423 44.6894C51.3423 44.6573 51.3423 44.6252 51.3423 44.5931C51.3423 44.5502 51.3423 44.5074 51.3423 44.4646C51.3423 44.4325 51.3423 44.3897 51.3423 44.3575C51.3423 44.3147 51.3423 44.2826 51.3423 44.2398C51.3423 44.2077 51.3423 44.1648 51.3316 44.1327C51.3316 44.1006 51.3316 44.0578 51.3209 44.0257C51.3209 43.9829 51.3209 43.9507 51.3102 43.9079C51.3102 43.8758 51.3102 43.833 51.2995 43.8009C51.2995 43.758 51.2888 43.7259 51.2781 43.6831C51.2781 43.651 51.2674 43.6189 51.2567 43.5867C51.2567 43.5439 51.246 43.5118 51.2353 43.469C51.2353 43.4369 51.2246 43.4048 51.2139 43.3726C51.2139 43.3298 51.1925 43.2977 51.1925 43.2549C51.1925 43.2228 51.1818 43.1906 51.1711 43.1585C51.1711 43.1157 51.1497 43.0729 51.139 43.0408C51.139 43.0087 51.1283 42.9765 51.1176 42.9551C51.1176 42.9123 51.0962 42.8695 51.0855 42.8267C51.0855 42.7945 51.0748 42.7731 51.0641 42.741C51.0534 42.6982 51.0427 42.6554 51.032 42.6126C51.032 42.5911 51.0213 42.559 51.0106 42.5376C50.9999 42.4948 50.9892 42.452 50.9678 42.4091C50.9678 42.3877 50.9571 42.3556 50.9464 42.3342C50.9357 42.2914 50.9143 42.2486 50.9036 42.2057C50.9036 42.1843 50.8929 42.1629 50.8822 42.1415C50.8608 42.0987 50.8501 42.0452 50.8287 42.0023C50.8287 41.9809 50.818 41.9702 50.8073 41.9488C50.7859 41.8953 50.7645 41.8525 50.7538 41.7989C50.7538 41.7882 50.7538 41.7775 50.7431 41.7668C50.7217 41.7133 50.7003 41.6598 50.6789 41.6062C50.4649 41.0924 50.1975 40.6106 49.8979 40.161C49.8658 40.1075 49.823 40.0539 49.7909 40.0004C49.7481 39.9469 49.716 39.8934 49.6732 39.8398C49.6304 39.7863 49.5983 39.7328 49.5555 39.6793C49.5127 39.6257 49.4699 39.5722 49.4271 39.5187C47.8757 37.5917 45.5647 36.3177 42.9434 36.1572C42.7508 36.1464 42.5689 36.1357 42.3764 36.1357C39.4769 36.1357 36.8877 37.506 35.24 39.6257C33.5816 37.506 31.0031 36.1357 28.1037 36.1357C27.665 36.1357 27.237 36.1679 26.8198 36.2214C24.2627 36.5854 22.0479 38.0199 20.6463 40.0646C20.6142 40.1182 20.5821 40.161 20.55 40.2145C20.55 40.2145 20.55 40.2252 20.5393 40.2359C20.5072 40.2788 20.4751 40.3323 20.443 40.3858C20.443 40.3858 20.4431 40.4072 20.4324 40.4072C20.4003 40.45 20.3682 40.5036 20.3468 40.5571C20.3468 40.5571 20.3467 40.5785 20.336 40.5785C20.3039 40.632 20.2825 40.6749 20.2505 40.7284C20.2505 40.7284 20.2505 40.7391 20.2505 40.7498C20.1007 41.0174 19.9616 41.2958 19.8332 41.5848C19.8332 41.5955 19.8225 41.6169 19.8118 41.6276C19.7904 41.6705 19.7797 41.7133 19.7583 41.7561C19.7583 41.7775 19.7369 41.7989 19.7369 41.8203C19.7155 41.8632 19.7048 41.906 19.6834 41.9488C19.6834 41.9702 19.662 41.9916 19.662 42.013C19.6513 42.0559 19.6299 42.0987 19.6192 42.1415C19.6192 42.1629 19.5978 42.195 19.5978 42.2164C19.5871 42.2593 19.5657 42.3021 19.555 42.3342C19.555 42.3556 19.5336 42.3877 19.5336 42.4091C19.5229 42.452 19.5122 42.4948 19.4908 42.5376C19.4908 42.559 19.4801 42.5911 19.4694 42.6126C19.4587 42.6554 19.448 42.6982 19.4373 42.741C19.4373 42.7624 19.4266 42.7838 19.4159 42.8053C19.3945 42.9016 19.3624 42.9872 19.341 43.0836C19.341 43.105 19.341 43.1157 19.3303 43.1371C19.3303 43.1799 19.3089 43.2121 19.3089 43.2549C19.3089 43.287 19.2982 43.3191 19.2875 43.3512C19.2875 43.3833 19.2768 43.4262 19.2661 43.4583C19.2661 43.4904 19.2554 43.5225 19.2447 43.5653C19.2447 43.5975 19.234 43.6403 19.2233 43.6724C19.2233 43.7045 19.2126 43.7473 19.2019 43.7794C19.2019 43.8116 19.1912 43.8544 19.1912 43.8865C19.1912 43.9186 19.1912 43.9614 19.1805 43.9936C19.1805 44.0257 19.1805 44.0578 19.1698 44.1006C19.1698 44.1434 19.1698 44.1755 19.1591 44.2184C19.1591 44.2505 19.1591 44.2826 19.1591 44.3147C19.1591 44.3575 19.1591 44.4004 19.1484 44.4325C19.1484 44.4646 19.1484 44.4967 19.1484 44.5288C19.1484 44.5717 19.1484 44.6145 19.1484 44.668C19.1484 44.7001 19.1484 44.7215 19.1484 44.7536C19.1484 44.8179 19.1484 44.8928 19.1484 44.957C19.1484 44.957 19.1484 44.9678 19.1484 44.9785C19.1484 45.0534 19.1484 45.139 19.1484 45.214C19.1484 45.2996 19.1484 45.3853 19.1484 45.4816C19.1484 45.5566 19.1484 45.6315 19.1484 45.6957C19.4694 52.5793 30.2221 56.8829 35.3256 56.8829C40.4291 56.8829 51.1818 52.4616 51.5028 45.6743V45.6529C51.5028 45.5887 51.5028 45.5351 51.5028 45.4709C51.5028 45.3853 51.5028 45.2889 51.5028 45.2033C51.5028 45.1283 51.5028 45.0427 51.5028 44.9678L51.3423 44.9142Z" fill="#F6F6F6"/>
<path d="M35.1656 57.2796C32.3196 57.2796 28.254 56.0484 25.0656 54.2071C21.0106 51.8733 18.6996 48.8436 18.5498 45.6641V45.6427C18.5498 45.5785 18.5498 45.5035 18.5498 45.4393C18.5498 45.343 18.5498 45.2466 18.5498 45.1503C18.5498 45.086 18.5498 45.0325 18.5498 44.9683V44.8826C18.5498 44.8077 18.5498 44.7328 18.5498 44.6685V44.5829C18.5498 44.5829 18.5605 44.4865 18.5605 44.4437V44.3474C18.5605 44.3474 18.5712 44.2617 18.5819 44.2189L18.7638 43.0841L18.7959 42.9556C18.828 42.8379 18.8494 42.7415 18.8708 42.6452L19.0206 42.1527C19.0206 42.1527 19.0527 42.0671 19.0634 42.0243L19.1704 41.7459C19.1704 41.7459 19.2025 41.6603 19.2239 41.6175L19.2453 41.5532C19.2453 41.5532 19.288 41.4569 19.2987 41.4141V41.3819C19.3843 41.2107 19.4592 41.0608 19.5448 40.8895C19.6518 40.6754 19.9193 40.579 20.144 40.6968C20.358 40.8038 20.4543 41.0715 20.3366 41.2963C20.2617 41.4462 20.1975 41.5853 20.1333 41.7245L20.1119 41.7673C20.1119 41.7673 20.0798 41.853 20.0584 41.8958L20.037 41.9493C20.037 41.9493 20.0049 42.0243 19.9942 42.0671L19.8979 42.324C19.8979 42.324 19.8658 42.399 19.8551 42.4418L19.716 42.8914C19.6946 42.9771 19.6732 43.0627 19.6518 43.159L19.5234 43.8121L19.4378 44.5293C19.4378 44.5293 19.4378 44.615 19.4378 44.6578V44.7327C19.4378 44.797 19.4378 44.8612 19.4271 44.9254V45.0004C19.4271 45.0539 19.4271 45.1074 19.4271 45.161C19.4271 45.2466 19.4271 45.3323 19.4271 45.4179C19.4271 45.4928 19.4271 45.5571 19.4271 45.6106V45.632C19.7481 52.3336 30.5115 56.4017 35.1549 56.4017C37.3911 56.4017 41.2428 55.4703 44.8163 53.4042C47.0096 52.1302 50.7115 49.4324 50.8934 45.6213V45.5999C50.8934 45.5464 50.8934 45.4821 50.8934 45.4286C50.8934 45.343 50.8934 45.2573 50.8934 45.1717C50.8934 45.1181 50.8934 45.0646 50.8934 45.0111V44.9254C50.8934 44.8612 50.8934 44.797 50.8934 44.7327L50.8078 43.887L50.6473 43.0734C50.6473 43.0734 50.6259 42.9985 50.6152 42.9556L50.5938 42.8807C50.5938 42.8807 50.5724 42.8058 50.5617 42.7629L50.5404 42.688C50.5404 42.688 50.5189 42.6024 50.4976 42.5702L50.4761 42.5167C50.4548 42.4632 50.4441 42.4204 50.4334 42.3775L50.412 42.3347C50.3906 42.2705 50.3799 42.2277 50.3585 42.1848L50.3371 42.1313C50.3371 42.1313 50.305 42.035 50.2836 41.9922V41.96C50.2836 41.96 50.2408 41.8744 50.2194 41.8316V41.7995C50.0054 41.3177 49.7486 40.8574 49.4597 40.4184C49.4169 40.3649 49.3848 40.3114 49.3527 40.2579C49.3099 40.2043 49.2779 40.1508 49.2351 40.0973C49.203 40.0438 49.1708 40.0009 49.1388 39.9581C48.989 39.7654 49.0318 39.4871 49.2243 39.3372C49.4169 39.1873 49.6951 39.2301 49.8449 39.4228C49.877 39.4657 49.9198 39.5192 49.9519 39.562C49.9947 39.6262 50.0375 39.6798 50.0803 39.7333C50.1231 39.7975 50.1659 39.8511 50.198 39.9153C50.519 40.397 50.7864 40.8895 51.0111 41.4141L51.0325 41.4569C51.0325 41.4569 51.0753 41.5639 51.0967 41.6175V41.6603C51.0967 41.6603 51.1502 41.7673 51.1716 41.8209L51.193 41.8744C51.193 41.8744 51.2251 41.9707 51.2465 42.0243L51.2679 42.0885C51.2679 42.0885 51.3 42.1848 51.3107 42.2277L51.3321 42.3026C51.3321 42.3026 51.3642 42.3883 51.3749 42.4418L51.3963 42.5274C51.3963 42.5274 51.4177 42.6131 51.4284 42.6559L51.4498 42.7415C51.4498 42.7415 51.4712 42.8272 51.4819 42.87L51.6424 43.6408L51.7387 44.4544V44.6899C51.7601 44.7542 51.7601 44.8291 51.7601 44.904V45.0004C51.7601 45.0539 51.7601 45.1181 51.7601 45.1824C51.7601 45.2787 51.7601 45.3751 51.7601 45.4607C51.7601 45.525 51.7601 45.5892 51.7601 45.6534V45.6748C51.6103 48.8115 49.2992 51.8305 45.2443 54.1857C42.0345 56.0484 37.9688 57.301 35.1442 57.301L35.1656 57.2796Z" fill="#231916"/>
<path d="M35.037 50.0637C36.3851 50.0637 37.5727 48.9503 38.2468 47.2695C38.2468 47.2695 37.6262 48.0617 37.1448 48.0617C36.6633 48.0617 34.9514 47.2695 34.9514 47.2695C34.9514 47.2695 33.3787 48.0189 32.94 48.0189C32.5013 48.0189 31.8594 47.58 31.8594 47.58C32.0092 47.944 32.1376 47.9654 32.3301 48.2758C33.0256 49.3785 33.9778 50.0637 35.037 50.0637Z" fill="#CF7A8D"/>
<path d="M35.2075 39.487C34.266 39.1552 31.8479 39.2515 31.6982 42.613C31.5484 45.9745 34.9507 47.0023 35.3359 46.8952C35.721 46.7882 37.7539 44.9575 38.0321 44.5186C38.3103 44.0797 39.3802 41.5318 37.7218 40.7074C36.0634 39.8831 36.0955 39.8082 35.2182 39.487H35.2075Z" fill="#ED7C2E"/>
<path d="M33.1958 48.2331C31.4518 48.2331 30.7885 47.0341 30.7564 46.9806C30.6387 46.7557 30.7136 46.4774 30.9383 46.3596C31.163 46.2419 31.4411 46.3168 31.5588 46.5416C31.5802 46.5844 32.0189 47.3124 33.1851 47.3124C33.4633 47.3124 33.7843 47.2268 34.148 47.0769C32.9497 46.274 31.6337 45.1606 31.3021 43.3193C31.0453 41.8312 31.4946 40.493 32.5646 39.6473C33.474 38.9193 34.6616 38.7266 35.6352 39.1334C36.0953 39.3261 36.427 39.5724 36.6624 39.8186C37.0582 39.8614 37.4648 40.0113 37.8607 40.2682C39.1553 41.1032 39.305 42.5378 39.0483 43.512C38.6952 44.8073 37.4755 45.8351 37.0154 46.2205L36.9298 46.2847C36.5982 46.563 35.999 47.0769 35.2929 47.5051C35.2929 47.5051 35.2822 47.5051 35.2715 47.5051C34.4797 47.9869 33.7843 48.2224 33.1744 48.2224L33.1958 48.2331ZM34.5867 39.8293C34.0945 39.8293 33.581 40.0113 33.153 40.3539C32.3613 40.9855 32.0189 42.0025 32.2222 43.148C32.5218 44.8288 33.8806 45.7922 35.0575 46.563C35.6031 46.1991 36.0739 45.803 36.3521 45.5674L36.427 45.5032C36.8335 45.1606 37.8927 44.2721 38.1709 43.2443C38.3528 42.5699 38.2565 41.5743 37.3792 41.0069C37.3364 40.9748 37.2936 40.9534 37.2401 40.9213C37.3257 41.5315 37.1438 42.1845 36.7159 42.7412C35.9027 43.801 34.9612 43.7047 34.3941 43.2979C34.1266 43.1052 33.9662 42.7733 33.9341 42.3665C33.8806 41.7456 34.148 41.0925 34.6509 40.5787C34.897 40.3325 35.1538 40.1398 35.4319 40.0113C35.3891 39.9899 35.3463 39.9685 35.3036 39.9578C35.0789 39.8614 34.8435 39.8186 34.5974 39.8186L34.5867 39.8293ZM36.2237 40.7286C35.892 40.7821 35.5817 40.9534 35.3036 41.2424C34.8435 41.7135 34.8328 42.1845 34.8435 42.313C34.8542 42.4843 34.9184 42.5592 34.9398 42.5806C35.3678 42.8911 35.7743 42.4843 35.9883 42.2059C36.2986 41.7991 36.4163 41.3495 36.3093 40.9534C36.2879 40.8784 36.2665 40.8035 36.2237 40.7393V40.7286Z" fill="#231916"/>
<path d="M36.919 48.2337C36.3091 48.2337 35.603 47.9874 34.8112 47.5057C34.5972 47.3772 34.5224 47.0882 34.6614 46.8741C34.8005 46.66 35.0787 46.585 35.2927 46.7242C35.9347 47.1203 36.4803 47.313 36.919 47.313C38.0959 47.313 38.5346 46.5743 38.5453 46.5422C38.6736 46.3281 38.9518 46.2424 39.1658 46.3709C39.3905 46.4887 39.4654 46.767 39.3477 46.9918C39.3156 47.0454 38.6522 48.2444 36.9083 48.2444L36.919 48.2337Z" fill="#231916"/>
<path d="M28.8421 37.9773C29.882 37.9773 30.7251 37.1337 30.7251 36.0931C30.7251 35.0526 29.882 34.209 28.8421 34.209C27.8021 34.209 26.959 35.0526 26.959 36.0931C26.959 37.1337 27.8021 37.9773 28.8421 37.9773Z" fill="black"/>
<path d="M41.4885 37.9773C42.5285 37.9773 43.3716 37.1337 43.3716 36.0931C43.3716 35.0526 42.5285 34.209 41.4885 34.209C40.4485 34.209 39.6055 35.0526 39.6055 36.0931C39.6055 37.1337 40.4485 37.9773 41.4885 37.9773Z" fill="black"/>
<defs>
<filter id="filter0_dd_3531_55502" x="6.29297" y="12.7119" width="57.9893" height="53.0723" filterUnits="userSpaceOnUse" color-interpolation-filters="sRGB">
<feFlood flood-opacity="0" result="BackgroundImageFix"/>
<feColorMatrix in="SourceAlpha" type="matrix" values="0 0 0 0 0 0 0 0 0 0 0 0 0 0 0 0 0 0 127 0" result="hardAlpha"/>
<feOffset dy="2"/>
<feGaussianBlur stdDeviation="2"/>
<feComposite in2="hardAlpha" operator="out"/>
<feColorMatrix type="matrix" values="0 0 0 0 0 0 0 0 0 0 0 0 0 0 0 0 0 0 0.25 0"/>
<feBlend mode="normal" in2="BackgroundImageFix" result="effect1_dropShadow_3531_55502"/>
<feColorMatrix in="SourceAlpha" type="matrix" values="0 0 0 0 0 0 0 0 0 0 0 0 0 0 0 0 0 0 127 0" result="hardAlpha"/>
<feOffset/>
<feGaussianBlur stdDeviation="2.5"/>
<feComposite in2="hardAlpha" operator="out"/>
<feColorMatrix type="matrix" values="0 0 0 0 1 0 0 0 0 0.490083 0 0 0 0 0.120833 0 0 0 1 0"/>
<feBlend mode="normal" in2="effect1_dropShadow_3531_55502" result="effect2_dropShadow_3531_55502"/>
<feBlend mode="normal" in="SourceGraphic" in2="effect2_dropShadow_3531_55502" result="shape"/>
</filter>
</defs>
</svg>
