<svg width="24" height="24" viewBox="0 0 24 24" fill="none" xmlns="http://www.w3.org/2000/svg">
<path d="M6.593 5.27854L6.23829 4.92237C5.88358 4.56621 5.3106 4.57534 4.96498 4.92237L4.95589 4.93151C4.60118 5.28767 4.60118 5.86301 4.95589 6.21004L5.3106 6.56621C5.6653 6.92237 6.2292 6.92237 6.5839 6.56621L6.593 6.55708C6.9477 6.21004 6.9477 5.62557 6.593 5.27854ZM3.8281 11.0868H2.90041C2.40018 11.0868 2 11.4886 2 11.9909V12C2 12.5023 2.40018 12.9041 2.90041 12.9041H3.81901C4.32833 12.9132 4.72851 12.5114 4.72851 12.0091V12C4.72851 11.4886 4.32833 11.0868 3.8281 11.0868ZM12.0136 2H12.0045C11.4952 2 11.095 2.40183 11.095 2.90411V3.78082C11.095 4.2831 11.4952 4.68493 11.9955 4.68493H12.0045C12.5139 4.69406 12.9141 4.29224 12.9141 3.78995V2.90411C12.9141 2.40183 12.5139 2 12.0136 2ZM19.0532 4.93151C18.6985 4.57534 18.1255 4.57534 17.7708 4.92237L17.4161 5.27854C17.0614 5.6347 17.0614 6.21004 17.4161 6.55708L17.4252 6.56621C17.7799 6.92237 18.3529 6.92237 18.6985 6.56621L19.0532 6.21004C19.4079 5.85388 19.4079 5.28767 19.0532 4.93151ZM17.407 18.7215L17.7617 19.0776C18.1164 19.4338 18.6894 19.4338 19.0441 19.0776C19.3988 18.7215 19.3988 18.1461 19.0441 17.79L18.6894 17.4338C18.3347 17.0776 17.7617 17.0868 17.4161 17.4338C17.0523 17.7991 17.0523 18.3653 17.407 18.7215ZM19.2806 11.9909V12C19.2806 12.5023 19.6808 12.9041 20.181 12.9041H21.0996C21.5998 12.9041 22 12.5023 22 12V11.9909C22 11.4886 21.5998 11.0868 21.0996 11.0868H20.181C19.6808 11.0868 19.2806 11.4886 19.2806 11.9909ZM12.0045 6.52055C8.99409 6.52055 6.54752 8.97717 6.54752 12C6.54752 15.0228 8.99409 17.4795 12.0045 17.4795C15.015 17.4795 17.4616 15.0228 17.4616 12C17.4616 8.97717 15.015 6.52055 12.0045 6.52055ZM11.9955 22H12.0045C12.5048 22 12.905 21.5982 12.905 21.0959V20.2192C12.905 19.7169 12.5048 19.3151 12.0045 19.3151H11.9955C11.4952 19.3151 11.095 19.7169 11.095 20.2192V21.0959C11.095 21.5982 11.4952 22 11.9955 22ZM4.95589 19.0685C5.3106 19.4247 5.88358 19.4247 6.23829 19.0685L6.593 18.7123C6.9477 18.3562 6.93861 17.7808 6.593 17.4338L6.5839 17.4247C6.2292 17.0685 5.65621 17.0685 5.3015 17.4247L4.94679 17.7808C4.60118 18.1461 4.60118 18.7123 4.95589 19.0685Z" fill="#333333"/>
</svg>
