<svg width="84" height="84" viewBox="0 0 84 84" fill="none" xmlns="http://www.w3.org/2000/svg">
<path d="M42 84C65.196 84 84 65.196 84 42C84 18.804 65.196 0 42 0C18.804 0 0 18.804 0 42C0 65.196 18.804 84 42 84Z" fill="#D0D3DA"/>
<path d="M62.4892 31.3021C62.3618 31.0195 62.2343 30.7423 62.1013 30.4652C61.6468 30.4819 61.1924 30.4985 60.7379 30.4985C58.909 30.4985 57.069 30.3599 55.2345 30.0884C54.6249 29.9997 54.0097 29.8944 53.4056 29.7725C52.6574 29.6062 51.9979 29.451 51.3661 29.2848C50.6955 29.1573 50.0249 28.9966 49.3709 28.8137C48.7336 28.6363 48.0851 28.4202 47.4367 28.1819C45.7796 27.6498 43.8952 26.8573 42.0497 25.8652C41.6894 26.6578 41.2405 27.4448 40.6974 28.2207C40.3427 28.725 39.9547 29.2183 39.5446 29.6893C37.0008 32.4826 33.4039 34.9489 29.6075 35.3645C28.7595 34.7937 27.7398 34.4612 26.6424 34.4612C23.6995 34.4612 21.3164 36.8443 21.3164 39.7872C21.3164 42.7301 23.6995 45.1132 26.6424 45.1132C26.8752 45.1132 27.0969 45.091 27.3241 45.0633C27.507 45.5677 27.7065 46.072 27.9282 46.5708C31.5639 54.8009 39.2176 59.8277 46.8936 59.8277C49.2323 59.8277 51.5711 59.3621 53.7991 58.3756C63.3427 54.158 67.2333 42.0373 62.4892 31.3021Z" fill="white"/>
<path d="M46.8943 63.0495C42.4218 63.0495 37.9881 61.6307 34.0753 58.9428C31.5924 57.2358 29.4254 55.0854 27.6574 52.5914C24.5261 55.6618 21.7772 59.63 19.782 64.2743C19.6823 64.5127 19.588 64.751 19.4883 64.9893C25.557 70.7531 33.7594 74.3001 42.7931 74.3001C47.8421 74.3001 52.6305 73.1862 56.9312 71.2076C57.6572 67.3669 57.7182 63.6425 57.164 60.2729C56.4989 60.6608 55.8117 61.0155 55.1023 61.3314C52.5086 62.4787 49.7486 63.0551 46.8943 63.0551V63.0495Z" fill="white"/>
<path d="M43.9918 38.9411C45.2773 38.9411 46.3195 37.7004 46.3195 36.17C46.3195 34.6396 45.2773 33.3989 43.9918 33.3989C42.7062 33.3989 41.6641 34.6396 41.6641 36.17C41.6641 37.7004 42.7062 38.9411 43.9918 38.9411Z" fill="#D0D3DA"/>
<path d="M59.0191 38.9411C60.3047 38.9411 61.3468 37.7004 61.3468 36.17C61.3468 34.6396 60.3047 33.3989 59.0191 33.3989C57.7336 33.3989 56.6914 34.6396 56.6914 36.17C56.6914 37.7004 57.7336 38.9411 59.0191 38.9411Z" fill="#D0D3DA"/>
<path d="M51.0004 52.8791C47.664 52.8791 45.6134 51.0945 45.5303 51.0169C45.0315 50.5735 44.9871 49.8087 45.4305 49.3099C45.8739 48.8111 46.6387 48.7668 47.1375 49.2102C47.1929 49.2545 48.6173 50.4627 51.0059 50.4627C53.3946 50.4627 54.8189 49.2545 54.8799 49.2046C55.3843 48.7723 56.1435 48.8222 56.5814 49.321C57.0192 49.8198 56.9749 50.5735 56.4761 51.0169C56.3929 51.0945 54.3423 52.8791 51.0059 52.8791H51.0004Z" fill="#D0D3DA"/>
<path d="M60.9572 21.9091C60.0705 20.0802 58.8069 18.545 57.1996 17.3368C56.6953 16.96 56.1466 16.6053 55.5702 16.2894C55.0049 15.9956 54.4008 15.7074 53.7912 15.4525C53.176 15.192 52.5497 14.9537 51.9235 14.7486C51.3249 14.5602 50.6876 14.3884 50.0613 14.2387C49.4073 14.0836 48.7478 13.9561 48.0994 13.8563L48.0162 13.8397C46.8967 13.6069 45.6608 13.4961 44.4305 13.4961C41.4986 13.4961 38.589 14.1168 37.3032 15.1587C36.7656 15.5966 36.7656 15.9014 36.7656 16.0178C36.7656 19.2212 42.8121 23.3168 48.4596 25.1291L48.5317 25.1513C49.1081 25.3674 49.69 25.5559 50.2497 25.7166C50.8317 25.8829 51.4302 26.0214 52.0232 26.1323L52.1341 26.1544C52.7493 26.3151 53.3811 26.4703 54.0794 26.62C54.5948 26.7253 55.1601 26.8195 55.7143 26.9026C57.6264 27.1853 59.5551 27.3072 61.4505 27.2684C61.6334 26.7973 61.7498 26.3041 61.7886 25.7997C61.844 25.0349 61.7608 24.2368 61.5447 23.4388C61.4061 22.9233 61.2066 22.4079 60.9628 21.9036L60.9572 21.9091Z" fill="white"/>
<path d="M33.5885 16.7217C31.1334 17.6306 29.0495 19.4928 27.6529 22.0477C26.0179 25.046 25.569 28.6595 26.4003 31.8463C30.1967 33.1764 34.3977 30.5605 37.1522 27.5345C37.4681 27.1798 37.7784 26.7807 38.0611 26.3762C38.3992 25.894 38.8813 25.1181 39.2693 24.1759C36.3097 22.1308 33.9322 19.5593 33.5885 16.7217Z" fill="white"/>
<path d="M54.3091 47.0984C53.7993 47.0984 53.3226 46.7714 53.1564 46.2616C52.9513 45.6242 53.3005 44.9481 53.9378 44.743C54.5752 44.5379 54.952 44.2664 55.0573 43.9338C55.2513 43.3297 54.7303 42.3488 54.4477 41.9664C54.0542 41.4343 54.1595 40.675 54.6915 40.276C55.2236 39.877 55.9773 39.9823 56.3764 40.5143C56.5426 40.736 57.9725 42.709 57.3573 44.6599C57.1135 45.4302 56.4484 46.4722 54.6694 47.043C54.5475 47.0818 54.42 47.104 54.2981 47.104L54.3091 47.0984Z" fill="#D0D3DA"/>
<path fill-rule="evenodd" clip-rule="evenodd" d="M42 74C59.6731 74 74 59.6731 74 42C74 24.3269 59.6731 10 42 10C24.3269 10 10 24.3269 10 42C10 59.6731 24.3269 74 42 74ZM42 84C65.196 84 84 65.196 84 42C84 18.804 65.196 0 42 0C18.804 0 0 18.804 0 42C0 65.196 18.804 84 42 84Z" fill="#D0D3DA"/>
</svg>
