<svg width="24" height="24" viewBox="0 0 24 24" fill="none" xmlns="http://www.w3.org/2000/svg">
<path d="M3.40499 8.66667C3.40499 9.19048 3.83357 9.61905 4.35738 9.61905C4.88119 9.61905 5.30976 9.19048 5.30976 8.66667V6.7619H7.21452C7.73833 6.7619 8.1669 6.33333 8.1669 5.80952C8.1669 5.28571 7.73833 4.85714 7.21452 4.85714H5.30976V2.95238C5.30976 2.42857 4.88119 2 4.35738 2C3.83357 2 3.40499 2.42857 3.40499 2.95238V4.85714H1.50023C0.976423 4.85714 0.547852 5.28571 0.547852 5.80952C0.547852 6.33333 0.976423 6.7619 1.50023 6.7619H3.40499V8.66667Z" fill="#333333"/>
<path d="M12.9284 17.2377C14.5064 17.2377 15.7856 15.9585 15.7856 14.3806C15.7856 12.8026 14.5064 11.5234 12.9284 11.5234C11.3505 11.5234 10.0713 12.8026 10.0713 14.3806C10.0713 15.9585 11.3505 17.2377 12.9284 17.2377Z" fill="#333333"/>
<path d="M20.5472 6.76218H17.5281L16.3472 5.47647C15.9948 5.08599 15.4805 4.85742 14.9472 4.85742H8.85192C9.01382 5.14314 9.11858 5.45742 9.11858 5.8098C9.11858 6.85742 8.26144 7.71456 7.21382 7.71456H6.26144V8.66695C6.26144 9.71456 5.4043 10.5717 4.35668 10.5717C4.0043 10.5717 3.69001 10.4669 3.4043 10.305V20.0955C3.4043 21.1431 4.26144 22.0003 5.30906 22.0003H20.5472C21.5948 22.0003 22.4519 21.1431 22.4519 20.0955V8.66695C22.4519 7.61933 21.5948 6.76218 20.5472 6.76218ZM12.9281 19.1431C10.2995 19.1431 8.1662 17.0098 8.1662 14.3812C8.1662 11.7527 10.2995 9.61933 12.9281 9.61933C15.5567 9.61933 17.69 11.7527 17.69 14.3812C17.69 17.0098 15.5567 19.1431 12.9281 19.1431Z" fill="#333333"/>
</svg>
