<svg width="24" height="24" viewBox="0 0 24 24" fill="none" xmlns="http://www.w3.org/2000/svg">
<path fill-rule="evenodd" clip-rule="evenodd" d="M14.5353 4.88912C13.9453 4.88912 13.4668 4.41095 13.4668 3.82102C13.4668 3.23109 13.9453 2.75293 14.5353 2.75293H20.179C20.3488 2.75293 20.5097 2.79249 20.6522 2.86316L20.653 2.86354L20.6722 2.87314L20.6756 2.87545L20.6883 2.88198L20.699 2.88774L20.7106 2.89465L20.7217 2.9008L20.7267 2.90387L20.7444 2.91462L20.7547 2.92115L20.7666 2.92922L20.7689 2.93037C20.7816 2.93882 20.7943 2.94765 20.8066 2.95649L20.8104 2.95956L20.8181 2.96494L20.8319 2.97569L20.8331 2.97684C20.8542 2.99297 20.8746 3.01026 20.8945 3.02792L20.8972 3.03023L20.9145 3.04674C20.9279 3.05942 20.941 3.07247 20.9537 3.08553L20.9698 3.10282L20.9721 3.10589C20.9902 3.12548 21.0071 3.14583 21.0236 3.16696L21.0243 3.16811L21.0351 3.18193L21.0405 3.18962L21.0436 3.19384L21.0697 3.23148L21.0712 3.2334L21.0789 3.24531L21.0854 3.25568V3.25606L21.0962 3.27373L21.0992 3.27834L21.1058 3.28947L21.1123 3.30138L21.1181 3.31213L21.125 3.32442L21.1269 3.32826L21.1365 3.34708L21.1369 3.34824C21.2075 3.49034 21.2471 3.65127 21.2471 3.82102V9.46529C21.2471 10.0548 20.7689 10.5334 20.179 10.5334C19.5891 10.5334 19.111 10.0548 19.111 9.46529V6.39966L14.975 10.5353C15.7443 11.608 16.1975 12.9231 16.1975 14.3437C16.1975 16.1496 15.4651 17.7854 14.2814 18.9687C13.0981 20.1524 11.4624 20.8848 9.65655 20.8848C7.85031 20.8848 6.21498 20.1524 5.03131 18.9687C3.84764 17.7854 3.11523 16.1496 3.11523 14.3437C3.11523 12.5375 3.84764 10.9021 5.03131 9.71839C6.21498 8.5347 7.85031 7.80228 9.65655 7.80228C11.0768 7.80228 12.3922 8.25548 13.4645 9.02515L17.6005 4.88912H14.5353ZM12.7713 11.2289C11.9744 10.4316 10.8729 9.93885 9.65655 9.93885C8.43985 9.93885 7.33875 10.4316 6.54182 11.2289C5.74489 12.0259 5.25176 13.127 5.25176 14.3437C5.25176 15.5601 5.74489 16.6616 6.54182 17.4585C7.33875 18.2555 8.43985 18.7486 9.65655 18.7486C10.8729 18.7486 11.9744 18.2555 12.7713 17.4585C13.5682 16.6616 14.0613 15.5601 14.0613 14.3437C14.0613 13.127 13.5682 12.0259 12.7713 11.2289Z" fill="#88A1FB"/>
</svg>
