<svg width="64" height="64" viewBox="0 0 64 64" fill="none" xmlns="http://www.w3.org/2000/svg">
<path fill-rule="evenodd" clip-rule="evenodd" d="M41.3714 9.58973C40.1956 9.58973 39.2418 8.63669 39.2418 7.46088C39.2418 6.28508 40.1956 5.33203 41.3714 5.33203H52.6201C52.9585 5.33203 53.2792 5.41088 53.5632 5.55173L53.603 5.57163L53.6099 5.57623L53.6352 5.58924L53.6566 5.60072L53.6795 5.6145L53.7017 5.62675L53.7117 5.63287L53.7469 5.65431L53.7676 5.66732L53.7913 5.68339L53.7959 5.68569C53.8212 5.70253 53.8464 5.72014 53.8709 5.73775L53.8786 5.74387L53.8939 5.75459L53.9214 5.77602L53.9237 5.77832C53.9658 5.81047 54.0064 5.84492 54.0462 5.88013L54.0516 5.88472L54.086 5.91764C54.1128 5.9429 54.1388 5.96893 54.1641 5.99495L54.1962 6.0294L54.2008 6.03552C54.2368 6.07456 54.2705 6.11514 54.3034 6.15724L54.3049 6.15953L54.3264 6.18709L54.3371 6.2024L54.3432 6.21082L54.3953 6.28584L54.3983 6.28967L54.4136 6.3134L54.4267 6.33407L54.4481 6.37005L54.4542 6.37923L54.4672 6.40143L54.4802 6.42516L54.4917 6.4466L54.5055 6.47109L54.5093 6.47875L54.5285 6.51626L54.5292 6.51855C54.6701 6.80179 54.7489 7.12253 54.7489 7.46088V18.7106C54.7489 19.8857 53.7959 20.8395 52.6201 20.8395C51.4443 20.8395 50.4913 19.8857 50.4913 18.7106V12.6004L42.2874 20.8038C46.0595 25.8849 45.6195 33.1141 40.9673 37.6941C38.9884 39.6261 36.4194 40.961 33.5031 41.3474C33.5257 42.1254 33.5778 42.799 33.6593 43.8537C33.703 44.4182 33.755 45.0919 33.8156 45.9491H39.3356C41.4187 45.9491 41.4187 50.1644 39.3356 50.1644H33.8156V57.0846C33.8156 59.1923 29.6148 59.1923 29.6148 57.0846V50.1644H24.0947C22.0117 50.1644 22.0117 45.9491 24.0947 45.9491H29.6148C29.7047 44.948 29.7387 44.3148 29.7748 43.6437C29.8083 43.0197 29.8436 42.363 29.9272 41.3474C27.0457 40.961 24.4419 39.6261 22.463 37.6941C17.3248 32.6357 17.3248 24.3455 22.463 19.2871C27.034 14.7565 34.1672 14.2838 39.2728 17.869L39.2372 17.8334L47.4807 9.58973H41.3714ZM25.657 22.5892C28.9899 19.3223 34.4405 19.3223 37.7733 22.5892C41.0368 25.8209 41.0368 31.1603 37.7386 34.3921C36.2111 35.9026 34.0586 36.851 31.6978 36.851C29.337 36.851 27.1846 35.9026 25.657 34.3921C22.3936 31.1603 22.3936 25.8209 25.657 22.5892Z" fill="white"/>
</svg>
