<svg width="96" height="96" viewBox="0 0 96 96" fill="none" xmlns="http://www.w3.org/2000/svg">
<path fill-rule="evenodd" clip-rule="evenodd" d="M79.3064 19.2348C78.2956 9.78196 70.2936 2.3999 60.5449 2.3999C55.725 2.3999 51.3321 4.20443 48 7.17157C44.6679 4.20443 40.275 2.3999 35.4551 2.3999C25.7064 2.3999 17.7044 9.78196 16.6937 19.2348C7.28635 20.3135 0 28.3029 0 37.9719C0 44.9705 3.81742 51.0892 9.49343 54.3441C8.08561 57.5203 7.35117 60.9626 7.29051 64.5029L7.28907 64.5867V64.6704C7.28907 85.2952 27.5749 98.9631 46.1706 89.1522C47.3455 88.5342 47.8843 88.4958 48.0135 88.4925L48.0191 88.4924C48.09 88.49 48.4296 88.4789 49.2441 88.9204C62.2511 96.0757 77.7331 91.7855 85.0592 78.9852L85.0653 78.9745C89.4505 71.29 89.7763 62.1174 86.359 54.4279C92.1163 51.1949 96 45.031 96 37.9719C96 28.3029 88.7136 20.3135 79.3064 19.2348ZM17.9393 59.6143C17.3957 61.2219 17.1148 62.9211 17.0848 64.6704C17.0848 78.5561 30.074 86.5818 41.5988 80.4988C45.833 78.2695 49.6852 78.0147 53.9512 80.3396C62.3242 84.9575 71.9069 82.2505 76.555 74.1292C77.1196 73.1398 77.579 72.117 77.9358 71.0751C77.5791 72.1159 77.1201 73.1375 76.5561 74.126C71.908 82.2472 62.3253 84.9542 53.9523 80.3363C49.6863 78.0114 45.8341 78.2662 41.5999 80.4955C30.0752 86.5785 17.086 78.5528 17.086 64.6671C17.1159 62.919 17.3964 61.2209 17.9393 59.6143ZM69.5995 20.6726L69.597 20.6737C69.4673 18.6312 68.6623 16.7722 67.4029 15.3178C68.663 16.7717 69.4689 18.6303 69.5995 20.6726ZM18.2067 28.9191L18.2088 28.9237C13.5065 29.2626 9.79689 33.1862 9.79689 37.9766C9.79689 38.7027 9.88212 39.4089 10.0431 40.0858C9.8814 39.4075 9.79577 38.6997 9.79577 37.9719C9.79577 33.1819 13.5049 29.2584 18.2067 28.9191ZM26.4014 20.673C26.456 19.8142 26.63 18.9878 26.9069 18.2104C26.6297 18.9877 26.4554 19.8139 26.4005 20.6726L26.4014 20.673Z" fill="#49C6FE"/>
<path d="M35.464 30.3413C40.475 30.3413 44.5373 26.2784 44.5373 21.2666C44.5373 16.2548 40.475 12.1919 35.464 12.1919C30.4529 12.1919 26.3906 16.2548 26.3906 21.2666C26.3906 26.2784 30.4529 30.3413 35.464 30.3413Z" fill="#333333"/>
<path d="M60.5499 30.3413C65.561 30.3413 69.6232 26.2784 69.6232 21.2666C69.6232 16.2548 65.561 12.1919 60.5499 12.1919C55.5388 12.1919 51.4766 16.2548 51.4766 21.2666C51.4766 26.2784 55.5388 30.3413 60.5499 30.3413Z" fill="#333333"/>
<path d="M18.8702 47.0537C23.8813 47.0537 27.9435 42.9908 27.9435 37.979C27.9435 32.9672 23.8813 28.9043 18.8702 28.9043C13.8591 28.9043 9.79688 32.9672 9.79688 37.979C9.79688 42.9908 13.8591 47.0537 18.8702 47.0537Z" fill="#333333"/>
<path d="M77.1358 47.0537C82.1469 47.0537 86.2092 42.9908 86.2092 37.979C86.2092 32.9672 82.1469 28.9043 77.1358 28.9043C72.1248 28.9043 68.0625 32.9672 68.0625 37.979C68.0625 42.9908 72.1248 47.0537 77.1358 47.0537Z" fill="#333333"/>
<path d="M70.7937 51.0339C67.0052 48.7732 64.2673 45.8757 62.0706 42.0547C55.6715 30.974 39.9762 31.1014 33.6726 42.2458C31.6033 45.9075 29.0564 48.7095 25.3952 50.811C19.8239 54.027 17.1814 59.0897 17.0859 64.6619C17.0859 78.5446 30.0751 86.5686 41.5999 80.4869C45.8341 78.258 49.6863 78.0033 53.9523 80.3277C62.3253 84.9447 71.908 82.2382 76.5561 74.1187C81.1723 66.0311 78.7528 55.7146 70.7937 50.9702V51.0339Z" fill="#333333"/>
</svg>
