<svg width="72" height="72" viewBox="0 0 72 72" fill="none" xmlns="http://www.w3.org/2000/svg">
<g clip-path="url(#clip0_3917_62772)">
<g filter="url(#filter0_d_3917_62772)">
<path d="M35.9956 7C22.7409 7 12 17.4588 12 30.3654C12 36.2367 14.2326 41.5945 17.9066 45.7027L18.0033 45.8054C18.39 46.2334 18.7856 46.6442 19.2075 47.0465L33.807 62.0757C35.0024 63.3081 37.0064 63.3081 38.2018 62.0757L52.8101 47.0465C53.2232 46.6528 53.6188 46.2419 53.9967 45.8226L54.1022 45.7199H54.0934C57.7674 41.6116 60 36.2539 60 30.3825C60 17.4845 49.2591 7.01712 36.0044 7.01712L35.9956 7Z" fill="#FFAC2F"/>
</g>
<path d="M36 50C47.0457 50 56 41.0457 56 30C56 18.9543 47.0457 10 36 10C24.9543 10 16 18.9543 16 30C16 41.0457 24.9543 50 36 50Z" fill="white"/>
<g opacity="0.5">
<path d="M37.605 20.7205C37.605 20.7205 37.605 20.6502 37.605 20.6063C37.605 19.7198 36.916 19 36.0672 19C35.2185 19 34.5294 19.7198 34.5294 20.6063C34.5294 20.6415 34.5294 20.6678 34.5294 20.7029C28.9412 21.4139 24.5294 26.1188 24 32H48C47.4706 26.154 43.1261 21.4754 37.5882 20.7205H37.605Z" fill="#FFAC2F"/>
<path d="M27.7111 29.5844C27.6389 29.5844 27.5666 29.5763 27.4944 29.5442C27.1573 29.4235 26.9727 29.0535 27.0931 28.7157C28.0643 25.9329 30.4562 23.8257 33.3298 23.2225C33.683 23.1501 34.0281 23.3753 34.1004 23.7292C34.1726 24.0831 33.9479 24.4289 33.5947 24.5013C31.1626 25.0161 29.1399 26.8016 28.3211 29.1501C28.2248 29.4155 27.976 29.5844 27.7031 29.5844H27.7111Z" fill="white"/>
<path d="M49.8646 33H22.1274C21.5037 33 21 33.6117 21 34.3689C21 35.1262 21.5037 35.7379 22.1274 35.7379H24.6221C24.8459 37.5825 26.1493 39 27.7244 39H44.2676C45.8507 39 47.1541 37.5825 47.3779 35.7379H49.8726C50.4963 35.7379 51 35.1262 51 34.3689C51 33.6117 50.4963 33 49.8726 33H49.8646Z" fill="#FF9737"/>
</g>
<circle cx="50" cy="47" r="11" fill="#FF7D1F"/>
<g clip-path="url(#clip1_3917_62772)">
<path d="M47.7016 43.6076C48.6197 43.6076 49.3641 42.8 49.3641 41.8038C49.3641 40.8076 48.6197 40 47.7016 40C46.7834 40 46.0391 40.8076 46.0391 41.8038C46.0391 42.8 46.7834 43.6076 47.7016 43.6076Z" fill="white"/>
<path d="M52.2982 43.6076C53.2164 43.6076 53.9607 42.8 53.9607 41.8038C53.9607 40.8076 53.2164 40 52.2982 40C51.3801 40 50.6357 40.8076 50.6357 41.8038C50.6357 42.8 51.3801 43.6076 52.2982 43.6076Z" fill="white"/>
<path d="M44.6625 46.9308C45.5807 46.9308 46.325 46.1232 46.325 45.127C46.325 44.1308 45.5807 43.3232 44.6625 43.3232C43.7443 43.3232 43 44.1308 43 45.127C43 46.1232 43.7443 46.9308 44.6625 46.9308Z" fill="white"/>
<path d="M55.3375 46.9308C56.2557 46.9308 57 46.1232 57 45.127C57 44.1308 56.2557 43.3232 55.3375 43.3232C54.4194 43.3232 53.675 44.1308 53.675 45.127C53.675 46.1232 54.4194 46.9308 55.3375 46.9308Z" fill="white"/>
<path d="M54.1768 47.7214C53.4826 47.272 52.9809 46.6961 52.5784 45.9366C51.4059 43.734 48.5301 43.7594 47.3751 45.9745C46.9959 46.7024 46.5293 47.2594 45.8584 47.6771C44.8376 48.3163 44.3534 49.3226 44.3359 50.4302C44.3359 53.1897 46.7159 54.7847 48.8276 53.5758C49.6034 53.1328 50.3093 53.0821 51.0909 53.5442C52.6251 54.4619 54.3809 53.9239 55.2326 52.31C56.0784 50.7024 55.6351 48.6518 54.1768 47.7087V47.7214Z" fill="white"/>
</g>
</g>
<defs>
<filter id="filter0_d_3917_62772" x="3.49" y="-1.51" width="70.68" height="78.68" filterUnits="userSpaceOnUse" color-interpolation-filters="sRGB">
<feFlood flood-opacity="0" result="BackgroundImageFix"/>
<feColorMatrix in="SourceAlpha" type="matrix" values="0 0 0 0 0 0 0 0 0 0 0 0 0 0 0 0 0 0 127 0" result="hardAlpha"/>
<feOffset dx="2.83" dy="2.83"/>
<feGaussianBlur stdDeviation="5.67"/>
<feColorMatrix type="matrix" values="0 0 0 0 0 0 0 0 0 0 0 0 0 0 0 0 0 0 0.15 0"/>
<feBlend mode="normal" in2="BackgroundImageFix" result="effect1_dropShadow_3917_62772"/>
<feBlend mode="normal" in="SourceGraphic" in2="effect1_dropShadow_3917_62772" result="shape"/>
</filter>
<clipPath id="clip0_3917_62772">
<rect width="72" height="72" fill="white"/>
</clipPath>
<clipPath id="clip1_3917_62772">
<rect width="14" height="14" fill="white" transform="translate(43 40)"/>
</clipPath>
</defs>
</svg>
