<svg width="24" height="24" viewBox="0 0 24 24" fill="none" xmlns="http://www.w3.org/2000/svg">
<path d="M19.2905 7.00787H15.6928V5.209C15.6928 4.87783 15.4243 4.60938 15.0932 4.60938L9.09694 4.60951C8.76576 4.60951 8.49731 4.87796 8.49731 5.20913V7.008L4.89957 7.00787C4.23709 7.00787 3.7002 7.54476 3.7002 8.20711V17.8011C3.7002 18.4636 4.23709 19.0002 4.89957 19.0002H19.2905C19.953 19.0002 20.4899 18.4636 20.4899 17.8011L20.4898 8.20711C20.4896 7.54476 19.9527 7.00787 19.2903 7.00787H19.2905ZM9.69656 5.80862H14.4935V7.008L9.69656 7.00787V5.80862ZM15.6928 14.2033H13.2944V16.6018H10.8957V14.2033H8.49731V11.8049H10.8958L10.8957 9.40636H13.2942V11.8049H15.6927V14.2033H15.6928Z" fill="#333333"/>
</svg>
