<svg width="41" height="44" viewBox="0 0 41 44" fill="none" xmlns="http://www.w3.org/2000/svg">
<circle cx="20" cy="20" r="18.5" fill="#FFD2B1" stroke="#FF9015" stroke-width="3"/>
<line x1="33.2426" y1="35" x2="37.4853" y2="39.2426" stroke="#FF9015" stroke-width="6" stroke-linecap="round"/>
<mask id="mask0_6800_254320" style="mask-type:alpha" maskUnits="userSpaceOnUse" x="3" y="3" width="34" height="34">
<circle cx="20" cy="20" r="17" fill="#D9D9D9"/>
</mask>
<g mask="url(#mask0_6800_254320)">
<path d="M22.5828 29.4682V38.0407L8.5 38.0407L12.1665 27.6244C9.86541 27.6244 8 25.759 8 23.4579V20C8 15.5817 11.5817 12 16 12H20.7526C22.5309 12 24.1754 12.9446 25.0715 14.4806L27.0499 17.8723C27.1903 18.113 27.4248 18.2841 27.6968 18.3446L31.9575 19.2914C32.1311 21.7219 31.9575 26.5828 27.791 27.6244C26.0736 28.0538 24.687 28.2498 23.3684 28.5041C22.9082 28.5928 22.5828 28.9995 22.5828 29.4682Z" fill="white"/>
<path d="M16.333 19.2914L16.0396 23.9858C15.9118 26.0311 14.2158 27.6244 12.1665 27.6244V27.6244M12.1665 27.6244V27.6244C9.86541 27.6244 8 25.759 8 23.4579V20C8 15.5817 11.5817 12 16 12H20.7526C22.5309 12 24.1754 12.9446 25.0715 14.4806L27.0499 17.8723C27.1903 18.113 27.4248 18.2841 27.6968 18.3446L31.9575 19.2914C32.1311 21.7219 31.9575 26.5828 27.791 27.6244C26.0736 28.0538 24.687 28.2498 23.3684 28.5041C22.9082 28.5928 22.5828 28.9996 22.5828 29.4682V38.0407L8.5 38.0407L12.1665 27.6244Z" stroke="#333333" stroke-width="2" stroke-linecap="round" stroke-linejoin="round"/>
<circle cx="22.5624" cy="19.8122" r="1.56244" fill="#333333"/>
</g>
</svg>
