<svg width="49" height="50" viewBox="0 0 49 50" fill="none" xmlns="http://www.w3.org/2000/svg">
<path d="M47.4291 23.6727C47.4291 36.7468 36.8126 47.3455 23.7165 47.3455C10.6204 47.3455 0.00390625 36.7468 0.00390625 23.6727C0.00390625 10.5986 10.6204 0 23.7165 0C36.8126 0 47.4291 10.5986 47.4291 23.6727Z" fill="#FFD7B1"/>
<path d="M38.7021 26.2309C38.6597 25.8862 38.592 25.5436 38.5009 25.2115C38.4394 24.9873 38.3653 24.7631 38.2805 24.5453C38.1958 24.3253 38.0983 24.1075 37.9903 23.8939C37.8822 23.6802 37.7594 23.4687 37.628 23.2657C37.4289 22.9569 37.2022 22.6587 36.9543 22.3795C36.7213 22.1172 36.467 21.8656 36.1916 21.6287C36.145 21.5187 36.0984 21.4024 36.0581 21.2818C36.0242 21.1401 35.9903 20.9878 35.9586 20.8144C35.9268 20.6536 35.8992 20.495 35.8738 20.3343C35.8632 20.1101 35.8442 19.8838 35.8166 19.6617C35.7848 19.4037 35.7382 19.1435 35.6832 18.8897C35.234 16.5463 33.8358 14.6893 31.5286 13.3738C30.9269 13.0311 30.2554 12.7223 29.5329 12.4537L29.41 12.4135C28.6834 12.1978 27.9037 12.0244 27.0944 11.8975L27.0542 11.8911C26.8783 11.8679 26.7025 11.8467 26.5267 11.8298C26.4822 11.8256 26.4356 11.8213 26.3911 11.8171L26.3 11.8086C26.1962 11.8002 26.0945 11.7917 25.9843 11.7833C25.9313 11.779 25.8784 11.7769 25.8254 11.7748L25.7703 11.7685C25.6623 11.7621 25.5521 11.7579 25.4441 11.7537C25.3847 11.7515 25.3254 11.7515 25.2661 11.7494L25.1475 11.7473C25.0437 11.7473 24.942 11.7473 24.8382 11.7473H24.8106C24.2259 11.76 23.6306 11.8044 23.0374 11.8806L21.9065 12.0456L20.7874 12.312L19.9103 12.6018C19.368 12.7794 18.8256 12.974 18.2939 13.1813C17.7558 13.3907 17.2261 13.6149 16.7155 13.8475C14.4592 14.8923 12.5356 16.1529 10.9996 17.5953L10.9106 17.682C8.84925 19.649 7.50819 21.9332 6.92982 24.4713C6.43407 26.6307 6.69254 28.5363 7.65437 29.837L7.74759 29.9534C8.6035 30.939 9.73058 31.4804 10.917 31.4804H10.9382H10.9445C11.5208 31.4762 12.1119 31.3768 12.6987 31.1864C12.9487 31.1061 13.2029 31.0045 13.4593 30.8861C13.4741 30.9178 13.4889 30.9495 13.5038 30.9792C13.5758 31.123 13.6542 31.2668 13.7326 31.4085L13.5673 31.5904C12.3703 32.8996 11.2941 34.3759 10.3683 35.9791C9.89371 36.7997 9.45728 37.6584 9.07382 38.5361L8.53358 39.7628L9.50813 40.6828C13.1881 44.1578 17.9994 46.0719 23.0585 46.0719C24.7343 46.0719 26.3995 45.8604 28.0118 45.4459L28.8762 45.2238L29.2575 44.4201C30.3973 42.0217 31.124 39.5132 31.3613 37.1677L31.4185 36.6072C31.643 36.5311 31.8697 36.4507 32.0964 36.364C32.3358 36.2709 32.5667 36.1757 32.7849 36.0763C33.107 35.9304 33.4142 35.7739 33.698 35.6089C33.9035 35.4905 34.1027 35.3657 34.2891 35.2367L34.3294 35.2092C34.4607 35.114 34.5773 35.0252 34.6853 34.9363C34.9353 34.7418 35.1832 34.526 35.4226 34.2913C35.7403 33.9782 36.0497 33.6314 36.3632 33.2295C36.5984 32.9292 36.8378 32.5971 37.1195 32.1805C37.2043 32.0578 37.2848 31.9309 37.3632 31.804C37.4416 31.6771 37.5178 31.5481 37.5899 31.417C37.6916 31.233 37.789 31.0447 37.8801 30.8565C37.9712 30.6661 38.056 30.4716 38.1322 30.2812C38.1852 30.1501 38.2339 30.0189 38.2784 29.8878C38.3526 29.6763 38.4182 29.4606 38.4754 29.247C38.503 29.1391 38.5305 29.0312 38.5559 28.9234C38.7064 28.2508 38.7742 27.5761 38.753 26.9141C38.7466 26.6836 38.7297 26.4551 38.7021 26.2309Z" fill="black"/>
<path d="M29.4462 36.9843L29.4229 36.9907C29.1708 37.0541 28.9165 37.1133 28.6665 37.162C27.6517 37.3692 26.6327 37.4729 25.6349 37.4729C24.7959 37.4729 23.9654 37.3989 23.1646 37.2508C22.9655 37.2233 22.7684 37.1916 22.5735 37.1599C21.7049 37.0097 20.8532 36.7961 20.0461 36.5211L20.0079 36.5084L19.9719 36.4936C19.7261 36.3963 19.4783 36.2906 19.2368 36.1764C17.5334 35.3769 16.0949 34.2517 14.9869 32.877C13.9128 34.0529 12.9086 35.4129 12.0294 36.9336C11.576 37.7182 11.1777 38.5114 10.8281 39.3024C14.0208 42.3184 18.3258 44.1711 23.0671 44.1711C24.6116 44.1711 26.1115 43.9744 27.5416 43.6043C28.6178 41.3391 29.2597 39.0634 29.4716 36.9759H29.4695L29.4462 36.9843Z" fill="white"/>
<path d="M36.8122 26.4639C36.7804 26.2122 36.7317 25.9626 36.6639 25.7173C36.6194 25.5544 36.5664 25.3916 36.5029 25.2308C36.4393 25.0701 36.3694 24.9115 36.291 24.7571C36.2126 24.6006 36.1237 24.4483 36.0262 24.296C35.88 24.0697 35.7148 23.8497 35.5262 23.6382C35.2762 23.3548 34.9881 23.0862 34.6597 22.8324C34.5898 22.7013 34.5263 22.568 34.4648 22.4327C34.3758 22.2296 34.2953 22.0224 34.2254 21.8087C34.1725 21.5972 34.1259 21.3836 34.0856 21.1679C34.0432 20.9522 34.0072 20.7385 33.9712 20.5228C33.9648 20.3134 33.9479 20.1019 33.9225 19.8925C33.897 19.6831 33.8589 19.4759 33.8123 19.2665C33.4352 17.2593 32.1874 15.9375 30.5794 15.0195C30.0434 14.715 29.4671 14.4527 28.8654 14.2306C28.2235 14.0403 27.5286 13.8838 26.7956 13.7696C26.643 13.7484 26.4905 13.7315 26.3337 13.7167C26.2829 13.7125 26.2299 13.7082 26.1769 13.704C26.0731 13.6955 25.9693 13.685 25.8634 13.6786C25.7998 13.6744 25.7363 13.6723 25.6727 13.6702C25.5774 13.6659 25.4821 13.6596 25.3846 13.6575C25.3168 13.6554 25.2469 13.6554 25.1791 13.6532C25.0753 13.6532 24.9651 13.6511 24.855 13.6511C24.1601 13.6659 23.4228 13.7336 22.6665 13.8605C22.5817 13.8711 22.497 13.8838 22.4122 13.8965L22.175 15.0576C20.5352 23.0947 17.817 27.0603 15.8277 28.9723C15.5586 29.2324 15.2853 29.4714 15.0078 29.6893C15.0735 29.8373 15.1413 29.9854 15.2133 30.1292C15.4887 30.6791 15.8171 31.191 16.1857 31.6647C16.2366 31.7303 16.2832 31.7958 16.3362 31.8593C16.5523 32.1237 16.7811 32.3754 17.0226 32.6144C17.2641 32.8534 17.5162 33.0797 17.781 33.2933C18.0459 33.5069 18.3213 33.7078 18.6073 33.8939C18.8933 34.0801 19.1878 34.2556 19.4928 34.4142C19.6454 34.4946 19.7979 34.5707 19.9547 34.6448C20.1623 34.7421 20.3742 34.833 20.5903 34.9197C20.7788 34.9832 20.9674 35.0424 21.1559 35.0974C21.3445 35.1524 21.533 35.2053 21.7216 35.2518C22.1008 35.347 22.48 35.4273 22.8614 35.4929C23.052 35.5267 23.2427 35.5542 23.4334 35.5817C23.6283 35.6177 23.8232 35.6494 24.0181 35.6748C24.0817 35.6832 24.1474 35.6896 24.2109 35.6959C24.3423 35.7107 24.4736 35.7255 24.605 35.7382C24.6812 35.7446 24.7575 35.7488 24.8338 35.753C24.9524 35.7615 25.0732 35.7678 25.1918 35.7721C25.2723 35.7742 25.3528 35.7763 25.4333 35.7784C25.499 35.7805 25.5668 35.7827 25.6325 35.7827C25.6727 35.7827 25.713 35.7805 25.7554 35.7784C25.8825 35.7763 26.0096 35.7742 26.1367 35.7678C26.2257 35.7636 26.3168 35.7615 26.4058 35.7552C26.5371 35.7467 26.6685 35.7361 26.7998 35.7234C26.8846 35.715 26.9672 35.7086 27.0519 35.7002C27.196 35.6854 27.34 35.6642 27.482 35.6452C27.5519 35.6346 27.6218 35.6283 27.6917 35.6156C27.9036 35.5817 28.1154 35.5458 28.3252 35.5014C28.5519 35.4548 28.7786 35.4041 29.0031 35.347C29.1832 35.2962 29.3612 35.2454 29.5413 35.1947C30.1811 35.0107 30.8103 34.8182 31.4098 34.5877C31.609 34.5115 31.806 34.429 31.9988 34.3423C32.2551 34.226 32.5051 34.0991 32.7467 33.9616C32.9055 33.8707 33.0623 33.7734 33.2127 33.6676C33.3208 33.5894 33.414 33.5175 33.4945 33.4498C33.7043 33.289 33.9013 33.1156 34.0877 32.9316C34.3674 32.6567 34.6237 32.3606 34.8631 32.0539C35.1025 31.7472 35.3271 31.43 35.5432 31.1106C35.611 31.0091 35.6788 30.9054 35.7423 30.8018C35.8059 30.6982 35.8673 30.5924 35.9266 30.4867C36.0093 30.3365 36.0877 30.1863 36.1618 30.034C36.2338 29.8818 36.3016 29.7274 36.3652 29.5708C36.4076 29.4672 36.4457 29.3636 36.4817 29.2578C36.5389 29.0907 36.5919 28.9215 36.6364 28.7523C36.6597 28.6677 36.6787 28.5831 36.6978 28.4985C36.8122 27.9888 36.8652 27.4749 36.8503 26.9673C36.8461 26.8002 36.8334 26.631 36.8122 26.4639ZM31.931 19.5626C32.6068 19.5626 33.1555 20.214 33.1555 21.0156C33.1555 21.8193 32.6068 22.4686 31.931 22.4686C31.2552 22.4686 30.7065 21.8172 30.7065 21.0156C30.7065 20.2119 31.2531 19.5626 31.931 19.5626ZM25.1367 19.5626C25.8126 19.5626 26.3613 20.214 26.3613 21.0156C26.3613 21.8193 25.8126 22.4686 25.1367 22.4686C24.4609 22.4686 23.9122 21.8172 23.9122 21.0156C23.9122 20.2119 24.4588 19.5626 25.1367 19.5626ZM33.306 30.5099C33.2657 30.5459 32.2975 31.3876 30.7234 31.3876C29.6133 31.3876 28.8082 30.971 28.412 30.7108C28.2468 30.6009 28.1515 30.5205 28.1388 30.5099C27.9968 30.3851 27.9311 30.2075 27.9417 30.0319C27.9481 29.9008 27.9947 29.7718 28.09 29.666C28.3104 29.4186 28.6896 29.3974 28.9375 29.6174C28.9608 29.6385 29.6218 30.1927 30.7234 30.1927C31.8251 30.1927 32.4861 29.6364 32.5136 29.6132C32.7636 29.3995 33.1407 29.4249 33.3568 29.6724C33.5729 29.9177 33.5517 30.2921 33.306 30.5099ZM35.183 26.2503L34.4542 27.5108C34.0581 28.194 33.0708 28.194 32.6746 27.5108L31.9458 26.2503C31.5497 25.5671 32.0454 24.7105 32.8356 24.7105H34.2953C35.0856 24.7105 35.5792 25.565 35.183 26.2503Z" fill="white"/>
<path d="M10.9367 29.5795C11.3159 29.5774 11.7142 29.5097 12.1189 29.3765C12.3943 29.2877 12.6718 29.1671 12.9451 29.0212C13.4239 28.7674 13.9006 28.4332 14.3709 28.0123C14.4641 27.9298 14.5573 27.8431 14.6506 27.7543C17.2204 25.286 19.3029 20.6584 20.5148 14.7194L20.5826 14.3853L20.5084 14.4106C19.9936 14.5798 19.4851 14.7617 18.9894 14.9542C18.4852 15.1509 17.9937 15.3582 17.5191 15.576C15.4471 16.5341 13.6951 17.6804 12.3095 18.9812C12.282 19.0066 12.2566 19.0341 12.229 19.0594C10.4431 20.762 9.28632 22.7248 8.79057 24.8969C8.42617 26.4853 8.57235 27.8727 9.19098 28.7081C9.68037 29.2707 10.2948 29.5795 10.9219 29.5795C10.9261 29.5795 10.9303 29.5795 10.9367 29.5795Z" fill="white"/>
<path fill-rule="evenodd" clip-rule="evenodd" d="M43.8722 23.6727C43.8722 34.7857 34.8482 43.7946 23.7165 43.7946C12.5848 43.7946 3.56079 34.7857 3.56079 23.6727C3.56079 12.5598 12.5848 3.55091 23.7165 3.55091C34.8482 3.55091 43.8722 12.5598 43.8722 23.6727ZM36.5758 43.5656C32.8714 45.9571 28.4563 47.3455 23.7165 47.3455C10.6204 47.3455 0.00390625 36.7468 0.00390625 23.6727C0.00390625 10.5986 10.6204 0 23.7165 0C36.8126 0 47.4291 10.5986 47.4291 23.6727C47.4291 29.4613 45.3479 34.7647 41.8918 38.8777C41.905 38.8905 41.9181 38.9034 41.9311 38.9164L46.9613 43.9381C48.3504 45.3248 48.3504 47.5732 46.9613 48.9599C45.5723 50.3466 43.3202 50.3466 41.9311 48.9599L36.9009 43.9381C36.7824 43.8199 36.6741 43.6953 36.5758 43.5656Z" fill="#F0802F"/>
</svg>
