<svg width="24" height="24" viewBox="0 0 24 24" fill="none" xmlns="http://www.w3.org/2000/svg">
<path d="M12 4.33795V2.51169C12 2.05258 11.46 1.82812 11.15 2.1546L8.35 5.00112C8.15 5.20517 8.15 5.52145 8.35 5.7255L11.14 8.57201C11.46 8.88829 12 8.66384 12 8.20472V6.37846C15.31 6.37846 18 9.12295 18 12.5C18 13.306 17.85 14.0916 17.56 14.7956C17.41 15.1629 17.52 15.5812 17.79 15.8566C18.3 16.377 19.16 16.1933 19.43 15.5098C19.8 14.5813 20 13.5611 20 12.5C20 7.99047 16.42 4.33795 12 4.33795ZM12 18.6215C8.69 18.6215 6 15.877 6 12.5C6 11.694 6.15 10.9084 6.44 10.2044C6.59 9.83713 6.48 9.41883 6.21 9.14336C5.7 8.62303 4.84 8.80667 4.57 9.49024C4.2 10.4187 4 11.4389 4 12.5C4 17.0095 7.58 20.662 12 20.662V22.4883C12 22.9474 12.54 23.1719 12.85 22.8454L15.64 19.9989C15.84 19.7948 15.84 19.4785 15.64 19.2745L12.85 16.428C12.54 16.1117 12 16.3362 12 16.7953V18.6215Z" fill="#333333"/>
</svg>
