<svg width="24" height="24" viewBox="0 0 24 24" fill="none" xmlns="http://www.w3.org/2000/svg">
<circle cx="12" cy="12" r="12" fill="#A7ABB5"/>
<path fill-rule="evenodd" clip-rule="evenodd" d="M7.17683 8.93084C6.86513 9.54866 6.68958 10.2469 6.68958 10.9861V14.4632C5.97844 14.908 5.50545 15.6982 5.50545 16.5988C5.50545 17.9891 6.63246 19.1161 8.02269 19.1161L8.04158 19.116L12.1368 19.1162V17.2954C11.9185 17.3181 11.691 17.2549 11.5235 17.106L10.018 15.7678C9.72722 15.5094 9.72722 15.0904 10.018 14.8319L10.3547 14.5326L11.5235 13.4937C11.6911 13.3447 11.9188 13.2816 12.1373 13.3044V6.41696H11.2588C10.3878 6.41696 9.57371 6.66066 8.88102 7.0836C8.34017 6.42219 7.51775 6 6.59671 6C4.97401 6 3.6574 7.31048 3.64746 8.93084H7.17683ZM9.55062 11.6499C10.0866 11.6499 10.5211 11.2155 10.5211 10.6795C10.5211 10.1435 10.0866 9.70905 9.55062 9.70905C9.01466 9.70905 8.58018 10.1435 8.58018 10.6795C8.58018 11.2155 9.01466 11.6499 9.55062 11.6499Z" fill="white"/>
<path fill-rule="evenodd" clip-rule="evenodd" d="M13.7447 14.5322L12.5763 13.4937C12.4535 13.3845 12.2984 13.3215 12.1384 13.3045V6.41696H13.017C13.8879 6.41696 14.702 6.66065 15.3947 7.08357C15.9355 6.42218 16.7579 6 17.6789 6C19.3016 6 20.6182 7.31048 20.6282 8.93084H17.0989C17.4106 9.54866 17.5862 10.2469 17.5862 10.9861V14.5322H17.5745C18.2271 14.9871 18.6541 15.7431 18.6541 16.5988C18.6541 17.9565 17.5793 19.0631 16.2342 19.1142V19.1162H12.1389V17.2951C12.2988 17.2781 12.4536 17.2151 12.5763 17.106L14.0819 15.7678C14.3726 15.5094 14.3726 15.0904 14.0819 14.8319L13.7447 14.5322ZM14.7264 11.6499C15.2624 11.6499 15.6969 11.2155 15.6969 10.6795C15.6969 10.1435 15.2624 9.70905 14.7264 9.70905C14.1904 9.70905 13.756 10.1435 13.756 10.6795C13.756 11.2155 14.1904 11.6499 14.7264 11.6499Z" fill="white"/>
</svg>
