<svg width="80" height="89" viewBox="0 0 80 89" fill="none" xmlns="http://www.w3.org/2000/svg">
<g filter="url(#filter0_d_3531_55878)">
<path d="M37.3868 12.7471C23.971 12.7471 13.0996 23.6403 13.0996 37.083C13.0996 43.1982 15.3593 48.7785 19.078 53.0574L19.1758 53.1643C19.5673 53.6101 19.9676 54.0379 20.3947 54.4569L35.1716 70.1104C36.3815 71.394 38.4099 71.394 39.6198 70.1104L54.4056 54.4569C54.8237 54.0469 55.224 53.619 55.6066 53.1822L55.7133 53.0752H55.7044C59.4231 48.7964 61.6828 43.216 61.6828 37.1008C61.6828 23.667 50.8114 12.7649 37.3957 12.7649L37.3868 12.7471Z" fill="white"/>
</g>
<path opacity="0.2" d="M37.3868 56.4543C48.0635 56.4543 56.7187 47.7817 56.7187 37.0836C56.7187 26.3854 48.0635 17.7129 37.3868 17.7129C26.7101 17.7129 18.0549 26.3854 18.0549 37.0836C18.0549 47.7817 26.7101 56.4543 37.3868 56.4543Z" fill="#E5E7EB"/>
<path d="M23.615 28.5881V32.965C23.615 33.6603 24.1755 34.2308 24.8783 34.2308H25.8925V48.6541C25.8925 49.3494 26.4529 49.9199 27.1558 49.9199H30.9456V41.1661H44.1657V49.9199H47.6353C48.3292 49.9199 48.8985 49.3583 48.8985 48.6541V34.2308H49.9127C50.6067 34.2308 51.176 33.6692 51.176 32.965V28.5881C51.176 27.8928 50.6156 27.3223 49.9127 27.3223H24.8783C24.1844 27.3223 23.615 27.8839 23.615 28.5881Z" fill="#E5E7EB"/>
<path d="M42.8938 37.7256H32.2003C31.5064 37.7256 30.937 38.2872 30.937 38.9914V49.9114H44.1571V38.9914C44.1571 38.2961 43.5966 37.7256 42.8938 37.7256Z" fill="white"/>
<path d="M40.305 45.4448C39.9225 45.4448 39.6111 45.1328 39.6111 44.7495V42.7705C39.6111 42.3872 39.9225 42.0752 40.305 42.0752C40.6875 42.0752 40.9989 42.3872 40.9989 42.7705V44.7495C40.9989 45.1328 40.6875 45.4448 40.305 45.4448Z" fill="#E5E7EB"/>
<path d="M34.7891 45.4448C34.4066 45.4448 34.0952 45.1328 34.0952 44.7495V42.7705C34.0952 42.3872 34.4066 42.0752 34.7891 42.0752C35.1717 42.0752 35.4831 42.3872 35.4831 42.7705V44.7495C35.4831 45.1328 35.1717 45.4448 34.7891 45.4448Z" fill="#E5E7EB"/>
<path d="M37.5467 35.8175C41.6493 35.8175 44.9751 32.485 44.9751 28.3741C44.9751 24.2632 41.6493 20.9307 37.5467 20.9307C33.444 20.9307 30.1182 24.2632 30.1182 28.3741C30.1182 32.485 33.444 35.8175 37.5467 35.8175Z" fill="white"/>
<path d="M42.4933 26.5825H39.2016V23.2842H35.8921V26.5825H32.6094V29.8896H35.8921V33.1879H39.2016V29.8896H42.4933V26.5825Z" fill="#E5E7EB"/>
<g style="mix-blend-mode:multiply">
<circle cx="43.3652" cy="45.5088" r="11" fill="#FF7D1F"/>
<g clip-path="url(#clip0_3531_55878)">
<path d="M40.9178 42.1797C41.8953 42.1797 42.6878 41.3873 42.6878 40.4097C42.6878 39.4321 41.8953 38.6396 40.9178 38.6396C39.9402 38.6396 39.1477 39.4321 39.1477 40.4097C39.1477 41.3873 39.9402 42.1797 40.9178 42.1797Z" fill="white"/>
<path d="M45.8118 42.1797C46.7894 42.1797 47.5819 41.3873 47.5819 40.4097C47.5819 39.4321 46.7894 38.6396 45.8118 38.6396C44.8342 38.6396 44.0417 39.4321 44.0417 40.4097C44.0417 41.3873 44.8342 42.1797 45.8118 42.1797Z" fill="white"/>
<path d="M37.6819 45.4405C38.6595 45.4405 39.452 44.648 39.452 43.6704C39.452 42.6929 38.6595 41.9004 37.6819 41.9004C36.7043 41.9004 35.9119 42.6929 35.9119 43.6704C35.9119 44.648 36.7043 45.4405 37.6819 45.4405Z" fill="white"/>
<path d="M49.0474 45.4405C50.025 45.4405 50.8174 44.648 50.8174 43.6704C50.8174 42.6929 50.025 41.9004 49.0474 41.9004C48.0698 41.9004 47.2773 42.6929 47.2773 43.6704C47.2773 44.648 48.0698 45.4405 49.0474 45.4405Z" fill="white"/>
<path d="M47.8117 46.2169C47.0726 45.776 46.5385 45.2108 46.11 44.4655C44.8616 42.3042 41.7997 42.329 40.57 44.5028C40.1663 45.217 39.6695 45.7635 38.9552 46.1734C37.8683 46.8007 37.3529 47.7882 37.3342 48.8751C37.3342 51.583 39.8682 53.1481 42.1165 51.9618C42.9425 51.5271 43.694 51.4774 44.5262 51.9308C46.1596 52.8313 48.0291 52.3034 48.9358 50.7197C49.8364 49.1422 49.3644 47.1299 47.8117 46.2045V46.2169Z" fill="white"/>
</g>
</g>
<defs>
<filter id="filter0_d_3531_55878" x="4.58961" y="4.23707" width="71.2633" height="81.0062" filterUnits="userSpaceOnUse" color-interpolation-filters="sRGB">
<feFlood flood-opacity="0" result="BackgroundImageFix"/>
<feColorMatrix in="SourceAlpha" type="matrix" values="0 0 0 0 0 0 0 0 0 0 0 0 0 0 0 0 0 0 127 0" result="hardAlpha"/>
<feOffset dx="2.83" dy="2.83"/>
<feGaussianBlur stdDeviation="5.67"/>
<feColorMatrix type="matrix" values="0 0 0 0 0 0 0 0 0 0 0 0 0 0 0 0 0 0 0.15 0"/>
<feBlend mode="normal" in2="BackgroundImageFix" result="effect1_dropShadow_3531_55878"/>
<feBlend mode="normal" in="SourceGraphic" in2="effect1_dropShadow_3531_55878" result="shape"/>
</filter>
<clipPath id="clip0_3531_55878">
<rect width="14.9057" height="13.7381" fill="white" transform="translate(35.9119 38.6396)"/>
</clipPath>
</defs>
</svg>
