<svg width="80" height="90" viewBox="0 0 80 90" fill="none" xmlns="http://www.w3.org/2000/svg">
<g filter="url(#filter0_d_3490_54195)">
<path d="M37.6309 13.3738C24.2151 13.3738 13.3438 24.267 13.3438 37.7097C13.3438 43.8249 15.6034 49.4052 19.3221 53.6841L19.42 53.791C19.8114 54.2368 20.2118 54.6646 20.6388 55.0836L35.4157 70.7371C36.6256 72.0207 38.654 72.0207 39.8639 70.7371L54.6497 55.0836C55.0678 54.6736 55.4682 54.2457 55.8507 53.8089L55.9575 53.7019H55.9486C59.6673 49.4231 61.927 43.8427 61.927 37.7275C61.927 24.2938 51.0556 13.3916 37.6398 13.3916L37.6309 13.3738Z" fill="white"/>
</g>
<path opacity="0.2" d="M37.6307 57.0805C48.3074 57.0805 56.9626 48.4079 56.9626 37.7098C56.9626 27.0117 48.3074 18.3391 37.6307 18.3391C26.954 18.3391 18.2988 27.0117 18.2988 37.7098C18.2988 48.4079 26.954 57.0805 37.6307 57.0805Z" fill="#E5E7EB"/>
<path d="M39.2504 27.9218C39.2504 27.9218 39.2504 27.8504 39.2504 27.8059C39.2504 26.9055 38.5209 26.1746 37.6224 26.1746C36.7239 26.1746 35.9944 26.9055 35.9944 27.8059C35.9944 27.8415 35.9944 27.8683 35.9944 27.9039C30.0782 28.626 25.4076 33.404 24.8472 39.3766H50.2553C49.6948 33.4397 45.0954 28.6884 39.2326 27.9218H39.2504Z" fill="#E5E7EB"/>
<path d="M28.7879 37.9058C28.7079 37.9058 28.6278 37.8969 28.5477 37.8612C28.1741 37.7275 27.9695 37.3174 28.1029 36.943C29.1794 33.8587 31.8305 31.5232 35.0154 30.8546C35.4069 30.7744 35.7894 31.024 35.8695 31.4162C35.9495 31.8084 35.7004 32.1917 35.309 32.272C32.6134 32.8425 30.3715 34.8214 29.4641 37.4244C29.3573 37.7186 29.0815 37.9058 28.7791 37.9058H28.7879Z" fill="white"/>
<path d="M53.0574 41.1238H22.1958C21.5019 41.1238 20.9414 41.6854 20.9414 42.3807C20.9414 43.076 21.5019 43.6376 22.1958 43.6376H24.9715C25.2206 45.3313 26.6707 46.6328 28.4233 46.6328H46.8299C48.5914 46.6328 50.0415 45.3313 50.2906 43.6376H53.0663C53.7602 43.6376 54.3207 43.076 54.3207 42.3807C54.3207 41.6854 53.7602 41.1238 53.0663 41.1238H53.0574Z" fill="#E5E7EB"/>
<defs>
<filter id="filter0_d_3490_54195" x="4.83375" y="4.86378" width="71.263" height="81.0059" filterUnits="userSpaceOnUse" color-interpolation-filters="sRGB">
<feFlood flood-opacity="0" result="BackgroundImageFix"/>
<feColorMatrix in="SourceAlpha" type="matrix" values="0 0 0 0 0 0 0 0 0 0 0 0 0 0 0 0 0 0 127 0" result="hardAlpha"/>
<feOffset dx="2.83" dy="2.83"/>
<feGaussianBlur stdDeviation="5.67"/>
<feColorMatrix type="matrix" values="0 0 0 0 0 0 0 0 0 0 0 0 0 0 0 0 0 0 0.15 0"/>
<feBlend mode="normal" in2="BackgroundImageFix" result="effect1_dropShadow_3490_54195"/>
<feBlend mode="normal" in="SourceGraphic" in2="effect1_dropShadow_3490_54195" result="shape"/>
</filter>
</defs>
</svg>
