<svg width="24" height="24" viewBox="0 0 24 24" fill="none" xmlns="http://www.w3.org/2000/svg">
<path fill-rule="evenodd" clip-rule="evenodd" d="M12 24C18.6274 24 24 18.6274 24 12C24 5.37258 18.6274 0 12 0C5.37258 0 0 5.37258 0 12C0 18.6274 5.37258 24 12 24ZM6.68958 10.9861C6.68958 10.2469 6.86513 9.54866 7.17683 8.93084H3.64746C3.6574 7.31048 4.97401 6 6.59671 6C7.51775 6 8.34017 6.42219 8.88103 7.0836C9.57371 6.66066 10.3878 6.41696 11.2588 6.41696H12.1373V13.3044C11.9188 13.2816 11.6911 13.3447 11.5235 13.4937L10.3547 14.5326L10.018 14.8319C9.72722 15.0904 9.72722 15.5094 10.018 15.7678L11.5235 17.106C11.691 17.2549 11.9185 17.3181 12.1368 17.2954V19.1162L8.04158 19.116L8.02269 19.1161C6.63246 19.1161 5.50545 17.9891 5.50545 16.5988C5.50545 15.6982 5.97844 14.908 6.68958 14.4632V10.9861ZM10.5211 10.6795C10.5211 11.2155 10.0866 11.6499 9.55062 11.6499C9.01466 11.6499 8.58018 11.2155 8.58018 10.6795C8.58018 10.1435 9.01466 9.70905 9.55062 9.70905C10.0866 9.70905 10.5211 10.1435 10.5211 10.6795ZM12.5763 13.4937L13.7447 14.5322L14.0819 14.8319C14.3726 15.0904 14.3726 15.5094 14.0819 15.7678L12.5763 17.106C12.4536 17.2151 12.2988 17.2781 12.1389 17.2951V19.1162H16.2342V19.1142C17.5793 19.0631 18.6541 17.9565 18.6541 16.5988C18.6541 15.7431 18.2271 14.9871 17.5745 14.5322H17.5862V10.9861C17.5862 10.2469 17.4106 9.54866 17.0989 8.93084H20.6282C20.6182 7.31048 19.3016 6 17.6789 6C16.7579 6 15.9355 6.42218 15.3947 7.08357C14.702 6.66065 13.8879 6.41696 13.017 6.41696H12.1384V13.3045C12.2984 13.3215 12.4535 13.3845 12.5763 13.4937ZM15.6969 10.6795C15.6969 11.2155 15.2624 11.6499 14.7264 11.6499C14.1904 11.6499 13.756 11.2155 13.756 10.6795C13.756 10.1435 14.1904 9.70905 14.7264 9.70905C15.2624 9.70905 15.6969 10.1435 15.6969 10.6795Z" fill="#D4D8E1"/>
</svg>
