<svg width="85" height="84" viewBox="0 0 85 84" fill="none" xmlns="http://www.w3.org/2000/svg">
<path d="M42.9062 84C66.1022 84 84.9062 65.196 84.9062 42C84.9062 18.804 66.1022 0 42.9062 0C19.7103 0 0.90625 18.804 0.90625 42C0.90625 65.196 19.7103 84 42.9062 84Z" fill="#D0D3DA"/>
<path d="M32.2808 20.5323C28.3593 22.352 25.0463 24.5201 22.4246 26.9869C18.9511 30.2557 16.7056 34.0389 15.7487 38.2259C15.0573 41.2458 15.3339 43.8785 16.5065 45.4659C17.4357 46.5334 18.5972 47.1252 19.7863 47.1252H19.814C20.533 47.1252 21.2907 46.9924 22.0596 46.738C23.6801 46.2126 25.2952 45.1783 26.866 43.6573C31.7443 38.967 35.6878 30.1728 37.9887 18.8896L38.1159 18.2535L37.9777 18.2978C36.0086 18.9449 34.1005 19.6916 32.3084 20.5102L32.2863 20.5212L32.2808 20.5323Z" fill="white"/>
<path d="M64.8194 34.3044C64.6866 34.0555 64.565 33.8011 64.4488 33.5466C64.2774 33.1595 64.128 32.7668 63.9953 32.363C63.8957 31.9592 63.8072 31.5555 63.7298 31.1462C63.6524 30.7369 63.5804 30.3276 63.5141 29.9183C63.503 29.5201 63.4698 29.1219 63.4201 28.7236C63.3703 28.3254 63.2984 27.9327 63.2099 27.5345C62.4964 23.7181 60.1291 21.207 57.076 19.4648C56.0583 18.884 54.9632 18.3918 53.8238 17.9659C52.607 17.6064 51.2851 17.3077 49.8968 17.092C48.7741 16.9371 47.6015 16.8652 46.4013 16.8652C46.3349 16.8652 46.2741 16.8652 46.2077 16.8652C44.8913 16.8929 43.492 17.0201 42.0595 17.2635C41.8991 17.2856 41.7387 17.3077 41.5783 17.3354L41.1303 19.5422C38.0163 34.8132 32.867 42.3464 29.0894 45.9802C28.5805 46.478 28.0606 46.926 27.5352 47.3408C29.4102 51.6108 32.7896 54.8187 36.9157 56.7546C37.3084 56.9426 37.7121 57.1141 38.1214 57.2745C39.5484 57.7612 40.9809 58.1152 42.43 58.3641C42.7896 58.4249 43.1546 58.4802 43.5141 58.53C44.9024 58.7899 46.2962 58.9116 47.69 58.9116C49.4157 58.9116 51.1303 58.7236 52.7951 58.3862C53.2265 58.2977 53.6524 58.1981 54.0838 58.093C56.9599 57.28 59.7751 56.478 62.065 54.9017C62.2696 54.7523 62.4466 54.6141 62.6015 54.4869C64.1944 53.2645 65.4001 51.655 66.4897 50.0455C66.7497 49.6583 66.9931 49.2656 67.2198 48.8619C69.9134 44.0223 69.7917 38.1594 64.8139 34.3154L64.8194 34.3044Z" fill="white"/>
<path d="M57.342 50.5657C54.3553 50.5657 52.519 48.9673 52.4416 48.8954C51.9714 48.4806 51.9272 47.7615 52.3475 47.2914C52.7623 46.8213 53.4814 46.777 53.9515 47.1974C53.9958 47.2361 55.2513 48.2925 57.342 48.2925C59.4327 48.2925 60.6882 47.2361 60.738 47.1918C61.2137 46.7881 61.9272 46.8323 62.342 47.3025C62.7513 47.7726 62.7126 48.4806 62.2424 48.8954C62.165 48.9618 60.3287 50.5657 57.342 50.5657Z" fill="#D0D3DA"/>
<path d="M46.7488 33.6187C48.0317 33.6187 49.0718 32.3806 49.0718 30.8533C49.0718 29.3259 48.0317 28.0878 46.7488 28.0878C45.4658 28.0878 44.4258 29.3259 44.4258 30.8533C44.4258 32.3806 45.4658 33.6187 46.7488 33.6187Z" fill="#D0D3DA"/>
<path d="M59.6355 33.6187C60.9185 33.6187 61.9585 32.3806 61.9585 30.8533C61.9585 29.3259 60.9185 28.0878 59.6355 28.0878C58.3526 28.0878 57.3125 29.3259 57.3125 30.8533C57.3125 32.3806 58.3526 33.6187 59.6355 33.6187Z" fill="#D0D3DA"/>
<path d="M64.4199 43.1985L65.8026 40.8036C66.5548 39.5038 65.6146 37.8777 64.1157 37.8777H61.3502C59.8513 37.8777 58.911 39.5038 59.6633 40.8036L61.046 43.1985C61.7982 44.4982 63.6732 44.4982 64.4199 43.1985Z" fill="#D0D3DA"/>
<path d="M51.3067 73.7739C53.3476 69.4708 54.5644 65.1456 54.9626 61.1799C54.9626 61.1799 54.9626 61.1799 54.9571 61.1799L54.9129 61.191L54.8686 61.2021C54.3874 61.3237 53.9062 61.4344 53.4361 61.5284C51.5113 61.9211 49.5755 62.1202 47.6894 62.1202C46.0965 62.1202 44.5202 61.9764 43.0047 61.6998C42.6286 61.6501 42.2525 61.5892 41.8819 61.5229C40.2337 61.2352 38.6186 60.8315 37.0866 60.3116L37.0147 60.2894L36.9428 60.2618C36.4782 60.0793 36.008 59.8746 35.549 59.6589C32.3189 58.1434 29.5866 56.0029 27.4848 53.3923C25.4494 55.6268 23.5412 58.2153 21.8764 61.1025C21.0136 62.5959 20.2614 64.1003 19.5977 65.6047C25.6541 71.3348 33.8178 74.8525 42.8111 74.8525C45.7425 74.8525 48.5854 74.4764 51.3011 73.7739H51.3067Z" fill="white"/>
<path fill-rule="evenodd" clip-rule="evenodd" d="M42.9062 74C60.5794 74 74.9062 59.6731 74.9062 42C74.9062 24.3269 60.5794 10 42.9062 10C25.2331 10 10.9062 24.3269 10.9062 42C10.9062 59.6731 25.2331 74 42.9062 74ZM42.9062 84C66.1022 84 84.9062 65.196 84.9062 42C84.9062 18.804 66.1022 0 42.9062 0C19.7103 0 0.90625 18.804 0.90625 42C0.90625 65.196 19.7103 84 42.9062 84Z" fill="#D0D3DA"/>
</svg>
