<svg width="56" height="56" viewBox="0 0 56 56" fill="none" xmlns="http://www.w3.org/2000/svg">
<path d="M56 28C56 43.464 43.464 56 28 56C12.536 56 0 43.464 0 28C0 12.536 12.536 0 28 0C43.464 0 56 12.536 56 28Z" fill="#F1F2F5"/>
<path d="M40.0473 20.2536C40.0473 16.4329 36.9219 13.3333 33.0631 13.3333L27.9986 13.4014L22.9342 13.3333C19.0781 13.3333 15.9499 16.4302 15.9499 20.2536L14.6179 22.4824L15.6533 31.8981C15.906 34.2058 16.8315 36.3937 18.3146 38.1925L18.6058 38.5463C20.9073 41.3411 24.3568 42.963 27.9986 42.963C31.6404 42.963 35.09 41.3411 37.3915 38.5463L37.6826 38.1925C39.1657 36.3937 40.0885 34.2058 40.3439 31.8981L41.3793 22.4824L40.0473 20.2536Z" fill="white"/>
<path d="M21.7724 26.2977C22.8979 26.2977 23.8103 25.3936 23.8103 24.2784C23.8103 23.1633 22.8979 22.2592 21.7724 22.2592C20.6469 22.2592 19.7345 23.1633 19.7345 24.2784C19.7345 25.3936 20.6469 26.2977 21.7724 26.2977Z" fill="#A7ABB5"/>
<path d="M34.2303 26.2977C35.3558 26.2977 36.2682 25.3936 36.2682 24.2784C36.2682 23.1633 35.3558 22.2592 34.2303 22.2592C33.1048 22.2592 32.1925 23.1633 32.1925 24.2784C32.1925 25.3936 33.1048 26.2977 34.2303 26.2977Z" fill="#A7ABB5"/>
<path d="M31.4097 32.9866C32.5742 30.9865 31.1186 28.4856 28.7869 28.4856H27.2159C24.8841 28.4856 23.4285 30.9865 24.593 32.9866C26.1063 35.5855 29.8937 35.5855 31.4097 32.9866Z" fill="#A7ABB5"/>
<path d="M17.4934 15.9131L7.40298 25.6636C6.54608 26.4909 6.42249 27.8107 7.10911 28.7822L11.5227 35.0249C12.6157 36.5706 14.9969 36.3338 15.7577 34.6031C15.8648 34.3609 15.9307 34.1051 15.9527 33.8411L17.4934 15.9131Z" fill="#A7ABB5"/>
<path d="M38.5093 15.9131L48.597 25.6636C49.4539 26.4909 49.5775 27.8107 48.8909 28.7822L44.4773 35.0249C43.3843 36.5706 41.0031 36.3338 40.2423 34.6031C40.1352 34.3609 40.0693 34.1051 40.0473 33.8411L38.5066 15.9131H38.5093Z" fill="#A7ABB5"/>
</svg>
