<svg width="24" height="24" viewBox="0 0 24 24" fill="none" xmlns="http://www.w3.org/2000/svg">
<path d="M11.99 2C6.47 2 2 6.48 2 12C2 17.52 6.47 22 11.99 22C17.52 22 22 17.52 22 12C22 6.48 17.52 2 11.99 2ZM12 20C7.58 20 4 16.42 4 12C4 7.58 7.58 4 12 4C16.42 4 20 7.58 20 12C20 16.42 16.42 20 12 20Z" fill="#333333"/>
<path fill-rule="evenodd" clip-rule="evenodd" d="M11.85 6.15039C12.3194 6.15039 12.7 6.53095 12.7 7.00039V11.0557L16.2967 13.2772C16.6961 13.5239 16.8199 14.0477 16.5732 14.4471C16.3265 14.8465 15.8027 14.9703 15.4033 14.7236L11.4033 12.253C11.1526 12.0981 11 11.8245 11 11.5298V7.00039C11 6.53095 11.3806 6.15039 11.85 6.15039Z" fill="#333333"/>
<path fill-rule="evenodd" clip-rule="evenodd" d="M10.9004 6.9998C10.9004 6.47513 11.3257 6.0498 11.8504 6.0498C12.3751 6.0498 12.8004 6.47513 12.8004 6.9998V10.9994L16.3496 13.1915C16.796 13.4673 16.9344 14.0526 16.6586 14.499C16.3829 14.9454 15.7976 15.0838 15.3512 14.8081L11.3512 12.3375C11.071 12.1644 10.9004 11.8586 10.9004 11.5292V6.9998ZM11.8504 6.2498C11.4362 6.2498 11.1004 6.58559 11.1004 6.9998V11.5292C11.1004 11.7892 11.2351 12.0307 11.4563 12.1673L15.4563 14.6379C15.8087 14.8556 16.2708 14.7463 16.4885 14.3939C16.7062 14.0415 16.5969 13.5794 16.2445 13.3617L12.6478 11.1402C12.6183 11.122 12.6004 11.0898 12.6004 11.0552V6.9998C12.6004 6.58559 12.2646 6.2498 11.8504 6.2498Z" fill="#333333"/>
</svg>
