<svg width="71" height="79" viewBox="0 0 71 79" fill="none" xmlns="http://www.w3.org/2000/svg">
<g filter="url(#filter0_d_3531_55500)">
<path d="M56.7823 47.3894C56.7823 46.3188 56.365 45.3018 55.6161 44.5417C55.9477 43.9422 56.1189 43.2785 56.1189 42.5933C56.1189 41.2016 55.4021 39.842 54.2787 39.0391C54.2787 38.9749 54.3001 38.9106 54.3001 38.8464C54.3001 37.5082 53.6474 36.2557 52.5561 35.4956C53.0055 34.5214 53.059 33.408 52.6845 32.3803C52.2244 31.1171 51.1866 30.175 49.9027 29.8217C49.9883 28.7512 49.6566 27.6806 48.9612 26.8563C48.1052 25.8286 46.7999 25.2933 45.4732 25.411C45.1951 24.3726 44.5103 23.4841 43.5688 22.9381C42.4133 22.2636 41.001 22.2101 39.8027 22.7668C39.1821 21.8889 38.2406 21.2894 37.1707 21.0967C35.8547 20.8612 34.5066 21.2894 33.5758 22.2315C32.6877 21.6213 31.6071 21.3751 30.5372 21.5678C29.2212 21.8033 28.1085 22.6597 27.5414 23.8588C26.5036 23.5804 25.4016 23.7303 24.4494 24.2763C23.2938 24.9507 22.5342 26.139 22.4165 27.4558C21.3466 27.5521 20.3516 28.066 19.6561 28.901C18.8002 29.9288 18.5006 31.3098 18.8323 32.5837C17.8587 33.044 17.1097 33.8684 16.7352 34.8854C16.3073 36.063 16.4571 37.3691 17.099 38.4289C15.569 39.0177 14.4563 40.677 14.4563 42.497C14.4563 43.1821 14.6275 43.8566 14.9592 44.4454C14.2102 45.2055 13.793 46.2225 13.793 47.293C13.793 48.6098 14.4135 49.8195 15.4834 50.5796C15.4406 50.8044 15.4299 51.0292 15.4299 51.2433C15.4299 53.4808 17.2488 55.29 19.4742 55.29C19.6454 55.29 19.8166 55.2793 19.9878 55.2579C20.6404 56.6817 22.0741 57.6024 23.6576 57.6024C24.9843 57.6024 26.1505 56.9493 26.8888 55.9644C29.7027 57.2705 32.8375 58.1055 35.1699 58.1055C37.5023 58.1055 40.7014 57.2384 43.5474 55.8788C44.2749 56.9708 45.516 57.688 46.9176 57.688C48.5011 57.688 49.9348 56.7567 50.5874 55.3435C50.7586 55.3649 50.9298 55.3756 51.101 55.3756C53.3371 55.3756 55.1453 53.5557 55.1453 51.329C55.1453 51.1149 55.1239 50.8901 55.0918 50.6652C56.151 49.9052 56.7823 48.6954 56.7823 47.3787V47.3894Z" stroke="white" stroke-width="5" stroke-linecap="round" stroke-linejoin="round" shape-rendering="crispEdges"/>
</g>
<path d="M53.8459 38.8308C53.8459 37.4605 53.0863 36.2614 51.9629 35.6405C52.5085 34.7306 52.6476 33.5958 52.2624 32.5252C51.7917 31.2299 50.6682 30.3734 49.4057 30.17C49.5983 29.1316 49.3522 28.0075 48.614 27.1404C47.7367 26.0912 46.3779 25.663 45.1261 25.8986C44.9549 24.8494 44.3343 23.8859 43.35 23.3185C42.1624 22.6334 40.7501 22.6869 39.6481 23.3507C39.1345 22.43 38.2144 21.7341 37.091 21.5307C35.7429 21.2952 34.4269 21.8305 33.6244 22.8261C32.822 22.1302 31.7307 21.7984 30.6073 21.9911C29.2592 22.2266 28.2107 23.1794 27.7934 24.3998C26.7984 24.0251 25.6643 24.0786 24.6692 24.6567C23.4816 25.3419 22.829 26.5944 22.8397 27.8791C21.7805 27.8684 20.7212 28.3073 19.9937 29.1851C19.1164 30.2343 18.9238 31.6367 19.3838 32.8357C18.3888 33.189 17.5436 33.9598 17.1584 35.041C16.6876 36.3364 16.9979 37.7174 17.8325 38.6809C17.0086 39.3553 16.4844 40.3723 16.4844 41.5071C16.4844 43.5305 18.1214 45.1577 20.1328 45.1577C20.4217 45.1577 20.6999 45.1256 20.9673 45.0613C22.7862 51.3669 28.4567 55.9702 35.1651 55.9702C40.9855 55.9702 46.0248 52.5016 48.4428 47.4701C48.4642 47.4701 48.4749 47.4808 48.4963 47.4915C50.3901 48.1766 52.4871 47.2024 53.1826 45.3076C53.6533 44.0122 53.343 42.6312 52.5085 41.6677C53.3323 40.9933 53.8566 39.9762 53.8566 38.8415L53.8459 38.8308Z" fill="#F6F6F6"/>
<path d="M35.1643 56.4201C31.8048 56.4201 28.6272 55.3174 25.9631 53.2406C23.4916 51.3136 21.6192 48.6051 20.667 45.5754C20.4851 45.5969 20.3139 45.6076 20.1427 45.6076C17.8852 45.6076 16.0449 43.7662 16.0449 41.5074C16.0449 40.4154 16.4729 39.3877 17.2325 38.6276C16.4729 37.5356 16.291 36.1439 16.7404 34.8807C17.1148 33.853 17.8638 33.0393 18.8374 32.579C18.495 31.2943 18.7946 29.924 19.6612 28.8963C20.3567 28.0613 21.3517 27.5474 22.4216 27.4511C22.5393 26.1343 23.2883 24.9353 24.4545 24.2716C25.396 23.7256 26.498 23.5864 27.5465 23.854C28.1136 22.655 29.2263 21.7879 30.5423 21.5631C31.6122 21.3704 32.7035 21.6166 33.5809 22.2268C34.5224 21.2954 35.8598 20.8672 37.1758 21.092C38.2457 21.2847 39.1873 21.8842 39.8078 22.7621C41.0061 22.2054 42.4184 22.2589 43.5739 22.9334C44.5154 23.4794 45.1895 24.3679 45.4784 25.4063C46.7944 25.2993 48.0997 25.8239 48.9663 26.8516C49.6617 27.6866 50.0041 28.7464 49.9078 29.817C51.181 30.1596 52.2295 31.1124 52.6896 32.3756C53.0641 33.4033 53.0106 34.5167 52.5612 35.4909C53.6418 36.251 54.3052 37.5035 54.3052 38.8417C54.3052 39.9337 53.8772 40.9614 53.1176 41.7215C53.8772 42.8134 54.0591 44.2051 53.6097 45.4684C52.8715 47.481 50.721 48.573 48.6881 48.0163C46.0347 53.2084 40.8991 56.4201 35.1858 56.4201H35.1643ZM20.9666 44.6227C21.1591 44.6227 21.341 44.7511 21.3945 44.9438C23.192 51.1744 28.8518 55.5315 35.1643 55.5315C40.6637 55.5315 45.5961 52.3734 48.0462 47.2776C48.1425 47.0742 48.3885 46.9779 48.6025 47.0528C48.6239 47.0528 48.6346 47.0635 48.656 47.0742C50.3144 47.6844 52.1654 46.8173 52.7645 45.1579C53.1604 44.066 52.9357 42.8348 52.1761 41.957C52.1012 41.8713 52.0584 41.7429 52.0691 41.6251C52.0798 41.5074 52.1333 41.4003 52.2295 41.3147C52.9785 40.7045 53.4064 39.7945 53.4064 38.831C53.4064 37.6641 52.7752 36.5936 51.7588 36.0262C51.6518 35.9726 51.5769 35.8656 51.5448 35.7585C51.5127 35.6408 51.5341 35.523 51.5876 35.416C52.0798 34.5809 52.1761 33.5853 51.8444 32.6754C51.4485 31.5834 50.4856 30.7912 49.3301 30.5985C49.2124 30.5771 49.1054 30.5128 49.0412 30.4165C48.977 30.3202 48.9449 30.1917 48.9663 30.0739C49.1482 29.1211 48.8914 28.1469 48.2708 27.4083C47.5219 26.5197 46.345 26.1022 45.2002 26.3163C45.0825 26.3377 44.9648 26.3163 44.8578 26.2414C44.7615 26.1771 44.6973 26.0701 44.6759 25.9523C44.5154 24.9995 43.9484 24.1645 43.1138 23.6828C42.1081 23.1047 40.8563 23.1154 39.8613 23.7149C39.7543 23.7791 39.6366 23.7898 39.5189 23.7577C39.4012 23.7256 39.3049 23.6506 39.2514 23.5436C38.7807 22.6979 37.9568 22.1198 37.0046 21.9485C35.8598 21.7451 34.6936 22.184 33.9554 23.0833C33.8805 23.1796 33.7735 23.2331 33.6558 23.2438C33.5381 23.2545 33.4204 23.2117 33.3241 23.1368C32.5858 22.5052 31.6229 22.2375 30.6707 22.4088C29.5259 22.6122 28.5737 23.4258 28.1992 24.5178C28.1564 24.6355 28.0815 24.7212 27.9638 24.7747C27.8568 24.8282 27.7284 24.8282 27.6214 24.7854C26.712 24.4428 25.717 24.5178 24.8824 25.0102C23.8767 25.5883 23.2562 26.6803 23.2776 27.8472C23.2776 27.9649 23.2348 28.0827 23.1492 28.1684C23.0636 28.254 22.9459 28.2968 22.8282 28.2968C21.8546 28.2968 20.9451 28.7036 20.3246 29.4423C19.5757 30.3309 19.3724 31.562 19.7896 32.6539C19.8324 32.761 19.8324 32.8895 19.7789 32.9965C19.7254 33.1036 19.6398 33.1892 19.5222 33.232C18.6127 33.5532 17.8959 34.2598 17.5642 35.1697C17.1683 36.2617 17.393 37.4928 18.1527 38.3707C18.2276 38.4563 18.2704 38.5848 18.2597 38.7025C18.249 38.8203 18.1955 38.9273 18.0992 39.013C17.3502 39.6232 16.9223 40.5332 16.9223 41.4967C16.9223 43.2631 18.3667 44.7083 20.132 44.7083C20.3674 44.7083 20.6135 44.6762 20.8702 44.6227C20.9023 44.6227 20.9345 44.6119 20.9666 44.6119V44.6227Z" fill="#231916"/>
<path d="M19.0409 46.6029C20.7959 46.6029 22.2186 44.839 22.2186 42.6632C22.2186 40.4875 20.7959 38.7236 19.0409 38.7236C17.286 38.7236 15.8633 40.4875 15.8633 42.6632C15.8633 44.839 17.286 46.6029 19.0409 46.6029Z" fill="#F6F6F6"/>
<path d="M23.6525 49.9435C23.3851 49.9435 23.1176 49.9756 22.8608 50.0291C22.5826 49.2369 22.037 48.5732 21.3308 48.145C21.395 47.8666 21.4378 47.5776 21.4378 47.2778C21.4378 46.5284 21.2024 45.8219 20.8066 45.2438C21.5983 44.58 22.1012 43.5844 22.1012 42.4818C22.1012 40.4905 20.4856 38.874 18.4955 38.874C16.5055 38.874 14.8899 40.4905 14.8899 42.4818C14.8899 43.2311 15.1253 43.9377 15.5212 44.5158C14.7294 45.1795 14.2266 46.1752 14.2266 47.2778C14.2266 48.5839 14.922 49.7294 15.9705 50.361C15.9063 50.6393 15.8635 50.9284 15.8635 51.2281C15.8635 53.2193 17.4791 54.8359 19.4692 54.8359C19.7366 54.8359 20.0041 54.8038 20.2609 54.7502C20.7531 56.1526 22.0905 57.159 23.6525 57.159C25.6426 57.159 27.2582 55.5424 27.2582 53.5512C27.2582 51.56 25.6426 49.9435 23.6525 49.9435Z" fill="#F6F6F6"/>
<path d="M23.6527 57.5977C22.0693 57.5977 20.6356 56.6664 19.9829 55.2532C19.8117 55.2747 19.6405 55.2854 19.4693 55.2854C17.2332 55.2854 15.4251 53.4654 15.4251 51.2387C15.4251 51.0246 15.4465 50.7998 15.4786 50.575C14.4193 49.8149 13.7881 48.6052 13.7881 47.2884C13.7881 46.2178 14.2053 45.2008 14.9543 44.4407C14.6226 43.8412 14.4514 43.1775 14.4514 42.4923C14.4514 40.4155 15.8958 38.5527 17.7468 38.2423C17.9929 38.1994 18.2176 38.36 18.2604 38.6062C18.3031 38.8525 18.1426 39.0773 17.8966 39.1201C16.4629 39.3556 15.3395 40.8437 15.3395 42.4923C15.3395 43.1347 15.5321 43.7449 15.8851 44.2694C16.0135 44.4621 15.9814 44.7084 15.7995 44.8582C15.0827 45.4577 14.6654 46.3463 14.6654 47.2884C14.6654 48.4017 15.2325 49.4081 16.1954 49.9862C16.3559 50.0825 16.4415 50.2859 16.3987 50.4679C16.3345 50.7248 16.3024 50.9818 16.3024 51.228C16.3024 52.973 17.7147 54.3861 19.4587 54.3861C19.6833 54.3861 19.9187 54.3647 20.1541 54.3112C20.3681 54.2576 20.5928 54.3861 20.6677 54.6002C21.117 55.8635 22.3046 56.7092 23.642 56.7092C25.386 56.7092 26.7983 55.2961 26.7983 53.5511C26.7983 51.8061 25.386 50.393 23.642 50.393C23.4174 50.393 23.182 50.4144 22.9466 50.4679C22.7326 50.5214 22.5079 50.393 22.433 50.1789C22.1869 49.4937 21.7162 48.9049 21.0956 48.5302C20.9351 48.4339 20.8495 48.2305 20.8923 48.0485C20.9565 47.7915 20.9886 47.5346 20.9886 47.2884C20.9886 46.6461 20.796 46.0358 20.443 45.5113C20.3039 45.3079 20.3574 45.0295 20.5607 44.8904C20.764 44.7512 21.0421 44.8047 21.1812 45.0081C21.6413 45.6826 21.8874 46.4748 21.8874 47.2884C21.8874 47.5025 21.866 47.7273 21.8339 47.9521C22.4009 48.3589 22.8503 48.9049 23.1392 49.5365C23.3104 49.5151 23.4815 49.5044 23.6527 49.5044C25.8889 49.5044 27.697 51.3243 27.697 53.5511C27.697 55.7778 25.8782 57.5977 23.6527 57.5977Z" fill="#231916"/>
<path d="M46.9123 50.0284C47.1798 50.0284 47.4472 50.0606 47.704 50.1141C47.9822 49.3219 48.5278 48.6581 49.234 48.2299C49.1698 47.9516 49.127 47.6625 49.127 47.3628C49.127 46.6134 49.3624 45.9068 49.7582 45.3287C48.9665 44.665 48.4637 43.6694 48.4637 42.5667C48.4637 40.5755 50.0792 38.959 52.0693 38.959C54.0593 38.959 55.6749 40.5755 55.6749 42.5667C55.6749 43.3161 55.4395 44.0227 55.0436 44.6008C55.8354 45.2645 56.3382 46.2601 56.3382 47.3628C56.3382 48.6688 55.6428 49.8143 54.5943 50.446C54.6585 50.7243 54.7013 51.0133 54.7013 51.3131C54.7013 53.3043 53.0857 54.9208 51.0956 54.9208C50.8282 54.9208 50.5607 54.8887 50.3039 54.8352C49.8117 56.2376 48.4744 57.2439 46.9123 57.2439C44.9222 57.2439 43.3066 55.6274 43.3066 53.6362C43.3066 51.645 44.9222 50.0284 46.9123 50.0284Z" fill="#F6F6F6"/>
<path d="M46.9134 57.6834C44.6773 57.6834 42.8691 55.8634 42.8691 53.6367C42.8691 51.41 44.688 49.59 46.9134 49.59C47.0846 49.59 47.2558 49.6007 47.427 49.6221C47.7159 48.9905 48.1759 48.4445 48.7323 48.0377C48.6895 47.8129 48.6788 47.5881 48.6788 47.374C48.6788 46.5604 48.9249 45.7682 49.3849 45.0937C49.524 44.8903 49.8022 44.8368 50.0055 44.976C50.2088 45.1151 50.2623 45.3935 50.1232 45.5969C49.7594 46.1215 49.5775 46.7424 49.5775 47.374C49.5775 47.6202 49.6096 47.8771 49.6738 48.1341C49.7166 48.3268 49.6417 48.5195 49.4705 48.6158C48.85 48.9905 48.3685 49.5793 48.1331 50.2645C48.0582 50.4786 47.8335 50.5963 47.6196 50.5535C47.3842 50.5 47.1488 50.4786 46.9241 50.4786C45.1802 50.4786 43.7679 51.8917 43.7679 53.6367C43.7679 55.3817 45.1802 56.7948 46.9241 56.7948C48.2615 56.7948 49.4491 55.9491 49.8985 54.6858C49.9734 54.4717 50.1981 54.354 50.412 54.3968C50.6474 54.4503 50.8828 54.4717 51.1075 54.4717C52.8515 54.4717 54.2638 53.0586 54.2638 51.3136C54.2638 51.0674 54.2317 50.8104 54.1675 50.5535C54.1247 50.3608 54.1996 50.1681 54.3708 50.0718C55.323 49.4937 55.9007 48.4767 55.9007 47.374C55.9007 46.4319 55.4835 45.5541 54.7666 44.9439C54.5954 44.794 54.5526 44.537 54.681 44.3551C55.0448 43.8305 55.2267 43.2096 55.2267 42.5779C55.2267 41.4003 54.5847 40.2334 53.6004 39.6232C53.3971 39.4948 53.3329 39.2164 53.4613 39.013C53.5897 38.8096 53.8679 38.7347 54.0712 38.8739C55.3123 39.6446 56.1254 41.1006 56.1254 42.5886C56.1254 43.2738 55.9542 43.9482 55.6226 44.537C56.3715 45.2971 56.7888 46.3142 56.7888 47.3847C56.7888 48.7015 56.1682 49.9112 55.0983 50.6713C55.1411 50.8961 55.1518 51.1209 55.1518 51.335C55.1518 53.5725 53.3329 55.3817 51.1075 55.3817C50.9363 55.3817 50.7651 55.371 50.5939 55.3496C49.9413 56.7734 48.5076 57.6941 46.9241 57.6941L46.9134 57.6834Z" fill="#231916"/>
<path d="M51.3423 45.7355V45.7141C51.3423 45.6499 51.3423 45.5856 51.3423 45.5107C51.3423 45.4786 51.3423 45.4465 51.3423 45.4144C51.3423 45.3715 51.3423 45.3287 51.3423 45.2859C51.3423 45.2538 51.3423 45.2109 51.3423 45.1788C51.3423 45.136 51.3423 45.1039 51.3423 45.0611C51.3423 45.029 51.3423 44.9861 51.3316 44.954C51.3316 44.9219 51.3316 44.8791 51.3209 44.847C51.3209 44.8041 51.3209 44.772 51.3102 44.7292C51.3102 44.6971 51.3102 44.6543 51.2995 44.6221C51.2995 44.5793 51.2888 44.5472 51.2781 44.5044C51.2781 44.4723 51.2674 44.4402 51.2567 44.408C51.2567 44.3652 51.246 44.3331 51.2353 44.2903C51.2353 44.2582 51.2246 44.226 51.2139 44.1939C51.2139 44.1511 51.1925 44.119 51.1925 44.0762C51.1925 44.0441 51.1818 44.0119 51.1711 43.9798C51.1711 43.937 51.1497 43.8942 51.139 43.8621C51.139 43.8299 51.1283 43.7978 51.1176 43.7764C51.1176 43.7336 51.0962 43.6908 51.0855 43.6479C51.0855 43.6158 51.0748 43.5944 51.0641 43.5623C51.0534 43.5195 51.0427 43.4767 51.032 43.4338C51.032 43.4124 51.0213 43.3803 51.0106 43.3589C50.9999 43.3161 50.9892 43.2733 50.9678 43.2304C50.9678 43.209 50.9571 43.1769 50.9464 43.1555C50.9357 43.1127 50.9143 43.0699 50.9036 43.027C50.9036 43.0056 50.8929 42.9842 50.8822 42.9628C50.8608 42.92 50.8501 42.8665 50.8287 42.8236C50.8287 42.8022 50.818 42.7915 50.8073 42.7701C50.7859 42.7166 50.7645 42.6738 50.7538 42.6202C50.7538 42.6095 50.7538 42.5988 50.7431 42.5881C50.7217 42.5346 50.7003 42.4811 50.6789 42.4275C50.4649 41.9137 50.1975 41.4319 49.8979 40.9823C49.8658 40.9288 49.823 40.8752 49.7909 40.8217C49.7481 40.7682 49.716 40.7147 49.6732 40.6611C49.6304 40.6076 49.5983 40.5541 49.5555 40.5005C49.5127 40.447 49.4699 40.3935 49.4271 40.34C47.8757 38.413 45.5647 37.139 42.9434 36.9784C42.7508 36.9677 42.5689 36.957 42.3764 36.957C39.4769 36.957 36.8877 38.3273 35.24 40.447C33.5816 38.3273 31.0031 36.957 28.1037 36.957C27.665 36.957 27.237 36.9891 26.8198 37.0427C24.2627 37.4067 22.0479 38.8412 20.6463 40.8859C20.6142 40.9395 20.5821 40.9823 20.55 41.0358C20.55 41.0358 20.55 41.0465 20.5393 41.0572C20.5072 41.1 20.4751 41.1536 20.443 41.2071C20.443 41.2071 20.4431 41.2285 20.4324 41.2285C20.4003 41.2713 20.3682 41.3249 20.3468 41.3784C20.3468 41.3784 20.3467 41.3998 20.336 41.3998C20.3039 41.4533 20.2825 41.4962 20.2505 41.5497C20.2505 41.5497 20.2505 41.5604 20.2505 41.5711C20.1007 41.8387 19.9616 42.1171 19.8332 42.4061C19.8332 42.4168 19.8225 42.4382 19.8118 42.4489C19.7904 42.4918 19.7797 42.5346 19.7583 42.5774C19.7583 42.5988 19.7369 42.6202 19.7369 42.6416C19.7155 42.6845 19.7048 42.7273 19.6834 42.7701C19.6834 42.7915 19.662 42.8129 19.662 42.8343C19.6513 42.8772 19.6299 42.92 19.6192 42.9628C19.6192 42.9842 19.5978 43.0163 19.5978 43.0377C19.5871 43.0806 19.5657 43.1234 19.555 43.1555C19.555 43.1769 19.5336 43.209 19.5336 43.2304C19.5229 43.2733 19.5122 43.3161 19.4908 43.3589C19.4908 43.3803 19.4801 43.4124 19.4694 43.4338C19.4587 43.4767 19.448 43.5195 19.4373 43.5623C19.4373 43.5837 19.4266 43.6051 19.4159 43.6265C19.3945 43.7229 19.3624 43.8085 19.341 43.9049C19.341 43.9263 19.341 43.937 19.3303 43.9584C19.3303 44.0012 19.3089 44.0333 19.3089 44.0762C19.3089 44.1083 19.2982 44.1404 19.2875 44.1725C19.2875 44.2046 19.2768 44.2475 19.2661 44.2796C19.2661 44.3117 19.2554 44.3438 19.2447 44.3866C19.2447 44.4187 19.234 44.4616 19.2233 44.4937C19.2233 44.5258 19.2126 44.5686 19.2019 44.6007C19.2019 44.6329 19.1912 44.6757 19.1912 44.7078C19.1912 44.7399 19.1912 44.7827 19.1805 44.8148C19.1805 44.847 19.1805 44.8791 19.1698 44.9219C19.1698 44.9647 19.1698 44.9968 19.1591 45.0397C19.1591 45.0718 19.1591 45.1039 19.1591 45.136C19.1591 45.1788 19.1591 45.2217 19.1484 45.2538C19.1484 45.2859 19.1484 45.318 19.1484 45.3501C19.1484 45.3929 19.1484 45.4358 19.1484 45.4893C19.1484 45.5214 19.1484 45.5428 19.1484 45.5749C19.1484 45.6392 19.1484 45.7141 19.1484 45.7783C19.1484 45.7783 19.1484 45.789 19.1484 45.7997C19.1484 45.8747 19.1484 45.9603 19.1484 46.0353C19.1484 46.1209 19.1484 46.2066 19.1484 46.3029C19.1484 46.3778 19.1484 46.4528 19.1484 46.517C19.4694 53.4006 30.2221 57.7042 35.3256 57.7042C40.4291 57.7042 51.1818 53.2829 51.5028 46.4956V46.4742C51.5028 46.41 51.5028 46.3564 51.5028 46.2922C51.5028 46.2066 51.5028 46.1102 51.5028 46.0246C51.5028 45.9496 51.5028 45.864 51.5028 45.789L51.3423 45.7355Z" fill="#F6F6F6"/>
<path d="M35.1656 58.1008C32.3196 58.1008 28.254 56.8697 25.0656 55.0284C21.0106 52.6946 18.6996 49.6649 18.5498 46.4854V46.464C18.5498 46.3998 18.5498 46.3248 18.5498 46.2606C18.5498 46.1643 18.5498 46.0679 18.5498 45.9716C18.5498 45.9073 18.5498 45.8538 18.5498 45.7896V45.7039C18.5498 45.629 18.5498 45.554 18.5498 45.4898V45.4042C18.5498 45.4042 18.5605 45.3078 18.5605 45.265V45.1686C18.5605 45.1686 18.5712 45.083 18.5819 45.0402L18.7638 43.9054L18.7959 43.7769C18.828 43.6592 18.8494 43.5628 18.8708 43.4665L19.0206 42.974C19.0206 42.974 19.0527 42.8884 19.0634 42.8456L19.1704 42.5672C19.1704 42.5672 19.2025 42.4816 19.2239 42.4387L19.2453 42.3745C19.2453 42.3745 19.288 42.2782 19.2987 42.2353V42.2032C19.3843 42.0319 19.4592 41.8821 19.5448 41.7108C19.6518 41.4967 19.9193 41.4003 20.144 41.5181C20.358 41.6251 20.4543 41.8928 20.3366 42.1176C20.2617 42.2675 20.1975 42.4066 20.1333 42.5458L20.1119 42.5886C20.1119 42.5886 20.0798 42.6743 20.0584 42.7171L20.037 42.7706C20.037 42.7706 20.0049 42.8456 19.9942 42.8884L19.8979 43.1453C19.8979 43.1453 19.8658 43.2202 19.8551 43.2631L19.716 43.7127C19.6946 43.7983 19.6732 43.884 19.6518 43.9803L19.5234 44.6334L19.4378 45.3506C19.4378 45.3506 19.4378 45.4363 19.4378 45.4791V45.554C19.4378 45.6183 19.4378 45.6825 19.4271 45.7467V45.8217C19.4271 45.8752 19.4271 45.9287 19.4271 45.9823C19.4271 46.0679 19.4271 46.1535 19.4271 46.2392C19.4271 46.3141 19.4271 46.3784 19.4271 46.4319V46.4533C19.7481 53.1549 30.5115 57.223 35.1549 57.223C37.3911 57.223 41.2428 56.2916 44.8163 54.2255C47.0096 52.9515 50.7115 50.2537 50.8934 46.4426V46.4212C50.8934 46.3677 50.8934 46.3034 50.8934 46.2499C50.8934 46.1642 50.8934 46.0786 50.8934 45.993C50.8934 45.9394 50.8934 45.8859 50.8934 45.8324V45.7467C50.8934 45.6825 50.8934 45.6183 50.8934 45.554L50.8078 44.7083L50.6473 43.8947C50.6473 43.8947 50.6259 43.8198 50.6152 43.7769L50.5938 43.702C50.5938 43.702 50.5724 43.6271 50.5617 43.5842L50.5404 43.5093C50.5404 43.5093 50.5189 43.4237 50.4976 43.3915L50.4761 43.338C50.4548 43.2845 50.4441 43.2417 50.4334 43.1988L50.412 43.156C50.3906 43.0918 50.3799 43.049 50.3585 43.0061L50.3371 42.9526C50.3371 42.9526 50.305 42.8563 50.2836 42.8134V42.7813C50.2836 42.7813 50.2408 42.6957 50.2194 42.6529V42.6207C50.0054 42.139 49.7486 41.6787 49.4597 41.2397C49.4169 41.1862 49.3848 41.1327 49.3527 41.0792C49.3099 41.0256 49.2779 40.9721 49.2351 40.9186C49.203 40.865 49.1708 40.8222 49.1388 40.7794C48.989 40.5867 49.0318 40.3084 49.2243 40.1585C49.4169 40.0086 49.6951 40.0514 49.8449 40.2441C49.877 40.287 49.9198 40.3405 49.9519 40.3833C49.9947 40.4475 50.0375 40.5011 50.0803 40.5546C50.1231 40.6188 50.1659 40.6723 50.198 40.7366C50.519 41.2183 50.7864 41.7108 51.0111 42.2353L51.0325 42.2782C51.0325 42.2782 51.0753 42.3852 51.0967 42.4387V42.4816C51.0967 42.4816 51.1502 42.5886 51.1716 42.6422L51.193 42.6957C51.193 42.6957 51.2251 42.792 51.2465 42.8456L51.2679 42.9098C51.2679 42.9098 51.3 43.0061 51.3107 43.049L51.3321 43.1239C51.3321 43.1239 51.3642 43.2095 51.3749 43.2631L51.3963 43.3487C51.3963 43.3487 51.4177 43.4344 51.4284 43.4772L51.4498 43.5628C51.4498 43.5628 51.4712 43.6485 51.4819 43.6913L51.6424 44.4621L51.7387 45.2757V45.5112C51.7601 45.5755 51.7601 45.6504 51.7601 45.7253V45.8217C51.7601 45.8752 51.7601 45.9394 51.7601 46.0037C51.7601 46.1 51.7601 46.1964 51.7601 46.282C51.7601 46.3462 51.7601 46.4105 51.7601 46.4747V46.4961C51.6103 49.6328 49.2992 52.6518 45.2443 55.007C42.0345 56.8697 37.9688 58.1223 35.1442 58.1223L35.1656 58.1008Z" fill="#231916"/>
<path d="M35.037 50.8849C36.3851 50.8849 37.5727 49.7716 38.2468 48.0908C38.2468 48.0908 37.6262 48.883 37.1448 48.883C36.6633 48.883 34.9514 48.0908 34.9514 48.0908C34.9514 48.0908 33.3787 48.8402 32.94 48.8402C32.5013 48.8402 31.8594 48.4013 31.8594 48.4013C32.0092 48.7653 32.1376 48.7867 32.3301 49.0971C33.0256 50.1998 33.9778 50.8849 35.037 50.8849Z" fill="#CF7A8D"/>
<path d="M35.2075 40.3083C34.266 39.9764 31.8479 40.0728 31.6982 43.4343C31.5484 46.7958 34.9507 47.8236 35.3359 47.7165C35.721 47.6094 37.7539 45.7788 38.0321 45.3399C38.3103 44.901 39.3802 42.3531 37.7218 41.5287C36.0634 40.7044 36.0955 40.6295 35.2182 40.3083H35.2075Z" fill="#ED7C2E"/>
<path d="M33.1958 49.0544C31.4518 49.0544 30.7885 47.8554 30.7564 47.8018C30.6387 47.577 30.7136 47.2987 30.9383 47.1809C31.163 47.0632 31.4411 47.1381 31.5588 47.3629C31.5802 47.4057 32.0189 48.1337 33.1851 48.1337C33.4633 48.1337 33.7843 48.0481 34.148 47.8982C32.9497 47.0953 31.6337 45.9819 31.3021 44.1406C31.0453 42.6525 31.4946 41.3143 32.5646 40.4686C33.474 39.7406 34.6616 39.5479 35.6352 39.9547C36.0953 40.1474 36.427 40.3937 36.6624 40.6399C37.0582 40.6827 37.4648 40.8326 37.8607 41.0895C39.1553 41.9245 39.305 43.3591 39.0483 44.3333C38.6952 45.6286 37.4755 46.6564 37.0154 47.0418L36.9298 47.106C36.5982 47.3843 35.999 47.8982 35.2929 48.3264C35.2929 48.3264 35.2822 48.3264 35.2715 48.3264C34.4797 48.8082 33.7843 49.0437 33.1744 49.0437L33.1958 49.0544ZM34.5867 40.6506C34.0945 40.6506 33.581 40.8326 33.153 41.1752C32.3613 41.8068 32.0189 42.8238 32.2222 43.9693C32.5218 45.65 33.8806 46.6135 35.0575 47.3843C35.6031 47.0203 36.0739 46.6242 36.3521 46.3887L36.427 46.3245C36.8335 45.9819 37.8927 45.0934 38.1709 44.0656C38.3528 43.3912 38.2565 42.3956 37.3792 41.8282C37.3364 41.7961 37.2936 41.7747 37.2401 41.7425C37.3257 42.3528 37.1438 43.0058 36.7159 43.5625C35.9027 44.6223 34.9612 44.526 34.3941 44.1192C34.1266 43.9265 33.9662 43.5946 33.9341 43.1878C33.8806 42.5669 34.148 41.9138 34.6509 41.4C34.897 41.1537 35.1538 40.961 35.4319 40.8326C35.3891 40.8112 35.3463 40.7898 35.3036 40.7791C35.0789 40.6827 34.8435 40.6399 34.5974 40.6399L34.5867 40.6506ZM36.2237 41.5498C35.892 41.6034 35.5817 41.7747 35.3036 42.0637C34.8435 42.5347 34.8328 43.0058 34.8435 43.1343C34.8542 43.3055 34.9184 43.3805 34.9398 43.4019C35.3678 43.7124 35.7743 43.3055 35.9883 43.0272C36.2986 42.6204 36.4163 42.1708 36.3093 41.7747C36.2879 41.6997 36.2665 41.6248 36.2237 41.5606V41.5498Z" fill="#231916"/>
<path d="M36.919 49.0549C36.3091 49.0549 35.603 48.8087 34.8112 48.327C34.5972 48.1985 34.5224 47.9095 34.6614 47.6954C34.8005 47.4812 35.0787 47.4063 35.2927 47.5455C35.9347 47.9416 36.4803 48.1343 36.919 48.1343C38.0959 48.1343 38.5346 47.3956 38.5453 47.3635C38.6736 47.1494 38.9518 47.0637 39.1658 47.1922C39.3905 47.31 39.4654 47.5883 39.3477 47.8131C39.3156 47.8666 38.6522 49.0657 36.9083 49.0657L36.919 49.0549Z" fill="#231916"/>
<path d="M28.8421 38.7986C29.882 38.7986 30.7251 37.955 30.7251 36.9144C30.7251 35.8738 29.882 35.0303 28.8421 35.0303C27.8021 35.0303 26.959 35.8738 26.959 36.9144C26.959 37.955 27.8021 38.7986 28.8421 38.7986Z" fill="black"/>
<path d="M41.4885 38.7986C42.5285 38.7986 43.3716 37.955 43.3716 36.9144C43.3716 35.8738 42.5285 35.0303 41.4885 35.0303C40.4485 35.0303 39.6055 35.8738 39.6055 36.9144C39.6055 37.955 40.4485 38.7986 41.4885 38.7986Z" fill="black"/>
<defs>
<filter id="filter0_d_3531_55500" x="7.29297" y="16.5332" width="55.9893" height="50.0723" filterUnits="userSpaceOnUse" color-interpolation-filters="sRGB">
<feFlood flood-opacity="0" result="BackgroundImageFix"/>
<feColorMatrix in="SourceAlpha" type="matrix" values="0 0 0 0 0 0 0 0 0 0 0 0 0 0 0 0 0 0 127 0" result="hardAlpha"/>
<feOffset dy="2"/>
<feGaussianBlur stdDeviation="2"/>
<feComposite in2="hardAlpha" operator="out"/>
<feColorMatrix type="matrix" values="0 0 0 0 0 0 0 0 0 0 0 0 0 0 0 0 0 0 0.25 0"/>
<feBlend mode="normal" in2="BackgroundImageFix" result="effect1_dropShadow_3531_55500"/>
<feBlend mode="normal" in="SourceGraphic" in2="effect1_dropShadow_3531_55500" result="shape"/>
</filter>
</defs>
</svg>
