<svg width="24" height="24" viewBox="0 0 24 24" fill="none" xmlns="http://www.w3.org/2000/svg">
<path d="M17.9905 21.1543C16.8329 22.2598 15.5556 22.0874 14.3381 21.5662C13.0438 21.0345 11.8605 21.0009 10.4935 21.5662C8.79119 22.2892 7.88771 22.079 6.86248 21.1543C1.07419 15.2909 1.92855 6.35908 8.50712 6.02282C10.1026 6.10689 11.2197 6.89078 12.1595 6.95593C13.5564 6.67642 14.8935 5.87571 16.3886 5.98079C18.1849 6.1237 19.5284 6.82143 20.4254 8.07609C16.7303 10.2617 17.6061 15.0534 21 16.3984C20.3208 18.1533 19.4493 19.8871 17.9884 21.169L17.9905 21.1543ZM12.0314 5.95977C11.8583 3.35379 14.0049 1.21016 16.474 1C16.8136 4.00529 13.6974 6.254 12.0314 5.95977Z" fill="#333333"/>
</svg>
