<svg width="74" height="73" viewBox="0 0 74 73" fill="none" xmlns="http://www.w3.org/2000/svg">
<circle opacity="0.12" cx="36.9456" cy="36.1194" r="36.1194" fill="#FFC940"/>
<circle opacity="0.2" cx="36.9453" cy="36.1194" r="20" fill="#FF7D1F"/>
<path d="M36.9458 13L42.142 21.25H31.7496L36.9458 13Z" fill="#FF7D1F"/>
<g filter="url(#filter0_d_3490_56698)">
<path fill-rule="evenodd" clip-rule="evenodd" d="M36.9453 46.1194C42.4682 46.1194 46.9453 41.6422 46.9453 36.1194C46.9453 30.5965 42.4682 26.1194 36.9453 26.1194C31.4225 26.1194 26.9453 30.5965 26.9453 36.1194C26.9453 41.6422 31.4225 46.1194 36.9453 46.1194Z" fill="#FF7D1F"/>
<path d="M36.9453 47.1194C43.0204 47.1194 47.9453 42.1945 47.9453 36.1194C47.9453 30.0443 43.0204 25.1194 36.9453 25.1194C30.8702 25.1194 25.9453 30.0443 25.9453 36.1194C25.9453 42.1945 30.8702 47.1194 36.9453 47.1194Z" stroke="white" stroke-width="2"/>
</g>
<path fill-rule="evenodd" clip-rule="evenodd" d="M35.2408 33.8312C35.8966 33.8312 36.4282 33.2996 36.4282 32.6438C36.4282 31.9879 35.8966 31.4563 35.2408 31.4563C34.5849 31.4563 34.0533 31.9879 34.0533 32.6438C34.0533 33.2996 34.5849 33.8312 35.2408 33.8312ZM38.5232 33.8312C39.1791 33.8312 39.7107 33.2996 39.7107 32.6438C39.7107 31.9879 39.1791 31.4563 38.5232 31.4563C37.8674 31.4563 37.3358 31.9879 37.3358 32.6438C37.3358 33.2996 37.8674 33.8312 38.5232 33.8312ZM34.2572 34.8309C34.2572 35.4867 33.7256 36.0183 33.0698 36.0183C32.414 36.0183 31.8823 35.4867 31.8823 34.8309C31.8823 34.1751 32.414 33.6434 33.0698 33.6434C33.7256 33.6434 34.2572 34.1751 34.2572 34.8309ZM40.6947 36.0183C41.3505 36.0183 41.8822 35.4867 41.8822 34.8309C41.8822 34.1751 41.3505 33.6434 40.6947 33.6434C40.0389 33.6434 39.5072 34.1751 39.5072 34.8309C39.5072 35.4867 40.0389 36.0183 40.6947 36.0183ZM38.7225 35.3649C39.01 35.8648 39.3683 36.244 39.8641 36.5398V36.5315C40.9058 37.1523 41.2224 38.5023 40.6183 39.5606C40.01 40.623 38.7558 40.9772 37.66 40.373C37.1017 40.0689 36.5976 40.1022 36.0434 40.3939C34.5351 41.1897 32.8352 40.1397 32.8352 38.3231C32.8477 37.5939 33.1935 36.9315 33.9227 36.5106C34.4018 36.2357 34.7351 35.869 35.006 35.3899C35.8309 33.9316 37.885 33.9149 38.7225 35.3649Z" fill="white"/>
<defs>
<filter id="filter0_d_3490_56698" x="20.9453" y="22.1194" width="32" height="32" filterUnits="userSpaceOnUse" color-interpolation-filters="sRGB">
<feFlood flood-opacity="0" result="BackgroundImageFix"/>
<feColorMatrix in="SourceAlpha" type="matrix" values="0 0 0 0 0 0 0 0 0 0 0 0 0 0 0 0 0 0 127 0" result="hardAlpha"/>
<feOffset dy="2"/>
<feGaussianBlur stdDeviation="2"/>
<feComposite in2="hardAlpha" operator="out"/>
<feColorMatrix type="matrix" values="0 0 0 0 0.960784 0 0 0 0 0.576471 0 0 0 0 0 0 0 0 0.3 0"/>
<feBlend mode="normal" in2="BackgroundImageFix" result="effect1_dropShadow_3490_56698"/>
<feBlend mode="normal" in="SourceGraphic" in2="effect1_dropShadow_3490_56698" result="shape"/>
</filter>
</defs>
</svg>
