<svg width="71" height="78" viewBox="0 0 71 78" fill="none" xmlns="http://www.w3.org/2000/svg">
<g filter="url(#filter0_dd_3531_55448)">
<path d="M50.6276 36.8178C50.6486 36.7652 50.6802 36.702 50.6697 36.6389C50.4277 30.2923 49.3127 24.0193 47.3562 17.9885L46.3674 14.9257C46.0308 13.8942 45.1157 13.2101 44.0428 13.168C42.9593 13.1259 42.0021 13.7574 41.6024 14.7573L38.4152 22.7037C37.5316 22.5669 36.6164 22.4827 35.6908 22.4827C34.7546 22.4827 33.85 22.5669 32.9664 22.7037L29.7792 14.7573C29.3795 13.7574 28.4223 13.1364 27.3388 13.168C26.2554 13.2101 25.3402 13.8942 25.0141 14.9257L24.0254 17.9885C22.0689 24.0193 20.9538 30.3028 20.7119 36.6389C20.7119 36.702 20.733 36.7652 20.754 36.8178C20.733 37.1862 20.7119 37.5546 20.7119 37.9335C20.7119 44.3327 22.6053 51.0792 25.8977 56.426C28.9061 61.3201 32.6719 64.3619 35.7118 64.3619C38.7518 64.3619 42.507 61.3201 45.5259 56.426C48.8183 51.0792 50.7117 44.3327 50.7117 37.9335C50.7117 37.5546 50.6907 37.1862 50.6697 36.8178H50.6276Z" stroke="white" stroke-width="5" stroke-linecap="round" stroke-linejoin="round" shape-rendering="crispEdges"/>
</g>
<path d="M45.9996 15.0568L46.9884 18.1196C48.9344 24.1189 50.0389 30.3497 50.2808 36.6542L37.4268 26.4449L42.0551 14.9305C42.7914 13.1097 45.4001 13.1939 46.0102 15.0673L45.9996 15.0568Z" fill="#555269"/>
<path d="M50.2805 37.0858C50.1858 37.0858 50.0912 37.0542 50.007 36.9911L37.1529 26.7818C37.0057 26.666 36.9426 26.4555 37.0162 26.2766L41.6445 14.7622C42.0442 13.7623 43.0014 13.1308 44.0849 13.1729C45.1683 13.215 46.0835 13.8991 46.4096 14.9306L47.3983 17.9934C49.3548 24.0242 50.4698 30.3077 50.7118 36.6438C50.7118 36.8122 50.6276 36.97 50.4698 37.0542C50.4067 37.0858 50.3436 37.0963 50.27 37.0963L50.2805 37.0858ZM37.9524 26.2976L49.8072 35.707C49.5021 29.7709 48.4187 23.8979 46.5779 18.246L45.5891 15.1832C45.3261 14.3622 44.6213 14.0465 44.0638 14.0359C43.5063 14.0254 42.7805 14.278 42.465 15.0779L37.9629 26.2976H37.9524Z" fill="#231916"/>
<path d="M25.4452 15.0568L24.4565 18.1196C22.5105 24.1189 21.406 30.3497 21.1641 36.6542L34.0181 26.4449L29.3898 14.9305C28.6535 13.1097 26.0448 13.1939 25.4347 15.0673L25.4452 15.0568Z" fill="#555269"/>
<path d="M26.8966 17.3304L25.6659 21.1299C24.5403 24.5821 23.9092 28.1817 23.7725 31.8129V31.9918L31.4092 25.9188L27.9484 17.2988C27.7486 16.8147 27.0543 16.8357 26.8966 17.3304Z" fill="#BC8455"/>
<path d="M44.4843 17.3304L45.715 21.1299C46.8405 24.5821 47.4716 28.1817 47.6084 31.8129V31.9918L39.9717 25.9188L43.4324 17.2988C43.6322 16.8147 44.3265 16.8357 44.4843 17.3304Z" fill="#BC8455"/>
<path d="M21.1644 37.0857C21.1013 37.0857 21.0277 37.0752 20.9646 37.0436C20.8173 36.97 20.7227 36.8121 20.7227 36.6332C20.9646 30.2865 22.0796 24.0136 24.0361 17.9828L25.0249 14.92C25.3615 13.8885 26.2766 13.2044 27.3495 13.1623C28.433 13.1307 29.3902 13.7517 29.7899 14.7516L34.4182 26.266C34.4919 26.4449 34.4393 26.6449 34.2815 26.7712L21.4274 36.9805C21.3538 37.0436 21.2486 37.0752 21.1539 37.0752L21.1644 37.0857ZM25.8664 15.1936L24.8776 18.2564C23.0473 23.9084 21.9534 29.7813 21.6483 35.7175L33.5031 26.3081L29.001 15.0884C28.6749 14.2885 27.9596 14.0253 27.4021 14.0464C26.8341 14.0674 26.1399 14.3832 25.8769 15.1936H25.8664Z" fill="#231916"/>
<path d="M35.7222 22.9297C27.6858 22.9297 21.1641 28.1185 21.1641 37.9384C21.1641 51.9894 29.9578 63.9353 35.7222 63.9353C41.4865 63.9353 50.2803 51.9894 50.2803 37.9384C50.2803 28.1291 43.7586 22.9297 35.7222 22.9297Z" fill="#555269"/>
<path d="M35.7117 63.9241C40.5714 63.9241 47.577 55.4409 49.6597 44.358C48.9865 44.2317 48.3133 44.1475 47.6506 44.1265C44.6317 44.0212 43.6114 47.2945 43.6114 51.4835C43.6114 60.2193 38.6675 61.9454 35.7117 61.9454C32.7454 61.9454 27.812 60.2088 27.812 51.4835C27.812 47.2945 26.7917 44.0212 23.7728 44.1265C23.1101 44.1475 22.4369 44.2317 21.7637 44.358C23.8464 55.4409 30.852 63.9241 35.7117 63.9241Z" fill="#BC8455"/>
<path d="M35.7226 64.3667C32.6826 64.3667 28.9274 61.325 25.9085 56.4308C22.6161 51.0841 20.7227 44.3375 20.7227 37.9383C20.7227 33.1705 22.2479 29.2025 25.1195 26.4449C27.7703 23.8979 31.5361 22.498 35.712 22.498C39.888 22.498 43.6538 23.8979 46.3046 26.4449C49.1867 29.2025 50.7014 33.181 50.7014 37.9383C50.7014 44.3375 48.808 51.0841 45.5156 56.4308C42.5072 61.325 38.7415 64.3667 35.7015 64.3667H35.7226ZM35.7226 23.3716C27.1392 23.3716 21.5957 29.0867 21.5957 37.9383C21.5957 51.7998 30.2738 63.4931 35.7226 63.4931C41.1713 63.4931 49.8494 51.7998 49.8494 37.9383C49.8494 29.0867 44.306 23.3716 35.7226 23.3716Z" fill="#231916"/>
<path d="M29.6638 42.8425C30.6863 42.8425 31.5151 42.0132 31.5151 40.9901C31.5151 39.967 30.6863 39.1377 29.6638 39.1377C28.6414 39.1377 27.8125 39.967 27.8125 40.9901C27.8125 42.0132 28.6414 42.8425 29.6638 42.8425Z" fill="black"/>
<path d="M41.781 42.8425C42.8035 42.8425 43.6323 42.0132 43.6323 40.9901C43.6323 39.967 42.8035 39.1377 41.781 39.1377C40.7586 39.1377 39.9297 39.967 39.9297 40.9901C39.9297 42.0132 40.7586 42.8425 41.781 42.8425Z" fill="black"/>
<path d="M26.5183 37.0645C28.1908 35.6226 31.1151 34.307 32.9348 36.2541C34.0393 37.5592 33.5975 39.4958 32.735 40.7799C32.5877 40.9799 32.4299 41.1904 32.2196 41.3272C32.451 40.8957 32.5456 40.422 32.6298 39.9695C32.7771 39.1275 32.8297 38.1592 32.4825 37.4014C31.2623 35.3069 28.3802 36.6435 26.5078 37.0645H26.5183Z" fill="#BC8455"/>
<path d="M44.9158 37.0645C43.054 36.6435 40.1613 35.3069 38.9411 37.4014C38.594 38.1592 38.6466 39.1275 38.7938 39.9695C38.878 40.422 38.9727 40.8957 39.2041 41.3272C38.9937 41.1904 38.8359 40.9799 38.6886 40.7799C37.8261 39.4958 37.3843 37.5592 38.4888 36.2541C40.3086 34.307 43.2328 35.6226 44.9053 37.0645H44.9158Z" fill="#BC8455"/>
<path d="M35.8065 51.2417C34.8808 50.9155 32.5035 51.0102 32.3563 54.315C32.209 57.6199 35.554 58.6303 35.9327 58.5251C36.3114 58.4198 38.31 56.62 38.5835 56.1885C38.8569 55.757 39.9088 53.252 38.2784 52.4416C36.648 51.6312 36.6795 51.5575 35.817 51.2417H35.8065Z" fill="#ED7C2E"/>
<path d="M33.8188 59.8409C32.1042 59.8409 31.4521 58.6621 31.4205 58.6094C31.3048 58.3884 31.3784 58.1147 31.5993 57.999C31.8202 57.8832 32.0937 57.9569 32.2094 58.1779C32.2305 58.22 32.6617 58.9357 33.8083 58.9357C34.0818 58.9357 34.3973 58.8515 34.755 58.7042C33.5769 57.9148 32.2831 56.8202 31.9675 55.0099C31.715 53.5469 32.1568 52.2312 33.2087 51.3998C34.1028 50.6841 35.2704 50.4946 36.2276 50.8946C36.6799 51.084 37.006 51.3261 37.2374 51.5682C37.6266 51.6103 38.0264 51.7576 38.4156 52.0102C39.6883 52.8312 39.8356 54.2415 39.5832 55.1993C39.236 56.4728 38.0369 57.4832 37.5846 57.8621L37.5004 57.9253C37.1743 58.1989 36.5853 58.7041 35.891 59.1252C35.891 59.1252 35.8805 59.1252 35.87 59.1252C35.0916 59.5988 34.4079 59.8303 33.8083 59.8303L33.8188 59.8409ZM35.1863 51.5787C34.7024 51.5787 34.1975 51.7576 33.7767 52.0944C32.9983 52.7154 32.6617 53.7153 32.8616 54.8415C33.1561 56.4939 34.492 57.4411 35.6491 58.1989C36.1856 57.8411 36.6484 57.4517 36.9114 57.2306L36.985 57.1675C37.3847 56.8307 38.4261 55.9571 38.6996 54.9467C38.8784 54.2836 38.7837 53.3048 37.9212 52.747C37.8791 52.7154 37.837 52.6943 37.7844 52.6628C37.8686 53.2627 37.6898 53.9047 37.269 54.452C36.4696 55.494 35.5439 55.3993 34.9864 54.9993C34.7234 54.8099 34.5656 54.4836 34.5236 54.0836C34.471 53.4732 34.734 52.8312 35.2283 52.326C35.4703 52.0839 35.7227 51.8944 35.9962 51.7681C35.9541 51.7471 35.9121 51.726 35.87 51.7155C35.6491 51.6208 35.4177 51.5787 35.1757 51.5787H35.1863ZM36.7957 52.4628C36.4696 52.5154 36.1645 52.6838 35.891 52.968C35.4387 53.4311 35.4282 53.8942 35.4387 54.0205C35.4492 54.1889 35.5124 54.2626 35.5334 54.2836C35.9436 54.5889 36.3539 54.1889 36.5642 53.9153C36.8693 53.5153 36.985 53.0733 36.8798 52.6838C36.8588 52.6101 36.8377 52.5365 36.7957 52.4733V52.4628Z" fill="#231916"/>
<path d="M37.4901 59.8406C36.8905 59.8406 36.1963 59.5985 35.4179 59.1248C35.2075 58.9985 35.1339 58.7144 35.2706 58.5039C35.3968 58.2934 35.6808 58.2197 35.8912 58.3565C36.5223 58.746 37.0588 58.9354 37.4901 58.9354C38.6472 58.9354 39.089 58.1881 39.089 58.1881C39.2047 57.9671 39.4782 57.8829 39.6991 58.0092C39.9199 58.125 40.0041 58.3986 39.8779 58.6197C39.8463 58.6723 39.1941 59.8511 37.4796 59.8511L37.4901 59.8406Z" fill="#231916"/>
<defs>
<filter id="filter0_dd_3531_55448" x="13.2119" y="5.66602" width="45" height="67.1963" filterUnits="userSpaceOnUse" color-interpolation-filters="sRGB">
<feFlood flood-opacity="0" result="BackgroundImageFix"/>
<feColorMatrix in="SourceAlpha" type="matrix" values="0 0 0 0 0 0 0 0 0 0 0 0 0 0 0 0 0 0 127 0" result="hardAlpha"/>
<feOffset dy="2"/>
<feGaussianBlur stdDeviation="2"/>
<feComposite in2="hardAlpha" operator="out"/>
<feColorMatrix type="matrix" values="0 0 0 0 0 0 0 0 0 0 0 0 0 0 0 0 0 0 0.2 0"/>
<feBlend mode="normal" in2="BackgroundImageFix" result="effect1_dropShadow_3531_55448"/>
<feColorMatrix in="SourceAlpha" type="matrix" values="0 0 0 0 0 0 0 0 0 0 0 0 0 0 0 0 0 0 127 0" result="hardAlpha"/>
<feOffset/>
<feGaussianBlur stdDeviation="2.5"/>
<feComposite in2="hardAlpha" operator="out"/>
<feColorMatrix type="matrix" values="0 0 0 0 1 0 0 0 0 0.490083 0 0 0 0 0.120833 0 0 0 1 0"/>
<feBlend mode="normal" in2="effect1_dropShadow_3531_55448" result="effect2_dropShadow_3531_55448"/>
<feBlend mode="normal" in="SourceGraphic" in2="effect2_dropShadow_3531_55448" result="shape"/>
</filter>
</defs>
</svg>
