<svg width="28" height="28" viewBox="0 0 28 28" fill="none" xmlns="http://www.w3.org/2000/svg">
<path fill-rule="evenodd" clip-rule="evenodd" d="M13.3932 11.1226L18.8319 13.0573C15.9609 13.4854 13.6785 15.646 13.082 18.446H8.51942V23.5723C8.51942 23.7666 8.44196 23.9528 8.30407 24.0902C8.16619 24.2275 7.97918 24.3047 7.78418 24.3047H4.84321C4.64821 24.3047 4.4612 24.2275 4.32331 24.0902C4.18543 23.9528 4.10796 23.7666 4.10796 23.5723V13.7814C2.40036 13.175 1.16699 11.5648 1.16699 9.65793C1.16699 9.26947 1.32192 8.89693 1.59769 8.62225C1.87346 8.34757 2.24748 8.19326 2.63748 8.19326C3.02748 8.19326 3.4015 8.34757 3.67727 8.62225C3.95304 8.89693 4.10796 9.26947 4.10796 9.65793C4.10869 10.0462 4.26385 10.4183 4.53946 10.6928C4.81508 10.9673 5.18868 11.1219 5.57845 11.1226H13.3932ZM19.8808 15.1104C20.0164 15.1104 20.1506 15.1158 20.2833 15.1266V15.1308C20.1509 15.1201 20.0169 15.1146 19.8815 15.1146C17.7206 15.1146 15.9091 16.5063 15.2937 18.446H15.2916C15.9057 16.504 17.7183 15.1104 19.8808 15.1104ZM19.88 22.5684C20.0171 22.5684 20.1518 22.5581 20.2833 22.5383V22.5424C20.1525 22.5614 20.0183 22.5712 19.8815 22.5712C18.55 22.5712 17.4722 21.6444 17.25 20.3904C17.446 21.4864 18.2958 22.3315 19.3968 22.525C19.5535 22.5535 19.715 22.5684 19.88 22.5684ZM24.6948 5.99624V7.46092C24.6948 8.23783 24.3849 8.98292 23.8334 9.53228C23.2818 10.0816 22.5338 10.3903 21.7538 10.3903H20.2833V12.0188L14.4014 9.92661V3.0669C14.4014 2.41466 15.1927 2.08785 15.6563 2.54923L16.9099 3.79923H19.3744C19.8757 3.79923 20.4657 4.16174 20.6895 4.60892L21.0186 5.26391H23.9595C24.1545 5.26391 24.3415 5.34106 24.4794 5.4784C24.6173 5.61574 24.6948 5.80202 24.6948 5.99624ZM19.5481 5.99624C19.5481 5.8514 19.5049 5.70981 19.4242 5.58938C19.3434 5.46895 19.2285 5.37508 19.0942 5.31965C18.9598 5.26423 18.812 5.24972 18.6694 5.27798C18.5268 5.30624 18.3958 5.37599 18.2929 5.4784C18.1901 5.58082 18.1201 5.71131 18.0917 5.85337C18.0633 5.99543 18.0779 6.14268 18.1335 6.2765C18.1892 6.41032 18.2834 6.52469 18.4043 6.60516C18.5253 6.68563 18.6674 6.72858 18.8128 6.72858C19.0078 6.72858 19.1948 6.65143 19.3327 6.51409C19.4706 6.37675 19.5481 6.19047 19.5481 5.99624ZM24.694 19.9099C24.694 20.8686 24.3732 21.7208 23.9454 22.4665L26.8329 25.3425L25.3357 26.8338L22.4482 23.9578C21.6996 24.3838 20.844 24.7034 19.8815 24.7034C17.2079 24.7034 15.069 22.573 15.069 19.9099C15.069 17.2469 17.2079 15.1165 19.8815 15.1165C22.5551 15.1165 24.694 17.2469 24.694 19.9099ZM17.2079 19.9099C17.2079 21.4012 18.3843 22.573 19.8815 22.573C21.3787 22.573 22.5551 21.4012 22.5551 19.9099C22.5551 18.4186 21.3787 17.2469 19.8815 17.2469C18.3843 17.2469 17.2079 18.4186 17.2079 19.9099Z" fill="#333333"/>
</svg>
