<svg width="28" height="28" viewBox="0 0 28 28" fill="none" xmlns="http://www.w3.org/2000/svg">
<path d="M14.5037 11.9599L22.0202 14.6444V25.5953C22.0202 25.8081 21.9357 26.0121 21.7853 26.1625C21.6348 26.3129 21.4308 26.3974 21.2181 26.3974H18.0098C17.797 26.3974 17.593 26.3129 17.4426 26.1625C17.2922 26.0121 17.2077 25.8081 17.2077 25.5953V19.9808H9.18685V25.5953C9.18685 25.8081 9.10234 26.0121 8.95192 26.1625C8.8015 26.3129 8.59749 26.3974 8.38477 26.3974H5.17643C4.96371 26.3974 4.75969 26.3129 4.60927 26.1625C4.45885 26.0121 4.37435 25.8081 4.37435 25.5953V14.872C2.51151 14.2078 1.16602 12.4442 1.16602 10.3558C1.16602 9.93031 1.33503 9.52228 1.63587 9.22145C1.9367 8.92061 2.34473 8.7516 2.77018 8.7516C3.19563 8.7516 3.60366 8.92061 3.9045 9.22145C4.20534 9.52228 4.37435 9.93031 4.37435 10.3558C4.37514 10.781 4.54441 11.1885 4.84508 11.4892C5.14574 11.7899 5.55331 11.9591 5.97852 11.9599H14.5037ZM26.8327 6.34535V7.94951C26.8327 8.80042 26.4947 9.61647 25.893 10.2181C25.2913 10.8198 24.4753 11.1578 23.6244 11.1578H22.0202V12.9415L15.6035 10.65V3.13701C15.6035 2.42266 16.4668 2.06473 16.9726 2.57004L18.3401 3.9391H21.0286C21.5755 3.9391 22.2192 4.33613 22.4633 4.8259L22.8223 5.54326H26.0306C26.2433 5.54326 26.4473 5.62777 26.5978 5.77819C26.7482 5.92861 26.8327 6.13262 26.8327 6.34535ZM21.2181 6.34535C21.2181 6.18671 21.1711 6.03163 21.0829 5.89973C20.9948 5.76783 20.8695 5.66502 20.723 5.60432C20.5764 5.54361 20.4151 5.52773 20.2595 5.55867C20.1039 5.58962 19.961 5.66601 19.8489 5.77819C19.7367 5.89036 19.6603 6.03328 19.6293 6.18887C19.5984 6.34446 19.6143 6.50573 19.675 6.65229C19.7357 6.79885 19.8385 6.92412 19.9704 7.01225C20.1023 7.10039 20.2574 7.14743 20.416 7.14743C20.6287 7.14743 20.8328 7.06292 20.9832 6.9125C21.1336 6.76208 21.2181 6.55807 21.2181 6.34535Z" fill="#FF9015"/>
</svg>
