<svg width="72" height="90" viewBox="0 0 72 90" fill="none" xmlns="http://www.w3.org/2000/svg">
<g clip-path="url(#clip0_5280_177271)">
<path d="M17.028 81.0007C13.4188 81.0007 10.4805 78.0393 10.4805 74.4531V58.9519C10.4805 55.3426 13.4419 52.4043 17.028 52.4043C20.6373 52.4043 23.5756 55.3657 23.5756 58.9519V74.4531C23.5756 78.0624 20.6141 81.0007 17.028 81.0007Z" fill="#AA7737"/>
<path d="M17.0286 82.1571C12.7715 82.1571 9.32422 78.6867 9.32422 74.4527V58.9514C9.32422 54.6944 12.7947 51.2471 17.0286 51.2471C21.2625 51.2471 24.733 54.7175 24.733 58.9514V74.4527C24.733 78.7098 21.2625 82.1571 17.0286 82.1571ZM17.0286 53.5376C14.044 53.5376 11.6378 55.9669 11.6378 58.9283V74.4296C11.6378 77.4142 14.0671 79.8203 17.0286 79.8203C19.99 79.8203 22.4193 77.391 22.4193 74.4296V58.9283C22.4193 55.9669 19.99 53.5376 17.0286 53.5376Z" fill="#3D3A39"/>
<path d="M55.1999 81.0007C51.5906 81.0007 48.6523 78.0393 48.6523 74.4531V58.9519C48.6523 55.3426 51.6138 52.4043 55.1999 52.4043C58.8092 52.4043 61.7475 55.3657 61.7475 58.9519V74.4531C61.7706 78.0624 58.8092 81.0007 55.1999 81.0007Z" fill="#AA7737"/>
<path d="M55.2005 82.1571C50.9434 82.1571 47.4961 78.6867 47.4961 74.4527V58.9514C47.4961 54.6944 50.9665 51.2471 55.2005 51.2471C59.4575 51.2471 62.9048 54.7175 62.9048 58.9514V74.4527C62.928 78.7098 59.4575 82.1571 55.2005 82.1571ZM55.2005 53.5376C52.2159 53.5376 49.8097 55.9669 49.8097 58.9283V74.4296C49.8097 77.4142 52.239 79.8203 55.2005 79.8203C58.1619 79.8203 60.5912 77.391 60.5912 74.4296V58.9283C60.6143 55.9669 58.185 53.5376 55.2005 53.5376Z" fill="#3D3A39"/>
<path d="M35.9532 79.2413C50.0343 79.2413 61.4493 67.8263 61.4493 53.7452C61.4493 39.664 50.0343 28.249 35.9532 28.249C21.872 28.249 10.457 39.664 10.457 53.7452C10.457 67.8263 21.872 79.2413 35.9532 79.2413Z" fill="#F6AE54"/>
<path d="M35.9507 80.63C21.1204 80.63 9.06641 68.576 9.06641 53.7456C9.06641 38.9153 21.1204 26.8613 35.9507 26.8613C50.7811 26.8613 62.835 38.9153 62.835 53.7456C62.835 68.576 50.7811 80.63 35.9507 80.63ZM35.9507 29.6145C22.6474 29.6145 11.8196 40.4423 11.8196 53.7456C11.8196 67.049 22.6474 77.8768 35.9507 77.8768C49.2541 77.8768 60.0818 67.049 60.0818 53.7456C60.0818 40.4423 49.2772 29.6145 35.9507 29.6145Z" fill="#3D3A39"/>
<path d="M35.9532 52.38C50.0343 52.38 61.4493 40.965 61.4493 26.8838C61.4493 12.8027 50.0343 1.3877 35.9532 1.3877C21.872 1.3877 10.457 12.8027 10.457 26.8838C10.457 40.965 21.872 52.38 35.9532 52.38Z" fill="#F6AE54"/>
<path d="M35.9507 53.7455C21.1204 53.7455 9.06641 41.6915 9.06641 26.8612C9.06641 12.0308 21.1435 0 35.9507 0C50.7579 0 62.835 12.054 62.835 26.8843C62.835 41.7147 50.7811 53.7455 35.9507 53.7455ZM35.9507 2.75321C22.6474 2.75321 11.8196 13.581 11.8196 26.8843C11.8196 40.1877 22.6474 51.0154 35.9507 51.0154C49.2541 51.0154 60.0818 40.1877 60.0818 26.8843C60.0818 13.581 49.2772 2.75321 35.9507 2.75321Z" fill="#3D3A39"/>
<path d="M48.4218 23.6687C50.0876 23.6687 51.4295 22.3268 51.4295 20.661C51.4295 18.9952 50.0876 17.6533 48.4218 17.6533C46.756 17.6533 45.4141 18.9952 45.4141 20.661C45.4141 22.3268 46.756 23.6687 48.4218 23.6687Z" fill="#3D3A39"/>
<path d="M23.4569 23.6687C25.1227 23.6687 26.4646 22.3268 26.4646 20.661C26.4646 18.9952 25.1227 17.6533 23.4569 17.6533C21.7911 17.6533 20.4492 18.9952 20.4492 20.661C20.4492 22.3268 21.7911 23.6687 23.4569 23.6687Z" fill="#3D3A39"/>
<path d="M22.7645 3.517L3.90846 13.188C-0.0941065 15.2471 -1.25092 20.4296 1.52543 23.9926L5.71309 29.3602C7.91104 32.1828 12.3301 31.535 13.6257 28.2265L23.2041 3.91032C23.2966 3.65582 23.019 3.40132 22.7645 3.517Z" fill="#3D3A39"/>
<path d="M49.0919 3.517L67.948 13.1648C71.9505 15.2239 73.1073 20.4065 70.331 23.9694L66.1433 29.3371C63.9454 32.1597 59.5264 31.5119 58.2307 28.2034L48.6755 3.91032C48.5598 3.65582 48.8374 3.40132 49.0919 3.517Z" fill="#3D3A39"/>
<path d="M39.7433 33.8482C45.0646 30.8868 42.3346 25.2646 37.314 25.2646H34.5608C29.5171 25.2646 26.8101 30.8868 32.1315 33.8482C34.4682 35.1438 37.3834 35.1438 39.7433 33.8482Z" fill="#3D3A39"/>
<path d="M31.2998 40.8349C28.5235 40.8349 26.0479 38.8683 25.4464 36.1613C25.2844 35.421 25.7471 34.6806 26.4875 34.5187C27.2278 34.3567 27.9682 34.8194 28.1302 35.5598C28.4541 37.0405 29.796 38.1048 31.2998 38.1048C33.1045 38.1048 34.562 36.6472 34.562 34.8426C34.562 34.0791 35.1867 33.4775 35.9271 33.4775C36.6674 33.4775 37.2921 34.1022 37.2921 34.8426C37.3153 38.1279 34.6083 40.8349 31.2998 40.8349Z" fill="#3D3A39"/>
<path d="M40.5548 40.8349C37.2463 40.8349 34.5625 38.1511 34.5625 34.8426C34.5625 34.0791 35.1872 33.4775 35.9275 33.4775C36.6679 33.4775 37.2926 34.1022 37.2926 34.8426C37.2926 36.6472 38.7502 38.1048 40.5548 38.1048C42.0586 38.1048 43.4005 37.0405 43.7245 35.5598C43.8864 34.8194 44.6268 34.3567 45.3671 34.5187C46.1075 34.6806 46.5702 35.421 46.4083 36.1613C45.8067 38.8683 43.3543 40.8349 40.5548 40.8349Z" fill="#3D3A39"/>
<path d="M25.7957 88.8434H25.1017C21.6544 88.8434 18.8086 86.0208 18.8086 82.5503V64.4347C18.8086 60.9874 21.6312 58.1416 25.1017 58.1416H25.7957C29.243 58.1416 32.0888 60.9642 32.0888 64.4347V82.5503C32.0657 86.0208 29.243 88.8434 25.7957 88.8434Z" fill="#F6AE54"/>
<path d="M25.7963 90.0001H25.1022C21.0071 90.0001 17.6523 86.6685 17.6523 82.5503V64.4346H19.966V82.5503C19.966 85.3729 22.2565 87.6865 25.1022 87.6865H25.7963C28.6189 87.6865 30.9325 85.396 30.9325 82.5503V64.4346H33.2462V82.5503C33.223 86.6685 29.8914 90.0001 25.7963 90.0001Z" fill="#3D3A39"/>
<path d="M46.827 88.8434H46.1329C42.6856 88.8434 39.8398 86.0208 39.8398 82.5503V64.4347C39.8398 60.9874 42.6625 58.1416 46.1329 58.1416H46.827C50.2743 58.1416 53.12 60.9642 53.12 64.4347V82.5503C53.12 86.0208 50.2743 88.8434 46.827 88.8434Z" fill="#F6AE54"/>
<path d="M46.8276 90.0001H46.1335C42.0384 90.0001 38.6836 86.6685 38.6836 82.5503V64.4346H40.9972V82.5503C40.9972 85.3729 43.2877 87.6865 46.1335 87.6865H46.8276C49.6502 87.6865 51.9638 85.396 51.9638 82.5503V64.4346H54.2774V82.5503C54.2774 86.6685 50.9227 90.0001 46.8276 90.0001Z" fill="#3D3A39"/>
</g>
<defs>
<clipPath id="clip0_5280_177271">
<rect width="71.8612" height="90" fill="white"/>
</clipPath>
</defs>
</svg>
