<svg width="80" height="89" viewBox="0 0 80 89" fill="none" xmlns="http://www.w3.org/2000/svg">
<g filter="url(#filter0_d_3531_55876)">
<path d="M37.3868 12.7471C23.971 12.7471 13.0996 23.6403 13.0996 37.083C13.0996 43.1982 15.3593 48.7785 19.078 53.0574L19.1758 53.1643C19.5673 53.6101 19.9676 54.0379 20.3947 54.4569L35.1716 70.1104C36.3815 71.394 38.4099 71.394 39.6198 70.1104L54.4056 54.4569C54.8237 54.0469 55.224 53.619 55.6066 53.1822L55.7133 53.0752H55.7044C59.4231 48.7964 61.6828 43.216 61.6828 37.1008C61.6828 23.667 50.8114 12.7649 37.3957 12.7649L37.3868 12.7471Z" fill="white"/>
</g>
<path opacity="0.2" d="M37.3868 56.4543C48.0635 56.4543 56.7187 47.7817 56.7187 37.0836C56.7187 26.3854 48.0635 17.7129 37.3868 17.7129C26.7101 17.7129 18.0549 26.3854 18.0549 37.0836C18.0549 47.7817 26.7101 56.4543 37.3868 56.4543Z" fill="#00B189"/>
<path d="M23.615 28.5881V32.965C23.615 33.6603 24.1755 34.2308 24.8783 34.2308H25.8925V48.6541C25.8925 49.3494 26.4529 49.9199 27.1558 49.9199H30.9456V41.1661H44.1657V49.9199H47.6353C48.3292 49.9199 48.8985 49.3583 48.8985 48.6541V34.2308H49.9127C50.6067 34.2308 51.176 33.6692 51.176 32.965V28.5881C51.176 27.8928 50.6156 27.3223 49.9127 27.3223H24.8783C24.1844 27.3223 23.615 27.8839 23.615 28.5881Z" fill="#00B189"/>
<path d="M42.8938 37.7256H32.2003C31.5064 37.7256 30.937 38.2872 30.937 38.9914V49.9114H44.1571V38.9914C44.1571 38.2961 43.5966 37.7256 42.8938 37.7256Z" fill="white"/>
<path d="M40.305 45.4448C39.9225 45.4448 39.6111 45.1328 39.6111 44.7495V42.7705C39.6111 42.3872 39.9225 42.0752 40.305 42.0752C40.6875 42.0752 40.9989 42.3872 40.9989 42.7705V44.7495C40.9989 45.1328 40.6875 45.4448 40.305 45.4448Z" fill="#231916"/>
<path d="M34.7891 45.4448C34.4066 45.4448 34.0952 45.1328 34.0952 44.7495V42.7705C34.0952 42.3872 34.4066 42.0752 34.7891 42.0752C35.1717 42.0752 35.4831 42.3872 35.4831 42.7705V44.7495C35.4831 45.1328 35.1717 45.4448 34.7891 45.4448Z" fill="#231916"/>
<path d="M37.5467 35.8175C41.6493 35.8175 44.9751 32.485 44.9751 28.3741C44.9751 24.2632 41.6493 20.9307 37.5467 20.9307C33.444 20.9307 30.1182 24.2632 30.1182 28.3741C30.1182 32.485 33.444 35.8175 37.5467 35.8175Z" fill="white"/>
<path d="M42.4933 26.5825H39.2016V23.2842H35.8921V26.5825H32.6094V29.8896H35.8921V33.1879H39.2016V29.8896H42.4933V26.5825Z" fill="#FF5C35"/>
<defs>
<filter id="filter0_d_3531_55876" x="4.58961" y="4.23707" width="71.2633" height="81.0062" filterUnits="userSpaceOnUse" color-interpolation-filters="sRGB">
<feFlood flood-opacity="0" result="BackgroundImageFix"/>
<feColorMatrix in="SourceAlpha" type="matrix" values="0 0 0 0 0 0 0 0 0 0 0 0 0 0 0 0 0 0 127 0" result="hardAlpha"/>
<feOffset dx="2.83" dy="2.83"/>
<feGaussianBlur stdDeviation="5.67"/>
<feColorMatrix type="matrix" values="0 0 0 0 0 0 0 0 0 0 0 0 0 0 0 0 0 0 0.15 0"/>
<feBlend mode="normal" in2="BackgroundImageFix" result="effect1_dropShadow_3531_55876"/>
<feBlend mode="normal" in="SourceGraphic" in2="effect1_dropShadow_3531_55876" result="shape"/>
</filter>
</defs>
</svg>
