<svg width="24" height="24" viewBox="0 0 24 24" fill="none" xmlns="http://www.w3.org/2000/svg">
<path d="M21.923 22.7892C21.7852 22.9242 21.5999 23 21.407 23C21.214 23 21.0287 22.9242 20.8909 22.7892L16.3694 18.2922C15.6608 18.772 14.8073 18.9902 13.9554 18.9094C13.1036 18.8287 12.3062 18.4542 11.7003 17.8499L4.30362 10.4533L3.98411 10.7975C3.79984 10.9862 3.52866 11.0622 3.2731 10.997C3.01752 10.9317 2.81612 10.7349 2.74481 10.4809C2.6735 10.2269 2.7431 9.95414 2.92754 9.76523L5.38489 7.30788L4.05801 5.981L2.3132 7.72581C2.12447 7.91007 1.85157 7.97967 1.59754 7.90853C1.34351 7.83722 1.14688 7.63582 1.08158 7.38007C1.01627 7.1245 1.09238 6.85349 1.28111 6.66906L5.80264 2.14754C5.99359 2.00441 6.24198 1.96241 6.46924 2.03492C6.69653 2.1076 6.87463 2.28569 6.94715 2.513C7.01983 2.7403 6.97783 2.98868 6.8347 3.17961L5.0899 4.92441L6.44148 6.2513L8.89884 3.79394C9.08774 3.60951 9.36047 3.53991 9.6145 3.61122C9.86853 3.68252 10.0653 3.88393 10.1306 4.1395C10.1958 4.39508 10.1198 4.66625 9.93111 4.85051L9.58709 5.19453L16.9837 12.5666C17.588 13.1725 17.9625 13.9699 18.0432 14.8217C18.124 15.6736 17.9058 16.527 17.426 17.2357L21.923 21.7326C22.0656 21.8713 22.1461 22.0619 22.1461 22.2609C22.1461 22.4599 22.0656 22.6505 21.923 22.7892L21.923 22.7892ZM15.927 13.6232L8.55497 6.22662L5.36037 9.42122L6.66276 10.7236L9.0464 8.33998L10.0785 9.37207L7.69485 11.7557L8.45659 12.5174L10.2996 10.6744L11.3564 11.7065L9.51334 13.5495L10.2751 14.3113L12.6587 11.9276L13.6908 12.9597L11.3072 15.3433L12.0689 16.1051L13.9119 14.2621L14.944 15.2942L13.1504 17.1372C13.5744 17.3993 14.0746 17.5102 14.5697 17.4522C15.0649 17.3941 15.5258 17.1706 15.878 16.8178L15.9517 16.7441C16.3643 16.3297 16.5961 15.7685 16.5961 15.1836C16.5961 14.5988 16.3643 14.0377 15.9517 13.6232H15.927Z" fill="#333333"/>
</svg>
