<svg width="80" height="90" viewBox="0 0 80 90" fill="none" xmlns="http://www.w3.org/2000/svg">
<g filter="url(#filter0_d_3490_54206)">
<path d="M36.9732 13.3738C23.5574 13.3738 12.686 24.267 12.686 37.7097C12.686 43.8249 14.9457 49.4052 18.6644 53.6841L18.7623 53.791C19.1537 54.2368 19.5541 54.6646 19.9811 55.0836L34.758 70.7371C35.9679 72.0207 37.9963 72.0207 39.2062 70.7371L53.992 55.0836C54.4101 54.6736 54.8105 54.2457 55.193 53.8089L55.2998 53.7019H55.2909C59.0096 49.4231 61.2693 43.8427 61.2693 37.7275C61.2693 24.2938 50.3979 13.3916 36.9821 13.3916L36.9732 13.3738Z" fill="white"/>
</g>
<path opacity="0.2" d="M36.973 57.0805C47.6497 57.0805 56.3049 48.4079 56.3049 37.7098C56.3049 27.0117 47.6497 18.3391 36.973 18.3391C26.2963 18.3391 17.6411 27.0117 17.6411 37.7098C17.6411 48.4079 26.2963 57.0805 36.973 57.0805Z" fill="#E5E7EB"/>
<path d="M47.3021 33.6003H25.7906V36.5777C25.7906 36.6758 25.7995 36.7738 25.8173 36.863H25.7906C25.7906 40.7763 27.8724 44.1994 30.9772 46.0892H26.9739C26.3155 46.0892 25.7817 46.6241 25.7817 47.2837C25.7817 47.9434 26.3155 48.4782 26.9739 48.4782H46.11C46.7683 48.4782 47.3021 47.9434 47.3021 47.2837C47.3021 46.6241 46.7683 46.0892 46.11 46.0892H42.1066C44.1795 44.8323 45.7986 42.889 46.6438 40.5713C46.8573 40.607 47.0708 40.6337 47.2932 40.6337C49.2326 40.6337 50.7984 39.0559 50.7984 37.1215C50.7984 35.1871 49.2237 33.6093 47.2932 33.6093L47.3021 33.6003ZM47.3021 38.5032C47.3021 38.5032 47.2221 38.5032 47.1776 38.4943C47.2576 37.9683 47.3021 37.4246 47.3021 36.8719H47.2754C47.2932 36.7827 47.3021 36.6847 47.3021 36.5866V35.7398C48.0672 35.7398 48.6811 36.3638 48.6811 37.1215C48.6811 37.8792 48.0583 38.5032 47.3021 38.5032Z" fill="#E5E7EB"/>
<path d="M29.8564 28.7064C30.1589 28.8491 30.2034 29.1254 30.2034 29.2413C30.2034 29.3572 30.1856 29.6335 29.9009 29.8029L29.1092 30.2664C28.7533 30.4715 28.6376 30.9261 28.8512 31.2827C28.9935 31.5144 29.2337 31.6481 29.4917 31.6481C29.6162 31.6481 29.7497 31.6125 29.8653 31.5412L30.6571 31.0776C31.3244 30.6854 31.7158 29.9544 31.6802 29.1789C31.6446 28.4033 31.1909 27.708 30.497 27.3782C30.2034 27.2356 30.1589 26.9682 30.15 26.8612C30.15 26.7542 30.15 26.4779 30.4258 26.2996L31.3155 25.7202C31.6535 25.4973 31.7514 25.0338 31.529 24.695C31.3066 24.3474 30.8439 24.2582 30.5059 24.4811L29.6162 25.0605C28.9757 25.4795 28.6198 26.1926 28.6732 26.9592C28.7266 27.7259 29.1625 28.3855 29.8564 28.7153V28.7064Z" fill="#E5E7EB"/>
<path d="M35.8613 28.7064C36.1638 28.8491 36.2083 29.1254 36.2083 29.2413C36.2083 29.3572 36.1905 29.6335 35.9058 29.8029L35.114 30.2664C34.7582 30.4715 34.6425 30.9261 34.856 31.2827C34.9984 31.5144 35.2386 31.6481 35.4966 31.6481C35.6211 31.6481 35.7546 31.6125 35.8702 31.5412L36.662 31.0776C37.3292 30.6854 37.7207 29.9544 37.6851 29.1789C37.6495 28.4033 37.1958 27.708 36.5019 27.3782C36.2083 27.2356 36.1638 26.9682 36.1549 26.8612C36.1549 26.7542 36.1549 26.4779 36.4307 26.2996L37.3203 25.7202C37.6584 25.4973 37.7563 25.0338 37.5339 24.695C37.3114 24.3474 36.8488 24.2582 36.5108 24.4811L35.6211 25.0605C34.9806 25.4795 34.6247 26.1926 34.6781 26.9592C34.7315 27.7259 35.1674 28.3855 35.8613 28.7153V28.7064Z" fill="#E5E7EB"/>
<path d="M41.8755 28.7064C42.178 28.8491 42.2224 29.1254 42.2224 29.2413C42.2224 29.3572 42.2047 29.6335 41.92 29.8029L41.1282 30.2664C40.7723 30.4715 40.6567 30.9261 40.8702 31.2827C41.0125 31.5144 41.2527 31.6481 41.5107 31.6481C41.6353 31.6481 41.7687 31.6125 41.8844 31.5412L42.6762 31.0776C43.3434 30.6854 43.7348 29.9544 43.6993 29.1789C43.6637 28.4033 43.21 27.708 42.516 27.3782C42.2225 27.2356 42.178 26.9682 42.1691 26.8612C42.1691 26.7542 42.1691 26.4779 42.4449 26.2996L43.3345 25.7202C43.6726 25.4973 43.7704 25.0338 43.548 24.695C43.3256 24.3474 42.863 24.2582 42.5249 24.4811L41.6353 25.0605C40.9947 25.4795 40.6389 26.1926 40.6923 26.9592C40.7456 27.7259 41.1816 28.3855 41.8755 28.7153V28.7064Z" fill="#E5E7EB"/>
<defs>
<filter id="filter0_d_3490_54206" x="4.17603" y="4.86378" width="71.263" height="81.0059" filterUnits="userSpaceOnUse" color-interpolation-filters="sRGB">
<feFlood flood-opacity="0" result="BackgroundImageFix"/>
<feColorMatrix in="SourceAlpha" type="matrix" values="0 0 0 0 0 0 0 0 0 0 0 0 0 0 0 0 0 0 127 0" result="hardAlpha"/>
<feOffset dx="2.83" dy="2.83"/>
<feGaussianBlur stdDeviation="5.67"/>
<feColorMatrix type="matrix" values="0 0 0 0 0 0 0 0 0 0 0 0 0 0 0 0 0 0 0.15 0"/>
<feBlend mode="normal" in2="BackgroundImageFix" result="effect1_dropShadow_3490_54206"/>
<feBlend mode="normal" in="SourceGraphic" in2="effect1_dropShadow_3490_54206" result="shape"/>
</filter>
</defs>
</svg>
