<svg width="80" height="89" viewBox="0 0 80 89" fill="none" xmlns="http://www.w3.org/2000/svg">
<g filter="url(#filter0_d_3531_56114)">
<path d="M37.2911 12.7471C23.8753 12.7471 13.0039 23.6403 13.0039 37.083C13.0039 43.1982 15.2636 48.7785 18.9823 53.0574L19.0801 53.1643C19.4716 53.6101 19.8719 54.0379 20.299 54.4569L35.0759 70.1104C36.2858 71.394 38.3142 71.394 39.5241 70.1104L54.3099 54.4569C54.728 54.0469 55.1283 53.619 55.5109 53.1822L55.6176 53.0752H55.6087C59.3274 48.7964 61.5871 43.216 61.5871 37.1008C61.5871 23.667 50.7157 12.7649 37.3 12.7649L37.2911 12.7471Z" fill="#D4D8E1"/>
</g>
<path d="M37.2911 56.4543C47.9678 56.4543 56.623 47.7817 56.623 37.0836C56.623 26.3854 47.9678 17.7129 37.2911 17.7129C26.6144 17.7129 17.9592 26.3854 17.9592 37.0836C17.9592 47.7817 26.6144 56.4543 37.2911 56.4543Z" fill="white"/>
<path d="M40.7694 29.194L40.4225 27.4557C40.2924 26.7894 39.6996 26.2969 39.0057 26.2969H28.6258C27.8307 26.2969 27.1802 26.9487 27.1802 27.7454V49.474C27.1802 50.2707 27.8307 50.9225 28.6258 50.9225C29.421 50.9225 30.0715 50.2707 30.0715 49.474V40.7826H38.1672L38.5142 42.5208C38.6443 43.2017 39.237 43.6797 39.9309 43.6797H47.4195C48.2146 43.6797 48.8651 43.0278 48.8651 42.2311V30.6426C48.8651 29.8459 48.2146 29.194 47.4195 29.194H40.7694Z" fill="#D4D8E1"/>
<defs>
<filter id="filter0_d_3531_56114" x="4.49391" y="4.23707" width="71.2633" height="81.0062" filterUnits="userSpaceOnUse" color-interpolation-filters="sRGB">
<feFlood flood-opacity="0" result="BackgroundImageFix"/>
<feColorMatrix in="SourceAlpha" type="matrix" values="0 0 0 0 0 0 0 0 0 0 0 0 0 0 0 0 0 0 127 0" result="hardAlpha"/>
<feOffset dx="2.83" dy="2.83"/>
<feGaussianBlur stdDeviation="5.67"/>
<feColorMatrix type="matrix" values="0 0 0 0 0 0 0 0 0 0 0 0 0 0 0 0 0 0 0.15 0"/>
<feBlend mode="normal" in2="BackgroundImageFix" result="effect1_dropShadow_3531_56114"/>
<feBlend mode="normal" in="SourceGraphic" in2="effect1_dropShadow_3531_56114" result="shape"/>
</filter>
</defs>
</svg>
