<svg width="71" height="78" viewBox="0 0 71 78" fill="none" xmlns="http://www.w3.org/2000/svg">
<g filter="url(#filter0_dd_3531_55341)">
<path d="M57.6318 29.6655L56.6986 28.5012C54.7631 26.0919 52.1939 24.3051 49.2792 23.3483C49.2331 23.3253 48.1156 22.9218 47.3667 22.7143C47.3667 22.7143 47.3552 22.7143 47.3437 22.7143L47.1939 22.6682C46.7561 22.5299 46.3068 22.4607 45.8575 22.4607C45.8344 22.4607 45.8114 22.4607 45.8114 22.4607C45.7768 22.4607 45.7538 22.4607 45.7192 22.4607C45.3851 22.4607 45.051 22.5068 44.7284 22.599L43.1385 23.014C40.7652 21.6883 38.1039 20.9736 35.3274 20.9736C32.5509 20.9736 29.855 21.7114 27.5393 23.0025L25.984 22.5875C25.6614 22.4953 25.3273 22.4607 24.9932 22.4492C24.9586 22.4492 24.9356 22.4376 24.901 22.4492C24.901 22.4492 24.878 22.4492 24.8549 22.4492C24.4056 22.4492 23.9448 22.5183 23.5185 22.6567L23.3687 22.7028C23.3687 22.7028 23.3572 22.7028 23.3457 22.7028C22.5853 22.9103 21.4793 23.3137 21.4447 23.3253C18.5069 24.2936 15.9378 26.0804 14.0138 28.4896L13.0806 29.6539C12.1704 30.7837 11.7903 32.2477 12.0322 33.6771C12.2741 35.1065 13.1152 36.363 14.3364 37.1354L18.3802 39.6715C18.4608 39.7176 18.5415 39.7522 18.6221 39.7983C18.6221 39.8213 18.6106 39.8444 18.5991 39.8559L18.5645 39.9366C18.5645 39.9366 18.53 40.0288 18.5184 40.0749L18.4839 40.1556C18.4839 40.1556 18.4493 40.2478 18.4378 40.294L18.4148 40.3747C18.4148 40.3747 18.3802 40.4669 18.3687 40.513L18.2765 40.8127C18.2535 40.9164 18.2189 41.0202 18.1959 41.1239L18.0461 41.8963L17.9424 42.7493C17.9424 42.7493 17.9424 42.8416 17.9424 42.8992V42.9914C17.9424 43.0721 17.9309 43.1413 17.9309 43.222V43.3142C17.9309 43.3718 17.9309 43.441 17.9309 43.4986C17.9309 43.6139 17.9309 43.7061 17.9309 43.8099C17.9309 43.8791 17.9309 43.9482 17.9309 44.0289V44.0635C18.0922 47.4757 20.5807 50.7495 24.9471 53.2626C28.3918 55.2453 32.7582 56.571 35.8228 56.571C38.8873 56.571 43.2422 55.2223 46.6985 53.2164C51.0649 50.6804 53.5534 47.4296 53.7147 44.052V44.0289C53.7147 43.9597 53.7147 43.8906 53.7147 43.8214C53.7147 43.7292 53.7147 43.637 53.7147 43.5448V43.5102C53.7147 43.4525 53.7147 43.3949 53.7147 43.3257V43.2105C53.7147 43.1298 53.7147 43.0606 53.7147 42.9799L53.611 41.977C53.611 41.977 53.5995 41.8848 53.588 41.8271L53.4728 41.2507C53.4728 41.2507 53.4497 41.1585 53.4382 41.1124L53.4152 41.0087C53.4152 41.0087 53.3921 40.9165 53.3806 40.8703L53.2884 40.5476C53.2884 40.5476 53.2539 40.4553 53.2423 40.3977L53.2193 40.317C53.2193 40.317 53.1847 40.2133 53.1732 40.1672L53.1502 40.098C53.1502 40.098 53.1156 39.9942 53.0926 39.9366L53.0695 39.879C53.0695 39.879 53.0234 39.7637 53.0004 39.706V39.6715C52.9543 39.6138 52.9313 39.5447 52.9082 39.487C52.8852 39.4179 52.8622 39.3717 52.8391 39.3256L56.376 37.1123C57.5972 36.34 58.4498 35.0835 58.6802 33.654C58.9221 32.2246 58.5419 30.7606 57.6318 29.6309V29.6655Z" stroke="white" stroke-width="5" stroke-linecap="round" stroke-linejoin="round" shape-rendering="crispEdges"/>
</g>
<path d="M44.8434 23.0253L42.3203 23.6939L48.242 28.1436L49.1176 23.7746L47.0554 23.0945C46.3411 22.8639 45.5807 22.8409 44.8549 23.0253H44.8434Z" fill="#44382E"/>
<path d="M48.231 28.6274C48.1273 28.6274 48.0236 28.5928 47.9429 28.5352L42.0212 24.0855C41.8714 23.9702 41.8023 23.7973 41.8369 23.6129C41.8714 23.4284 42.0097 23.2901 42.1825 23.244L44.7056 22.5754C45.5236 22.3564 46.3761 22.3794 47.1826 22.6446L49.2448 23.3247C49.4752 23.4054 49.6135 23.6359 49.5674 23.8665L48.6918 28.2355C48.6572 28.3968 48.542 28.5352 48.3922 28.5928C48.3346 28.6159 48.277 28.6274 48.2194 28.6274H48.231ZM43.3807 23.9126L47.9084 27.3132L48.5535 24.097L46.8945 23.5552C46.2724 23.3477 45.6042 23.3247 44.959 23.4976L43.3922 23.9126H43.3807Z" fill="#231916"/>
<path d="M25.8572 23.0253L28.3803 23.6939L22.4586 28.1436L21.583 23.7746L23.6452 23.0945C24.3595 22.8639 25.1199 22.8409 25.8457 23.0253H25.8572Z" fill="#44382E"/>
<path d="M22.4701 28.6274C22.4701 28.6274 22.3548 28.6274 22.2972 28.5928C22.1475 28.5352 22.0323 28.3968 21.9977 28.2355L21.1221 23.8665C21.076 23.6244 21.2143 23.3938 21.4447 23.3247L23.5069 22.6446C24.3134 22.3794 25.1659 22.3564 25.9839 22.5754L28.507 23.244C28.6798 23.2901 28.8181 23.44 28.8526 23.6129C28.8872 23.7858 28.8181 23.9818 28.6683 24.0855L22.7466 28.5352C22.6659 28.5928 22.5622 28.6274 22.4585 28.6274H22.4701ZM22.1475 24.097L22.7926 27.3132L27.3203 23.9126L25.7535 23.4976C25.1199 23.3247 24.4516 23.3477 23.818 23.5552L22.159 24.097H22.1475Z" fill="#231916"/>
<path d="M35.316 54.2997C44.1221 54.2997 51.2609 46.94 51.2609 37.8613C51.2609 28.7826 44.1221 21.4229 35.316 21.4229C26.5099 21.4229 19.3711 28.7826 19.3711 37.8613C19.3711 46.94 26.5099 54.2997 35.316 54.2997Z" fill="#F6F6F6"/>
<path d="M53.2542 43.2788V43.2558C53.2542 43.1866 53.2542 43.1174 53.2542 43.0368C53.2542 43.0022 53.2542 42.9676 53.2542 42.933C53.2542 42.8869 53.2542 42.8408 53.2542 42.7947C53.2542 42.7601 53.2542 42.714 53.2542 42.6794C53.2542 42.6333 53.2542 42.5987 53.2542 42.5526C53.2542 42.518 53.2542 42.4719 53.2427 42.4373C53.2427 42.4027 53.2427 42.3566 53.2311 42.322C53.2311 42.2759 53.2311 42.2414 53.2196 42.1952C53.2196 42.1607 53.2196 42.1145 53.2081 42.08C53.2081 42.0339 53.1966 41.9993 53.1851 41.9532C53.1851 41.9186 53.1735 41.884 53.162 41.8494C53.162 41.8033 53.1505 41.7687 53.139 41.7226C53.139 41.688 53.1274 41.6534 53.1159 41.6189C53.1159 41.5727 53.0929 41.5382 53.0929 41.4921C53.0929 41.4575 53.0814 41.4229 53.0698 41.3883C53.0698 41.3422 53.0468 41.2961 53.0353 41.2615C53.0353 41.2269 53.0238 41.1923 53.0122 41.1693C53.0122 41.1232 52.9892 41.0771 52.9777 41.0309C52.9777 40.9964 52.9662 40.9733 52.9546 40.9387C52.9431 40.8926 52.9316 40.8465 52.9201 40.8004C52.9201 40.7773 52.9086 40.7428 52.897 40.7197C52.8855 40.6736 52.874 40.6275 52.8509 40.5814C52.8509 40.5583 52.8394 40.5237 52.8279 40.5007C52.8164 40.4546 52.7933 40.4085 52.7818 40.3623C52.7818 40.3393 52.7703 40.3162 52.7588 40.2932C52.7357 40.2471 52.7242 40.1894 52.7012 40.1433C52.7012 40.1203 52.6897 40.1087 52.6781 40.0857C52.6551 40.028 52.632 39.9819 52.6205 39.9243C52.6205 39.9128 52.6205 39.9012 52.609 39.8897C52.586 39.8321 52.5629 39.7744 52.5399 39.7168C52.3095 39.1635 52.0214 38.6447 51.6989 38.1606C51.6643 38.1029 51.6182 38.0453 51.5837 37.9876C51.5376 37.93 51.503 37.8724 51.4569 37.8147C51.4108 37.7571 51.3763 37.6995 51.3302 37.6418C51.2841 37.5842 51.238 37.5265 51.1919 37.4689C49.5214 35.3939 47.0329 34.0221 44.2103 33.8492C44.0029 33.8377 43.8071 33.8262 43.5997 33.8262C40.4775 33.8262 37.6895 35.3017 35.9153 37.5842C34.1295 35.3017 31.353 33.8262 28.2309 33.8262C27.7585 33.8262 27.2977 33.8608 26.8484 33.9184C24.0949 34.3103 21.71 35.855 20.2008 38.0568C20.1662 38.1145 20.1317 38.1606 20.0971 38.2182C20.0971 38.2182 20.0971 38.2297 20.0856 38.2413C20.051 38.2874 20.0165 38.345 19.9819 38.4026C19.9819 38.4026 19.9819 38.4257 19.9704 38.4257C19.9358 38.4718 19.9013 38.5294 19.8782 38.5871C19.8782 38.5871 19.8782 38.6101 19.8667 38.6101C19.8321 38.6678 19.8091 38.7139 19.7745 38.7715C19.7745 38.7715 19.7745 38.7831 19.7745 38.7946C19.6132 39.0828 19.4635 39.3825 19.3252 39.6937C19.3252 39.7053 19.3137 39.7283 19.3022 39.7398C19.2791 39.786 19.2676 39.8321 19.2446 39.8782C19.2446 39.9012 19.2215 39.9243 19.2215 39.9473C19.1985 39.9935 19.187 40.0396 19.1639 40.0857C19.1639 40.1087 19.1409 40.1318 19.1409 40.1548C19.1294 40.201 19.1063 40.2471 19.0948 40.2932C19.0948 40.3162 19.0718 40.3508 19.0718 40.3739C19.0602 40.42 19.0372 40.4661 19.0257 40.5007C19.0257 40.5237 19.0026 40.5583 19.0026 40.5814C18.9911 40.6275 18.9796 40.6736 18.9566 40.7197C18.9566 40.7428 18.945 40.7773 18.9335 40.8004C18.922 40.8465 18.9105 40.8926 18.899 40.9387C18.899 40.9618 18.8874 40.9848 18.8759 41.0079C18.8529 41.1116 18.8183 41.2039 18.7953 41.3076C18.7953 41.3307 18.7953 41.3422 18.7837 41.3652C18.7837 41.4114 18.7607 41.4459 18.7607 41.4921C18.7607 41.5266 18.7492 41.5612 18.7377 41.5958C18.7377 41.6304 18.7261 41.6765 18.7146 41.7111C18.7146 41.7457 18.7031 41.7802 18.6916 41.8264C18.6916 41.8609 18.6801 41.907 18.6685 41.9416C18.6685 41.9762 18.657 42.0223 18.6455 42.0569C18.6455 42.0915 18.634 42.1376 18.634 42.1722C18.634 42.2068 18.634 42.2529 18.6225 42.2875C18.6225 42.322 18.6225 42.3566 18.6109 42.4027C18.6109 42.4488 18.6109 42.4834 18.5994 42.5295C18.5994 42.5641 18.5994 42.5987 18.5994 42.6333C18.5994 42.6794 18.5994 42.7255 18.5879 42.7601C18.5879 42.7947 18.5879 42.8293 18.5879 42.8638C18.5879 42.91 18.5879 42.9561 18.5879 43.0137C18.5879 43.0483 18.5879 43.0713 18.5879 43.1059C18.5879 43.1751 18.5879 43.2558 18.5879 43.3249C18.5879 43.3249 18.5879 43.3365 18.5879 43.348C18.5879 43.4287 18.5879 43.5209 18.5879 43.6016C18.5879 43.6938 18.5879 43.7861 18.5879 43.8898C18.5879 43.9705 18.5879 44.0512 18.5879 44.1204C18.9335 51.5326 30.512 56.1667 36.0074 56.1667C41.5029 56.1667 53.0814 51.4058 53.427 44.0973V44.0742C53.427 44.0051 53.427 43.9474 53.427 43.8783C53.427 43.7861 53.427 43.6823 53.427 43.5901C53.427 43.5094 53.427 43.4172 53.427 43.3365L53.2542 43.2788Z" fill="#F6F6F6"/>
<path d="M52.6433 40.1319C52.6433 40.1319 52.6318 40.0973 52.6203 40.0743C52.5973 40.0166 52.5742 39.9705 52.5627 39.9129C52.5627 39.9014 52.5627 39.8898 52.5512 39.8783C52.5281 39.8207 52.5051 39.763 52.482 39.7054C52.2516 39.1521 51.9636 38.6333 51.641 38.1492C51.6065 38.0915 51.5604 38.0339 51.5258 37.9763C51.4797 37.9186 51.4452 37.861 51.3991 37.8033C51.3645 37.7572 51.33 37.7111 51.2954 37.665C51.2148 31.7744 48.1156 26.6446 43.5303 23.8203C40.0971 25.2613 37.6777 28.6504 37.6777 32.6159C37.6777 37.884 41.9405 42.1493 47.2055 42.1493C49.2792 42.1493 51.1802 41.4807 52.747 40.3625C52.747 40.3625 52.747 40.3394 52.747 40.3279C52.724 40.2818 52.7125 40.2241 52.6894 40.178L52.6433 40.1319Z" fill="#6C6F73"/>
<path d="M35.8226 56.5821C32.758 56.5821 28.3801 55.2565 24.9469 53.2737C20.5805 50.7607 18.092 47.4983 17.9307 44.0746V44.0401C17.9307 43.9709 17.9307 43.9017 17.9307 43.821C17.9307 43.7173 17.9307 43.6251 17.9307 43.5213C17.9307 43.4406 17.9307 43.383 17.9307 43.3138V43.2216C17.9307 43.1409 17.9307 43.0717 17.9307 42.991V42.8988C17.9307 42.8412 17.9422 42.7951 17.9422 42.749L18.0459 41.8959L18.1956 41.1236C18.2187 41.0198 18.2532 40.9161 18.2763 40.8123L18.3685 40.5126C18.3685 40.5126 18.403 40.4204 18.4145 40.3743L18.4376 40.2936C18.4376 40.2936 18.4721 40.2013 18.4837 40.1552L18.5182 40.0745C18.5182 40.0745 18.5528 39.9823 18.5643 39.9362L18.5989 39.8555C18.5989 39.8555 18.6334 39.7633 18.6565 39.7172L18.6795 39.6595C18.7026 39.5904 18.7256 39.5443 18.7486 39.4982L18.7717 39.4521C18.8293 39.3252 18.8869 39.1984 18.956 39.0601C18.9215 38.6221 18.9099 38.2301 18.9099 37.8612C18.9099 28.5354 26.2833 20.9502 35.3387 20.9502C39.6821 20.9502 43.7835 22.6793 46.8711 25.8264C49.9241 28.9273 51.6522 33.0542 51.7444 37.4578C51.7444 37.4578 51.7559 37.4693 51.7674 37.4808C51.8135 37.55 51.8596 37.6076 51.9057 37.6653C51.9403 37.7344 51.9863 37.7921 52.0324 37.8612C52.3781 38.38 52.6776 38.9333 52.9195 39.4982C52.9426 39.5789 52.9656 39.6365 53.0002 39.6941V39.7287C53.0002 39.7287 53.0578 39.844 53.0808 39.9016L53.1039 39.9593C53.1039 39.9593 53.1384 40.063 53.1615 40.1207L53.1845 40.1898C53.1845 40.1898 53.2191 40.2936 53.2306 40.3397L53.2536 40.4204C53.2536 40.4204 53.2882 40.5126 53.2997 40.5702L53.3919 40.893C53.3919 40.893 53.4149 40.9852 53.4265 41.0313L53.4495 41.1351C53.4495 41.1351 53.4725 41.2273 53.4841 41.2734L53.5993 41.8498C53.5993 41.9074 53.6108 41.9536 53.6223 41.9997L53.726 43.0026C53.726 43.0833 53.726 43.1524 53.726 43.2331V43.3484C53.726 43.406 53.726 43.4637 53.726 43.5328V43.5674C53.726 43.6596 53.726 43.7519 53.726 43.8441C53.726 43.9133 53.726 43.9824 53.726 44.0516V44.0746C53.5647 47.4522 51.0762 50.703 46.7098 53.2391C43.2535 55.2449 38.8756 56.5937 35.8341 56.5937L35.8226 56.5821ZM18.8639 43.5098C18.8639 43.6135 18.8639 43.7058 18.8639 43.798C18.8639 43.8671 18.8639 43.9363 18.8639 44.0055V44.0401C19.2095 51.2564 30.7995 55.6369 35.7995 55.6369C38.2074 55.6369 42.3549 54.634 46.2029 52.4091C48.5646 51.0373 52.5393 48.1324 52.7467 44.0401V44.0055C52.7467 43.9478 52.7467 43.8787 52.7467 43.821C52.7467 43.7288 52.7467 43.6366 52.7467 43.5444V43.5098C52.7467 43.5098 52.7467 43.4176 52.7467 43.3715V43.2908H53.2191H52.7467V43.2792C52.7467 43.2101 52.7467 43.1409 52.7467 43.0717L52.6546 42.1611L52.5278 41.504C52.5278 41.504 52.5048 41.4233 52.4933 41.3772L52.355 40.8584C52.355 40.8584 52.332 40.7662 52.3089 40.7316L52.2859 40.6625C52.2859 40.6625 52.2513 40.5587 52.2398 40.5126L52.2168 40.4434C52.2168 40.4434 52.1822 40.3512 52.1707 40.3051L52.1476 40.2475C52.1476 40.2475 52.1131 40.1437 52.09 40.0976V40.063C52.09 40.063 52.0324 39.9593 52.0094 39.9132V39.8901C51.779 39.3829 51.514 38.8872 51.2029 38.4146C51.1568 38.3569 51.1223 38.2993 51.0877 38.2417C51.0416 38.1725 51.0071 38.1264 50.961 38.0687C50.9264 38.0111 50.8919 37.965 50.8573 37.9189L50.7651 37.7921V37.6307C50.6384 28.9619 43.7028 21.907 35.2926 21.907C26.8824 21.907 19.8201 29.0657 19.8201 37.8612C19.8201 38.2417 19.8316 38.6451 19.8777 39.1178V39.2446L19.8316 39.3598C19.751 39.5212 19.6818 39.6711 19.6127 39.8209L19.5897 39.867C19.5897 39.867 19.5551 39.9593 19.5321 40.0054L19.509 40.063C19.509 40.063 19.4745 40.1552 19.4629 40.1898L19.4399 40.259C19.4399 40.259 19.4053 40.3397 19.3938 40.3858L19.3708 40.455C19.3708 40.455 19.3362 40.5472 19.3247 40.5818L19.1749 41.0659C19.1519 41.1581 19.1288 41.2504 19.1058 41.3541L18.9675 42.0573L18.8754 42.8297C18.8754 42.8297 18.8754 42.9103 18.8754 42.9565V43.0602C18.8754 43.1294 18.8639 43.1985 18.8639 43.2677V43.3484C18.8639 43.3484 18.8639 43.4521 18.8639 43.5098Z" fill="#231916"/>
<path d="M35.7655 38.6335C34.7516 38.2761 32.1479 38.3799 31.9866 41.9996C31.8253 45.6192 35.489 46.7259 35.9037 46.6106C36.3185 46.4953 38.5074 44.5241 38.807 44.0515C39.1065 43.5788 40.2586 40.8353 38.4729 39.9476C36.6871 39.06 36.7217 38.9793 35.777 38.6335H35.7655Z" fill="#ED7C2E"/>
<path d="M33.5882 48.0516C31.7103 48.0516 30.996 46.7605 30.9615 46.7028C30.8347 46.4607 30.9269 46.161 31.1573 46.0342C31.3992 45.9074 31.6988 45.9881 31.8255 46.2302C31.8486 46.2763 32.3209 47.0602 33.5767 47.0602C33.8762 47.0602 34.2219 46.968 34.6136 46.8066C33.3232 45.9305 31.9062 44.7431 31.5605 42.7604C31.284 41.158 31.7679 39.7171 32.92 38.8064C33.8993 38.0225 35.1781 37.815 36.2265 38.2531C36.7219 38.4606 37.079 38.7257 37.3325 38.9908C37.7588 39.0369 38.1966 39.1983 38.6228 39.475C40.0169 40.3741 40.1782 41.9188 39.9016 42.9679C39.5215 44.3627 38.2081 45.4694 37.7127 45.8844L37.6205 45.965C37.2749 46.2648 36.6182 46.8181 35.8578 47.2792C35.8578 47.2792 35.8463 47.2792 35.8348 47.2792C34.9822 47.7979 34.2334 48.0516 33.5767 48.0516H33.5882ZM35.0859 39.0023C34.556 39.0023 34.003 39.1983 33.5421 39.5672C32.6896 40.2473 32.3209 41.3425 32.5398 42.5759C32.8624 44.3858 34.3255 45.4232 35.5928 46.2532C36.1804 45.8613 36.6873 45.4348 36.9753 45.1927L37.0675 45.1235C37.5053 44.7546 38.6459 43.7979 38.9454 42.6912C39.1413 41.965 39.0376 40.8929 38.0929 40.2819C38.0468 40.2473 38.0007 40.2243 37.9431 40.1897C38.0353 40.8468 37.8394 41.55 37.3786 42.1494C36.503 43.2906 35.4892 43.1869 34.8786 42.7488C34.5905 42.5413 34.4177 42.184 34.3716 41.7459C34.314 41.0773 34.602 40.3741 35.1435 39.8208C35.4085 39.5557 35.685 39.3482 35.9846 39.2098C35.9385 39.1868 35.8924 39.1637 35.8463 39.1522C35.6044 39.0485 35.3509 39.0023 35.0859 39.0023ZM36.8486 39.9707C36.4915 40.0283 36.1574 40.2128 35.8578 40.524C35.3624 41.0312 35.3624 41.5384 35.3739 41.6768C35.3855 41.8612 35.4546 41.9419 35.4776 41.965C35.9269 42.2993 36.3763 41.8612 36.6067 41.5615C36.9408 41.1234 37.0675 40.6393 36.9523 40.2128C36.9293 40.1321 36.9062 40.0514 36.8601 39.9822L36.8486 39.9707Z" fill="#231916"/>
<path d="M37.6085 48.0513C36.9518 48.0513 36.1914 47.7861 35.3389 47.2674C35.1085 47.1291 35.0278 46.8178 35.1776 46.5873C35.3274 46.3567 35.6269 46.276 35.8573 46.4259C36.5486 46.8524 37.1362 47.0599 37.6085 47.0599C38.8758 47.0599 39.3482 46.2645 39.3597 46.2299C39.4979 45.9994 39.7975 45.9071 40.0279 46.0455C40.2698 46.1723 40.3505 46.472 40.2238 46.7141C40.1892 46.7717 39.4749 48.0628 37.597 48.0628L37.6085 48.0513Z" fill="#231916"/>
<path d="M24.9352 22.8984C24.9352 22.8984 23.2417 23.4172 23.7025 25.6651C24.1057 27.6132 24.6818 30.622 24.9929 32.2358C25.327 33.965 25.1657 35.7633 24.4398 37.3656C24.3938 37.4578 24.3477 37.5616 24.3016 37.6538C23.2647 39.7634 20.6264 40.5127 18.6333 39.2562L14.5895 36.7201C12.2623 35.2561 11.7208 32.086 13.4489 29.9418L14.3821 28.7775C16.2485 26.449 18.7601 24.7083 21.5942 23.7745C21.5942 23.7745 22.7232 23.3595 23.4721 23.152C24.221 22.9445 24.9468 22.8984 24.9468 22.8984H24.9352Z" fill="#725C48"/>
<path d="M20.742 40.3514C19.9125 40.3514 19.0945 40.1208 18.3802 39.6712L14.3364 37.1352C13.1152 36.3628 12.2626 35.1063 12.0322 33.6769C11.7903 32.2474 12.1704 30.7834 13.0806 29.6537L14.0138 28.4894C15.9493 26.0802 18.5184 24.2934 21.4447 23.325C21.4793 23.3135 22.5853 22.8985 23.3457 22.7025C24.1176 22.4951 24.878 22.4374 24.901 22.4259C25.1429 22.4028 25.3618 22.5757 25.4079 22.8178C25.454 23.0599 25.3158 23.2905 25.0853 23.3596C24.9471 23.4057 23.818 23.8323 24.1752 25.5729C24.5784 27.5442 25.1545 30.5414 25.4655 32.1552C25.8227 34.0342 25.6268 35.9132 24.878 37.5732C24.8319 37.677 24.7858 37.7807 24.7397 37.8729C24.1867 39.0026 23.1729 39.8442 21.9632 40.1785C21.5715 40.2937 21.1567 40.3514 20.7535 40.3514H20.742ZM23.4148 23.6709C22.712 23.8784 21.7558 24.2242 21.7443 24.2242C18.9678 25.1349 16.5484 26.8179 14.7396 29.0773L13.8064 30.2416C13.0691 31.1638 12.758 32.3512 12.9539 33.5155C13.1497 34.6798 13.8295 35.6942 14.8318 36.3282L18.8756 38.8643C19.7051 39.383 20.7304 39.5329 21.6867 39.2678C22.6314 39.0026 23.4263 38.334 23.8641 37.4579C23.9102 37.3657 23.9563 37.2735 23.9909 37.1813C24.6591 35.7057 24.8319 34.0342 24.5093 32.3397C24.1982 30.7258 23.6222 27.7286 23.219 25.7689C23.0346 24.8813 23.1498 24.1896 23.4148 23.6709Z" fill="#231916"/>
<path d="M45.766 22.8984C45.766 22.8984 47.4596 23.4172 46.9988 25.6651C46.5955 27.6132 46.0195 30.622 45.7084 32.2358C45.3743 33.965 45.5356 35.7633 46.2614 37.3656C46.3075 37.4578 46.3536 37.5616 46.3997 37.6538C47.4366 39.7634 50.0748 40.5127 52.0679 39.2562L56.1118 36.7201C58.439 35.2561 58.9805 32.086 57.2523 29.9418L56.3191 28.7775C54.4528 26.449 51.9412 24.7083 49.1071 23.7745C49.1071 23.7745 47.978 23.3595 47.2292 23.152C46.4803 22.9445 45.7545 22.8984 45.7545 22.8984H45.766Z" fill="#725C48"/>
<path d="M49.9592 40.3515C49.556 40.3515 49.1413 40.2939 48.7496 40.1786C47.5399 39.8328 46.526 38.9912 45.973 37.8731C45.9269 37.7693 45.8809 37.6771 45.8348 37.5733C45.0859 35.9134 44.8901 34.0459 45.2472 32.1553C45.5583 30.5415 46.1343 27.5443 46.5375 25.5731C46.8947 23.8324 45.7541 23.4059 45.6274 23.3598C45.397 23.2791 45.2587 23.0485 45.3048 22.8064C45.3509 22.5643 45.5698 22.403 45.8117 22.426C45.8463 22.426 46.5952 22.4837 47.3671 22.7027C48.1274 22.9102 49.2334 23.3136 49.2795 23.3367C52.1943 24.2935 54.7634 26.0803 56.699 28.4896L57.6321 29.6538C58.5423 30.7835 58.9225 32.2476 58.6805 33.677C58.4386 35.1064 57.5976 36.3629 56.3764 37.1353L52.3325 39.6714C51.6182 40.1209 50.8003 40.3515 49.9708 40.3515H49.9592ZM47.2864 23.671C47.5399 24.1897 47.6551 24.8814 47.4823 25.769C47.079 27.7287 46.503 30.7259 46.1919 32.3398C45.8693 34.0343 46.0421 35.7059 46.7104 37.1814C46.7564 37.2736 46.791 37.3658 46.8371 37.4581C47.2749 38.3457 48.0698 39.0028 49.0145 39.2679C49.9592 39.533 50.9846 39.3947 51.8256 38.8644L55.8694 36.3283C56.8602 35.7059 57.5515 34.6799 57.7474 33.5156C57.9432 32.3513 57.6321 31.164 56.8948 30.2418L55.9616 29.0775C54.1413 26.8065 51.7335 25.135 48.9685 24.2243C48.9454 24.2243 47.9892 23.867 47.2864 23.6595V23.671Z" fill="#231916"/>
<path d="M28.7486 38.1499C29.8621 38.1499 30.7647 37.2467 30.7647 36.1326C30.7647 35.0184 29.8621 34.1152 28.7486 34.1152C27.6351 34.1152 26.7324 35.0184 26.7324 36.1326C26.7324 37.2467 27.6351 38.1499 28.7486 38.1499Z" fill="black"/>
<path d="M42.3199 38.1499C43.4334 38.1499 44.336 37.2467 44.336 36.1326C44.336 35.0184 43.4334 34.1152 42.3199 34.1152C41.2064 34.1152 40.3037 35.0184 40.3037 36.1326C40.3037 37.2467 41.2064 38.1499 42.3199 38.1499Z" fill="black"/>
<defs>
<filter id="filter0_dd_3531_55341" x="4.46094" y="13.4736" width="61.79" height="51.5977" filterUnits="userSpaceOnUse" color-interpolation-filters="sRGB">
<feFlood flood-opacity="0" result="BackgroundImageFix"/>
<feColorMatrix in="SourceAlpha" type="matrix" values="0 0 0 0 0 0 0 0 0 0 0 0 0 0 0 0 0 0 127 0" result="hardAlpha"/>
<feOffset dy="2"/>
<feGaussianBlur stdDeviation="2"/>
<feComposite in2="hardAlpha" operator="out"/>
<feColorMatrix type="matrix" values="0 0 0 0 0 0 0 0 0 0 0 0 0 0 0 0 0 0 0.2 0"/>
<feBlend mode="normal" in2="BackgroundImageFix" result="effect1_dropShadow_3531_55341"/>
<feColorMatrix in="SourceAlpha" type="matrix" values="0 0 0 0 0 0 0 0 0 0 0 0 0 0 0 0 0 0 127 0" result="hardAlpha"/>
<feOffset/>
<feGaussianBlur stdDeviation="2.5"/>
<feComposite in2="hardAlpha" operator="out"/>
<feColorMatrix type="matrix" values="0 0 0 0 1 0 0 0 0 0.490083 0 0 0 0 0.120833 0 0 0 1 0"/>
<feBlend mode="normal" in2="effect1_dropShadow_3531_55341" result="effect2_dropShadow_3531_55341"/>
<feBlend mode="normal" in="SourceGraphic" in2="effect2_dropShadow_3531_55341" result="shape"/>
</filter>
</defs>
</svg>
