<svg width="181" height="116" viewBox="0 0 181 116" fill="none" xmlns="http://www.w3.org/2000/svg">
<path d="M79 0H102.091L95.3868 95.3416H85.7037L79 0Z" fill="url(#paint0_linear_7514_175506)"/>
<path d="M0 63.9436L11.5453 43.9466L97.2123 101.147L92.3707 109.533L0 63.9436Z" fill="url(#paint1_linear_7514_175506)"/>
<path d="M181 63.9436L169.455 43.9466L83.7877 101.147L88.6293 109.533L181 63.9436Z" fill="url(#paint2_linear_7514_175506)"/>
<path d="M25 20.3445L44.0565 7.30518L96.5699 95.9229L88.5784 101.391L25 20.3445Z" fill="url(#paint3_linear_7514_175506)" fill-opacity="0.6"/>
<path d="M156.398 20.3445L137.342 7.30518L84.8286 95.9229L92.82 101.391L156.398 20.3445Z" fill="url(#paint4_linear_7514_175506)" fill-opacity="0.6"/>
<defs>
<linearGradient id="paint0_linear_7514_175506" x1="90.5453" y1="0" x2="90.5453" y2="191.029" gradientUnits="userSpaceOnUse">
<stop offset="0.0465971" stop-color="#FFF3CA" stop-opacity="0"/>
<stop offset="1" stop-color="white"/>
</linearGradient>
<linearGradient id="paint1_linear_7514_175506" x1="5.77263" y1="53.9451" x2="184.133" y2="156.921" gradientUnits="userSpaceOnUse">
<stop offset="0.0465971" stop-color="#FFF3CA" stop-opacity="0"/>
<stop offset="1" stop-color="white"/>
</linearGradient>
<linearGradient id="paint2_linear_7514_175506" x1="175.227" y1="53.9451" x2="-3.13289" y2="156.921" gradientUnits="userSpaceOnUse">
<stop offset="0.0465971" stop-color="#FFF3CA" stop-opacity="0"/>
<stop offset="1" stop-color="white"/>
</linearGradient>
<linearGradient id="paint3_linear_7514_175506" x1="34.5282" y1="13.8248" x2="150.83" y2="183.796" gradientUnits="userSpaceOnUse">
<stop offset="0.0465971" stop-color="#FFF3CA" stop-opacity="0"/>
<stop offset="1" stop-color="white"/>
</linearGradient>
<linearGradient id="paint4_linear_7514_175506" x1="146.87" y1="13.8248" x2="30.568" y2="183.796" gradientUnits="userSpaceOnUse">
<stop offset="0.0465971" stop-color="#FFF3CA" stop-opacity="0"/>
<stop offset="1" stop-color="white"/>
</linearGradient>
</defs>
</svg>
