<svg width="24" height="24" viewBox="0 0 24 24" fill="none" xmlns="http://www.w3.org/2000/svg">
<path fill-rule="evenodd" clip-rule="evenodd" d="M11.9998 3C6.79156 3 2.50931 7.02656 2.00428 12.1822C1.99193 12.3118 2.00638 12.4425 2.04669 12.566C2.08701 12.6895 2.15231 12.8031 2.2384 12.8995C2.32448 12.9958 2.42945 13.0729 2.54657 13.1256C2.66368 13.1783 2.79035 13.2055 2.91845 13.2056H11.3213V19.2797C11.3141 19.5043 11.2212 19.7172 11.0622 19.8734C10.9033 20.0297 10.6908 20.117 10.4697 20.117C10.2485 20.117 10.036 20.0297 9.87713 19.8734C9.71821 19.7172 9.62532 19.5043 9.61808 19.2797C9.60756 19.0409 9.50674 18.8153 9.33663 18.65C9.16651 18.4848 8.9402 18.3925 8.70482 18.3925C8.46944 18.3925 8.24313 18.4848 8.07302 18.65C7.9029 18.8153 7.80209 19.0409 7.79157 19.2797C7.79229 20.001 8.07464 20.6925 8.57664 21.2024C9.07864 21.7124 9.75929 21.9993 10.4692 22C11.1792 21.9993 11.86 21.7125 12.3621 21.2025C12.8643 20.6925 13.1468 20.0011 13.1478 19.2797V13.2056H21.0812C21.6228 13.2056 22.0493 12.7296 21.9954 12.1822C21.4913 7.02656 17.2081 3 11.9998 3Z" fill="#333333"/>
</svg>
