<svg width="164" height="171" viewBox="0 0 164 171" fill="none" xmlns="http://www.w3.org/2000/svg">
<mask id="mask0_3854_61168" style="mask-type:alpha" maskUnits="userSpaceOnUse" x="50" y="86" width="65" height="81">
<path d="M84.3895 165.286C83.7235 166.974 81.3345 166.974 80.6686 165.286L50.5796 89.019C50.0618 87.7066 51.0292 86.285 52.4401 86.285L112.618 86.285C114.029 86.285 114.996 87.7066 114.478 89.019L84.3895 165.286Z" fill="#5EB3E4"/>
</mask>
<g mask="url(#mask0_3854_61168)">
<rect width="67.4819" height="74.1766" transform="matrix(1 0 0 -1 50.1172 164.045)" fill="#5EB3E4"/>
</g>
<ellipse cx="82.5287" cy="89.8682" rx="31.2919" ry="8.09005" fill="#FDDA64"/>
<mask id="mask1_3854_61168" style="mask-type:alpha" maskUnits="userSpaceOnUse" x="50" y="86" width="65" height="81">
<path d="M84.387 165.286C83.7211 166.974 81.3321 166.974 80.6661 165.286L50.5772 89.0189C50.0594 87.7064 51.0267 86.2849 52.4376 86.2849L112.616 86.2849C114.026 86.2849 114.994 87.7064 114.476 89.0189L84.387 165.286Z" fill="#5EB3E4"/>
</mask>
<g mask="url(#mask1_3854_61168)">
<line x1="52.8774" y1="107.096" x2="108.311" y2="119.058" stroke="#FA7598" stroke-width="5"/>
<line x1="52.8774" y1="126.988" x2="108.311" y2="138.949" stroke="#FA7598" stroke-width="5"/>
<line x1="52.8774" y1="146.882" x2="108.311" y2="158.843" stroke="#FA7598" stroke-width="5"/>
</g>
<path d="M86.675 92.2341C86.0696 92.4516 85.3819 92.4681 84.7259 92.2324C74.3512 88.485 67.5147 80.7151 65.9819 70.9117C64.6624 62.497 67.6486 54.354 73.768 49.6502C76.7308 47.3766 79.4839 46.1519 81.9399 45.5769C83.6442 43.1509 86.0546 41.0861 89.1102 39.4965C99.027 34.3454 108.596 38.5769 113.779 43.7594C114.909 44.8902 114.915 46.7224 113.791 47.8537C112.667 48.9849 110.841 48.9852 109.711 47.8544C105.906 44.0518 98.9268 40.9238 91.7701 44.6426C91.0651 45.0086 90.4154 45.4009 89.8136 45.8271C94.3787 47.2609 98.1895 50.9536 100.33 56.0456C104.047 64.9003 100.143 70.3758 95.6652 72.3792C93.5747 73.3044 90.9842 73.1643 88.3947 71.948C84.4129 70.0792 81.187 66.0125 79.7715 61.0648C78.9676 58.2592 78.7432 55.5476 79.0641 53.0193C78.4699 53.3813 77.8739 53.7953 77.2774 54.2504C72.8995 57.6112 70.7026 63.8056 71.6783 70.0281C72.8742 77.6727 78.3376 83.779 86.6645 86.7815C88.165 87.3235 88.9484 88.9786 88.4125 90.4827C88.1097 91.3292 87.4549 91.9487 86.6733 92.2295L86.675 92.2341ZM85.5368 50.9602C84.5008 53.4432 84.4117 56.3186 85.3141 59.4833C86.2742 62.8374 88.332 65.5409 90.8215 66.706C91.945 67.2348 92.8956 67.2826 93.304 67.0847C96.1967 65.7944 96.8184 62.5842 95.0116 58.2791C93.4838 54.6372 90.834 52.0746 87.7511 51.2456C87.0339 51.0525 86.2947 50.9543 85.5352 50.9556L85.5368 50.9602Z" fill="#FF7D1F"/>
<path d="M37.1767 60.8674C36.97 61.434 36.5555 61.9298 35.9744 62.2284C31.2153 64.6674 23.5957 65.456 17.7951 59.6593C16.0795 57.9464 14.8851 56.0294 14.2136 54.015C12.6554 53.0673 11.0322 51.6157 9.50131 49.4242C5.74636 44.0605 5.98192 36.5131 10.0862 30.6503C10.8736 29.5222 12.4359 29.248 13.5746 30.0376C14.7071 30.83 14.9927 32.3851 14.1992 33.516C11.3322 37.6161 11.0903 42.9823 13.6032 46.5735C13.7194 46.7423 13.8432 46.9037 13.9626 47.0636C14.3523 45.5224 15.0268 43.9941 16.0071 42.532C18.127 39.3523 21.2199 37.2911 24.4993 36.8751C26.6454 36.6016 28.5594 37.1029 29.8823 38.2782C32.6474 40.733 34.2341 45.5128 29.6035 50.9257C27.2102 53.7275 24.0871 55.3986 20.8723 55.6511C21.0202 55.8163 21.1742 55.9786 21.3388 56.1398C25.2314 60.0271 30.4154 59.4568 33.6742 57.7897C34.9036 57.1616 36.4141 57.642 37.0523 58.8707C37.3849 59.5178 37.4107 60.24 37.1812 60.8691L37.1767 60.8674ZM18.5776 50.5017C18.9581 50.6001 19.3365 50.6623 19.7267 50.6783C21.8565 50.7831 24.0683 49.6894 25.7889 47.6734C26.9412 46.3246 28.5761 43.792 26.5566 41.9935C26.4682 41.9157 26.0152 41.71 25.1464 41.8227C24.4699 41.9095 22.1081 42.4126 20.1833 45.2943C19.0266 47.0309 18.4924 48.7872 18.5748 50.4956L18.5776 50.5017Z" fill="#8C85C9"/>
<path d="M139.625 66.4739C133.666 68.6145 127.867 66.3268 124.379 63.3406C123.329 62.4411 123.201 60.8615 124.094 59.8111C124.986 58.7563 126.561 58.6359 127.611 59.5354C130.398 61.9175 135.295 63.6733 139.942 60.7731C140.136 60.6528 140.323 60.5297 140.505 60.4036C137.442 59.417 134.795 57.0605 133.105 53.7727C129.84 47.4238 132.455 43.1211 135.686 41.3626C137.233 40.518 139.2 40.475 141.224 41.2371C144.31 42.4025 146.847 45.1277 148.183 48.7201C148.799 50.378 149.115 52.0274 149.141 53.6183C149.293 53.493 149.448 53.3615 149.599 53.221C152.849 50.2956 153.825 44.9964 151.969 40.3347C151.457 39.0498 152.079 37.5954 153.358 37.0852C154.664 36.5654 156.088 37.2034 156.6 38.4883C159.262 45.1655 157.787 52.584 152.937 56.9551C150.956 58.7405 149.063 59.7856 147.333 60.3464C146.23 62.1609 144.635 63.7571 142.587 65.0347C141.602 65.647 140.613 66.1237 139.631 66.4768L139.625 66.4739ZM138.105 45.7512C138.105 45.7512 138.078 45.7608 138.069 45.764C135.702 47.0501 136.717 49.902 137.534 51.4877C138.753 53.8558 140.646 55.4346 142.737 55.823C143.116 55.8946 143.5 55.9239 143.89 55.9154C144.356 54.2639 144.236 52.4279 143.504 50.462C142.293 47.2045 140.114 46.164 139.473 45.9233C138.726 45.6397 138.257 45.6966 138.101 45.7528L138.105 45.7512Z" fill="#8C85C9"/>
<path d="M44.3359 83.3667C46.6039 82.5518 47.779 80.0446 46.9606 77.7667C46.1422 75.4887 43.6401 74.3026 41.3722 75.1174C39.1042 75.9322 37.9291 78.4394 38.7475 80.7174C39.5659 82.9954 42.0679 84.1815 44.3359 83.3667Z" fill="#5EB3E4"/>
<path d="M39.9961 27.5013C42.2641 26.6865 43.4392 24.1793 42.6207 21.9013C41.8023 19.6233 39.3003 18.4372 37.0323 19.252C34.7643 20.0669 33.5892 22.5741 34.4077 24.8521C35.2261 27.13 37.7281 28.3161 39.9961 27.5013Z" fill="#FA7598"/>
<path d="M116.532 79.5705C118.8 78.7557 119.975 76.2485 119.156 73.9705C118.338 71.6925 115.836 70.5064 113.568 71.3213C111.3 72.1361 110.125 74.6433 110.943 76.9213C111.762 79.1992 114.264 80.3854 116.532 79.5705Z" fill="#00AC69"/>
<path d="M60.1022 30.5863L56.7584 33.0507C55.7401 33.8012 55.5232 35.2397 56.2741 36.2636L58.7396 39.6257C59.4904 40.6496 60.9246 40.8712 61.943 40.1207L65.2868 37.6562C66.3051 36.9057 66.522 35.4672 65.7711 34.4433L63.3057 31.0812C62.5548 30.0573 61.1206 29.8357 60.1022 30.5863Z" fill="#00AC69"/>
<path d="M72.3792 1.33817L69.0076 3.7643C67.9808 4.50319 67.7477 5.93907 68.487 6.97144L70.9143 10.3612C71.6536 11.3936 73.0853 11.6315 74.1121 10.8926L77.4836 8.46648C78.5104 7.7276 78.7435 6.29171 78.0043 5.25934L75.5769 1.86957C74.8377 0.837203 73.406 0.599285 72.3792 1.33817Z" fill="#FDDA64"/>
<path d="M97.4877 17.0896L97.0125 21.2294C96.8678 22.4902 97.7694 23.6329 99.0264 23.7816L103.154 24.27C104.41 24.4187 105.547 23.5172 105.691 22.2564L106.167 18.1166C106.311 16.8558 105.41 15.7131 104.153 15.5644L100.026 15.076C98.7687 14.9273 97.6324 15.8288 97.4877 17.0896Z" fill="#978ECB"/>
<path d="M120.426 37.336L118.621 39.3114C118.464 39.4855 118.178 39.3988 118.136 39.168L117.665 36.5243C117.648 36.4332 117.59 36.3568 117.504 36.3159L115.067 35.1984C114.854 35.101 114.843 34.8024 115.049 34.6928L117.407 33.4354C117.488 33.391 117.546 33.3089 117.554 33.2188L117.852 30.5553C117.88 30.3199 118.16 30.2193 118.326 30.3849L120.251 32.2498C120.319 32.3124 120.411 32.3409 120.502 32.3236L123.122 31.7923C123.35 31.7462 123.532 31.9831 123.429 32.1941L122.261 34.6068C122.219 34.6886 122.224 34.7891 122.269 34.8704L123.588 37.2089C123.703 37.4138 123.536 37.6583 123.306 37.6282L120.656 37.2532C120.565 37.2399 120.474 37.2724 120.408 37.3425L120.426 37.336Z" fill="#FDDA64"/>
<path d="M52.1303 61.3053L50.3253 63.2807C50.1686 63.4549 49.8824 63.3681 49.8403 63.1374L49.3699 60.4937C49.3525 60.4026 49.2944 60.3261 49.2083 60.2853L46.7716 59.1678C46.5581 59.0703 46.5478 58.7718 46.7532 58.6621L49.112 57.4048C49.1929 57.3603 49.2502 57.2783 49.2586 57.1882L49.5565 54.5247C49.5841 54.2893 49.8642 54.1887 50.0308 54.3542L51.9556 56.2192C52.024 56.2817 52.1159 56.3102 52.2066 56.293L54.8262 55.7617C55.0545 55.7155 55.2365 55.9524 55.1338 56.1635L53.9654 58.5762C53.9234 58.6579 53.9289 58.7584 53.9734 58.8398L55.2931 61.1783C55.4074 61.3831 55.2403 61.6276 55.0101 61.5976L52.3607 61.2225C52.2692 61.2093 52.1789 61.2418 52.1122 61.3118L52.1303 61.3053Z" fill="#FDDA64"/>
</svg>
