<svg width="80" height="89" viewBox="0 0 80 89" fill="none" xmlns="http://www.w3.org/2000/svg">
<g filter="url(#filter0_d_3531_56093)">
<path d="M37.815 12.7471C24.3992 12.7471 13.5278 23.6403 13.5278 37.083C13.5278 43.1982 15.7875 48.7785 19.5062 53.0574L19.6041 53.1643C19.9955 53.6101 20.3958 54.0379 20.8229 54.4569L35.5998 70.1104C36.8097 71.394 38.8381 71.394 40.048 70.1104L54.8338 54.4569C55.2519 54.0469 55.6523 53.619 56.0348 53.1822L56.1416 53.0752H56.1327C59.8514 48.7964 62.1111 43.216 62.1111 37.1008C62.1111 23.667 51.2397 12.7649 37.8239 12.7649L37.815 12.7471Z" fill="white"/>
</g>
<path opacity="0.2" d="M37.815 56.4543C48.4917 56.4543 57.1469 47.7817 57.1469 37.0836C57.1469 26.3854 48.4917 17.7129 37.815 17.7129C27.1383 17.7129 18.4832 26.3854 18.4832 37.0836C18.4832 47.7817 27.1383 56.4543 37.815 56.4543Z" fill="#E5E7EB"/>
<path d="M44.3803 45.5249C43.9711 45.5249 43.5974 45.2396 43.4996 44.8207L38.4553 24.8349C38.3397 24.3446 38.6421 23.8543 39.1314 23.7473C39.6207 23.6315 40.11 23.9345 40.2168 24.4248L45.2611 44.4106C45.3767 44.9009 45.0742 45.3912 44.5849 45.4982C44.5138 45.516 44.4426 45.5249 44.3803 45.5249Z" fill="#E5E7EB"/>
<path d="M46.8981 47.9943C45.0388 47.9943 43.5264 46.4789 43.5264 44.6158C43.5264 42.7527 45.0388 41.2373 46.8981 41.2373C48.7574 41.2373 50.2698 42.7527 50.2698 44.6158C50.2698 46.4789 48.7574 47.9943 46.8981 47.9943ZM46.8981 43.0647C46.044 43.0647 45.3412 43.76 45.3412 44.6247C45.3412 45.4894 46.0352 46.1847 46.8981 46.1847C47.7611 46.1847 48.455 45.4894 48.455 44.6247C48.455 43.76 47.7611 43.0647 46.8981 43.0647Z" fill="#E5E7EB"/>
<path d="M49.0154 50.4367C46.3553 50.4367 44.7362 49.7414 43.8021 46.3094C43.7665 46.1757 43.7042 45.8548 43.5975 45.3556C43.553 45.1149 43.5085 44.9009 43.4907 44.8207C43.3751 44.3304 43.6864 43.8402 44.1757 43.7332C44.665 43.6173 45.1543 43.9293 45.2611 44.4196C45.2789 44.5087 45.3323 44.7494 45.3856 45.0079C45.439 45.2843 45.5369 45.7478 45.5547 45.8459C46.213 48.2884 46.9603 48.6449 49.1577 48.6271H49.1666C49.6648 48.6271 50.0651 49.0283 50.074 49.5275C50.074 50.0267 49.6737 50.4456 49.1755 50.4456C49.1221 50.4456 49.0687 50.4456 49.0154 50.4456V50.4367Z" fill="#E5E7EB"/>
<path d="M41.5514 45.5249C41.4802 45.5249 41.4179 45.5249 41.3468 45.4982C40.8575 45.3823 40.555 44.892 40.6706 44.4106L45.7149 24.4248C45.8305 23.9345 46.3198 23.6315 46.8003 23.7473C47.2896 23.8632 47.592 24.3535 47.4764 24.8349L42.4321 44.8207C42.3343 45.2396 41.9606 45.5249 41.5514 45.5249Z" fill="#E5E7EB"/>
<path d="M39.0336 47.9943C37.1743 47.9943 35.6619 46.4789 35.6619 44.6158C35.6619 42.7527 37.1743 41.2373 39.0336 41.2373C40.8929 41.2373 42.4053 42.7527 42.4053 44.6158C42.4053 46.4789 40.8929 47.9943 39.0336 47.9943ZM39.0336 43.0647C38.1795 43.0647 37.4767 43.76 37.4767 44.6247C37.4767 45.4894 38.1706 46.1847 39.0336 46.1847C39.8966 46.1847 40.5905 45.4894 40.5905 44.6247C40.5905 43.76 39.8966 43.0647 39.0336 43.0647Z" fill="#E5E7EB"/>
<path d="M31.3292 23.7207H29.1585C26.9878 23.7207 26.6319 25.6818 26.9878 28.0619C27.3703 30.5758 28.0731 37.5289 28.0731 39.704C28.0731 41.8791 27.0145 43.8759 27.0145 45.7746C27.0145 47.6733 27.4237 50.1158 29.4788 50.1158C31.5338 50.1158 32.1922 48.6896 32.1922 45.7746C32.1922 44.1433 31.3203 39.0889 31.3203 39.0889H34.7543C35.2525 39.0889 35.6529 38.6878 35.6529 38.1886C35.6529 37.6894 35.2525 37.2882 34.7543 37.2882H31.3203V36.3879H34.7543C35.2525 36.3879 35.6529 35.9867 35.6529 35.4875C35.6529 34.9883 35.2525 34.5872 34.7543 34.5872H31.3203V33.6868H34.7543C35.2525 33.6868 35.6529 33.2857 35.6529 32.7865C35.6529 32.2873 35.2525 31.8862 34.7543 31.8862H31.3203V30.9858H34.7543C35.2525 30.9858 35.6529 30.5847 35.6529 30.0855C35.6529 29.5863 35.2525 29.1851 34.7543 29.1851H31.3203V28.2848H34.7543C35.2525 28.2848 35.6529 27.8837 35.6529 27.3845C35.6529 26.8853 35.2525 26.4841 34.7543 26.4841H31.3203V25.5838H34.7543C35.2525 25.5838 35.6529 25.1826 35.6529 24.6834C35.6529 24.1842 35.2525 23.7831 34.7543 23.7831H31.3203L31.3292 23.7207Z" fill="#E5E7EB"/>
<g style="mix-blend-mode:multiply">
<circle cx="44.269" cy="45.5088" r="11" fill="#FF7D1F"/>
<g clip-path="url(#clip0_3531_56093)">
<path d="M41.8216 42.1797C42.7991 42.1797 43.5916 41.3873 43.5916 40.4097C43.5916 39.4321 42.7991 38.6396 41.8216 38.6396C40.844 38.6396 40.0515 39.4321 40.0515 40.4097C40.0515 41.3873 40.844 42.1797 41.8216 42.1797Z" fill="white"/>
<path d="M46.7156 42.1797C47.6932 42.1797 48.4857 41.3873 48.4857 40.4097C48.4857 39.4321 47.6932 38.6396 46.7156 38.6396C45.738 38.6396 44.9456 39.4321 44.9456 40.4097C44.9456 41.3873 45.738 42.1797 46.7156 42.1797Z" fill="white"/>
<path d="M38.5857 45.4405C39.5633 45.4405 40.3558 44.648 40.3558 43.6704C40.3558 42.6929 39.5633 41.9004 38.5857 41.9004C37.6082 41.9004 36.8157 42.6929 36.8157 43.6704C36.8157 44.648 37.6082 45.4405 38.5857 45.4405Z" fill="white"/>
<path d="M49.9512 45.4405C50.9288 45.4405 51.7213 44.648 51.7213 43.6704C51.7213 42.6929 50.9288 41.9004 49.9512 41.9004C48.9736 41.9004 48.1812 42.6929 48.1812 43.6704C48.1812 44.648 48.9736 45.4405 49.9512 45.4405Z" fill="white"/>
<path d="M48.7155 46.2169C47.9764 45.776 47.4423 45.2108 47.0138 44.4655C45.7654 42.3042 42.7035 42.329 41.4738 44.5028C41.0701 45.217 40.5733 45.7635 39.859 46.1734C38.7722 46.8007 38.2567 47.7882 38.238 48.8751C38.238 51.583 40.772 53.1481 43.0203 51.9618C43.8463 51.5271 44.5978 51.4774 45.43 51.9308C47.0634 52.8313 48.9329 52.3034 49.8396 50.7197C50.7402 49.1422 50.2682 47.1299 48.7155 46.2045V46.2169Z" fill="white"/>
</g>
</g>
<defs>
<filter id="filter0_d_3531_56093" x="5.01783" y="4.23707" width="71.2633" height="81.0062" filterUnits="userSpaceOnUse" color-interpolation-filters="sRGB">
<feFlood flood-opacity="0" result="BackgroundImageFix"/>
<feColorMatrix in="SourceAlpha" type="matrix" values="0 0 0 0 0 0 0 0 0 0 0 0 0 0 0 0 0 0 127 0" result="hardAlpha"/>
<feOffset dx="2.83" dy="2.83"/>
<feGaussianBlur stdDeviation="5.67"/>
<feColorMatrix type="matrix" values="0 0 0 0 0 0 0 0 0 0 0 0 0 0 0 0 0 0 0.15 0"/>
<feBlend mode="normal" in2="BackgroundImageFix" result="effect1_dropShadow_3531_56093"/>
<feBlend mode="normal" in="SourceGraphic" in2="effect1_dropShadow_3531_56093" result="shape"/>
</filter>
<clipPath id="clip0_3531_56093">
<rect width="14.9057" height="13.7381" fill="white" transform="translate(36.8157 38.6396)"/>
</clipPath>
</defs>
</svg>
