<svg width="72" height="72" viewBox="0 0 72 72" fill="none" xmlns="http://www.w3.org/2000/svg">
<g clip-path="url(#clip0_3917_62717)">
<g filter="url(#filter0_d_3917_62717)">
<path d="M35.9956 7C22.7409 7 12 17.4588 12 30.3654C12 36.2367 14.2326 41.5945 17.9066 45.7027L18.0033 45.8054C18.39 46.2334 18.7856 46.6442 19.2075 47.0465L33.807 62.0757C35.0024 63.3081 37.0064 63.3081 38.2018 62.0757L52.8101 47.0465C53.2232 46.6528 53.6188 46.2419 53.9967 45.8226L54.1022 45.7199H54.0934C57.7674 41.6116 60 36.2539 60 30.3825C60 17.4845 49.2591 7.01712 36.0044 7.01712L35.9956 7Z" fill="#FA7598"/>
</g>
<path d="M36 50C47.0457 50 56 41.0457 56 30C56 18.9543 47.0457 10 36 10C24.9543 10 16 18.9543 16 30C16 41.0457 24.9543 50 36 50Z" fill="white"/>
<path d="M41.485 36.9498C41.1481 36.9498 40.8405 36.7149 40.7599 36.37L36.6074 19.9176C36.5122 19.5139 36.7612 19.1103 37.164 19.0223C37.5668 18.9269 37.9696 19.1764 38.0575 19.58L42.21 36.0325C42.3052 36.4361 42.0562 36.8397 41.6534 36.9278C41.5948 36.9424 41.5362 36.9498 41.485 36.9498Z" fill="#FA7598"/>
<path d="M43.5574 38.9824C42.0268 38.9824 40.7817 37.7348 40.7817 36.2011C40.7817 34.6674 42.0268 33.4199 43.5574 33.4199C45.088 33.4199 46.333 34.6674 46.333 36.2011C46.333 37.7348 45.088 38.9824 43.5574 38.9824ZM43.5574 34.9243C42.8543 34.9243 42.2758 35.4967 42.2758 36.2085C42.2758 36.9203 42.847 37.4927 43.5574 37.4927C44.2678 37.4927 44.839 36.9203 44.839 36.2085C44.839 35.4967 44.2678 34.9243 43.5574 34.9243Z" fill="#FA7598"/>
<path d="M45.3007 40.9924C43.111 40.9924 41.7781 40.42 41.0091 37.5948C40.9798 37.4847 40.9286 37.2205 40.8407 36.8096C40.8041 36.6115 40.7674 36.4353 40.7528 36.3693C40.6576 35.9657 40.9139 35.5621 41.3167 35.474C41.7195 35.3786 42.1223 35.6355 42.2102 36.0391C42.2248 36.1125 42.2688 36.3106 42.3127 36.5234C42.3567 36.7509 42.4372 37.1325 42.4519 37.2132C42.9938 39.2239 43.609 39.5174 45.4179 39.5028H45.4252C45.8354 39.5028 46.1649 39.833 46.1723 40.2439C46.1723 40.6549 45.8427 40.9998 45.4326 40.9998C45.3886 40.9998 45.3447 40.9998 45.3007 40.9998V40.9924Z" fill="#FA7598"/>
<path d="M39.1562 36.9498C39.0976 36.9498 39.0464 36.9498 38.9878 36.9278C38.585 36.8324 38.336 36.4287 38.4312 36.0325L42.5837 19.58C42.6789 19.1764 43.0817 18.9269 43.4771 19.0223C43.8799 19.1177 44.1289 19.5213 44.0337 19.9176L39.8812 36.37C39.8007 36.7149 39.4931 36.9498 39.1562 36.9498Z" fill="#FA7598"/>
<path d="M37.0835 38.9824C35.5529 38.9824 34.3079 37.7348 34.3079 36.2011C34.3079 34.6674 35.5529 33.4199 37.0835 33.4199C38.6141 33.4199 39.8592 34.6674 39.8592 36.2011C39.8592 37.7348 38.6141 38.9824 37.0835 38.9824ZM37.0835 34.9243C36.3804 34.9243 35.8019 35.4967 35.8019 36.2085C35.8019 36.9203 36.3731 37.4927 37.0835 37.4927C37.7939 37.4927 38.3651 36.9203 38.3651 36.2085C38.3651 35.4967 37.7939 34.9243 37.0835 34.9243Z" fill="#FA7598"/>
<path d="M30.7412 19H28.9542C27.1673 19 26.8743 20.6144 27.1673 22.5738C27.4822 24.6432 28.0608 30.367 28.0608 32.1576C28.0608 33.9481 27.1893 35.5919 27.1893 37.155C27.1893 38.718 27.5261 40.7287 29.2179 40.7287C30.9096 40.7287 31.4516 39.5546 31.4516 37.155C31.4516 35.8121 30.7339 31.6512 30.7339 31.6512H33.5608C33.9709 31.6512 34.3005 31.321 34.3005 30.9101C34.3005 30.4991 33.9709 30.1689 33.5608 30.1689H30.7339V29.4277H33.5608C33.9709 29.4277 34.3005 29.0975 34.3005 28.6866C34.3005 28.2756 33.9709 27.9454 33.5608 27.9454H30.7339V27.2042H33.5608C33.9709 27.2042 34.3005 26.874 34.3005 26.4631C34.3005 26.0521 33.9709 25.7219 33.5608 25.7219H30.7339V24.9807H33.5608C33.9709 24.9807 34.3005 24.6505 34.3005 24.2396C34.3005 23.8286 33.9709 23.4984 33.5608 23.4984H30.7339V22.7572H33.5608C33.9709 22.7572 34.3005 22.427 34.3005 22.016C34.3005 21.6051 33.9709 21.2749 33.5608 21.2749H30.7339V20.5337H33.5608C33.9709 20.5337 34.3005 20.2035 34.3005 19.7925C34.3005 19.3816 33.9709 19.0514 33.5608 19.0514H30.7339L30.7412 19Z" fill="#FA7598"/>
</g>
<defs>
<filter id="filter0_d_3917_62717" x="3.49" y="-1.51" width="70.68" height="78.68" filterUnits="userSpaceOnUse" color-interpolation-filters="sRGB">
<feFlood flood-opacity="0" result="BackgroundImageFix"/>
<feColorMatrix in="SourceAlpha" type="matrix" values="0 0 0 0 0 0 0 0 0 0 0 0 0 0 0 0 0 0 127 0" result="hardAlpha"/>
<feOffset dx="2.83" dy="2.83"/>
<feGaussianBlur stdDeviation="5.67"/>
<feColorMatrix type="matrix" values="0 0 0 0 0 0 0 0 0 0 0 0 0 0 0 0 0 0 0.15 0"/>
<feBlend mode="normal" in2="BackgroundImageFix" result="effect1_dropShadow_3917_62717"/>
<feBlend mode="normal" in="SourceGraphic" in2="effect1_dropShadow_3917_62717" result="shape"/>
</filter>
<clipPath id="clip0_3917_62717">
<rect width="72" height="72" fill="white"/>
</clipPath>
</defs>
</svg>
