<svg width="80" height="90" viewBox="0 0 80 90" fill="none" xmlns="http://www.w3.org/2000/svg">
<g filter="url(#filter0_d_3490_54195)">
<path d="M36.9732 13.3738C23.5574 13.3738 12.686 24.267 12.686 37.7097C12.686 43.8249 14.9457 49.4052 18.6644 53.6841L18.7623 53.791C19.1537 54.2368 19.5541 54.6646 19.9811 55.0836L34.758 70.7371C35.9679 72.0207 37.9963 72.0207 39.2062 70.7371L53.992 55.0836C54.4101 54.6736 54.8105 54.2457 55.193 53.8089L55.2998 53.7019H55.2909C59.0096 49.4231 61.2693 43.8427 61.2693 37.7275C61.2693 24.2938 50.3979 13.3916 36.9821 13.3916L36.9732 13.3738Z" fill="white"/>
</g>
<path opacity="0.2" d="M36.973 57.0805C47.6497 57.0805 56.3049 48.4079 56.3049 37.7098C56.3049 27.0117 47.6497 18.3391 36.973 18.3391C26.2963 18.3391 17.6411 27.0117 17.6411 37.7098C17.6411 48.4079 26.2963 57.0805 36.973 57.0805Z" fill="#E5E7EB"/>
<path d="M38.5927 27.9218C38.5927 27.9218 38.5927 27.8504 38.5927 27.8059C38.5927 26.9055 37.8632 26.1746 36.9647 26.1746C36.0661 26.1746 35.3366 26.9055 35.3366 27.8059C35.3366 27.8415 35.3366 27.8683 35.3366 27.9039C29.4205 28.626 24.7499 33.404 24.1895 39.3766H49.5976C49.0371 33.4397 44.4376 28.6884 38.5749 27.9218H38.5927Z" fill="#E5E7EB"/>
<path d="M28.1302 37.9058C28.0502 37.9058 27.9701 37.8969 27.89 37.8612C27.5164 37.7275 27.3118 37.3174 27.4452 36.943C28.5217 33.8587 31.1728 31.5232 34.3577 30.8546C34.7492 30.7744 35.1317 31.024 35.2118 31.4162C35.2918 31.8084 35.0427 32.1917 34.6513 32.272C31.9557 32.8425 29.7138 34.8214 28.8064 37.4244C28.6996 37.7186 28.4238 37.9058 28.1213 37.9058H28.1302Z" fill="white"/>
<path d="M52.3997 41.1238H21.5381C20.8442 41.1238 20.2837 41.6854 20.2837 42.3807C20.2837 43.076 20.8442 43.6376 21.5381 43.6376H24.3138C24.5629 45.3313 26.013 46.6328 27.7656 46.6328H46.1722C47.9337 46.6328 49.3838 45.3313 49.6329 43.6376H52.4086C53.1025 43.6376 53.663 43.076 53.663 42.3807C53.663 41.6854 53.1025 41.1238 52.4086 41.1238H52.3997Z" fill="#E5E7EB"/>
<defs>
<filter id="filter0_d_3490_54195" x="4.17603" y="4.86378" width="71.263" height="81.0059" filterUnits="userSpaceOnUse" color-interpolation-filters="sRGB">
<feFlood flood-opacity="0" result="BackgroundImageFix"/>
<feColorMatrix in="SourceAlpha" type="matrix" values="0 0 0 0 0 0 0 0 0 0 0 0 0 0 0 0 0 0 127 0" result="hardAlpha"/>
<feOffset dx="2.83" dy="2.83"/>
<feGaussianBlur stdDeviation="5.67"/>
<feColorMatrix type="matrix" values="0 0 0 0 0 0 0 0 0 0 0 0 0 0 0 0 0 0 0.15 0"/>
<feBlend mode="normal" in2="BackgroundImageFix" result="effect1_dropShadow_3490_54195"/>
<feBlend mode="normal" in="SourceGraphic" in2="effect1_dropShadow_3490_54195" result="shape"/>
</filter>
</defs>
</svg>
