<svg width="72" height="72" viewBox="0 0 72 72" fill="none" xmlns="http://www.w3.org/2000/svg">
<g clip-path="url(#clip0_3917_61986)">
<g filter="url(#filter0_d_3917_61986)">
<path d="M35.9956 7C22.7409 7 12 17.4588 12 30.3654C12 36.2367 14.2326 41.5945 17.9066 45.7027L18.0033 45.8054C18.39 46.2334 18.7856 46.6442 19.2075 47.0465L33.807 62.0757C35.0024 63.3081 37.0064 63.3081 38.2018 62.0757L52.8101 47.0465C53.2232 46.6528 53.6187 46.2419 53.9967 45.8226L54.1022 45.7199H54.0934C57.7674 41.6116 60 36.2539 60 30.3825C60 17.4845 49.2591 7.01712 36.0044 7.01712L35.9956 7Z" fill="white"/>
</g>
<path d="M36 50C47.0457 50 56 41.0457 56 30C56 18.9543 47.0457 10 36 10C24.9543 10 16 18.9543 16 30C16 41.0457 24.9543 50 36 50Z" fill="#CCEFE7"/>
<path d="M24 22.6677V26.4791C24 27.0846 24.4881 27.5814 25.1001 27.5814H25.9832V40.1411C25.9832 40.7465 26.4713 41.2433 27.0833 41.2433H30.3835V33.6206H41.8954V41.2433H44.9167C45.521 41.2433 46.0168 40.7543 46.0168 40.1411V27.5814H46.8999C47.5042 27.5814 48 27.0923 48 26.4791V22.6677C48 22.0622 47.5119 21.5654 46.8999 21.5654H25.1001C24.4958 21.5654 24 22.0545 24 22.6677V22.6677Z" fill="#00B189"/>
<path d="M40.7879 30.625H31.476C30.8718 30.625 30.376 31.114 30.376 31.7273V41.2363H41.8879V31.7273C41.8879 31.1218 41.3999 30.625 40.7879 30.625V30.625Z" fill="white"/>
<path d="M38.5335 37.3463C38.2003 37.3463 37.9292 37.0746 37.9292 36.7409V35.0176C37.9292 34.6838 38.2003 34.4121 38.5335 34.4121C38.8666 34.4121 39.1377 34.6838 39.1377 35.0176V36.7409C39.1377 37.0746 38.8666 37.3463 38.5335 37.3463Z" fill="#231916"/>
<path d="M33.7305 37.3463C33.3974 37.3463 33.1262 37.0746 33.1262 36.7409V35.0176C33.1262 34.6838 33.3974 34.4121 33.7305 34.4121C34.0636 34.4121 34.3347 34.6838 34.3347 35.0176V36.7409C34.3347 37.0746 34.0636 37.3463 33.7305 37.3463Z" fill="#231916"/>
<path d="M36.1315 28.9634C39.7041 28.9634 42.6002 26.0614 42.6002 22.4817C42.6002 18.9019 39.7041 16 36.1315 16C32.559 16 29.6628 18.9019 29.6628 22.4817C29.6628 26.0614 32.559 28.9634 36.1315 28.9634Z" fill="white"/>
<path d="M40.4391 20.9219H37.5728V18.0498H34.6909V20.9219H31.8323V23.8018H34.6909V26.6739H37.5728V23.8018H40.4391V20.9219Z" fill="#FF5C35"/>
</g>
<defs>
<filter id="filter0_d_3917_61986" x="3.49" y="-1.51" width="70.68" height="78.68" filterUnits="userSpaceOnUse" color-interpolation-filters="sRGB">
<feFlood flood-opacity="0" result="BackgroundImageFix"/>
<feColorMatrix in="SourceAlpha" type="matrix" values="0 0 0 0 0 0 0 0 0 0 0 0 0 0 0 0 0 0 127 0" result="hardAlpha"/>
<feOffset dx="2.83" dy="2.83"/>
<feGaussianBlur stdDeviation="5.67"/>
<feColorMatrix type="matrix" values="0 0 0 0 0 0 0 0 0 0 0 0 0 0 0 0 0 0 0.15 0"/>
<feBlend mode="normal" in2="BackgroundImageFix" result="effect1_dropShadow_3917_61986"/>
<feBlend mode="normal" in="SourceGraphic" in2="effect1_dropShadow_3917_61986" result="shape"/>
</filter>
<clipPath id="clip0_3917_61986">
<rect width="72" height="72" fill="white"/>
</clipPath>
</defs>
</svg>
