<svg width="24" height="24" viewBox="0 0 24 24" fill="none" xmlns="http://www.w3.org/2000/svg">
<path fill-rule="evenodd" clip-rule="evenodd" d="M16.5209 3.81191C18.9378 6.19133 18.9378 10.0909 16.5209 12.4704C15.59 13.3792 14.3815 14.0071 13.0098 14.1888C13.0261 14.7506 13.0751 15.1968 13.1567 16.3534H15.7533C16.7332 16.3534 16.7332 18.3363 15.7533 18.3363H13.1567V21.5915C13.1567 22.5829 11.1807 22.5829 11.1807 21.5915V18.3363H8.58416C7.60431 18.3363 7.60431 16.3534 8.58416 16.3534H11.1807C11.2624 15.4446 11.2461 15.1803 11.3277 14.1888C9.97226 14.0071 8.74746 13.3792 7.81661 12.4704C5.39967 10.0909 5.39967 6.19133 7.81661 3.81191C10.2172 1.43249 14.1203 1.43249 16.5209 3.81191ZM15.0184 5.36514C13.4507 3.82843 10.8868 3.82843 9.31904 5.36514C7.78395 6.88533 7.78395 9.39694 9.31904 10.9171C10.0376 11.6276 11.0501 12.0738 12.1606 12.0738C13.2711 12.0738 14.2836 11.6276 15.0021 10.9171C16.5535 9.39694 16.5535 6.88533 15.0184 5.36514Z" fill="#FF7448"/>
</svg>
