<svg width="48" height="48" viewBox="0 0 48 48" fill="none" xmlns="http://www.w3.org/2000/svg">
<path d="M24 47C36.7025 47 47 36.7025 47 24C47 11.2975 36.7025 1 24 1C11.2975 1 1 11.2975 1 24C1 36.7025 11.2975 47 24 47Z" fill="#F54E4E" stroke="white" stroke-width="2"/>
<path d="M18.4335 12.755C16.3794 13.7082 14.644 14.8439 13.2708 16.136C11.4513 17.8483 10.2751 19.8299 9.77388 22.0231C9.41174 23.6049 9.55659 24.984 10.1708 25.8155C10.6575 26.3746 11.2659 26.6846 11.8888 26.6846H11.9033C12.2799 26.6846 12.6769 26.6151 13.0796 26.4818C13.9284 26.2066 14.7744 25.6648 15.5972 24.8681C18.1525 22.4113 20.2182 17.8048 21.4234 11.8946L21.49 11.5614L21.4176 11.5846C20.3862 11.9235 19.3867 12.3147 18.448 12.7434L18.4364 12.7492L18.4335 12.755Z" fill="white"/>
<path d="M35.4791 19.969C35.4095 19.8386 35.3458 19.7054 35.2849 19.5721C35.1951 19.3693 35.1169 19.1636 35.0474 18.9521C34.9952 18.7406 34.9489 18.5291 34.9083 18.3147C34.8678 18.1003 34.8301 17.8859 34.7953 17.6716C34.7895 17.463 34.7721 17.2544 34.7461 17.0458C34.72 16.8372 34.6823 16.6315 34.636 16.4229C34.2622 14.4238 33.0223 13.1085 31.423 12.1959C30.8899 11.8917 30.3163 11.6338 29.7195 11.4108C29.0821 11.2224 28.3897 11.066 27.6625 10.953C27.0744 10.8719 26.4602 10.8342 25.8315 10.8342C25.7967 10.8342 25.7648 10.8342 25.7301 10.8342C25.0405 10.8487 24.3076 10.9153 23.5572 11.0428C23.4732 11.0544 23.3892 11.066 23.3051 11.0805L23.0705 12.2365C21.4394 20.2356 18.7421 24.1815 16.7633 26.0849C16.4968 26.3457 16.2245 26.5804 15.9492 26.7976C16.9314 29.0343 18.7015 30.7146 20.8628 31.7286C21.0685 31.8271 21.28 31.917 21.4944 32.001C22.2419 32.2559 22.9922 32.4413 23.7513 32.5717C23.9396 32.6036 24.1308 32.6326 24.3191 32.6586C25.0463 32.7948 25.7764 32.8585 26.5065 32.8585C27.4104 32.8585 28.3086 32.76 29.1806 32.5833C29.4066 32.5369 29.6297 32.4848 29.8556 32.4297C31.3622 32.0039 32.8368 31.5838 34.0363 30.7581C34.1435 30.6799 34.2362 30.6074 34.3173 30.5408C35.1517 29.9005 35.7833 29.0574 36.354 28.2144C36.4902 28.0116 36.6176 27.8059 36.7364 27.5944C38.1474 25.0593 38.0836 21.9883 35.4762 19.9748L35.4791 19.969Z" fill="white"/>
<path d="M31.5605 28.4869C29.996 28.4869 29.0341 27.6496 28.9936 27.6119C28.7473 27.3947 28.7241 27.018 28.9443 26.7718C29.1616 26.5255 29.5382 26.5023 29.7845 26.7225C29.8077 26.7428 30.4653 27.2961 31.5605 27.2961C32.6556 27.2961 33.3132 26.7428 33.3393 26.7196C33.5885 26.5081 33.9622 26.5313 34.1795 26.7776C34.3939 27.0238 34.3736 27.3947 34.1274 27.6119C34.0868 27.6467 33.1249 28.4869 31.5605 28.4869Z" fill="#F54E4E"/>
<path d="M26.0137 19.6099C26.6857 19.6099 27.2305 18.9614 27.2305 18.1614C27.2305 17.3613 26.6857 16.7128 26.0137 16.7128C25.3417 16.7128 24.7969 17.3613 24.7969 18.1614C24.7969 18.9614 25.3417 19.6099 26.0137 19.6099Z" fill="#F54E4E"/>
<path d="M32.7637 19.6099C33.4357 19.6099 33.9805 18.9614 33.9805 18.1614C33.9805 17.3613 33.4357 16.7128 32.7637 16.7128C32.0917 16.7128 31.5469 17.3613 31.5469 18.1614C31.5469 18.9614 32.0917 19.6099 32.7637 19.6099Z" fill="#F54E4E"/>
<path d="M35.267 24.6279L35.9913 23.3734C36.3853 22.6926 35.8928 21.8408 35.1077 21.8408H33.6591C32.8739 21.8408 32.3814 22.6926 32.7754 23.3734L33.4997 24.6279C33.8937 25.3087 34.8759 25.3087 35.267 24.6279Z" fill="#F54E4E"/>
<path d="M28.3986 40.6435C29.4676 38.3895 30.105 36.1239 30.3136 34.0466C30.3136 34.0466 30.3136 34.0466 30.3107 34.0466L30.2875 34.0524L30.2643 34.0582C30.0123 34.122 29.7602 34.1799 29.514 34.2291C28.5057 34.4348 27.4917 34.5391 26.5038 34.5391C25.6694 34.5391 24.8437 34.4638 24.0499 34.319C23.8529 34.2929 23.6559 34.261 23.4618 34.2263C22.5984 34.0756 21.7524 33.8641 20.9499 33.5918L20.9123 33.5802L20.8746 33.5657C20.6312 33.4701 20.385 33.3629 20.1445 33.2499C18.4526 32.4561 17.0214 31.3349 15.9204 29.9674C14.8543 31.1379 13.8547 32.4937 12.9827 34.0061C12.5307 34.7883 12.1367 35.5763 11.7891 36.3644C14.9615 39.3658 19.2377 41.2084 23.9485 41.2084C25.484 41.2084 26.9731 41.0114 28.3957 40.6435H28.3986Z" fill="white"/>
<path fill-rule="evenodd" clip-rule="evenodd" d="M24 40.7619C33.2573 40.7619 40.7619 33.2573 40.7619 24C40.7619 14.7427 33.2573 7.2381 24 7.2381C14.7427 7.2381 7.2381 14.7427 7.2381 24C7.2381 33.2573 14.7427 40.7619 24 40.7619ZM24 46C36.1503 46 46 36.1503 46 24C46 11.8497 36.1503 2 24 2C11.8497 2 2 11.8497 2 24C2 36.1503 11.8497 46 24 46Z" fill="#F54E4E"/>
</svg>
