<svg width="28" height="28" viewBox="0 0 28 28" fill="none" xmlns="http://www.w3.org/2000/svg">
<path d="M19.8315 1.67866H19.832C20.8425 1.67866 21.6654 2.49639 21.6654 3.50033V24.5003C21.6654 25.5075 20.8392 26.3337 19.832 26.3337H8.16536C7.15817 26.3337 6.33203 25.5075 6.33203 24.5003V3.50033C6.33203 2.49322 7.15804 1.66713 8.16512 1.66699C8.1652 1.66699 8.16528 1.66699 8.16536 1.66699L19.8315 1.67866ZM19.832 25.0003H20.332V24.5003V23.3337V22.8337H19.832H8.16536H7.66536V23.3337V24.5003V25.0003H8.16536H19.832ZM19.832 21.5003H20.332V21.0003V7.00033V6.50033H19.832H8.16536H7.66536V7.00033V21.0003V21.5003H8.16536H19.832ZM7.66536 4.66699V5.16699H8.16536H19.832H20.332V4.66699V3.50033V3.00033H19.832H8.16536H7.66536V3.50033V4.66699ZM13.332 9.16699C13.332 8.89085 13.5559 8.66699 13.832 8.66699H14.1654C14.4415 8.66699 14.6654 8.89085 14.6654 9.16699V9.50033C14.6654 9.77647 14.4415 10.0003 14.1654 10.0003H13.832C13.5559 10.0003 13.332 9.77647 13.332 9.50033V9.16699ZM13.332 13.3337H14.6654V19.3337H13.332V13.3337Z" fill="black" stroke="#333333"/>
</svg>
