<svg width="24" height="24" viewBox="0 0 24 24" fill="none" xmlns="http://www.w3.org/2000/svg">
<path d="M17.3333 3H5.66667C4.75 3 4.00833 3.78458 4.00833 4.74352L4 16.0154C4 16.6169 4.29167 17.1487 4.73333 17.4625L11.0417 21.8562C11.325 22.0479 11.6833 22.0479 11.9667 21.8562L18.2667 17.4625C18.7083 17.1487 19 16.6169 19 16.0154V4.74352C19 3.78458 18.25 3 17.3333 3ZM16.75 8.84079L10.425 15.4574C10.1 15.7974 9.575 15.7974 9.25 15.4574L6.25833 12.3278C5.93333 11.9878 5.93333 11.4386 6.25833 11.0986C6.58333 10.7587 7.10833 10.7587 7.43333 11.0986L9.83333 13.6093L15.5667 7.61161C15.8917 7.27162 16.4167 7.27162 16.7417 7.61161C17.0667 7.95159 17.075 8.5008 16.75 8.84079Z" fill="#62C996"/>
</svg>
