<svg width="24" height="24" viewBox="0 0 24 24" fill="none" xmlns="http://www.w3.org/2000/svg">
<path fill-rule="evenodd" clip-rule="evenodd" d="M4.96661 10.8429C4.96662 10.8429 4.96663 10.843 4.96664 10.843L4.9664 10.8429H4.96661ZM4.96661 10.8429H18.6368C18.8493 9.04298 17.4328 7.58584 15.9453 8.1001C15.7329 7.84303 15.4496 7.67161 15.0954 7.58584C13.679 3.47139 8.9331 3.47139 7.51651 7.58584C6.87909 7.50018 6.24156 7.92867 5.95825 8.70015C5.1792 8.95732 4.75413 9.98579 4.96661 10.8429ZM4.61256 12.129L4.61272 12.1289H19.3454C19.6287 12.2146 19.7704 12.3003 19.8413 12.6432C20.0184 13.6291 20.2132 14.6365 20.4081 15.644C20.6028 16.6508 20.7975 17.6576 20.9745 18.643C21.0454 18.9859 20.9746 19.5001 20.6912 19.5001H3.26688C2.98358 19.5001 2.9127 18.9858 2.98358 18.643C3.34422 16.9702 3.65383 15.2355 3.95577 13.5438C4.00963 13.242 4.06324 12.9416 4.11686 12.6432C4.18773 12.3004 4.40007 12.2147 4.61256 12.129ZM8.22517 15.9859C6.59611 18.4716 10.0668 19.7574 10.3501 17.1002H13.6792C13.8917 19.7573 17.3625 18.4716 15.7333 15.9859C17.2915 13.5002 13.6792 11.9574 13.6792 14.9574H10.3501C10.3501 11.9573 6.66691 13.5002 8.22517 15.9859Z" fill="#333333"/>
</svg>
