<svg width="24" height="24" viewBox="0 0 24 24" fill="none" xmlns="http://www.w3.org/2000/svg">
<path d="M16.1138 17.2123C15.8611 17.2123 15.6304 17.0362 15.57 16.7775L12.4556 4.43817C12.3842 4.13546 12.571 3.83275 12.8731 3.76671C13.1752 3.69516 13.4773 3.88229 13.5432 4.18499L16.6576 16.5244C16.729 16.8271 16.5422 17.1298 16.2401 17.1958C16.1962 17.2068 16.1522 17.2123 16.1138 17.2123V17.2123Z" fill="#FA7598"/>
<path d="M17.6682 18.7368C16.5202 18.7368 15.5864 17.8011 15.5864 16.6509C15.5864 15.5006 16.5202 14.5649 17.6682 14.5649C18.8161 14.5649 19.7499 15.5006 19.7499 16.6509C19.7499 17.8011 18.8161 18.7368 17.6682 18.7368ZM17.6682 15.6932C17.1409 15.6932 16.7069 16.1225 16.7069 16.6564C16.7069 17.1902 17.1354 17.6195 17.6682 17.6195C18.201 17.6195 18.6294 17.1902 18.6294 16.6564C18.6294 16.1225 18.201 15.6932 17.6682 15.6932Z" fill="#FA7598"/>
<path d="M18.9757 20.2446C17.3334 20.2446 16.3337 19.8153 15.757 17.6963C15.735 17.6138 15.6965 17.4156 15.6306 17.1074C15.6032 16.9588 15.5757 16.8267 15.5647 16.7772C15.4933 16.4745 15.6856 16.1718 15.9877 16.1058C16.2898 16.0342 16.5919 16.2268 16.6578 16.5295C16.6687 16.5846 16.7017 16.7332 16.7347 16.8928C16.7676 17.0634 16.828 17.3496 16.839 17.4101C17.2455 18.9182 17.7069 19.1383 19.0636 19.1273H19.0691C19.3766 19.1273 19.6238 19.375 19.6293 19.6832C19.6293 19.9914 19.3821 20.2501 19.0746 20.2501C19.0416 20.2501 19.0086 20.2501 18.9757 20.2501V20.2446Z" fill="#FA7598"/>
<path d="M14.3671 17.2123C14.3232 17.2123 14.2847 17.2123 14.2408 17.1958C13.9387 17.1243 13.7519 16.8216 13.8233 16.5244L16.9377 4.18499C17.0091 3.88229 17.3112 3.69516 17.6078 3.76671C17.9099 3.83826 18.0966 4.14096 18.0252 4.43817L14.9109 16.7775C14.8505 17.0362 14.6198 17.2123 14.3671 17.2123Z" fill="#FA7598"/>
<path d="M12.8127 18.7368C11.6647 18.7368 10.731 17.8011 10.731 16.6509C10.731 15.5006 11.6647 14.5649 12.8127 14.5649C13.9607 14.5649 14.8944 15.5006 14.8944 16.6509C14.8944 17.8011 13.9607 18.7368 12.8127 18.7368ZM12.8127 15.6932C12.2854 15.6932 11.8515 16.1225 11.8515 16.6564C11.8515 17.1902 12.2799 17.6195 12.8127 17.6195C13.3455 17.6195 13.7739 17.1902 13.7739 16.6564C13.7739 16.1225 13.3455 15.6932 12.8127 15.6932Z" fill="#FA7598"/>
<path d="M8.05572 3.75H6.7155C5.37528 3.75 5.15557 4.96082 5.37528 6.43032C5.61146 7.98237 6.04539 12.2753 6.04539 13.6182C6.04539 14.9611 5.39176 16.1939 5.39176 17.3662C5.39176 18.5385 5.64442 20.0465 6.91323 20.0465C8.18205 20.0465 8.58851 19.166 8.58851 17.3662C8.58851 16.359 8.05022 13.2384 8.05022 13.2384H10.1704C10.478 13.2384 10.7252 12.9908 10.7252 12.6826C10.7252 12.3743 10.478 12.1267 10.1704 12.1267H8.05022V11.5708H10.1704C10.478 11.5708 10.7252 11.3231 10.7252 11.0149C10.7252 10.7067 10.478 10.459 10.1704 10.459H8.05022V9.90317H10.1704C10.478 9.90317 10.7252 9.6555 10.7252 9.34729C10.7252 9.03908 10.478 8.79142 10.1704 8.79142H8.05022V8.23554H10.1704C10.478 8.23554 10.7252 7.98787 10.7252 7.67966C10.7252 7.37145 10.478 7.12379 10.1704 7.12379H8.05022V6.56791H10.1704C10.478 6.56791 10.7252 6.32024 10.7252 6.01203C10.7252 5.70382 10.478 5.45616 10.1704 5.45616H8.05022V4.90028H10.1704C10.478 4.90028 10.7252 4.65261 10.7252 4.3444C10.7252 4.03619 10.478 3.78853 10.1704 3.78853H8.05022L8.05572 3.75Z" fill="#FA7598"/>
</svg>
