<svg width="25" height="27" viewBox="0 0 25 27" fill="none" xmlns="http://www.w3.org/2000/svg">
<path d="M18.4345 21.9001C18.0253 21.9001 17.6516 21.6149 17.5538 21.1959L12.5095 1.21013C12.3939 0.719848 12.6963 0.229563 13.1856 0.122592C13.6749 0.00670622 14.1642 0.309791 14.271 0.800076L19.3152 20.7859C19.4309 21.2761 19.1284 21.7664 18.6391 21.8734C18.568 21.8912 18.4968 21.9001 18.4345 21.9001Z" fill="#FA7598"/>
<path d="M20.9518 24.3693C19.0925 24.3693 17.5801 22.8539 17.5801 20.9908C17.5801 19.1277 19.0925 17.6123 20.9518 17.6123C22.8112 17.6123 24.3235 19.1277 24.3235 20.9908C24.3235 22.8539 22.8112 24.3693 20.9518 24.3693ZM20.9518 19.4397C20.0978 19.4397 19.3949 20.135 19.3949 20.9997C19.3949 21.8644 20.0889 22.5597 20.9518 22.5597C21.8148 22.5597 22.5087 21.8644 22.5087 20.9997C22.5087 20.135 21.8148 19.4397 20.9518 19.4397Z" fill="#FA7598"/>
<path d="M23.0693 26.812C20.4093 26.812 18.7902 26.1166 17.856 22.6846C17.8204 22.5509 17.7582 22.23 17.6514 21.7308C17.6069 21.4901 17.5625 21.2762 17.5447 21.196C17.429 20.7057 17.7404 20.2154 18.2297 20.1084C18.719 19.9925 19.2083 20.3045 19.315 20.7948C19.3328 20.884 19.3862 21.1247 19.4396 21.3832C19.493 21.6595 19.5908 22.123 19.6086 22.2211C20.267 24.6636 21.0143 25.0202 23.2117 25.0024H23.2206C23.7188 25.0024 24.1191 25.4035 24.128 25.9027C24.128 26.4019 23.7277 26.8209 23.2295 26.8209C23.1761 26.8209 23.1227 26.8209 23.0693 26.8209V26.812Z" fill="#FA7598"/>
<path d="M15.6051 21.9001C15.5339 21.9001 15.4716 21.9001 15.4005 21.8734C14.9112 21.7575 14.6087 21.2672 14.7243 20.7859L19.7686 0.800076C19.8843 0.309791 20.3736 0.00670622 20.854 0.122592C21.3433 0.238477 21.6457 0.728763 21.5301 1.21013L16.4858 21.1959C16.388 21.6149 16.0143 21.9001 15.6051 21.9001Z" fill="#FA7598"/>
<path d="M13.0876 24.3693C11.2282 24.3693 9.71582 22.8539 9.71582 20.9908C9.71582 19.1277 11.2282 17.6123 13.0876 17.6123C14.9469 17.6123 16.4593 19.1277 16.4593 20.9908C16.4593 22.8539 14.9469 24.3693 13.0876 24.3693ZM13.0876 19.4397C12.2335 19.4397 11.5307 20.135 11.5307 20.9997C11.5307 21.8644 12.2246 22.5597 13.0876 22.5597C13.9505 22.5597 14.6444 21.8644 14.6444 20.9997C14.6444 20.135 13.9505 19.4397 13.0876 19.4397Z" fill="#FA7598"/>
<path d="M5.38318 0.0959473H3.21246C1.04174 0.0959473 0.685887 2.05708 1.04174 4.43719C1.42429 6.95101 2.1271 13.9041 2.1271 16.0792C2.1271 18.2543 1.06843 20.2511 1.06843 22.1498C1.06843 24.0486 1.47767 26.4911 3.53273 26.4911C5.5878 26.4911 6.24613 25.0648 6.24613 22.1498C6.24613 20.5185 5.37429 15.4641 5.37429 15.4641H8.8083C9.30649 15.4641 9.70683 15.063 9.70683 14.5638C9.70683 14.0646 9.30649 13.6635 8.8083 13.6635H5.37429V12.7631H8.8083C9.30649 12.7631 9.70683 12.362 9.70683 11.8628C9.70683 11.3636 9.30649 10.9624 8.8083 10.9624H5.37429V10.0621H8.8083C9.30649 10.0621 9.70683 9.66095 9.70683 9.16175C9.70683 8.66255 9.30649 8.26141 8.8083 8.26141H5.37429V7.36107H8.8083C9.30649 7.36107 9.70683 6.95993 9.70683 6.46073C9.70683 5.96153 9.30649 5.56039 8.8083 5.56039H5.37429V4.66005H8.8083C9.30649 4.66005 9.70683 4.25891 9.70683 3.75971C9.70683 3.26051 9.30649 2.85937 8.8083 2.85937H5.37429V1.95903H8.8083C9.30649 1.95903 9.70683 1.55789 9.70683 1.05869C9.70683 0.559489 9.30649 0.158347 8.8083 0.158347H5.37429L5.38318 0.0959473Z" fill="#FA7598"/>
</svg>
