<svg width="24" height="24" viewBox="0 0 24 24" fill="none" xmlns="http://www.w3.org/2000/svg">
<path d="M12 1C5.928 1 1 5.928 1 12C1 18.072 5.928 23 12 23C18.072 23 23 18.072 23 12C23 5.928 18.072 1 12 1ZM12 4.3C13.826 4.3 15.3 5.774 15.3 7.6C15.3 9.426 13.826 10.9 12 10.9C10.174 10.9 8.7 9.426 8.7 7.6C8.7 5.774 10.174 4.3 12 4.3ZM12 19.92C9.25 19.92 6.819 18.512 5.4 16.378C5.433 14.189 9.8 12.99 12 12.99C14.189 12.99 18.567 14.189 18.6 16.378C17.181 18.512 14.75 19.92 12 19.92Z" fill="#333333"/>
</svg>
