<svg width="70" height="78" viewBox="0 0 70 78" fill="none" xmlns="http://www.w3.org/2000/svg">
<g filter="url(#filter0_d_3531_55473)">
<path d="M50.2821 45.0983C50.3147 44.707 50.3365 44.3266 50.3365 43.9354C50.3365 42.2833 50.0975 40.6857 49.6413 39.1641C51.4118 35.2405 51.7268 30.8605 50.4559 26.7196L49.1416 22.4374C48.5007 20.3506 47.143 18.5682 45.2964 17.4161C44.1124 16.677 42.7112 16.4488 41.3534 16.7749C39.9957 17.1118 38.8551 17.9595 38.1491 19.1659C37.052 21.0353 36.4763 23.1656 36.4763 25.3284V30.5236C35.9441 30.5453 35.401 30.5671 34.8579 30.5671C34.3691 30.5671 33.8911 30.5453 33.4132 30.5236V25.3393C33.4132 23.1764 32.8375 21.0462 31.7404 19.1768C31.0344 17.9704 29.8938 17.1227 28.5361 16.7857C27.1783 16.4488 25.7771 16.677 24.5931 17.427C22.7466 18.5899 21.3888 20.3723 20.7479 22.4482L19.4336 26.7305C18.1953 30.7953 18.4669 35.0992 20.1614 38.9684C19.6508 40.5552 19.3793 42.2399 19.3793 43.9462C19.3793 44.5223 19.4119 45.0874 19.4662 45.6417C18.2605 48.6958 18.1736 52.4346 19.2598 56.3146C19.8246 58.3362 21.5952 59.8904 23.659 60.1947C24.7561 60.3577 25.788 60.1404 26.6461 59.597C29.1987 60.3686 32.251 60.5534 35.2706 60.5534C38.1165 60.5534 40.995 60.3686 43.4173 59.6404C44.069 60.0317 44.8185 60.2491 45.6223 60.2491C45.8612 60.2491 46.1002 60.2273 46.3392 60.1947C48.403 59.8904 50.1735 58.3253 50.7383 56.3146C51.8897 52.2063 51.7051 48.2611 50.2821 45.1092V45.0983Z" stroke="white" stroke-width="5" stroke-linecap="round" stroke-linejoin="round" shape-rendering="crispEdges"/>
</g>
<path d="M20.9365 39.6391C18.9384 35.6731 18.5474 31.0986 19.8506 26.8609L21.1646 22.5798C21.7727 20.6022 23.065 18.9072 24.8133 17.8097C27.0504 16.408 30.0041 17.1252 31.3398 19.407C32.3932 21.2107 32.9579 23.2535 32.9579 25.3397V33.6955L20.9474 39.65L20.9365 39.6391Z" fill="#2E3234"/>
<path d="M21.8823 36.0975C21.8823 36.0975 20.3511 34.6958 21.1873 30.1322C22.0343 25.5794 24.7166 20.2552 27.3011 20.7767C29.8857 21.2983 31.6123 24.1125 31.2214 30.795C30.8304 37.4775 21.8823 36.0866 21.8823 36.0866V36.0975Z" fill="#A5999A"/>
<path d="M48.9325 39.6391C50.9306 35.6731 51.3216 31.0986 50.0184 26.8609L48.7045 22.5798C48.0963 20.6022 46.8041 18.9072 45.0557 17.8097C42.8187 16.408 39.8649 17.1252 38.5292 19.407C37.4758 21.2107 36.9111 23.2535 36.9111 25.3397V33.6955L48.9217 39.65L48.9325 39.6391Z" fill="#2E3234"/>
<path d="M48.0749 36.0975C48.0749 36.0975 49.6061 34.6958 48.7699 30.1322C47.9229 25.5794 45.2406 20.2552 42.6561 20.7767C40.0715 21.2983 38.3449 24.1125 38.7358 30.795C39.1268 37.4775 48.0749 36.0866 48.0749 36.0866V36.0975Z" fill="#A5999A"/>
<path d="M23.7826 36.6736C22.6858 36.6736 21.9039 36.5541 21.817 36.5432L21.6867 36.5215L21.589 36.4345C21.5238 36.3694 19.884 34.8047 20.7636 30.0563C21.4043 26.5901 23.1962 22.309 25.3789 20.8312C26.063 20.3749 26.7363 20.2119 27.3987 20.3423C30.6023 20.9942 32.0466 24.5256 31.6773 30.8278C31.5688 32.5989 30.8955 33.9897 29.6684 34.9894C27.9309 36.3911 25.4875 36.6736 23.7826 36.6736ZM22.1211 35.6739C22.9572 35.7717 26.8449 36.1194 29.1037 34.294C30.1245 33.4682 30.6891 32.2838 30.776 30.7843C31.0041 26.8074 30.5805 21.9178 27.2141 21.2333C26.8015 21.1464 26.3454 21.2659 25.8676 21.5919C24.1518 22.7545 22.3274 26.4706 21.6324 30.2302C20.97 33.805 21.8387 35.3154 22.1102 35.6848L22.1211 35.6739Z" fill="#231916"/>
<path d="M46.1749 36.6736C44.4699 36.6736 42.0157 36.3911 40.2891 34.9894C39.062 34.0006 38.3887 32.5989 38.2801 30.8278C37.9108 24.5256 39.3552 20.9942 42.5587 20.3423C43.2211 20.2119 43.9053 20.3749 44.5785 20.8312C46.7613 22.309 48.5531 26.5901 49.1938 30.0563C50.0734 34.8047 48.4336 36.3694 48.3685 36.4345L48.2707 36.5215L48.1404 36.5432C48.0644 36.5541 47.2717 36.6736 46.1749 36.6736ZM43.0039 21.2007C42.917 21.2007 42.8302 21.2007 42.7433 21.2224C39.3769 21.907 38.9534 26.7966 39.1814 30.7735C39.2683 32.2729 39.833 33.4573 40.8538 34.2831C43.1234 36.1194 47.011 35.7717 47.8364 35.6631C48.1078 35.2936 48.9766 33.7833 48.3142 30.2084C47.6192 26.438 45.7948 22.7328 44.079 21.5701C43.6989 21.3202 43.3406 21.1898 43.0039 21.1898V21.2007Z" fill="#231916"/>
<path d="M20.7416 40.237L20.5352 39.835C18.4828 35.7494 18.081 31.088 19.4167 26.72L20.7307 22.4388C21.3714 20.3526 22.7289 18.5706 24.575 17.4188C25.7586 16.68 27.1595 16.4518 28.5169 16.7777C29.8744 17.1146 31.0146 17.9621 31.7205 19.1682C32.8173 21.0371 33.3928 23.1668 33.3928 25.3291V33.9675L20.7307 40.2479L20.7416 40.237ZM27.2898 17.5275C26.5079 17.5275 25.7369 17.7448 25.0528 18.1794C23.3913 19.2226 22.1642 20.8307 21.5886 22.6996L20.2746 26.9807C19.0475 30.9902 19.3624 35.2496 21.1434 39.0309L32.5023 33.4024V25.3291C32.5023 23.319 31.9702 21.3523 30.9494 19.6246C30.363 18.6249 29.4291 17.9295 28.3106 17.6579C27.974 17.571 27.6373 17.5384 27.3007 17.5384L27.2898 17.5275Z" fill="#231916"/>
<path d="M49.1289 40.2372L36.4668 33.9567V25.3184C36.4668 23.1561 37.0424 21.0264 38.1392 19.1575C38.845 17.9514 39.9853 17.1039 41.3427 16.767C42.7001 16.4302 44.101 16.6584 45.2846 17.4081C47.1307 18.5707 48.4882 20.3527 49.1289 22.4281L50.4429 26.7092C51.7786 31.0881 51.3876 35.7387 49.3243 39.8242L49.118 40.2263L49.1289 40.2372ZM37.3681 33.4026L48.7271 39.031C50.508 35.2497 50.8121 30.9903 49.5958 26.9809L48.2819 22.6997C47.7063 20.82 46.4792 19.2227 44.8177 18.1796C43.8403 17.5711 42.6892 17.3755 41.5707 17.6471C40.4522 17.9188 39.5074 18.6142 38.9319 19.6138C37.9111 21.3415 37.379 23.3191 37.379 25.3184V33.3917L37.3681 33.4026Z" fill="#231916"/>
<path d="M49.8881 43.9428C49.8881 39.5095 48.0746 35.5109 45.1751 32.6858C42.482 30.0671 38.8549 31.0233 34.8478 31.0233C31.0687 31.0233 27.6263 29.8933 24.9875 32.262C21.8165 35.098 19.8184 39.2813 19.8184 43.9536C19.8184 52.505 26.5512 59.4483 34.8478 59.4483C43.1444 59.4483 49.8773 52.5159 49.8773 43.9536L49.8881 43.9428Z" fill="#6C6F73"/>
<path d="M34.8478 59.8823C26.3123 59.8823 19.3623 52.7325 19.3623 43.9421C19.3623 39.335 21.2953 34.9452 24.6834 31.9137C26.801 30.0121 29.3747 30.2077 32.1004 30.4251C32.9909 30.4902 33.9139 30.5663 34.8478 30.5663C35.7057 30.5663 36.5419 30.5228 37.3672 30.4794C40.3861 30.3164 43.2313 30.1643 45.4901 32.3592C48.6176 35.4016 50.3334 39.5197 50.3334 43.9421C50.3334 52.7325 43.3833 59.8823 34.8478 59.8823ZM29.6027 31.1965C27.9738 31.1965 26.5295 31.479 25.2807 32.5873C22.088 35.4451 20.2636 39.5849 20.2636 43.9421C20.2636 52.2327 26.801 58.9804 34.8478 58.9804C42.8947 58.9804 49.432 52.2327 49.432 43.9421C49.432 39.7588 47.8031 35.8797 44.8602 33.0002C42.8947 31.0879 40.3536 31.2182 37.4107 31.3704C36.5853 31.4138 35.7274 31.4573 34.8478 31.4573C33.8813 31.4573 32.9366 31.3812 32.0352 31.316C31.1882 31.2509 30.3738 31.1857 29.6027 31.1857V31.1965Z" fill="#231916"/>
<path d="M49.2039 51.1463V51.1246C49.2039 51.0594 49.2039 50.9942 49.2039 50.9181C49.2039 50.8855 49.2039 50.8529 49.2039 50.8203C49.2039 50.7769 49.2039 50.7334 49.2039 50.6899C49.2039 50.6573 49.2039 50.6139 49.2039 50.5813C49.2039 50.5378 49.2039 50.5052 49.2039 50.4617C49.2039 50.4291 49.2039 50.3857 49.2039 50.3531C49.2039 50.3205 49.204 50.277 49.1931 50.2444C49.1931 50.201 49.1931 50.1684 49.1822 50.1249C49.1822 50.0923 49.1822 50.0488 49.1714 50.0162C49.1714 49.9728 49.1714 49.9402 49.1605 49.8967C49.1605 49.8641 49.1605 49.8315 49.1497 49.7989C49.1497 49.7555 49.1388 49.7229 49.1279 49.6794C49.1279 49.6468 49.1279 49.6142 49.1171 49.5816C49.1171 49.5382 49.1062 49.5056 49.0954 49.4621C49.0954 49.4295 49.0845 49.3969 49.0736 49.3643C49.0736 49.3208 49.0628 49.2774 49.0519 49.2448C49.0519 49.2122 49.0411 49.1796 49.0302 49.1578C49.0302 49.1144 49.0085 49.0709 48.9976 49.0275C48.9976 48.9949 48.9868 48.9731 48.9759 48.9405C48.9759 48.8971 48.9542 48.8536 48.9433 48.8101C48.9433 48.7884 48.9325 48.7558 48.9216 48.7341C48.9108 48.6906 48.8999 48.6472 48.889 48.6037C48.889 48.582 48.8782 48.5494 48.8673 48.5276C48.8565 48.4842 48.8456 48.4407 48.8239 48.3972C48.8239 48.3755 48.813 48.3538 48.8022 48.332C48.7913 48.2886 48.7696 48.2343 48.7587 48.1908C48.7587 48.1691 48.7479 48.1582 48.737 48.1365C48.7153 48.0821 48.7044 48.0387 48.6827 47.9843C48.6827 47.9735 48.6827 47.9626 48.6718 47.9517C48.6501 47.8974 48.6284 47.8431 48.6175 47.7888C48.4221 47.2672 48.194 46.7782 47.9334 46.3219C47.9008 46.2675 47.8682 46.2132 47.8357 46.1589C47.8031 46.1046 47.7705 46.0502 47.7379 45.9959C47.7054 45.9416 47.6728 45.8872 47.6293 45.8329C47.5968 45.7786 47.5533 45.7243 47.5208 45.6699C46.1633 43.7141 44.1326 42.4211 41.8304 42.2581C41.6675 42.2472 41.4938 42.2363 41.3309 42.2363C38.7789 42.2363 36.5202 43.6272 35.065 45.7786C33.6098 43.6272 31.3402 42.2363 28.7991 42.2363C28.419 42.2363 28.0389 42.2689 27.6697 42.3233C25.4218 42.6927 23.478 44.1487 22.2509 46.2241C22.2183 46.2784 22.1966 46.3219 22.164 46.3762C22.164 46.3762 22.164 46.3871 22.1531 46.3979C22.1206 46.4414 22.0988 46.4957 22.0663 46.5501C22.0663 46.5501 22.0663 46.5718 22.0554 46.5718C22.0337 46.6153 22.0011 46.6696 21.9794 46.7239C21.9794 46.7239 21.9794 46.7456 21.9685 46.7456C21.9468 46.8 21.9142 46.8434 21.8925 46.8978C21.8925 46.8978 21.8925 46.9086 21.8925 46.9195C21.7622 47.1911 21.6319 47.4737 21.5233 47.767C21.5233 47.7779 21.5124 47.7996 21.5016 47.8105C21.4798 47.854 21.469 47.8974 21.4581 47.9409C21.4581 47.9626 21.4473 47.9843 21.4364 48.0061C21.4256 48.0495 21.4038 48.093 21.393 48.1365C21.393 48.1582 21.3821 48.1799 21.3713 48.2017C21.3604 48.2451 21.3495 48.2886 21.3278 48.332C21.3278 48.3538 21.317 48.3864 21.3061 48.4081C21.2952 48.4516 21.2844 48.495 21.2735 48.5276C21.2735 48.5494 21.2627 48.582 21.2518 48.6037C21.2409 48.6472 21.2301 48.6906 21.2192 48.7341C21.2192 48.7558 21.2084 48.7884 21.1975 48.8101C21.1866 48.8536 21.1758 48.8971 21.1649 48.9405C21.1649 48.9623 21.1541 48.984 21.1432 49.0057C21.1215 49.1035 21.0998 49.1904 21.0781 49.2882C21.0781 49.31 21.0781 49.3208 21.0672 49.3426C21.0672 49.386 21.0563 49.4186 21.0455 49.4621C21.0455 49.4947 21.0346 49.5273 21.0238 49.5599C21.0238 49.5925 21.0129 49.6359 21.002 49.6685C21.002 49.7011 20.9912 49.7337 20.9803 49.7772C20.9803 49.8098 20.9695 49.8533 20.9586 49.8859C20.9586 49.9185 20.9586 49.9619 20.9477 49.9945C20.9477 50.0271 20.9477 50.0706 20.9369 50.1032C20.9369 50.1358 20.9369 50.1792 20.926 50.2118C20.926 50.2444 20.926 50.277 20.9152 50.3205C20.9152 50.364 20.9152 50.3966 20.9043 50.44C20.9043 50.4726 20.9043 50.5052 20.9043 50.5378C20.9043 50.5813 20.9043 50.6247 20.9043 50.6573C20.9043 50.6899 20.9043 50.7225 20.9043 50.7551C20.9043 50.7986 20.9043 50.842 20.9043 50.8964C20.9043 50.929 20.9043 50.9507 20.9043 50.9833C20.9043 51.0485 20.9043 51.1246 20.9043 51.1898C20.9043 51.1898 20.9043 51.2006 20.9043 51.2115C20.9043 51.2875 20.9043 51.3745 20.9043 51.4505C20.9043 51.5375 20.9043 51.6244 20.9043 51.7222C20.9043 51.7982 20.9043 51.8743 20.9043 51.9395C21.1866 58.9262 27.7132 60.154 35.3799 60.154C43.0467 60.154 49.0302 58.8067 49.3126 51.9178V51.896C49.3126 51.8308 49.3126 51.7765 49.3126 51.7113C49.3126 51.6244 49.3126 51.5266 49.3126 51.4397C49.3126 51.3636 49.3126 51.2767 49.3126 51.2006L49.2039 51.1463Z" fill="#2E3234"/>
<path d="M35.2607 60.5558C28.0609 60.5558 20.6548 59.5235 20.3398 51.9066V51.874C20.3398 51.8088 20.3398 51.7436 20.3398 51.6784C20.3398 51.5806 20.3398 51.4828 20.3398 51.3959C20.3398 51.3307 20.3398 51.2764 20.3398 51.2112V51.1243C20.3398 51.0482 20.3398 50.983 20.3398 50.9069V50.82C20.3398 50.82 20.3398 50.7222 20.3507 50.6788L20.4593 49.6574L20.5462 49.1575C20.5679 49.0598 20.5896 48.962 20.6113 48.8642L20.633 48.7881C20.633 48.7881 20.6548 48.7012 20.6656 48.6577L20.8068 48.1579C20.8068 48.1579 20.8394 48.071 20.8502 48.0275L20.8719 47.9514C20.8719 47.9514 20.9045 47.8645 20.9154 47.8211L20.9371 47.7559C20.9371 47.7559 20.9697 47.6581 20.9914 47.6146L21.0131 47.5711C21.1217 47.2669 21.252 46.9735 21.3932 46.6801V46.6584C21.3932 46.6584 21.4584 46.5498 21.4801 46.4954V46.4737C21.4801 46.4737 21.5452 46.365 21.5778 46.3216V46.2998C21.5778 46.2998 21.6538 46.1912 21.6755 46.1477V46.126C21.6755 46.126 21.7516 46.0173 21.7841 45.963C23.0655 43.8007 25.0637 42.323 27.3007 41.8883L27.5288 41.8449C27.9306 41.7797 28.3324 41.7471 28.7233 41.7471C31.145 41.7471 33.4037 42.9097 34.9892 44.9742C36.5855 42.9206 38.8334 41.7471 41.2551 41.7471C41.4288 41.7471 41.6026 41.7471 41.7872 41.7688H41.9609C44.2523 41.997 46.3807 43.3009 47.8142 45.3762V45.398C47.8142 45.398 47.8902 45.4958 47.9336 45.5501C47.9771 45.6153 48.0096 45.6696 48.0422 45.724C48.0857 45.7891 48.1182 45.8435 48.1508 45.9087C48.1942 45.9739 48.2268 46.0282 48.2594 46.0934C48.5418 46.5824 48.7807 47.1039 48.987 47.6363C49.0087 47.7124 49.0304 47.7559 49.0413 47.8102V47.8428C49.0413 47.8428 49.0956 47.9514 49.1064 48.0058L49.1282 48.0601C49.1282 48.0601 49.1607 48.1579 49.1716 48.2122L49.1933 48.2774C49.1933 48.2774 49.2259 48.3752 49.2368 48.4187L49.4214 49.1684L49.5734 50.092L49.6386 50.9178C49.6386 50.9939 49.6386 51.0591 49.6386 51.1351V51.2329C49.6386 51.2872 49.6386 51.3524 49.6386 51.4068C49.6386 51.5046 49.6386 51.6024 49.6386 51.6893C49.6386 51.7545 49.6386 51.8197 49.6386 51.8849V51.9066C49.3236 59.5453 42.189 60.5666 35.2607 60.5666V60.5558ZM21.8819 46.7127L22.2837 46.9192C22.2837 46.9192 22.2402 47.017 22.2076 47.0604V47.0822C22.0773 47.343 21.9579 47.6146 21.8493 47.8863V47.9297C21.8493 47.9297 21.8059 48.0166 21.7841 48.0601L21.7624 48.1144C21.7624 48.1144 21.7298 48.2014 21.719 48.234L21.4801 49.0598C21.4584 49.1467 21.4366 49.2445 21.4149 49.3314L21.2846 50.1029L21.2086 50.9395C21.2086 51.0047 21.2086 51.0699 21.2086 51.1351V51.2112C21.2086 51.2655 21.2086 51.3198 21.2086 51.3742C21.2086 51.4611 21.2086 51.548 21.2086 51.635C21.2086 51.7001 21.2086 51.7653 21.2086 51.8305V51.8631C21.4909 58.7086 28.1152 59.6431 35.2281 59.6431C44.5781 59.6431 48.4766 57.383 48.7047 51.8523V51.8305H48.7915H49.1499L48.7047 51.8088C48.7047 51.7545 48.7047 51.6893 48.7047 51.635C48.7047 51.548 48.7047 51.4611 48.7047 51.3742C48.7047 51.3198 48.7047 51.2655 48.7047 51.2112V51.146H49.1499H48.7047C48.7047 51.0699 48.7047 51.0047 48.7047 50.9395L48.6178 49.9725L48.4875 49.2445L48.3354 48.6469C48.3354 48.6469 48.3137 48.5599 48.3029 48.5165L48.2811 48.4513C48.2811 48.4513 48.2485 48.3643 48.2377 48.3209L48.216 48.2666C48.216 48.2666 48.1834 48.1688 48.1725 48.1253V48.0927C48.1725 48.0927 48.1182 47.9949 48.1074 47.9406C47.9228 47.4516 47.7056 46.9735 47.4558 46.5389C47.4232 46.4846 47.3907 46.4302 47.3581 46.3759C47.3255 46.3107 47.2929 46.2672 47.2603 46.2129C47.2278 46.1586 47.1843 46.1043 47.1517 46.0499C47.1192 45.9956 47.0757 45.9413 47.0432 45.8869C45.7183 43.9854 43.7636 42.8119 41.6895 42.6598H41.6026C41.4723 42.6489 41.342 42.6381 41.2225 42.6381C38.9095 42.6381 36.7593 43.855 35.3258 45.9847L34.9566 46.5389L34.5874 45.9847C33.154 43.855 31.0038 42.6381 28.6907 42.6381C28.3649 42.6381 28.0392 42.6598 27.7134 42.7141H27.6374C25.5849 43.0618 23.7171 44.4092 22.5226 46.4085C22.49 46.4628 22.4683 46.5063 22.4357 46.5606L22.0339 46.3542L22.4249 46.5715C22.4249 46.5715 22.3705 46.6693 22.3488 46.7127V46.7345C22.3488 46.7345 22.2837 46.8214 22.2619 46.8757L21.8493 46.691L21.8819 46.7127Z" fill="#231916"/>
<path d="M27.3009 39.7154C28.3565 39.7154 29.2122 38.8592 29.2122 37.803C29.2122 36.7468 28.3565 35.8906 27.3009 35.8906C26.2453 35.8906 25.3896 36.7468 25.3896 37.803C25.3896 38.8592 26.2453 39.7154 27.3009 39.7154Z" fill="black"/>
<path d="M42.3956 39.7154C43.4512 39.7154 44.3069 38.8592 44.3069 37.803C44.3069 36.7468 43.4512 35.8906 42.3956 35.8906C41.3401 35.8906 40.4844 36.7468 40.4844 37.803C40.4844 38.8592 41.3401 39.7154 42.3956 39.7154Z" fill="black"/>
<path d="M34.9782 50.6358C36.3465 50.6358 37.5519 49.5057 38.236 47.7998C38.236 47.7998 37.6062 48.6039 37.1175 48.6039C36.6288 48.6039 34.8913 47.7998 34.8913 47.7998C34.8913 47.7998 33.295 48.5604 32.8497 48.5604C32.4045 48.5604 31.7529 48.1149 31.7529 48.1149C31.905 48.4844 32.0353 48.5061 32.2307 48.8212C32.9366 49.9404 33.9031 50.6358 34.9782 50.6358Z" fill="#CF7A8D"/>
<path d="M34.9894 37.8027C20.0686 37.8027 17.332 47.7993 19.6885 56.1877C20.6876 59.7408 25.5309 61.3163 27.7136 57.8936C29.6032 54.9164 28.8539 48.1253 34.8591 48.1253C40.8644 48.1253 40.3866 54.9164 42.287 57.8936C44.4589 61.3055 49.313 59.7299 50.3121 56.1877C52.6686 47.8101 49.932 37.8027 35.0112 37.8027H34.9894Z" fill="#6C6F73"/>
<path d="M45.6205 60.2409C44.1002 60.2409 42.7753 59.5021 41.9066 58.133C41.3202 57.2094 40.9618 55.9924 40.5818 54.7102C39.6913 51.7004 38.7791 48.5819 34.8588 48.5819C30.9386 48.5819 30.1893 51.6352 29.3965 54.5907C29.0382 55.9272 28.7015 57.1876 28.0934 58.133C27.0943 59.7085 25.4763 60.4583 23.6628 60.1866C21.5995 59.8824 19.8294 58.3177 19.2647 56.3075C17.8095 51.1463 18.4502 46.2349 21.0239 42.8339C23.7822 39.1939 28.4844 37.3467 35 37.3467C41.5157 37.3467 46.2178 39.1939 48.9761 42.8339C51.5498 46.2349 52.1905 51.1354 50.7353 56.3075C50.1706 58.3286 48.4005 59.8824 46.3372 60.1866C46.0983 60.2192 45.8594 60.2409 45.6205 60.2409ZM35 38.2485C28.7776 38.2485 24.3143 39.9762 21.7406 43.3772C19.3407 46.55 18.7543 51.168 20.1335 56.0576C20.6113 57.7418 22.0773 59.0348 23.7931 59.2956C25.2374 59.5129 26.5296 58.9044 27.3332 57.644C27.8654 56.8073 28.1803 55.6121 28.5169 54.3517C29.3097 51.3744 30.2979 47.6692 34.848 47.6692C39.3981 47.6692 40.5383 51.4288 41.4288 54.4386C41.7871 55.6664 42.1346 56.8182 42.645 57.6331C43.4486 58.8936 44.7409 59.4912 46.1852 59.2847C47.901 59.0348 49.3779 57.7309 49.8448 56.0467C51.224 51.1571 50.6267 46.5392 48.2376 43.3663C45.6639 39.9653 41.2007 38.2377 34.9783 38.2377L35 38.2485Z" fill="#231916"/>
<path d="M34.5758 47.81C35.7921 46.9842 37.4319 46.354 38.192 45.2674C39.9404 42.7574 38.0943 41.4318 37.0083 40.845C36.0419 40.3235 34.3261 40.8667 33.9786 42.4858C33.6311 44.1048 35.2708 43.2681 35.6509 42.3228C36.0419 41.3774 35.9441 40.1387 34.9776 40.0192C34.0112 39.8997 32.2302 40.1496 31.7198 42.0511C31.2746 43.7353 31.5461 46.1258 33.4139 47.3428L34.5541 47.81H34.5758Z" fill="#EE7C2C"/>
<path d="M34.0007 47.9628C33.5446 47.6151 31.3944 45.9526 31.0578 44.0294C30.7863 42.4538 31.2641 41.0304 32.3935 40.1394C33.36 39.3679 34.6088 39.1615 35.6513 39.5961C36.14 39.8026 36.4875 40.0525 36.7372 40.3241C37.1608 40.3676 37.5843 40.5197 37.9861 40.7914C39.3652 41.6824 39.5281 43.2036 39.2458 44.2358C38.8765 45.6049 37.5843 46.6915 37.1065 47.1044L37.0196 47.1805C36.759 47.3978 36.1943 47.8107 35.6079 48.191C35.2278 48.4409 34.7391 48.4626 34.359 48.2236C34.2396 48.1475 34.1201 48.0715 34.0007 47.9845V47.9628ZM34.5219 40.4111C34.0115 40.4111 33.4794 40.5958 33.0342 40.9544C32.2197 41.6063 31.8614 42.6712 32.0786 43.8555C32.3826 45.5941 33.74 46.572 35.0214 47.4086C35.5861 47.0392 36.0748 46.6263 36.3463 46.3873L36.4332 46.3221C36.8567 45.9635 37.9644 45.029 38.2467 43.9751C38.4313 43.2796 38.3336 42.2583 37.4214 41.6715C37.3997 41.6498 37.3671 41.6389 37.3454 41.628C37.4105 42.2583 37.2151 42.9211 36.7698 43.497C35.9554 44.5618 34.9346 44.5618 34.2939 44.0837C34.0007 43.8773 33.8269 43.5187 33.7943 43.084C33.74 42.4212 34.0115 41.7258 34.5545 41.1825C34.7934 40.9435 35.054 40.7479 35.3255 40.6066C35.3038 40.6066 35.2821 40.5849 35.2604 40.574C35.0323 40.4763 34.7825 40.4328 34.5328 40.4328L34.5219 40.4111ZM36.216 41.3564C35.8902 41.4107 35.5753 41.5846 35.2929 41.878C34.8151 42.3669 34.8151 42.8341 34.826 42.9645C34.8368 43.1384 34.8911 43.2144 34.9129 43.2253C35.3364 43.5296 35.749 43.1167 35.9554 42.845C36.2703 42.4321 36.3897 41.9649 36.292 41.5628C36.2703 41.4976 36.2486 41.4325 36.216 41.3673V41.3564Z" fill="#231F20"/>
<defs>
<filter id="filter0_d_3531_55473" x="12" y="12.1299" width="45.9902" height="56.9238" filterUnits="userSpaceOnUse" color-interpolation-filters="sRGB">
<feFlood flood-opacity="0" result="BackgroundImageFix"/>
<feColorMatrix in="SourceAlpha" type="matrix" values="0 0 0 0 0 0 0 0 0 0 0 0 0 0 0 0 0 0 127 0" result="hardAlpha"/>
<feOffset dy="2"/>
<feGaussianBlur stdDeviation="2"/>
<feComposite in2="hardAlpha" operator="out"/>
<feColorMatrix type="matrix" values="0 0 0 0 0 0 0 0 0 0 0 0 0 0 0 0 0 0 0.2 0"/>
<feBlend mode="normal" in2="BackgroundImageFix" result="effect1_dropShadow_3531_55473"/>
<feBlend mode="normal" in="SourceGraphic" in2="effect1_dropShadow_3531_55473" result="shape"/>
</filter>
</defs>
</svg>
