<svg width="24" height="24" viewBox="0 0 24 24" fill="none" xmlns="http://www.w3.org/2000/svg">
<path fill-rule="evenodd" clip-rule="evenodd" d="M7.80054 6.6001V5.19998C7.80054 3.6995 8.60102 2.31294 9.90054 1.56262C11.2001 0.81246 12.801 0.81246 14.1006 1.56262C15.4001 2.31294 16.2006 3.6995 16.2006 5.19998V6.6001H19.0566C19.9652 6.6001 20.837 6.95901 21.482 7.59886C22.1272 8.2387 22.4933 9.10762 22.5007 10.0161V18.5001C22.5157 19.4232 22.1594 20.3137 21.5119 20.9716C20.8644 21.6296 19.9798 22.0002 19.0566 22.0001H4.94454C4.02126 22.0002 3.13674 21.6296 2.48922 20.9716C1.8417 20.3137 1.48546 19.4232 1.50046 18.5001V10.0161C1.5078 9.10762 1.87389 8.2387 2.51906 7.59886C3.16406 6.95902 4.03594 6.6001 4.94454 6.6001H7.80054ZM14.8006 6.59998H9.20054V5.19998C9.20054 4.19966 9.7343 3.2753 10.6005 2.77514C11.4668 2.27498 12.5343 2.27498 13.4005 2.77514C14.2668 3.2753 14.8006 4.19966 14.8006 5.19998V6.59998ZM3.5089 8.58882C3.89142 8.21147 4.40718 8.00006 4.94454 8.00006H19.0566C19.5939 8.00006 20.1097 8.21146 20.4922 8.58882C20.8747 8.96618 21.0933 9.47882 21.1006 10.016V18.5C21.1158 19.0517 20.9071 19.5861 20.5222 19.9817C20.1372 20.3772 19.6086 20.6002 19.0566 20.6H4.94454C4.3925 20.6002 3.8639 20.3772 3.4789 19.9817C3.09405 19.5861 2.8853 19.0517 2.90046 18.5V10.016C2.90782 9.47882 3.12638 8.96617 3.5089 8.58882ZM12.7006 11.472C12.7006 11.1585 12.3871 10.772 12.0005 10.772C11.614 10.772 11.3005 11.0854 11.3005 11.472V13.572H9.20049C8.81392 13.572 8.50049 13.8855 8.50049 14.272C8.50049 14.5855 8.81392 14.972 9.20049 14.972H11.3005V17.072C11.3005 17.3854 11.614 17.772 12.0005 17.772C12.3871 17.772 12.7006 17.4586 12.7006 17.072V14.972H14.8005C15.1871 14.972 15.5005 14.6586 15.5005 14.272C15.5005 13.9586 15.1871 13.572 14.8005 13.572H12.7006V11.472Z" fill="#333333"/>
</svg>
