<svg width="80" height="90" viewBox="0 0 80 90" fill="none" xmlns="http://www.w3.org/2000/svg">
<g filter="url(#filter0_d_3490_54214)">
<path d="M36.9732 13.3738C23.5574 13.3738 12.686 24.267 12.686 37.7097C12.686 43.8249 14.9457 49.4052 18.6644 53.6841L18.7623 53.791C19.1537 54.2368 19.5541 54.6646 19.9811 55.0836L34.758 70.7371C35.9679 72.0207 37.9963 72.0207 39.2062 70.7371L53.992 55.0836C54.4101 54.6736 54.8105 54.2457 55.193 53.8089L55.2998 53.7019H55.2909C59.0096 49.4231 61.2693 43.8427 61.2693 37.7275C61.2693 24.2938 50.3979 13.3916 36.9821 13.3916L36.9732 13.3738Z" fill="white"/>
</g>
<path opacity="0.2" d="M36.973 57.0805C47.6497 57.0805 56.3049 48.4079 56.3049 37.7098C56.3049 27.0117 47.6497 18.3391 36.973 18.3391C26.2963 18.3391 17.6411 27.0117 17.6411 37.7098C17.6411 48.4079 26.2963 57.0805 36.973 57.0805Z" fill="#E5E7EB"/>
<path d="M43.539 46.1516C43.1298 46.1516 42.7561 45.8663 42.6583 45.4474L37.614 25.4616C37.4983 24.9713 37.8008 24.481 38.2901 24.3741C38.7794 24.2582 39.2687 24.5613 39.3755 25.0515L44.4197 45.0373C44.5354 45.5276 44.2329 46.0179 43.7436 46.1249C43.6724 46.1427 43.6013 46.1516 43.539 46.1516Z" fill="#E5E7EB"/>
<path d="M46.0563 48.6208C44.197 48.6208 42.6846 47.1054 42.6846 45.2423C42.6846 43.3792 44.197 41.8638 46.0563 41.8638C47.9157 41.8638 49.428 43.3792 49.428 45.2423C49.428 47.1054 47.9157 48.6208 46.0563 48.6208ZM46.0563 43.6912C45.2023 43.6912 44.4994 44.3865 44.4994 45.2512C44.4994 46.1159 45.1934 46.8112 46.0563 46.8112C46.9193 46.8112 47.6132 46.1159 47.6132 45.2512C47.6132 44.3865 46.9193 43.6912 46.0563 43.6912Z" fill="#E5E7EB"/>
<path d="M48.1738 51.0634C45.5138 51.0634 43.8946 50.3681 42.9605 46.9361C42.9249 46.8024 42.8627 46.4815 42.7559 45.9823C42.7114 45.7416 42.6669 45.5277 42.6492 45.4474C42.5335 44.9571 42.8449 44.4669 43.3342 44.3599C43.8235 44.244 44.3128 44.556 44.4195 45.0463C44.4373 45.1354 44.4907 45.3761 44.5441 45.6346C44.5975 45.911 44.6953 46.3745 44.7131 46.4726C45.3714 48.9151 46.1187 49.2716 48.3162 49.2538H48.3251C48.8233 49.2538 49.2236 49.655 49.2325 50.1542C49.2325 50.6534 48.8321 51.0723 48.3339 51.0723C48.2806 51.0723 48.2272 51.0723 48.1738 51.0723V51.0634Z" fill="#E5E7EB"/>
<path d="M40.7096 46.1516C40.6384 46.1516 40.5761 46.1516 40.505 46.1249C40.0157 46.009 39.7132 45.5187 39.8288 45.0373L44.8731 25.0515C44.9887 24.5613 45.4781 24.2582 45.9585 24.3741C46.4478 24.4899 46.7502 24.9802 46.6346 25.4616L41.5903 45.4474C41.4925 45.8663 41.1188 46.1516 40.7096 46.1516Z" fill="#E5E7EB"/>
<path d="M38.192 48.6208C36.3327 48.6208 34.8203 47.1054 34.8203 45.2423C34.8203 43.3792 36.3327 41.8638 38.192 41.8638C40.0514 41.8638 41.5638 43.3792 41.5638 45.2423C41.5638 47.1054 40.0514 48.6208 38.192 48.6208ZM38.192 43.6912C37.338 43.6912 36.6352 44.3865 36.6352 45.2512C36.6352 46.1159 37.3291 46.8112 38.192 46.8112C39.055 46.8112 39.7489 46.1159 39.7489 45.2512C39.7489 44.3865 39.055 43.6912 38.192 43.6912Z" fill="#E5E7EB"/>
<path d="M30.4877 24.3474H28.317C26.1462 24.3474 25.7904 26.3085 26.1462 28.6887C26.5288 31.2025 27.2316 38.1556 27.2316 40.3307C27.2316 42.5058 26.1729 44.5026 26.1729 46.4013C26.1729 48.3 26.5822 50.7425 28.6372 50.7425C30.6923 50.7425 31.3506 49.3163 31.3506 46.4013C31.3506 44.77 30.4788 39.7156 30.4788 39.7156H33.9128C34.411 39.7156 34.8113 39.3145 34.8113 38.8153C34.8113 38.3161 34.411 37.9149 33.9128 37.9149H30.4788V37.0146H33.9128C34.411 37.0146 34.8113 36.6134 34.8113 36.1142C34.8113 35.615 34.411 35.2139 33.9128 35.2139H30.4788V34.3136H33.9128C34.411 34.3136 34.8113 33.9124 34.8113 33.4132C34.8113 32.914 34.411 32.5129 33.9128 32.5129H30.4788V31.6125H33.9128C34.411 31.6125 34.8113 31.2114 34.8113 30.7122C34.8113 30.213 34.411 29.8119 33.9128 29.8119H30.4788V28.9115H33.9128C34.411 28.9115 34.8113 28.5104 34.8113 28.0112C34.8113 27.512 34.411 27.1108 33.9128 27.1108H30.4788V26.2105H33.9128C34.411 26.2105 34.8113 25.8094 34.8113 25.3102C34.8113 24.811 34.411 24.4098 33.9128 24.4098H30.4788L30.4877 24.3474Z" fill="#E5E7EB"/>
<defs>
<filter id="filter0_d_3490_54214" x="4.17603" y="4.86378" width="71.263" height="81.0059" filterUnits="userSpaceOnUse" color-interpolation-filters="sRGB">
<feFlood flood-opacity="0" result="BackgroundImageFix"/>
<feColorMatrix in="SourceAlpha" type="matrix" values="0 0 0 0 0 0 0 0 0 0 0 0 0 0 0 0 0 0 127 0" result="hardAlpha"/>
<feOffset dx="2.83" dy="2.83"/>
<feGaussianBlur stdDeviation="5.67"/>
<feColorMatrix type="matrix" values="0 0 0 0 0 0 0 0 0 0 0 0 0 0 0 0 0 0 0.15 0"/>
<feBlend mode="normal" in2="BackgroundImageFix" result="effect1_dropShadow_3490_54214"/>
<feBlend mode="normal" in="SourceGraphic" in2="effect1_dropShadow_3490_54214" result="shape"/>
</filter>
</defs>
</svg>
