<svg width="375" height="375" viewBox="0 0 375 375" fill="none" xmlns="http://www.w3.org/2000/svg">
<g clip-path="url(#clip0_8482_189963)">
<rect width="375" height="375" fill="white"/>
<rect width="375" height="375" fill="#F1F2F5"/>
<path d="M154.772 102.331C141.604 108.45 130.478 115.741 121.674 124.037C110.009 135.029 102.468 147.751 99.255 161.831C96.9333 171.987 97.862 180.84 101.8 186.178C104.92 189.768 108.821 191.758 112.814 191.758H112.907C115.321 191.758 117.866 191.312 120.448 190.456C125.89 188.689 131.314 185.211 136.589 180.096C152.971 164.324 166.214 134.75 173.941 96.8069L174.368 94.668L173.904 94.8168C167.291 96.9929 160.883 99.5039 154.865 102.257L154.791 102.294L154.772 102.331Z" fill="white"/>
<path d="M264.051 148.645C263.605 147.808 263.196 146.952 262.806 146.097C262.23 144.795 261.729 143.474 261.283 142.116C260.949 140.758 260.652 139.401 260.392 138.024C260.132 136.648 259.89 135.272 259.667 133.895C259.63 132.556 259.519 131.217 259.351 129.878C259.184 128.538 258.943 127.218 258.646 125.879C256.25 113.045 248.3 104.601 238.047 98.7418C234.63 96.7889 230.952 95.1335 227.126 93.7013C223.039 92.4924 218.6 91.488 213.938 90.7626C210.168 90.2418 206.23 90 202.199 90C201.977 90 201.772 90 201.549 90C197.129 90.093 192.43 90.5208 187.619 91.3392C187.08 91.4136 186.542 91.488 186.003 91.581L184.498 99.0022C174.041 150.356 156.749 175.689 144.063 187.909C142.354 189.582 140.608 191.089 138.844 192.484C145.14 206.843 156.489 217.631 170.345 224.141C171.664 224.773 173.02 225.35 174.394 225.889C179.186 227.526 183.997 228.716 188.863 229.553C190.071 229.758 191.297 229.944 192.504 230.111C197.166 230.985 201.847 231.394 206.527 231.394C212.322 231.394 218.08 230.762 223.671 229.628C225.12 229.33 226.55 228.995 227.999 228.642C237.657 225.908 247.111 223.211 254.801 217.91C255.488 217.408 256.082 216.943 256.602 216.515C261.952 212.404 266.001 206.992 269.66 201.579C270.533 200.277 271.35 198.957 272.112 197.599C281.157 181.324 280.749 161.609 264.032 148.682L264.051 148.645Z" fill="white"/>
<path d="M238.922 203.328C228.892 203.328 222.726 197.952 222.466 197.711C220.887 196.316 220.738 193.898 222.15 192.317C223.543 190.736 225.958 190.587 227.536 192C227.685 192.131 231.901 195.683 238.922 195.683C245.943 195.683 250.159 192.131 250.327 191.982C251.924 190.624 254.32 190.773 255.713 192.354C257.088 193.935 256.958 196.316 255.379 197.711C255.119 197.934 248.952 203.328 238.922 203.328Z" fill="#F1F2F5"/>
<path d="M203.371 146.339C207.679 146.339 211.172 142.176 211.172 137.04C211.172 131.903 207.679 127.74 203.371 127.74C199.063 127.74 195.57 131.903 195.57 137.04C195.57 142.176 199.063 146.339 203.371 146.339Z" fill="#F1F2F5"/>
<path d="M246.637 146.339C250.945 146.339 254.438 142.176 254.438 137.04C254.438 131.903 250.945 127.74 246.637 127.74C242.329 127.74 238.836 131.903 238.836 137.04C238.836 142.176 242.329 146.339 246.637 146.339Z" fill="#F1F2F5"/>
<path d="M262.698 178.555L267.342 170.501C269.868 166.13 266.71 160.662 261.677 160.662H252.39C247.357 160.662 244.199 166.13 246.725 170.501L251.369 178.555C253.895 182.926 260.191 182.926 262.698 178.555Z" fill="#F1F2F5"/>
<path d="M218.68 281.373C225.533 266.903 229.62 252.358 230.957 239.022C230.957 239.022 230.957 239.022 230.938 239.022L230.79 239.059L230.641 239.096C229.025 239.505 227.409 239.877 225.831 240.194C219.367 241.514 212.866 242.184 206.532 242.184C201.183 242.184 195.889 241.7 190.8 240.77C189.537 240.603 188.274 240.398 187.03 240.175C181.495 239.208 176.071 237.85 170.926 236.102L170.685 236.027L170.443 235.934C168.883 235.32 167.304 234.632 165.763 233.907C154.915 228.811 145.74 221.613 138.682 212.833C131.847 220.348 125.439 229.052 119.848 238.761C116.95 243.783 114.424 248.842 112.195 253.902C132.534 273.171 159.949 285 190.15 285C199.994 285 209.541 283.735 218.661 281.373H218.68Z" fill="white"/>
</g>
<defs>
<clipPath id="clip0_8482_189963">
<rect width="375" height="375" fill="white"/>
</clipPath>
</defs>
</svg>
