<svg width="100" height="100" viewBox="0 0 100 100" fill="none" xmlns="http://www.w3.org/2000/svg">
<rect width="100" height="100" fill="#F1F2F5"/>
<path d="M65.3165 52.3171L64.0165 51.0171L59.9998 47.0005L52.3498 39.3505L35.9832 22.9838L34.6832 21.6838C34.0332 21.0338 32.9832 21.0338 32.3332 21.6838C31.6665 22.3338 31.6665 23.3838 32.3165 24.0338L34.9998 26.7171V48.6671C34.9998 50.5005 36.4998 52.0005 38.3332 52.0005H60.2832L62.9665 54.6838C63.6165 55.3338 64.6665 55.3338 65.3165 54.6838C65.9665 54.0338 65.9665 52.9671 65.3165 52.3171ZM40.0332 47.0005C39.3332 47.0005 38.9498 46.2005 39.3832 45.6505L43.5332 40.3171C43.8665 39.9005 44.4998 39.8838 44.8332 40.3005L48.3332 44.5171L50.2832 42.0005L55.2832 47.0005H40.0332ZM64.9998 47.2838L39.7165 22.0005H61.6665C63.4998 22.0005 64.9998 23.5005 64.9998 25.3338V47.2838Z" fill="#D4D8E1"/>
<path d="M29.5065 78H27.4545L24.0225 72.792V78H21.9705V69.516H24.0225L27.4545 74.772V69.516H29.5065V78ZM33.8556 71.22C34.5196 71.22 35.1116 71.36 35.6316 71.64C36.1596 71.912 36.5716 72.308 36.8676 72.828C37.1716 73.348 37.3236 73.956 37.3236 74.652C37.3236 75.348 37.1716 75.956 36.8676 76.476C36.5716 76.996 36.1596 77.396 35.6316 77.676C35.1116 77.948 34.5196 78.084 33.8556 78.084C33.1916 78.084 32.5956 77.948 32.0676 77.676C31.5396 77.396 31.1236 76.996 30.8196 76.476C30.5236 75.956 30.3756 75.348 30.3756 74.652C30.3756 73.956 30.5236 73.348 30.8196 72.828C31.1236 72.308 31.5396 71.912 32.0676 71.64C32.5956 71.36 33.1916 71.22 33.8556 71.22ZM33.8556 72.996C33.4636 72.996 33.1316 73.14 32.8596 73.428C32.5956 73.708 32.4636 74.116 32.4636 74.652C32.4636 75.188 32.5956 75.596 32.8596 75.876C33.1316 76.156 33.4636 76.296 33.8556 76.296C34.2476 76.296 34.5756 76.156 34.8396 75.876C35.1036 75.596 35.2356 75.188 35.2356 74.652C35.2356 74.116 35.1036 73.708 34.8396 73.428C34.5756 73.14 34.2476 72.996 33.8556 72.996ZM40.198 69.42C40.198 69.108 40.31 68.852 40.534 68.652C40.758 68.444 41.054 68.34 41.422 68.34C41.79 68.34 42.086 68.444 42.31 68.652C42.534 68.852 42.646 69.108 42.646 69.42C42.646 69.724 42.534 69.98 42.31 70.188C42.086 70.388 41.79 70.488 41.422 70.488C41.054 70.488 40.758 70.388 40.534 70.188C40.31 69.98 40.198 69.724 40.198 69.42ZM42.442 71.304V78H40.39V71.304H42.442ZM52.3348 71.232C53.1588 71.232 53.8068 71.488 54.2788 72C54.7508 72.504 54.9868 73.208 54.9868 74.112V78H52.9468V74.352C52.9468 73.928 52.8308 73.6 52.5988 73.368C52.3748 73.128 52.0668 73.008 51.6748 73.008C51.2668 73.008 50.9428 73.136 50.7028 73.392C50.4708 73.64 50.3548 73.992 50.3548 74.448V78H48.3028V74.352C48.3028 73.928 48.1908 73.6 47.9668 73.368C47.7428 73.128 47.4348 73.008 47.0428 73.008C46.6348 73.008 46.3108 73.132 46.0708 73.38C45.8308 73.628 45.7108 73.984 45.7108 74.448V78H43.6588V71.304H45.7108V72.444C45.8868 72.068 46.1548 71.772 46.5148 71.556C46.8828 71.34 47.3108 71.232 47.7988 71.232C48.3108 71.232 48.7628 71.352 49.1548 71.592C49.5468 71.824 49.8428 72.16 50.0428 72.6C50.2748 72.184 50.5908 71.852 50.9908 71.604C51.3988 71.356 51.8468 71.232 52.3348 71.232ZM58.6942 71.22C59.2062 71.22 59.6462 71.336 60.0142 71.568C60.3822 71.8 60.6542 72.116 60.8302 72.516V71.304H62.8702V78H60.8302V76.788C60.6542 77.188 60.3822 77.504 60.0142 77.736C59.6462 77.968 59.2062 78.084 58.6942 78.084C58.1422 78.084 57.6462 77.948 57.2062 77.676C56.7742 77.396 56.4302 76.996 56.1742 76.476C55.9262 75.956 55.8022 75.348 55.8022 74.652C55.8022 73.948 55.9262 73.34 56.1742 72.828C56.4302 72.308 56.7742 71.912 57.2062 71.64C57.6462 71.36 58.1422 71.22 58.6942 71.22ZM59.3542 73.02C58.9142 73.02 58.5582 73.164 58.2862 73.452C58.0222 73.74 57.8902 74.14 57.8902 74.652C57.8902 75.164 58.0222 75.564 58.2862 75.852C58.5582 76.14 58.9142 76.284 59.3542 76.284C59.7862 76.284 60.1382 76.136 60.4102 75.84C60.6902 75.544 60.8302 75.148 60.8302 74.652C60.8302 74.148 60.6902 73.752 60.4102 73.464C60.1382 73.168 59.7862 73.02 59.3542 73.02ZM66.627 71.22C67.139 71.22 67.579 71.336 67.947 71.568C68.315 71.8 68.587 72.116 68.763 72.516V71.304H70.803V77.964C70.803 78.588 70.683 79.148 70.443 79.644C70.203 80.148 69.835 80.548 69.339 80.844C68.843 81.14 68.227 81.288 67.491 81.288C66.483 81.288 65.675 81.048 65.067 80.568C64.467 80.096 64.107 79.452 63.987 78.636H66.015C66.079 78.908 66.223 79.12 66.447 79.272C66.679 79.424 66.979 79.5 67.347 79.5C67.771 79.5 68.111 79.376 68.367 79.128C68.631 78.888 68.763 78.5 68.763 77.964V76.788C68.587 77.188 68.315 77.504 67.947 77.736C67.579 77.968 67.139 78.084 66.627 78.084C66.075 78.084 65.579 77.948 65.139 77.676C64.707 77.396 64.363 76.996 64.107 76.476C63.859 75.956 63.735 75.348 63.735 74.652C63.735 73.948 63.859 73.34 64.107 72.828C64.363 72.308 64.707 71.912 65.139 71.64C65.579 71.36 66.075 71.22 66.627 71.22ZM67.287 73.02C66.847 73.02 66.491 73.164 66.219 73.452C65.955 73.74 65.823 74.14 65.823 74.652C65.823 75.164 65.955 75.564 66.219 75.852C66.491 76.14 66.847 76.284 67.287 76.284C67.719 76.284 68.071 76.136 68.343 75.84C68.623 75.544 68.763 75.148 68.763 74.652C68.763 74.148 68.623 73.752 68.343 73.464C68.071 73.168 67.719 73.02 67.287 73.02ZM78.3758 74.472C78.3758 74.64 78.3558 74.824 78.3158 75.024H73.6718C73.6958 75.528 73.8238 75.892 74.0558 76.116C74.2878 76.332 74.5838 76.44 74.9438 76.44C75.2478 76.44 75.4998 76.364 75.6998 76.212C75.8998 76.06 76.0318 75.864 76.0958 75.624H78.2678C78.1798 76.096 77.9878 76.52 77.6918 76.896C77.3958 77.264 77.0198 77.556 76.5638 77.772C76.1078 77.98 75.5998 78.084 75.0398 78.084C74.3838 78.084 73.7998 77.948 73.2878 77.676C72.7838 77.396 72.3878 76.996 72.0998 76.476C71.8118 75.956 71.6678 75.348 71.6678 74.652C71.6678 73.948 71.8078 73.34 72.0878 72.828C72.3758 72.308 72.7758 71.912 73.2878 71.64C73.7998 71.36 74.3838 71.22 75.0398 71.22C75.7038 71.22 76.2878 71.356 76.7918 71.628C77.2958 71.9 77.6838 72.284 77.9558 72.78C78.2358 73.268 78.3758 73.832 78.3758 74.472ZM76.2998 74.16C76.3078 73.72 76.1878 73.392 75.9398 73.176C75.6998 72.952 75.3998 72.84 75.0398 72.84C74.6638 72.84 74.3518 72.952 74.1038 73.176C73.8558 73.4 73.7158 73.728 73.6838 74.16H76.2998Z" fill="#D4D8E1"/>
</svg>
