<svg width="80" height="90" viewBox="0 0 80 90" fill="none" xmlns="http://www.w3.org/2000/svg">
<g filter="url(#filter0_d_3490_54170)">
<path d="M37.6309 13.3738C24.2151 13.3738 13.3438 24.267 13.3438 37.7097C13.3438 43.8249 15.6034 49.4052 19.3221 53.6841L19.42 53.791C19.8114 54.2368 20.2118 54.6646 20.6388 55.0836L35.4157 70.7371C36.6256 72.0207 38.654 72.0207 39.8639 70.7371L54.6497 55.0836C55.0678 54.6736 55.4682 54.2457 55.8507 53.8089L55.9575 53.7019H55.9486C59.6673 49.4231 61.927 43.8427 61.927 37.7275C61.927 24.2938 51.0556 13.3916 37.6398 13.3916L37.6309 13.3738Z" fill="white"/>
</g>
<path opacity="0.2" d="M37.6307 57.0805C48.3074 57.0805 56.9626 48.4079 56.9626 37.7098C56.9626 27.0117 48.3074 18.3391 37.6307 18.3391C26.954 18.3391 18.2988 27.0117 18.2988 37.7098C18.2988 48.4079 26.954 57.0805 37.6307 57.0805Z" fill="#E5E7EB"/>
<path d="M23.8589 29.2143V33.5912C23.8589 34.2865 24.4194 34.857 25.1222 34.857H26.1364V49.2803C26.1364 49.9756 26.6968 50.5461 27.3997 50.5461H31.1895V41.7923H44.4096V50.5461H47.8792C48.5731 50.5461 49.1424 49.9845 49.1424 49.2803V34.857H50.1566C50.8506 34.857 51.4199 34.2954 51.4199 33.5912V29.2143C51.4199 28.519 50.8594 27.9485 50.1566 27.9485H25.1222C24.4283 27.9485 23.8589 28.5101 23.8589 29.2143Z" fill="#E5E7EB"/>
<path d="M43.1379 38.3518H32.4444C31.7505 38.3518 31.1812 38.9134 31.1812 39.6176V50.5376H44.4012V39.6176C44.4012 38.9223 43.8407 38.3518 43.1379 38.3518Z" fill="white"/>
<path d="M40.5489 46.0713C40.1664 46.0713 39.855 45.7593 39.855 45.3759V43.397C39.855 43.0137 40.1664 42.7017 40.5489 42.7017C40.9314 42.7017 41.2428 43.0137 41.2428 43.397V45.3759C41.2428 45.7593 40.9314 46.0713 40.5489 46.0713Z" fill="#E5E7EB"/>
<path d="M35.0333 46.0713C34.6507 46.0713 34.3394 45.7593 34.3394 45.3759V43.397C34.3394 43.0137 34.6507 42.7017 35.0333 42.7017C35.4158 42.7017 35.7272 43.0137 35.7272 43.397V45.3759C35.7272 45.7593 35.4158 46.0713 35.0333 46.0713Z" fill="#E5E7EB"/>
<path d="M37.7908 36.4439C41.8934 36.4439 45.2193 33.1114 45.2193 29.0005C45.2193 24.8897 41.8934 21.5571 37.7908 21.5571C33.6882 21.5571 30.3623 24.8897 30.3623 29.0005C30.3623 33.1114 33.6882 36.4439 37.7908 36.4439Z" fill="white"/>
<path d="M42.7374 27.2089H39.4457V23.9106H36.1363V27.2089H32.8535V30.5161H36.1363V33.8144H39.4457V30.5161H42.7374V27.2089Z" fill="#E5E7EB"/>
<defs>
<filter id="filter0_d_3490_54170" x="4.83375" y="4.86378" width="71.263" height="81.0059" filterUnits="userSpaceOnUse" color-interpolation-filters="sRGB">
<feFlood flood-opacity="0" result="BackgroundImageFix"/>
<feColorMatrix in="SourceAlpha" type="matrix" values="0 0 0 0 0 0 0 0 0 0 0 0 0 0 0 0 0 0 127 0" result="hardAlpha"/>
<feOffset dx="2.83" dy="2.83"/>
<feGaussianBlur stdDeviation="5.67"/>
<feColorMatrix type="matrix" values="0 0 0 0 0 0 0 0 0 0 0 0 0 0 0 0 0 0 0.15 0"/>
<feBlend mode="normal" in2="BackgroundImageFix" result="effect1_dropShadow_3490_54170"/>
<feBlend mode="normal" in="SourceGraphic" in2="effect1_dropShadow_3490_54170" result="shape"/>
</filter>
</defs>
</svg>
