<svg width="293" height="175" viewBox="0 0 293 175" fill="none" xmlns="http://www.w3.org/2000/svg">
<path d="M129.457 140C159.28 140 183.457 115.823 183.457 86C183.457 56.1766 159.28 32 129.457 32C99.6337 32 75.457 56.1766 75.457 86C75.457 115.823 99.6337 140 129.457 140Z" fill="#D0D3DA"/>
<path d="M115.798 58.3986C110.757 60.7382 106.497 63.5258 103.126 66.6975C98.6604 70.9002 95.7732 75.7643 94.543 81.1475C93.6541 85.0302 94.0097 88.4152 95.5172 90.4561C96.7119 91.8286 98.2053 92.5895 99.7342 92.5895H99.7698C100.694 92.5895 101.668 92.4188 102.657 92.0917C104.741 91.4161 106.817 90.0863 108.837 88.1307C115.109 82.1004 120.179 70.7935 123.137 56.2866L123.301 55.4688L123.123 55.5257C120.591 56.3577 118.138 57.3177 115.834 58.3702L115.806 58.3844L115.798 58.3986Z" fill="white"/>
<path d="M157.636 76.1056C157.465 75.7856 157.309 75.4585 157.16 75.1314C156.939 74.6336 156.747 74.1287 156.577 73.6096C156.449 73.0905 156.335 72.5714 156.235 72.0451C156.136 71.5189 156.043 70.9927 155.958 70.4664C155.944 69.9544 155.901 69.4424 155.837 68.9304C155.773 68.4184 155.68 67.9135 155.567 67.4015C154.649 62.4947 151.606 59.2662 147.68 57.0262C146.372 56.2795 144.964 55.6466 143.499 55.099C141.934 54.6368 140.235 54.2528 138.45 53.9755C137.006 53.7763 135.499 53.6839 133.956 53.6839C133.87 53.6839 133.792 53.6839 133.707 53.6839C132.014 53.7195 130.215 53.883 128.373 54.1959C128.167 54.2244 127.961 54.2528 127.755 54.2884L127.179 57.1257C123.175 76.7599 116.554 86.4454 111.697 91.1175C111.043 91.7575 110.375 92.3335 109.699 92.8668C112.11 98.3567 116.455 102.481 121.76 104.97C122.265 105.212 122.784 105.432 123.31 105.639C125.145 106.264 126.987 106.72 128.85 107.04C129.312 107.118 129.781 107.189 130.244 107.253C132.029 107.587 133.821 107.744 135.613 107.744C137.831 107.744 140.036 107.502 142.176 107.068C142.731 106.954 143.278 106.826 143.833 106.691C147.531 105.646 151.151 104.615 154.095 102.588C154.358 102.396 154.585 102.218 154.784 102.055C156.833 100.483 158.383 98.4136 159.784 96.3442C160.118 95.8465 160.431 95.3415 160.722 94.8224C164.186 88.6001 164.029 81.0622 157.629 76.1199L157.636 76.1056Z" fill="white"/>
<path d="M148.02 97.0131C144.179 97.0131 141.818 94.9579 141.719 94.8655C141.114 94.3321 141.058 93.4077 141.598 92.8032C142.131 92.1988 143.056 92.1419 143.66 92.6823C143.717 92.7321 145.331 94.0904 148.02 94.0904C150.708 94.0904 152.322 92.7321 152.386 92.6752C152.997 92.1561 153.915 92.213 154.448 92.8174C154.974 93.4219 154.925 94.3321 154.32 94.8655C154.221 94.9508 151.86 97.0131 148.02 97.0131Z" fill="#D0D3DA"/>
<path d="M134.401 75.2242C136.05 75.2242 137.388 73.6323 137.388 71.6685C137.388 69.7048 136.05 68.1129 134.401 68.1129C132.751 68.1129 131.414 69.7048 131.414 71.6685C131.414 73.6323 132.751 75.2242 134.401 75.2242Z" fill="#D0D3DA"/>
<path d="M150.971 75.2242C152.621 75.2242 153.958 73.6323 153.958 71.6685C153.958 69.7048 152.621 68.1129 150.971 68.1129C149.322 68.1129 147.984 69.7048 147.984 71.6685C147.984 73.6323 149.322 75.2242 150.971 75.2242Z" fill="#D0D3DA"/>
<path d="M157.12 87.541L158.898 84.4618C159.865 82.7907 158.656 80.7 156.729 80.7H153.173C151.246 80.7 150.037 82.7907 151.005 84.4618L152.782 87.541C153.749 89.2121 156.16 89.2121 157.12 87.541Z" fill="#D0D3DA"/>
<path d="M140.261 126.852C142.885 121.32 144.449 115.759 144.961 110.66C144.961 110.66 144.961 110.66 144.954 110.66L144.897 110.674L144.841 110.688C144.222 110.845 143.603 110.987 142.999 111.108C140.524 111.613 138.035 111.869 135.61 111.869C133.562 111.869 131.535 111.684 129.587 111.328C129.103 111.264 128.62 111.186 128.143 111.101C126.024 110.731 123.948 110.212 121.978 109.543L121.885 109.515L121.793 109.479C121.196 109.245 120.591 108.982 120.001 108.704C115.848 106.756 112.335 104.004 109.633 100.647C107.016 103.52 104.563 106.848 102.422 110.56C101.313 112.48 100.346 114.415 99.4922 116.349C107.279 123.716 117.775 128.239 129.338 128.239C133.107 128.239 136.762 127.755 140.254 126.852H140.261Z" fill="white"/>
<path fill-rule="evenodd" clip-rule="evenodd" d="M129.457 127.143C152.18 127.143 170.6 108.723 170.6 86C170.6 63.2774 152.18 44.8571 129.457 44.8571C106.734 44.8571 88.3142 63.2774 88.3142 86C88.3142 108.723 106.734 127.143 129.457 127.143ZM129.457 140C159.28 140 183.457 115.823 183.457 86C183.457 56.1766 159.28 32 129.457 32C99.6337 32 75.457 56.1766 75.457 86C75.457 115.823 99.6337 140 129.457 140Z" fill="#D0D3DA"/>
<g filter="url(#filter0_d_8183_168135)">
<path d="M258.75 40.4177C258.75 30.7982 250.952 23 241.332 23H186.168C176.548 23 168.75 30.7982 168.75 40.4177V59H241.332C250.952 59 258.75 51.2018 258.75 41.5823V40.4177Z" fill="#F0802F"/>
<path d="M188.63 37.1984C191.27 37.1984 192.65 39.1055 193.73 40.6458C194.84 42.1862 195.56 43.0664 197.03 43.0664C198.53 43.0664 199.22 42.1862 200.33 40.6458C201.44 39.1055 202.79 37.1984 205.43 37.1984C208.07 37.1984 209.45 39.1055 210.53 40.6458C211.64 42.1862 212.36 43.0664 213.83 43.0664C215.3 43.0664 216.02 42.1862 217.13 40.6458C218.24 39.1055 219.59 37.1984 222.23 37.1984C224.87 37.1984 226.25 39.1055 227.33 40.6458C228.44 42.1862 229.16 43.0664 230.63 43.0664C232.13 43.0664 232.82 42.1862 233.93 40.6458C235.04 39.1055 236.39 37.1984 239.03 37.1984C241.67 37.1984 243.05 39.1055 244.13 40.6458C245.36 42.1862 246.05 43.0664 247.55 43.0664C248.21 43.0664 248.75 43.7265 248.75 44.5334C248.75 45.3402 248.21 46.0004 247.55 46.0004C244.91 46.0004 243.53 44.0933 242.45 42.5529C241.34 41.0126 240.62 40.1324 239.15 40.1324C237.65 40.1324 236.96 41.0126 235.85 42.5529C234.74 44.0933 233.39 46.0004 230.75 46.0004C228.11 46.0004 226.73 44.0933 225.65 42.5529C224.54 41.0126 223.82 40.1324 222.35 40.1324C220.88 40.1324 220.16 41.0126 219.05 42.5529C217.94 44.0933 216.59 46.0004 213.95 46.0004C211.31 46.0004 209.93 44.0933 208.85 42.5529C207.74 41.0126 207.02 40.1324 205.55 40.1324C204.05 40.1324 203.36 41.0126 202.25 42.5529C201.14 44.0933 199.79 46.0004 197.15 46.0004C194.51 46.0004 193.13 44.0933 192.05 42.5529C190.94 41.0126 190.22 40.1324 188.75 40.1324C187.25 40.1324 186.56 41.0126 185.45 42.5529C184.34 44.0933 182.99 46.0004 180.35 46.0004C179.69 46.0004 179.15 45.3402 179.15 44.5334C179.15 43.7265 179.69 43.0664 180.35 43.0664C181.85 43.0664 182.54 42.1862 183.65 40.6458C184.61 39.1055 185.96 37.1984 188.63 37.1984Z" fill="white"/>
</g>
<g filter="url(#filter1_d_8183_168135)">
<path d="M90.5938 136.378C90.5938 144.453 84.0472 151 75.9715 151H51.1156C41.5257 151 33.7517 143.226 33.7517 133.636V132.364C33.7517 122.774 41.5257 115 51.1155 115H90.5938V136.378Z" fill="#F0802F"/>
<circle cx="47.5" cy="132.5" r="3.5" fill="white"/>
<circle cx="62.5" cy="132.5" r="3.5" fill="white"/>
<circle cx="77.5" cy="132.5" r="3.5" fill="white"/>
</g>
<defs>
<filter id="filter0_d_8183_168135" x="135.46" y="0.806453" width="156.581" height="102.581" filterUnits="userSpaceOnUse" color-interpolation-filters="sRGB">
<feFlood flood-opacity="0" result="BackgroundImageFix"/>
<feColorMatrix in="SourceAlpha" type="matrix" values="0 0 0 0 0 0 0 0 0 0 0 0 0 0 0 0 0 0 127 0" result="hardAlpha"/>
<feOffset dy="11.0968"/>
<feGaussianBlur stdDeviation="16.6452"/>
<feColorMatrix type="matrix" values="0 0 0 0 0.9375 0 0 0 0 0.519063 0 0 0 0 0.132812 0 0 0 0.12 0"/>
<feBlend mode="normal" in2="BackgroundImageFix" result="effect1_dropShadow_8183_168135"/>
<feBlend mode="normal" in="SourceGraphic" in2="effect1_dropShadow_8183_168135" result="shape"/>
</filter>
<filter id="filter1_d_8183_168135" x="17.75" y="107" width="88.8438" height="68" filterUnits="userSpaceOnUse" color-interpolation-filters="sRGB">
<feFlood flood-opacity="0" result="BackgroundImageFix"/>
<feColorMatrix in="SourceAlpha" type="matrix" values="0 0 0 0 0 0 0 0 0 0 0 0 0 0 0 0 0 0 127 0" result="hardAlpha"/>
<feOffset dy="8"/>
<feGaussianBlur stdDeviation="8"/>
<feColorMatrix type="matrix" values="0 0 0 0 1 0 0 0 0 0.595583 0 0 0 0 0.120833 0 0 0 0.2 0"/>
<feBlend mode="normal" in2="BackgroundImageFix" result="effect1_dropShadow_8183_168135"/>
<feBlend mode="normal" in="SourceGraphic" in2="effect1_dropShadow_8183_168135" result="shape"/>
</filter>
</defs>
</svg>
