<svg width="375" height="146" viewBox="0 0 375 146" fill="none" xmlns="http://www.w3.org/2000/svg">
<rect x="131" y="21" width="104" height="104" rx="52" fill="#F1F2F5"/>
<path d="M162.391 68.63C160.524 56.5132 169.898 45.5835 182.158 45.5835H183.842C196.102 45.5835 205.476 56.5132 203.609 68.63L200.277 90.2448C199.375 96.0973 194.339 100.417 188.417 100.417H177.583C171.661 100.417 166.625 96.0973 165.723 90.2447L162.391 68.63Z" fill="white"/>
<ellipse cx="169.239" cy="50.4672" rx="4.44053" ry="4.30018" fill="#D4D8E1"/>
<ellipse cx="156.806" cy="65.9475" rx="6.21675" ry="6.02025" fill="#D4D8E1"/>
<path d="M152.366 61.6473L165.687 47.8867L173.572 51.4166L166.314 82.625L152.366 61.6473Z" fill="#D4D8E1"/>
<path d="M150.698 80.5836L150.589 65.9478L162.189 68.917L166.314 80.292L150.698 80.5836Z" fill="#D4D8E1"/>
<ellipse cx="158.654" cy="80.5833" rx="7.95536" ry="7.58333" fill="#D4D8E1"/>
<ellipse rx="4.44053" ry="4.30018" transform="matrix(-1 0 0 1 196.869 50.4672)" fill="#D4D8E1"/>
<ellipse rx="6.21675" ry="6.02025" transform="matrix(-1 0 0 1 209.302 65.9475)" fill="#D4D8E1"/>
<path d="M213.743 61.6473L200.422 47.8867L192.537 51.4166L199.795 82.625L213.743 61.6473Z" fill="#D4D8E1"/>
<path d="M215.41 80.5836L215.519 65.9478L203.919 68.917L199.794 80.292L215.41 80.5836Z" fill="#D4D8E1"/>
<ellipse rx="7.95536" ry="7.58333" transform="matrix(-1 0 0 1 207.455 80.5833)" fill="#D4D8E1"/>
<ellipse cx="175.045" cy="73" rx="1.76786" ry="1.75" fill="#7C818B"/>
<ellipse cx="190.366" cy="73" rx="1.76786" ry="1.75" fill="#7C818B"/>
<path d="M182.75 88V92" stroke="#7C818B" stroke-width="0.5"/>
<path d="M177.25 90C177.25 92.5 181.073 93.5713 182.75 92" stroke="#7C818B" stroke-width="0.5"/>
<path d="M188.25 90C188.25 92.5 184.556 93.5713 182.75 92" stroke="#7C818B" stroke-width="0.5"/>
<ellipse cx="182.75" cy="87.5" rx="4" ry="2.5" fill="#7C818B"/>
<g filter="url(#filter0_d_1903_8349)">
<path d="M312 48.5999C312 39.1006 304.299 31.3999 294.8 31.3999H243.418C233.798 31.3999 226 39.1981 226 48.8176V65.7999H294.8C304.299 65.7999 312 58.0992 312 48.5999Z" fill="url(#paint0_linear_1903_8349)"/>
<path d="M245.092 44.1405C247.615 44.1405 248.933 45.9628 249.965 47.4347C251.026 48.9066 251.714 49.7477 253.119 49.7477C254.552 49.7477 255.211 48.9066 256.272 47.4347C257.333 45.9628 258.623 44.1405 261.145 44.1405C263.668 44.1405 264.987 45.9628 266.019 47.4347C267.079 48.9066 267.767 49.7477 269.172 49.7477C270.577 49.7477 271.265 48.9066 272.325 47.4347C273.386 45.9628 274.676 44.1405 277.199 44.1405C279.721 44.1405 281.04 45.9628 282.072 47.4347C283.133 48.9066 283.821 49.7477 285.225 49.7477C286.659 49.7477 287.318 48.9066 288.379 47.4347C289.439 45.9628 290.729 44.1405 293.252 44.1405C295.775 44.1405 297.093 45.9628 298.125 47.4347C299.301 48.9066 299.96 49.7477 301.393 49.7477C302.024 49.7477 302.54 50.3785 302.54 51.1495C302.54 51.9205 302.024 52.5513 301.393 52.5513C298.871 52.5513 297.552 50.7289 296.52 49.257C295.459 47.7851 294.771 46.9441 293.367 46.9441C291.933 46.9441 291.274 47.7851 290.213 49.257C289.153 50.7289 287.863 52.5513 285.34 52.5513C282.817 52.5513 281.499 50.7289 280.467 49.257C279.406 47.7851 278.718 46.9441 277.313 46.9441C275.909 46.9441 275.221 47.7851 274.16 49.257C273.099 50.7289 271.809 52.5513 269.287 52.5513C266.764 52.5513 265.445 50.7289 264.413 49.257C263.353 47.7851 262.665 46.9441 261.26 46.9441C259.827 46.9441 259.167 47.7851 258.107 49.257C257.046 50.7289 255.756 52.5513 253.233 52.5513C250.711 52.5513 249.392 50.7289 248.36 49.257C247.299 47.7851 246.611 46.9441 245.207 46.9441C243.773 46.9441 243.114 47.7851 242.053 49.257C240.993 50.7289 239.703 52.5513 237.18 52.5513C236.549 52.5513 236.033 51.9205 236.033 51.1495C236.033 50.3785 236.549 49.7477 237.18 49.7477C238.613 49.7477 239.273 48.9066 240.333 47.4347C241.251 45.9628 242.541 44.1405 245.092 44.1405Z" fill="white"/>
</g>
<g filter="url(#filter1_d_1903_8349)">
<path d="M133.833 94.1053C133.833 102.181 127.287 108.728 119.211 108.728H96.3641C86.7743 108.728 79.0002 100.953 79.0002 91.3637C79.0002 81.7738 86.7743 73.9998 96.3641 73.9998H133.833V94.1053Z" fill="url(#paint1_linear_1903_8349)"/>
</g>
<circle cx="93.5" cy="91.5" r="3.5" fill="white"/>
<circle cx="106.5" cy="91.5" r="3.5" fill="white"/>
<circle cx="119.5" cy="91.5" r="3.5" fill="white"/>
<defs>
<filter id="filter0_d_1903_8349" x="192.71" y="9.20636" width="152.581" height="100.981" filterUnits="userSpaceOnUse" color-interpolation-filters="sRGB">
<feFlood flood-opacity="0" result="BackgroundImageFix"/>
<feColorMatrix in="SourceAlpha" type="matrix" values="0 0 0 0 0 0 0 0 0 0 0 0 0 0 0 0 0 0 127 0" result="hardAlpha"/>
<feOffset dy="11.0968"/>
<feGaussianBlur stdDeviation="16.6452"/>
<feColorMatrix type="matrix" values="0 0 0 0 0.9375 0 0 0 0 0.519063 0 0 0 0 0.132812 0 0 0 0.12 0"/>
<feBlend mode="normal" in2="BackgroundImageFix" result="effect1_dropShadow_1903_8349"/>
<feBlend mode="normal" in="SourceGraphic" in2="effect1_dropShadow_1903_8349" result="shape"/>
</filter>
<filter id="filter1_d_1903_8349" x="63" y="66" width="86.8335" height="66.7275" filterUnits="userSpaceOnUse" color-interpolation-filters="sRGB">
<feFlood flood-opacity="0" result="BackgroundImageFix"/>
<feColorMatrix in="SourceAlpha" type="matrix" values="0 0 0 0 0 0 0 0 0 0 0 0 0 0 0 0 0 0 127 0" result="hardAlpha"/>
<feOffset dy="8"/>
<feGaussianBlur stdDeviation="8"/>
<feColorMatrix type="matrix" values="0 0 0 0 1 0 0 0 0 0.595583 0 0 0 0 0.120833 0 0 0 0.2 0"/>
<feBlend mode="normal" in2="BackgroundImageFix" result="effect1_dropShadow_1903_8349"/>
<feBlend mode="normal" in="SourceGraphic" in2="effect1_dropShadow_1903_8349" result="shape"/>
</filter>
<linearGradient id="paint0_linear_1903_8349" x1="275.931" y1="21.0799" x2="238.661" y2="52.6709" gradientUnits="userSpaceOnUse">
<stop stop-color="#F9951F"/>
<stop offset="1" stop-color="#FF8541"/>
</linearGradient>
<linearGradient id="paint1_linear_1903_8349" x1="110.836" y1="119.146" x2="79.096" y2="102.154" gradientUnits="userSpaceOnUse">
<stop stop-color="#F9951F"/>
<stop offset="1" stop-color="#FF8541"/>
</linearGradient>
</defs>
</svg>
