<svg width="79" height="88" viewBox="0 0 79 88" fill="none" xmlns="http://www.w3.org/2000/svg">
<g filter="url(#filter0_d_3531_55772)">
<path d="M36.9536 12.5908C23.574 12.5908 12.7319 23.3876 12.7319 36.7113C12.7319 42.7723 14.9855 48.3033 18.6942 52.5442L18.7918 52.6503C19.1822 53.092 19.5814 53.5161 20.0073 53.9314L34.7444 69.4462C35.951 70.7185 37.974 70.7185 39.1806 69.4462L53.9266 53.9314C54.3436 53.525 54.7428 53.1009 55.1243 52.6679L55.2308 52.5619H55.2219C58.9306 48.3209 61.1842 42.79 61.1842 36.729C61.1842 23.4141 50.3421 12.6085 36.9625 12.6085L36.9536 12.5908Z" fill="white"/>
</g>
<path opacity="0.2" d="M36.9536 55.9101C47.6015 55.9101 56.2333 47.3143 56.2333 36.7109C56.2333 26.1075 47.6015 17.5117 36.9536 17.5117C26.3057 17.5117 17.6738 26.1075 17.6738 36.7109C17.6738 47.3143 26.3057 55.9101 36.9536 55.9101Z" fill="#EAEBEF"/>
<path d="M48.0262 32.5407L42.5963 27.9021C42.1527 27.5222 41.505 27.5222 41.0614 27.9021L36.9623 31.4098L32.8633 27.9021C32.4196 27.5222 31.772 27.5222 31.3283 27.9021L25.8984 32.5407C25.0733 33.2475 25.5701 34.5993 26.6614 34.5993H27.593V50.4057C27.593 51.0154 28.0899 51.5102 28.7021 51.5102H45.1161C45.7283 51.5102 46.2251 51.0154 46.2251 50.4057V34.5993H47.2632C48.3545 34.5993 48.8602 33.2475 48.0262 32.5407Z" fill="#EAEBEF"/>
<path d="M35.5605 40.758H30.2903V38.1339C30.2903 36.6849 31.4703 35.5098 32.9254 35.5098C34.3805 35.5098 35.5605 36.6849 35.5605 38.1339V40.758Z" fill="white"/>
<path d="M43.6254 40.758H38.3552V38.1339C38.3552 36.6849 39.5353 35.5098 40.9903 35.5098C42.4454 35.5098 43.6254 36.6849 43.6254 38.1339V40.758Z" fill="white"/>
<path d="M35.5605 48.5587H30.2903V45.9346C30.2903 44.4856 31.4703 43.3105 32.9254 43.3105C34.3805 43.3105 35.5605 44.4856 35.5605 45.9346V48.5587Z" fill="white"/>
<path d="M43.6254 48.5587H38.3552V45.9346C38.3552 44.4856 39.5353 43.3105 40.9903 43.3105C42.4454 43.3105 43.6254 44.4856 43.6254 45.9346V48.5587Z" fill="white"/>
<path d="M36.776 25.2077L34.966 26.1531C34.8063 26.2326 34.62 26.1 34.6555 25.9233L35.0015 23.9177C35.0104 23.847 34.9927 23.7764 34.9394 23.7233L33.4755 22.3009C33.3513 22.1772 33.4222 21.9563 33.5908 21.9386L35.6137 21.647C35.6847 21.6382 35.7468 21.594 35.7734 21.5322L36.6784 19.7033C36.7583 19.5442 36.989 19.5442 37.0688 19.7033L37.9738 21.5322C38.0093 21.594 38.0625 21.6382 38.1335 21.647L40.1564 21.9386C40.3339 21.9651 40.4048 22.1772 40.2717 22.3009L38.8078 23.7233C38.7546 23.7764 38.7368 23.847 38.7457 23.9177L39.0917 25.9233C39.1183 26.1 38.9409 26.2326 38.7812 26.1531L36.9712 25.2077C36.9091 25.1723 36.8292 25.1723 36.7671 25.2077H36.776Z" fill="#EAEBEF"/>
<path d="M29.2434 27.2482L28.853 28.5028C28.8175 28.6088 28.6756 28.6353 28.6046 28.5382L27.8416 27.4691C27.8416 27.4691 27.7706 27.4072 27.7262 27.4072L26.4042 27.4249C26.2889 27.4249 26.2179 27.2924 26.2889 27.204L27.0785 26.1526C27.0785 26.1526 27.114 26.0643 27.0963 26.0289L26.6704 24.7831C26.6349 24.6771 26.7414 24.5711 26.8478 24.6064L28.0989 25.0305C28.0989 25.0305 28.1876 25.0305 28.2231 25.0128L29.2789 24.2265C29.3676 24.1558 29.5007 24.2265 29.5007 24.3414L29.4829 25.6578C29.4829 25.702 29.5007 25.7462 29.5451 25.7727L30.6186 26.5325C30.7162 26.5944 30.6896 26.7446 30.5831 26.7799L29.3232 27.1687C29.3232 27.1687 29.2434 27.2129 29.2345 27.257L29.2434 27.2482Z" fill="#EAEBEF"/>
<path d="M44.4951 27.2482L44.8855 28.5028C44.921 28.6088 45.0629 28.6353 45.1339 28.5382L45.8969 27.4691C45.8969 27.4691 45.9679 27.4072 46.0123 27.4072L47.3343 27.4249C47.4496 27.4249 47.5206 27.2924 47.4496 27.204L46.66 26.1526C46.66 26.1526 46.6245 26.0643 46.6422 26.0289L47.0681 24.7831C47.1036 24.6771 46.9971 24.5711 46.8906 24.6064L45.6396 25.0305C45.6396 25.0305 45.5509 25.0305 45.5154 25.0128L44.4596 24.2265C44.3709 24.1558 44.2378 24.2265 44.2378 24.3414L44.2555 25.6578C44.2555 25.702 44.2378 25.7462 44.1934 25.7727L43.1199 26.5325C43.0223 26.5944 43.0489 26.7446 43.1553 26.7799L44.4152 27.1687C44.4152 27.1687 44.4951 27.2129 44.504 27.257L44.4951 27.2482Z" fill="#EAEBEF"/>
<g style="mix-blend-mode:multiply">
<circle cx="42.6787" cy="45.5088" r="11" fill="#FF7D1F"/>
<g clip-path="url(#clip0_3531_55772)">
<path d="M40.2312 42.1797C41.2088 42.1797 42.0013 41.3873 42.0013 40.4097C42.0013 39.4321 41.2088 38.6396 40.2312 38.6396C39.2537 38.6396 38.4612 39.4321 38.4612 40.4097C38.4612 41.3873 39.2537 42.1797 40.2312 42.1797Z" fill="white"/>
<path d="M45.1253 42.1797C46.1028 42.1797 46.8953 41.3873 46.8953 40.4097C46.8953 39.4321 46.1028 38.6396 45.1253 38.6396C44.1477 38.6396 43.3552 39.4321 43.3552 40.4097C43.3552 41.3873 44.1477 42.1797 45.1253 42.1797Z" fill="white"/>
<path d="M36.9954 45.4405C37.973 45.4405 38.7654 44.648 38.7654 43.6704C38.7654 42.6929 37.973 41.9004 36.9954 41.9004C36.0178 41.9004 35.2253 42.6929 35.2253 43.6704C35.2253 44.648 36.0178 45.4405 36.9954 45.4405Z" fill="white"/>
<path d="M48.3609 45.4405C49.3384 45.4405 50.1309 44.648 50.1309 43.6704C50.1309 42.6929 49.3384 41.9004 48.3609 41.9004C47.3833 41.9004 46.5908 42.6929 46.5908 43.6704C46.5908 44.648 47.3833 45.4405 48.3609 45.4405Z" fill="white"/>
<path d="M47.1252 46.2169C46.3861 45.776 45.852 45.2108 45.4234 44.4655C44.1751 42.3042 41.1132 42.329 39.8835 44.5028C39.4798 45.217 38.9829 45.7635 38.2687 46.1734C37.1818 46.8007 36.6663 47.7882 36.6477 48.8751C36.6477 51.583 39.1817 53.1481 41.4299 51.9618C42.256 51.5271 43.0075 51.4774 43.8397 51.9308C45.4731 52.8313 47.3425 52.3034 48.2493 50.7197C49.1499 49.1422 48.6778 47.1299 47.1252 46.2045V46.2169Z" fill="white"/>
</g>
</g>
<defs>
<filter id="filter0_d_3531_55772" x="4.22193" y="4.08082" width="71.1321" height="80.4896" filterUnits="userSpaceOnUse" color-interpolation-filters="sRGB">
<feFlood flood-opacity="0" result="BackgroundImageFix"/>
<feColorMatrix in="SourceAlpha" type="matrix" values="0 0 0 0 0 0 0 0 0 0 0 0 0 0 0 0 0 0 127 0" result="hardAlpha"/>
<feOffset dx="2.83" dy="2.83"/>
<feGaussianBlur stdDeviation="5.67"/>
<feColorMatrix type="matrix" values="0 0 0 0 0 0 0 0 0 0 0 0 0 0 0 0 0 0 0.15 0"/>
<feBlend mode="normal" in2="BackgroundImageFix" result="effect1_dropShadow_3531_55772"/>
<feBlend mode="normal" in="SourceGraphic" in2="effect1_dropShadow_3531_55772" result="shape"/>
</filter>
<clipPath id="clip0_3531_55772">
<rect width="14.9057" height="13.7381" fill="white" transform="translate(35.2253 38.6396)"/>
</clipPath>
</defs>
</svg>
