<svg width="24" height="24" viewBox="0 0 24 24" fill="none" xmlns="http://www.w3.org/2000/svg">
<path d="M13.2038 5.04034C13.2038 5.04034 13.2038 4.98768 13.2038 4.95476C13.2038 4.28984 12.687 3.75 12.0504 3.75C11.4139 3.75 10.8971 4.28984 10.8971 4.95476C10.8971 4.98109 10.8971 5.00084 10.8971 5.02718C6.70588 5.56043 3.39706 9.08913 3 13.5H21C20.6029 9.11546 17.3445 5.60652 13.1912 5.04034H13.2038Z" fill="#FFAC2F"/>
<path d="M5.78322 11.6883C5.72904 11.6883 5.67486 11.6822 5.62068 11.6581C5.36784 11.5676 5.22938 11.2902 5.31968 11.0368C6.0481 8.9497 7.84206 7.36929 9.99723 6.91688C10.2621 6.86259 10.521 7.03149 10.5751 7.29691C10.6293 7.56232 10.4608 7.8217 10.1959 7.87599C8.37182 8.26204 6.85478 9.60117 6.24074 11.3625C6.1685 11.5616 5.98188 11.6883 5.7772 11.6883H5.78322Z" fill="white"/>
<path d="M22.3985 14.25H1.59555C1.1278 14.25 0.75 14.7087 0.75 15.2767C0.75 15.8447 1.1278 16.3034 1.59555 16.3034H3.46655C3.63446 17.6869 4.61194 18.75 5.79331 18.75H18.2007C19.3881 18.75 20.3655 17.6869 20.5335 16.3034H22.4045C22.8722 16.3034 23.25 15.8447 23.25 15.2767C23.25 14.7087 22.8722 14.25 22.4045 14.25H22.3985Z" fill="#FF9737"/>
</svg>
