<svg width="34" height="22" viewBox="0 0 34 22" fill="none" xmlns="http://www.w3.org/2000/svg">
<path d="M18.3647 2.67029C18.3647 2.67029 18.3647 2.59898 18.3647 2.55441C18.3647 1.65407 17.6352 0.923096 16.7366 0.923096C15.8381 0.923096 15.1086 1.65407 15.1086 2.55441C15.1086 2.59006 15.1086 2.61681 15.1086 2.65246C9.19251 3.37452 4.5219 8.15256 3.96143 14.1251H29.3695C28.8091 8.18822 24.2096 3.43692 18.3469 2.67029H18.3647Z" fill="#FFD040"/>
<path d="M7.9022 12.6543C7.82214 12.6543 7.74207 12.6454 7.662 12.6097C7.28835 12.476 7.08374 12.066 7.21718 11.6916C8.29365 8.60723 10.9448 6.2717 14.1297 5.60313C14.5211 5.5229 14.9037 5.7725 14.9837 6.16473C15.0638 6.55695 14.8147 6.94027 14.4233 7.02049C11.7277 7.59101 9.48576 9.56997 8.57833 12.1729C8.47158 12.4671 8.19579 12.6543 7.89331 12.6543H7.9022Z" fill="white"/>
<path d="M32.1717 15.8723H1.31006C0.616137 15.8723 0.0556641 16.4339 0.0556641 17.1292C0.0556641 17.8245 0.616137 18.3861 1.31006 18.3861H4.08573C4.33483 20.0798 5.78494 21.3813 7.53753 21.3813H25.9442C27.7057 21.3813 29.1558 20.0798 29.4049 18.3861H32.1806C32.8745 18.3861 33.4349 17.8245 33.4349 17.1292C33.4349 16.4339 32.8745 15.8723 32.1806 15.8723H32.1717Z" fill="#FFD040"/>
</svg>
