<svg width="80" height="89" viewBox="0 0 80 89" fill="none" xmlns="http://www.w3.org/2000/svg">
<g filter="url(#filter0_d_3531_56032)">
<path d="M37.8628 12.7471C24.4471 12.7471 13.5757 23.6403 13.5757 37.083C13.5757 43.1982 15.8354 48.7785 19.5541 53.0574L19.6519 53.1643C20.0434 53.6101 20.4437 54.0379 20.8707 54.4569L35.6476 70.1104C36.8576 71.394 38.8859 71.394 40.0958 70.1104L54.8816 54.4569C55.2998 54.0469 55.7001 53.619 56.0827 53.1822L56.1894 53.0752H56.1805C59.8992 48.7964 62.1589 43.216 62.1589 37.1008C62.1589 23.667 51.2875 12.7649 37.8717 12.7649L37.8628 12.7471Z" fill="white"/>
</g>
<path opacity="0.2" d="M37.8629 56.4543C48.5396 56.4543 57.1947 47.7817 57.1947 37.0836C57.1947 26.3854 48.5396 17.7129 37.8629 17.7129C27.1862 17.7129 18.531 26.3854 18.531 37.0836C18.531 47.7817 27.1862 56.4543 37.8629 56.4543Z" fill="#FFCA17"/>
<path d="M39.4819 27.295C39.4819 27.295 39.4819 27.2237 39.4819 27.1792C39.4819 26.2788 38.7524 25.5479 37.8538 25.5479C36.9553 25.5479 36.2258 26.2788 36.2258 27.1792C36.2258 27.2148 36.2258 27.2416 36.2258 27.2772C30.3097 27.9993 25.6391 32.7773 25.0786 38.7499H50.4867C49.9262 32.813 45.3268 28.0617 39.4641 27.295H39.4819Z" fill="#FFD040"/>
<path d="M29.0196 37.2791C28.9396 37.2791 28.8595 37.2702 28.7794 37.2345C28.4058 37.1008 28.2012 36.6907 28.3346 36.3163C29.4111 33.232 32.0622 30.8965 35.2471 30.2279C35.6386 30.1477 36.0211 30.3973 36.1012 30.7895C36.1812 31.1817 35.9321 31.565 35.5407 31.6453C32.8451 32.2158 30.6032 34.1947 29.6958 36.7977C29.589 37.0919 29.3132 37.2791 29.0107 37.2791H29.0196Z" fill="white"/>
<path d="M53.2891 40.4971H22.4275C21.7336 40.4971 21.1731 41.0587 21.1731 41.754C21.1731 42.4493 21.7336 43.0109 22.4275 43.0109H25.2032C25.4523 44.7046 26.9024 46.0061 28.655 46.0061H47.0616C48.8231 46.0061 50.2732 44.7046 50.5223 43.0109H53.298C53.9919 43.0109 54.5524 42.4493 54.5524 41.754C54.5524 41.0587 53.9919 40.4971 53.298 40.4971H53.2891Z" fill="#FFD040"/>
<defs>
<filter id="filter0_d_3531_56032" x="5.06568" y="4.23707" width="71.2633" height="81.0062" filterUnits="userSpaceOnUse" color-interpolation-filters="sRGB">
<feFlood flood-opacity="0" result="BackgroundImageFix"/>
<feColorMatrix in="SourceAlpha" type="matrix" values="0 0 0 0 0 0 0 0 0 0 0 0 0 0 0 0 0 0 127 0" result="hardAlpha"/>
<feOffset dx="2.83" dy="2.83"/>
<feGaussianBlur stdDeviation="5.67"/>
<feColorMatrix type="matrix" values="0 0 0 0 0 0 0 0 0 0 0 0 0 0 0 0 0 0 0.15 0"/>
<feBlend mode="normal" in2="BackgroundImageFix" result="effect1_dropShadow_3531_56032"/>
<feBlend mode="normal" in="SourceGraphic" in2="effect1_dropShadow_3531_56032" result="shape"/>
</filter>
</defs>
</svg>
