<svg width="24" height="24" viewBox="0 0 24 24" fill="none" xmlns="http://www.w3.org/2000/svg">
<path d="M10.4197 17.5133C10.439 17.5133 10.4583 17.5133 10.4776 17.5133C10.9408 17.4747 11.3075 17.0694 11.2689 16.6063L10.7285 8.84772C10.6899 8.38453 10.2846 8.03713 9.82143 8.05643C9.35823 8.09503 8.99154 8.50033 9.03014 8.96352L9.57053 16.7221C9.60913 17.1659 9.97583 17.5133 10.4197 17.5133Z" fill="#333333"/>
<path d="M13.8362 17.4938C13.8555 17.4938 13.8748 17.4938 13.8941 17.4938C14.338 17.4938 14.7047 17.1464 14.7433 16.7025L15.2837 8.94399C15.3223 8.4808 14.9556 8.0755 14.4924 8.0369C14.0292 8.0176 13.6239 8.365 13.5853 8.82819L13.0449 16.5867C13.0063 17.0692 13.3537 17.4745 13.8362 17.4938Z" fill="#333333"/>
<path d="M20.4749 4.64049H15.5534L14.6464 3.3667C14.4727 3.1351 14.2025 3 13.9323 3H10.3811C10.0916 3 9.8214 3.1351 9.667 3.3667L8.75991 4.64049H3.83845C3.37525 4.64049 2.98926 5.02648 2.98926 5.48968C2.98926 5.95287 3.37525 6.33887 3.83845 6.33887H4.57184L6.03863 18.5943C6.19303 19.8487 7.25452 20.7944 8.52831 20.7944H15.8043C17.0781 20.7944 18.1396 19.8487 18.294 18.5943L19.7608 6.33887H20.4942C20.9574 6.33887 21.3434 5.95287 21.3434 5.48968C21.3241 5.02648 20.9381 4.64049 20.4749 4.64049ZM16.5956 18.382C16.557 18.7873 16.2096 19.0961 15.8043 19.0961H8.52831C8.12301 19.0961 7.77561 18.7873 7.73702 18.382L6.28953 6.33887H18.0431L16.5956 18.382Z" fill="#333333"/>
</svg>
