<svg width="80" height="90" viewBox="0 0 80 90" fill="none" xmlns="http://www.w3.org/2000/svg">
<g filter="url(#filter0_d_3490_54214)">
<path d="M37.6309 13.3738C24.2151 13.3738 13.3438 24.267 13.3438 37.7097C13.3438 43.8249 15.6034 49.4052 19.3221 53.6841L19.42 53.791C19.8114 54.2368 20.2118 54.6646 20.6388 55.0836L35.4157 70.7371C36.6256 72.0207 38.654 72.0207 39.8639 70.7371L54.6497 55.0836C55.0678 54.6736 55.4682 54.2457 55.8507 53.8089L55.9575 53.7019H55.9486C59.6673 49.4231 61.927 43.8427 61.927 37.7275C61.927 24.2938 51.0556 13.3916 37.6398 13.3916L37.6309 13.3738Z" fill="white"/>
</g>
<path opacity="0.2" d="M37.6307 57.0805C48.3074 57.0805 56.9626 48.4079 56.9626 37.7098C56.9626 27.0117 48.3074 18.3391 37.6307 18.3391C26.954 18.3391 18.2988 27.0117 18.2988 37.7098C18.2988 48.4079 26.954 57.0805 37.6307 57.0805Z" fill="#E5E7EB"/>
<path d="M44.1967 46.1516C43.7875 46.1516 43.4138 45.8663 43.316 45.4474L38.2717 25.4616C38.1561 24.9713 38.4585 24.481 38.9478 24.3741C39.4371 24.2582 39.9264 24.5613 40.0332 25.0515L45.0775 45.0373C45.1931 45.5276 44.8906 46.0179 44.4013 46.1249C44.3302 46.1427 44.259 46.1516 44.1967 46.1516Z" fill="#E5E7EB"/>
<path d="M46.714 48.6208C44.8547 48.6208 43.3423 47.1054 43.3423 45.2423C43.3423 43.3792 44.8547 41.8638 46.714 41.8638C48.5734 41.8638 50.0858 43.3792 50.0858 45.2423C50.0858 47.1054 48.5734 48.6208 46.714 48.6208ZM46.714 43.6912C45.86 43.6912 45.1572 44.3865 45.1572 45.2512C45.1572 46.1159 45.8511 46.8112 46.714 46.8112C47.577 46.8112 48.2709 46.1159 48.2709 45.2512C48.2709 44.3865 47.577 43.6912 46.714 43.6912Z" fill="#E5E7EB"/>
<path d="M48.8315 51.0634C46.1715 51.0634 44.5524 50.3681 43.6182 46.9361C43.5827 46.8024 43.5204 46.4815 43.4136 45.9823C43.3691 45.7416 43.3247 45.5277 43.3069 45.4474C43.1912 44.9571 43.5026 44.4669 43.9919 44.3599C44.4812 44.244 44.9705 44.556 45.0772 45.0463C45.095 45.1354 45.1484 45.3761 45.2018 45.6346C45.2552 45.911 45.353 46.3745 45.3708 46.4726C46.0292 48.9151 46.7765 49.2716 48.9739 49.2538H48.9828C49.481 49.2538 49.8813 49.655 49.8902 50.1542C49.8902 50.6534 49.4899 51.0723 48.9917 51.0723C48.9383 51.0723 48.8849 51.0723 48.8315 51.0723V51.0634Z" fill="#E5E7EB"/>
<path d="M41.3673 46.1516C41.2961 46.1516 41.2339 46.1516 41.1627 46.1249C40.6734 46.009 40.3709 45.5187 40.4866 45.0373L45.5308 25.0515C45.6465 24.5613 46.1358 24.2582 46.6162 24.3741C47.1055 24.4899 47.4079 24.9802 47.2923 25.4616L42.248 45.4474C42.1502 45.8663 41.7765 46.1516 41.3673 46.1516Z" fill="#E5E7EB"/>
<path d="M38.8498 48.6208C36.9904 48.6208 35.478 47.1054 35.478 45.2423C35.478 43.3792 36.9904 41.8638 38.8498 41.8638C40.7091 41.8638 42.2215 43.3792 42.2215 45.2423C42.2215 47.1054 40.7091 48.6208 38.8498 48.6208ZM38.8498 43.6912C37.9957 43.6912 37.2929 44.3865 37.2929 45.2512C37.2929 46.1159 37.9868 46.8112 38.8498 46.8112C39.7127 46.8112 40.4066 46.1159 40.4066 45.2512C40.4066 44.3865 39.7127 43.6912 38.8498 43.6912Z" fill="#E5E7EB"/>
<path d="M31.1454 24.3474H28.9747C26.804 24.3474 26.4481 26.3085 26.8039 28.6887C27.1865 31.2025 27.8893 38.1556 27.8893 40.3307C27.8893 42.5058 26.8306 44.5026 26.8306 46.4013C26.8306 48.3 27.2399 50.7425 29.2949 50.7425C31.35 50.7425 32.0083 49.3163 32.0083 46.4013C32.0083 44.77 31.1365 39.7156 31.1365 39.7156H34.5705C35.0687 39.7156 35.469 39.3145 35.469 38.8153C35.469 38.3161 35.0687 37.9149 34.5705 37.9149H31.1365V37.0146H34.5705C35.0687 37.0146 35.469 36.6134 35.469 36.1142C35.469 35.615 35.0687 35.2139 34.5705 35.2139H31.1365V34.3136H34.5705C35.0687 34.3136 35.469 33.9124 35.469 33.4132C35.469 32.914 35.0687 32.5129 34.5705 32.5129H31.1365V31.6125H34.5705C35.0687 31.6125 35.469 31.2114 35.469 30.7122C35.469 30.213 35.0687 29.8119 34.5705 29.8119H31.1365V28.9115H34.5705C35.0687 28.9115 35.469 28.5104 35.469 28.0112C35.469 27.512 35.0687 27.1108 34.5705 27.1108H31.1365V26.2105H34.5705C35.0687 26.2105 35.469 25.8094 35.469 25.3102C35.469 24.811 35.0687 24.4098 34.5705 24.4098H31.1365L31.1454 24.3474Z" fill="#E5E7EB"/>
<defs>
<filter id="filter0_d_3490_54214" x="4.83375" y="4.86378" width="71.263" height="81.0059" filterUnits="userSpaceOnUse" color-interpolation-filters="sRGB">
<feFlood flood-opacity="0" result="BackgroundImageFix"/>
<feColorMatrix in="SourceAlpha" type="matrix" values="0 0 0 0 0 0 0 0 0 0 0 0 0 0 0 0 0 0 127 0" result="hardAlpha"/>
<feOffset dx="2.83" dy="2.83"/>
<feGaussianBlur stdDeviation="5.67"/>
<feColorMatrix type="matrix" values="0 0 0 0 0 0 0 0 0 0 0 0 0 0 0 0 0 0 0.15 0"/>
<feBlend mode="normal" in2="BackgroundImageFix" result="effect1_dropShadow_3490_54214"/>
<feBlend mode="normal" in="SourceGraphic" in2="effect1_dropShadow_3490_54214" result="shape"/>
</filter>
</defs>
</svg>
