<svg width="70" height="79" viewBox="0 0 70 79" fill="none" xmlns="http://www.w3.org/2000/svg">
<g filter="url(#filter0_d_3070_48510)">
<path d="M62 26.069C62 46.9837 35 63 35 63C35 63 8 46.9837 8 26.069C8 11.6715 20.0883 0 35 0C49.9117 0 62 11.6715 62 26.069Z" fill="white"/>
</g>
<circle opacity="0.1" cx="35" cy="27" r="22" fill="#13CEA1"/>
<path d="M34.3115 31.6857L40.6867 25.3106C41.1725 24.8246 41.7204 25.1308 43.0334 25.1308C47.7536 25.1308 47.8771 20.0593 43.7719 19.0973C43.391 19.0079 43.0451 18.662 42.9557 18.2815C41.9931 14.1764 36.9222 14.2998 36.9217 19.0197C36.9217 20.3326 37.228 20.8806 36.742 21.3665L30.3669 27.7412C29.881 28.2271 29.3332 27.9209 28.0201 27.9209C23.2999 27.9209 23.1765 32.9924 27.2818 33.9549C27.6627 34.0443 28.0086 34.3902 28.0976 34.7707C29.0602 38.8758 34.1316 38.7524 34.1316 34.0325C34.132 32.7194 33.8256 32.1715 34.3115 31.6855L34.3115 31.6857Z" fill="#13CEA1"/>
<path d="M34.3115 31.6857L40.6867 25.3106C41.1725 24.8246 41.7204 25.1308 43.0334 25.1308C47.7536 25.1308 47.8771 20.0593 43.7719 19.0973C43.391 19.0079 43.0451 18.662 42.9557 18.2815C41.9931 14.1764 36.9222 14.2998 36.9217 19.0197C36.9217 20.3326 37.228 20.8806 36.742 21.3665L30.3669 27.7412C29.881 28.2271 29.3332 27.9209 28.0201 27.9209C23.2999 27.9209 23.1765 32.9924 27.2818 33.9549C27.6627 34.0443 28.0086 34.3902 28.0976 34.7707C29.0602 38.8758 34.1316 38.7524 34.1316 34.0325C34.132 32.7194 33.8256 32.1715 34.3115 31.6855L34.3115 31.6857Z" fill="#13CEA1"/>
<defs>
<filter id="filter0_d_3070_48510" x="0" y="0" width="70" height="79" filterUnits="userSpaceOnUse" color-interpolation-filters="sRGB">
<feFlood flood-opacity="0" result="BackgroundImageFix"/>
<feColorMatrix in="SourceAlpha" type="matrix" values="0 0 0 0 0 0 0 0 0 0 0 0 0 0 0 0 0 0 127 0" result="hardAlpha"/>
<feOffset dy="8"/>
<feGaussianBlur stdDeviation="4"/>
<feColorMatrix type="matrix" values="0 0 0 0 0.295833 0 0 0 0 0.295833 0 0 0 0 0.295833 0 0 0 0.16 0"/>
<feBlend mode="normal" in2="BackgroundImageFix" result="effect1_dropShadow_3070_48510"/>
<feBlend mode="normal" in="SourceGraphic" in2="effect1_dropShadow_3070_48510" result="shape"/>
</filter>
</defs>
</svg>
