<svg width="28" height="28" viewBox="0 0 28 28" fill="none" xmlns="http://www.w3.org/2000/svg">
<path d="M7.79588 21.1108L7.62417 21.4702L7.93609 21.7179C9.60788 23.0455 11.7116 23.833 13.9987 23.833C16.2858 23.833 18.3895 23.0455 20.0613 21.7179L20.3703 21.4725L20.2035 21.1149C20.0186 20.7188 19.6334 20.3939 19.2181 20.1347C18.7872 19.8658 18.2534 19.6246 17.6792 19.4226C16.5336 19.0195 15.1618 18.7497 13.9987 18.7497C12.8355 18.7497 11.4665 19.0196 10.3223 19.4227C9.74884 19.6247 9.21562 19.8659 8.78448 20.1346C8.3684 20.3939 7.98375 20.7176 7.79588 21.1108ZM21.0324 19.9521L21.4337 20.4404L21.8165 19.9375C23.0688 18.2924 23.832 16.2389 23.832 13.9997C23.832 8.57853 19.4198 4.16634 13.9987 4.16634C8.57756 4.16634 4.16536 8.57853 4.16536 13.9997C4.16536 16.2389 4.9286 18.2924 6.18085 19.9375L6.56367 20.4404L6.96498 19.9521C7.70317 19.0539 9.01467 18.4104 10.4179 17.9936C11.8077 17.5807 13.1977 17.4163 13.9987 17.4163C14.7997 17.4163 16.1897 17.5807 17.5794 17.9936C18.9827 18.4104 20.2942 19.0539 21.0324 19.9521ZM2.83203 13.9997C2.83203 7.83582 7.83484 2.83301 13.9987 2.83301C20.1626 2.83301 25.1654 7.83582 25.1654 13.9997C25.1654 20.1635 20.1626 25.1663 13.9987 25.1663C7.83484 25.1663 2.83203 20.1635 2.83203 13.9997ZM10.4154 11.083C10.4154 9.09582 12.0115 7.49967 13.9987 7.49967C15.9859 7.49967 17.582 9.09582 17.582 11.083C17.582 13.0702 15.9859 14.6663 13.9987 14.6663C12.0115 14.6663 10.4154 13.0702 10.4154 11.083ZM11.7487 11.083C11.7487 12.3275 12.7542 13.333 13.9987 13.333C15.2432 13.333 16.2487 12.3275 16.2487 11.083C16.2487 9.83853 15.2432 8.83301 13.9987 8.83301C12.7542 8.83301 11.7487 9.83853 11.7487 11.083Z" fill="black" stroke="#333333"/>
</svg>
