<svg width="24" height="24" viewBox="0 0 24 24" fill="none" xmlns="http://www.w3.org/2000/svg">
<path d="M21.7085 12.7336C21.7085 11.8702 21.6394 11.2402 21.4899 10.5869H11.7656V14.4835H17.4735C17.3585 15.4519 16.7371 16.9102 15.3561 17.8902L15.3367 18.0206L18.4113 20.4353L18.6244 20.4569C20.5807 18.6252 21.7085 15.9302 21.7085 12.7336Z" fill="#4285F4"/>
<path d="M11.7651 22.9995C14.5615 22.9995 16.9091 22.0661 18.6239 20.4562L15.3556 17.8894C14.481 18.5078 13.3071 18.9395 11.7651 18.9395C9.02624 18.9395 6.70165 17.1078 5.873 14.5762L5.75154 14.5866L2.5545 17.095L2.5127 17.2128C4.21586 20.6428 7.71428 22.9995 11.7651 22.9995Z" fill="#34A853"/>
<path d="M5.87325 14.5765C5.6546 13.9231 5.52806 13.2231 5.52806 12.4998C5.52806 11.7764 5.6546 11.0764 5.86175 10.4231L5.85595 10.284L2.61885 7.73535L2.51294 7.78642C1.81099 9.20977 1.4082 10.8081 1.4082 12.4998C1.4082 14.1915 1.81099 15.7897 2.51294 17.2131L5.87325 14.5765Z" fill="#FBBC05"/>
<path d="M11.7651 6.05997C13.7099 6.05997 15.0218 6.91163 15.7699 7.62335L18.6929 4.73C16.8977 3.03834 14.5615 2 11.7651 2C7.71429 2 4.21586 4.35665 2.5127 7.78662L5.8615 10.4233C6.70166 7.89166 9.02625 6.05997 11.7651 6.05997Z" fill="#EB4335"/>
</svg>
