<svg width="375" height="210" viewBox="0 0 375 210" fill="none" xmlns="http://www.w3.org/2000/svg">
<rect width="375" height="210" fill="#F1F2F5"/>
<path d="M168.063 54.3986C160.162 58.0702 153.487 62.4448 148.204 67.422C141.206 74.0174 136.681 81.6507 134.753 90.0986C133.36 96.1918 133.917 101.504 136.28 104.707C138.152 106.861 140.492 108.055 142.888 108.055H142.944C144.393 108.055 145.92 107.787 147.469 107.273C150.734 106.213 153.988 104.126 157.153 101.057C166.982 91.594 174.928 73.85 179.564 51.0842L179.821 49.8008L179.542 49.8901C175.575 51.1957 171.73 52.7023 168.119 54.354L168.075 54.3763L168.063 54.3986Z" fill="white"/>
<path d="M233.632 82.1867C233.364 81.6845 233.119 81.1712 232.885 80.6578C232.54 79.8766 232.239 79.0843 231.971 78.2696C231.771 77.455 231.592 76.6403 231.436 75.8145C231.28 74.9886 231.135 74.1628 231.002 73.337C230.979 72.5335 230.912 71.73 230.812 70.9265C230.712 70.123 230.567 69.3307 230.389 68.5272C228.951 60.8269 224.181 55.7604 218.03 52.2451C215.979 51.0733 213.772 50.0801 211.477 49.2208C209.025 48.4954 206.362 47.8928 203.564 47.4575C201.302 47.1451 198.939 47 196.521 47C196.387 47 196.265 47 196.131 47C193.479 47.0558 190.659 47.3125 187.773 47.8035C187.45 47.8481 187.126 47.8928 186.803 47.9486L185.901 52.4013C179.626 83.2134 169.251 98.413 161.639 105.745C160.614 106.749 159.567 107.653 158.508 108.49C162.286 117.106 169.095 123.578 177.409 127.484C178.2 127.864 179.013 128.209 179.838 128.533C182.713 129.515 185.6 130.229 188.519 130.732C189.244 130.854 189.979 130.966 190.704 131.066C193.501 131.591 196.309 131.836 199.118 131.836C202.595 131.836 206.049 131.457 209.404 130.776C210.273 130.598 211.131 130.397 212.001 130.185C217.796 128.544 223.468 126.926 228.082 123.746C228.494 123.444 228.851 123.165 229.163 122.909C232.372 120.442 234.802 117.195 236.997 113.947C237.521 113.166 238.011 112.374 238.468 111.559C243.896 101.794 243.65 89.965 233.621 82.209L233.632 82.1867Z" fill="white"/>
<path d="M218.552 114.997C212.534 114.997 208.834 111.772 208.678 111.626C207.731 110.789 207.641 109.339 208.488 108.39C209.324 107.442 210.773 107.352 211.72 108.2C211.809 108.279 214.339 110.41 218.552 110.41C222.764 110.41 225.294 108.279 225.394 108.189C226.353 107.375 227.79 107.464 228.626 108.412C229.451 109.361 229.373 110.789 228.426 111.626C228.27 111.76 224.57 114.997 218.552 114.997Z" fill="#F1F2F5"/>
<path d="M197.227 80.8038C199.812 80.8038 201.908 78.3056 201.908 75.2239C201.908 72.1422 199.812 69.644 197.227 69.644C194.642 69.644 192.547 72.1422 192.547 75.2239C192.547 78.3056 194.642 80.8038 197.227 80.8038Z" fill="#F1F2F5"/>
<path d="M223.188 80.8038C225.773 80.8038 227.869 78.3056 227.869 75.2239C227.869 72.1422 225.773 69.644 223.188 69.644C220.603 69.644 218.508 72.1422 218.508 75.2239C218.508 78.3056 220.603 80.8038 223.188 80.8038Z" fill="#F1F2F5"/>
<path d="M232.813 100.133L235.599 95.3007C237.114 92.6782 235.22 89.3972 232.2 89.3972H226.628C223.608 89.3972 221.713 92.6782 223.229 95.3007L226.015 100.133C227.53 102.755 231.308 102.755 232.813 100.133Z" fill="#F1F2F5"/>
<path d="M206.406 161.824C210.518 153.141 212.97 144.414 213.772 136.413C213.772 136.413 213.772 136.413 213.761 136.413L213.672 136.435L213.583 136.458C212.613 136.703 211.644 136.926 210.697 137.116C206.818 137.908 202.918 138.31 199.118 138.31C195.908 138.31 192.732 138.02 189.678 137.462C188.921 137.361 188.163 137.239 187.416 137.105C184.095 136.524 180.841 135.71 177.754 134.661L177.609 134.616L177.464 134.56C176.528 134.192 175.581 133.779 174.656 133.344C168.148 130.286 162.642 125.967 158.407 120.7C154.306 125.208 150.462 130.431 147.107 136.257C145.369 139.27 143.853 142.305 142.516 145.341C154.719 156.902 171.168 164 189.288 164C195.195 164 200.923 163.241 206.395 161.824H206.406Z" fill="white"/>
</svg>
