<svg width="160" height="90" viewBox="0 0 160 90" fill="none" xmlns="http://www.w3.org/2000/svg">
<rect width="160" height="90" fill="#F1F2F5"/>
<path d="M95.3165 47.3171L94.0165 46.0171L89.9998 42.0005L82.3498 34.3505L65.9832 17.9838L64.6832 16.6838C64.0332 16.0338 62.9832 16.0338 62.3332 16.6838C61.6665 17.3338 61.6665 18.3838 62.3165 19.0338L64.9998 21.7171V43.6671C64.9998 45.5005 66.4998 47.0005 68.3332 47.0005H90.2832L92.9665 49.6838C93.6165 50.3338 94.6665 50.3338 95.3165 49.6838C95.9665 49.0338 95.9665 47.9671 95.3165 47.3171ZM70.0332 42.0005C69.3332 42.0005 68.9498 41.2005 69.3832 40.6505L73.5332 35.3171C73.8665 34.9005 74.4998 34.8838 74.8332 35.3005L78.3332 39.5171L80.2832 37.0005L85.2832 42.0005H70.0332ZM94.9998 42.2838L69.7165 17.0005H91.6665C93.4998 17.0005 94.9998 18.5005 94.9998 20.3338V42.2838Z" fill="#D4D8E1"/>
<path d="M59.4136 73H57.3616L53.9296 67.804V73H51.8776V64.576H53.9296L57.3616 69.796V64.576H59.4136V73ZM63.749 73.096C63.093 73.096 62.501 72.956 61.973 72.676C61.453 72.396 61.041 71.996 60.737 71.476C60.441 70.956 60.293 70.348 60.293 69.652C60.293 68.964 60.445 68.36 60.749 67.84C61.053 67.312 61.469 66.908 61.997 66.628C62.525 66.348 63.117 66.208 63.773 66.208C64.429 66.208 65.021 66.348 65.549 66.628C66.077 66.908 66.493 67.312 66.797 67.84C67.101 68.36 67.253 68.964 67.253 69.652C67.253 70.34 67.097 70.948 66.785 71.476C66.481 71.996 66.061 72.396 65.525 72.676C64.997 72.956 64.405 73.096 63.749 73.096ZM63.749 71.32C64.141 71.32 64.473 71.176 64.745 70.888C65.025 70.6 65.165 70.188 65.165 69.652C65.165 69.116 65.029 68.704 64.757 68.416C64.493 68.128 64.165 67.984 63.773 67.984C63.373 67.984 63.041 68.128 62.777 68.416C62.513 68.696 62.381 69.108 62.381 69.652C62.381 70.188 62.509 70.6 62.765 70.888C63.029 71.176 63.357 71.32 63.749 71.32ZM71.5166 65.608C71.1566 65.608 70.8606 65.504 70.6286 65.296C70.4046 65.08 70.2926 64.816 70.2926 64.504C70.2926 64.184 70.4046 63.92 70.6286 63.712C70.8606 63.496 71.1566 63.388 71.5166 63.388C71.8686 63.388 72.1566 63.496 72.3806 63.712C72.6126 63.92 72.7286 64.184 72.7286 64.504C72.7286 64.816 72.6126 65.08 72.3806 65.296C72.1566 65.504 71.8686 65.608 71.5166 65.608ZM72.5366 66.304V73H70.4846V66.304H72.5366ZM82.3677 66.232C83.1997 66.232 83.8597 66.484 84.3477 66.988C84.8437 67.492 85.0917 68.192 85.0917 69.088V73H83.0517V69.364C83.0517 68.932 82.9357 68.6 82.7037 68.368C82.4797 68.128 82.1677 68.008 81.7677 68.008C81.3677 68.008 81.0517 68.128 80.8197 68.368C80.5957 68.6 80.4837 68.932 80.4837 69.364V73H78.4437V69.364C78.4437 68.932 78.3277 68.6 78.0957 68.368C77.8717 68.128 77.5597 68.008 77.1597 68.008C76.7597 68.008 76.4437 68.128 76.2117 68.368C75.9877 68.6 75.8757 68.932 75.8757 69.364V73H73.8237V66.304H75.8757V67.144C76.0837 66.864 76.3557 66.644 76.6917 66.484C77.0277 66.316 77.4077 66.232 77.8317 66.232C78.3357 66.232 78.7837 66.34 79.1757 66.556C79.5757 66.772 79.8877 67.08 80.1117 67.48C80.3437 67.112 80.6597 66.812 81.0597 66.58C81.4597 66.348 81.8957 66.232 82.3677 66.232ZM85.9188 69.64C85.9188 68.952 86.0468 68.348 86.3028 67.828C86.5668 67.308 86.9228 66.908 87.3708 66.628C87.8188 66.348 88.3188 66.208 88.8708 66.208C89.3428 66.208 89.7548 66.304 90.1068 66.496C90.4668 66.688 90.7428 66.94 90.9348 67.252V66.304H92.9868V73H90.9348V72.052C90.7348 72.364 90.4548 72.616 90.0948 72.808C89.7428 73 89.3308 73.096 88.8588 73.096C88.3148 73.096 87.8188 72.956 87.3708 72.676C86.9228 72.388 86.5668 71.984 86.3028 71.464C86.0468 70.936 85.9188 70.328 85.9188 69.64ZM90.9348 69.652C90.9348 69.14 90.7908 68.736 90.5028 68.44C90.2228 68.144 89.8788 67.996 89.4708 67.996C89.0628 67.996 88.7148 68.144 88.4268 68.44C88.1468 68.728 88.0068 69.128 88.0068 69.64C88.0068 70.152 88.1468 70.56 88.4268 70.864C88.7148 71.16 89.0628 71.308 89.4708 71.308C89.8788 71.308 90.2228 71.16 90.5028 70.864C90.7908 70.568 90.9348 70.164 90.9348 69.652ZM96.8153 66.208C97.2873 66.208 97.6993 66.304 98.0513 66.496C98.4113 66.688 98.6873 66.94 98.8793 67.252V66.304H100.931V72.988C100.931 73.604 100.807 74.16 100.559 74.656C100.319 75.16 99.9473 75.56 99.4433 75.856C98.9473 76.152 98.3273 76.3 97.5833 76.3C96.5913 76.3 95.7873 76.064 95.1713 75.592C94.5553 75.128 94.2033 74.496 94.1153 73.696H96.1433C96.2073 73.952 96.3593 74.152 96.5993 74.296C96.8393 74.448 97.1353 74.524 97.4873 74.524C97.9113 74.524 98.2473 74.4 98.4953 74.152C98.7513 73.912 98.8793 73.524 98.8793 72.988V72.04C98.6793 72.352 98.4033 72.608 98.0513 72.808C97.6993 73 97.2873 73.096 96.8153 73.096C96.2633 73.096 95.7633 72.956 95.3153 72.676C94.8673 72.388 94.5113 71.984 94.2473 71.464C93.9913 70.936 93.8633 70.328 93.8633 69.64C93.8633 68.952 93.9913 68.348 94.2473 67.828C94.5113 67.308 94.8673 66.908 95.3153 66.628C95.7633 66.348 96.2633 66.208 96.8153 66.208ZM98.8793 69.652C98.8793 69.14 98.7353 68.736 98.4473 68.44C98.1673 68.144 97.8233 67.996 97.4153 67.996C97.0073 67.996 96.6593 68.144 96.3713 68.44C96.0913 68.728 95.9513 69.128 95.9513 69.64C95.9513 70.152 96.0913 70.56 96.3713 70.864C96.6593 71.16 97.0073 71.308 97.4153 71.308C97.8233 71.308 98.1673 71.16 98.4473 70.864C98.7353 70.568 98.8793 70.164 98.8793 69.652ZM108.528 69.544C108.528 69.736 108.516 69.936 108.492 70.144H103.848C103.88 70.56 104.012 70.88 104.244 71.104C104.484 71.32 104.776 71.428 105.12 71.428C105.632 71.428 105.988 71.212 106.188 70.78H108.372C108.26 71.22 108.056 71.616 107.76 71.968C107.472 72.32 107.108 72.596 106.668 72.796C106.228 72.996 105.736 73.096 105.192 73.096C104.536 73.096 103.952 72.956 103.44 72.676C102.928 72.396 102.528 71.996 102.24 71.476C101.952 70.956 101.808 70.348 101.808 69.652C101.808 68.956 101.948 68.348 102.228 67.828C102.516 67.308 102.916 66.908 103.428 66.628C103.94 66.348 104.528 66.208 105.192 66.208C105.84 66.208 106.416 66.344 106.92 66.616C107.424 66.888 107.816 67.276 108.096 67.78C108.384 68.284 108.528 68.872 108.528 69.544ZM106.428 69.004C106.428 68.652 106.308 68.372 106.068 68.164C105.828 67.956 105.528 67.852 105.168 67.852C104.824 67.852 104.532 67.952 104.292 68.152C104.06 68.352 103.916 68.636 103.86 69.004H106.428Z" fill="#D4D8E1"/>
</svg>
