<svg width="24" height="24" viewBox="0 0 24 24" fill="none" xmlns="http://www.w3.org/2000/svg">
<path d="M20.2582 9.56663L18.476 11.3488C18.3213 11.5037 18.1114 11.5906 17.8925 11.5906C17.6735 11.5906 17.4636 11.5037 17.3088 11.3488L15.5169 9.55655L14.9021 10.1713L16.6946 11.9634C16.9031 12.1719 16.9845 12.4758 16.9082 12.7606C16.832 13.0455 16.6095 13.2678 16.3246 13.3442C16.0398 13.4205 15.7359 13.3391 15.5274 13.1306L13.7349 11.3384L13.1203 11.9529L14.9123 13.7452C15.0676 13.8999 15.155 14.1099 15.1551 14.3291C15.1554 14.5482 15.0683 14.7585 14.9134 14.9134C14.7584 15.0683 14.5482 15.1554 14.3291 15.1551C14.1099 15.155 13.8999 15.0677 13.7452 14.9125L11.9532 13.1201L11.3382 13.7349L13.1302 15.5271V15.527C13.2854 15.6817 13.3727 15.8918 13.373 16.1109C13.3731 16.3301 13.2862 16.5403 13.1311 16.6952C12.9762 16.8502 12.7661 16.9371 12.5469 16.937C12.3277 16.9367 12.1177 16.8494 11.9629 16.6942L10.171 14.902L9.55609 15.5169L11.3487 17.3091L11.3489 17.3093C11.5036 17.464 11.5907 17.6739 11.5907 17.8929C11.5907 18.1118 11.5036 18.3217 11.3489 18.4765L9.5666 20.2582C9.41183 20.4131 9.20192 20.5 8.98292 20.5C8.76404 20.5 8.55414 20.4131 8.39938 20.2582L4.24182 16.1006C4.08692 15.9459 4 15.7358 4 15.5169C4 15.298 4.08692 15.0882 4.24182 14.9334L14.9334 4.24182C15.0882 4.08692 15.2981 4 15.5171 4C15.736 4 15.9459 4.08692 16.1006 4.24182L20.2582 8.39938C20.4131 8.55414 20.5 8.76406 20.5 8.98306C20.5 9.20194 20.4131 9.41183 20.2582 9.5666L20.2582 9.56663Z" fill="#333333"/>
</svg>
