<svg width="24" height="24" viewBox="0 0 24 24" fill="none" xmlns="http://www.w3.org/2000/svg">
<path d="M18.8264 9.60938H3.44142V11.7388C3.44142 11.8089 3.44778 11.879 3.46051 11.9428H3.44142C3.44142 14.7416 4.93029 17.1898 7.15088 18.5414H4.28766C3.81682 18.5414 3.43506 18.9239 3.43506 19.3957C3.43506 19.8675 3.81682 20.25 4.28766 20.25H17.9738C18.4447 20.25 18.8264 19.8675 18.8264 19.3957C18.8264 18.9239 18.4447 18.5414 17.9738 18.5414H15.1106C16.5931 17.6425 17.7511 16.2526 18.3556 14.595C18.5083 14.6205 18.661 14.6396 18.8201 14.6396C20.2071 14.6396 21.327 13.5112 21.327 12.1277C21.327 10.7442 20.2008 9.61575 18.8201 9.61575L18.8264 9.60938ZM18.8264 13.1159C18.8264 13.1159 18.7692 13.1159 18.7374 13.1095C18.7946 12.7334 18.8264 12.3445 18.8264 11.9492H18.8073C18.8201 11.8854 18.8264 11.8153 18.8264 11.7452V11.1395C19.3736 11.1395 19.8126 11.5858 19.8126 12.1277C19.8126 12.6696 19.3673 13.1159 18.8264 13.1159V13.1159Z" fill="#965F36"/>
<path d="M6.34902 6.10919C6.56536 6.2112 6.59717 6.40884 6.59717 6.49172C6.59717 6.5746 6.58444 6.77224 6.38084 6.89337L5.81456 7.2249C5.56005 7.37153 5.47733 7.69668 5.63004 7.9517C5.73184 8.11747 5.90363 8.2131 6.08815 8.2131C6.17723 8.2131 6.27267 8.1876 6.35539 8.13659L6.92166 7.80507C7.39887 7.52455 7.67883 7.00176 7.65338 6.44709C7.62793 5.89242 7.30343 5.39514 6.80714 5.15924C6.59717 5.05724 6.56535 4.86597 6.55899 4.78947C6.55899 4.71296 6.55899 4.51532 6.75624 4.38781L7.39251 3.9734C7.63429 3.81402 7.70428 3.48249 7.54521 3.24023C7.38614 2.99158 7.05528 2.92783 6.8135 3.08721L6.17723 3.50162C5.71912 3.80127 5.46461 4.31131 5.50278 4.8596C5.54096 5.40789 5.85273 5.87967 6.34902 6.11557V6.10919Z" fill="#965F36"/>
<path d="M10.6439 6.10919C10.8603 6.2112 10.8921 6.40884 10.8921 6.49172C10.8921 6.5746 10.8794 6.77224 10.6758 6.89337L10.1095 7.2249C9.85497 7.37153 9.77225 7.69668 9.92496 7.9517C10.0268 8.11747 10.1986 8.2131 10.3831 8.2131C10.4722 8.2131 10.5676 8.1876 10.6503 8.13659L11.2166 7.80507C11.6938 7.52455 11.9737 7.00176 11.9483 6.44709C11.9228 5.89242 11.5983 5.39514 11.1021 5.15924C10.8921 5.05724 10.8603 4.86597 10.8539 4.78947C10.8539 4.71296 10.8539 4.51532 11.0512 4.38781L11.6874 3.9734C11.9292 3.81402 11.9992 3.48249 11.8401 3.24023C11.6811 2.99158 11.3502 2.92783 11.1084 3.08721L10.4722 3.50162C10.014 3.80127 9.75953 4.31131 9.79771 4.8596C9.83588 5.40789 10.1477 5.87967 10.6439 6.11557V6.10919Z" fill="#965F36"/>
<path d="M14.9452 6.10919C15.1615 6.2112 15.1934 6.40884 15.1934 6.49172C15.1934 6.5746 15.1806 6.77224 14.977 6.89337L14.4107 7.2249C14.1562 7.37153 14.0735 7.69668 14.2262 7.9517C14.328 8.11747 14.4998 8.2131 14.6843 8.2131C14.7734 8.2131 14.8689 8.1876 14.9516 8.13659L15.5179 7.80507C15.9951 7.52455 16.275 7.00176 16.2496 6.44709C16.2241 5.89242 15.8996 5.39514 15.4033 5.15924C15.1934 5.05724 15.1615 4.86597 15.1552 4.78947C15.1552 4.71296 15.1552 4.51532 15.3524 4.38781L15.9887 3.9734C16.2305 3.81402 16.3005 3.48249 16.1414 3.24023C15.9823 2.99158 15.6515 2.92783 15.4097 3.08721L14.7734 3.50162C14.3153 3.80127 14.0608 4.31131 14.099 4.8596C14.1372 5.40789 14.4489 5.87967 14.9452 6.11557V6.10919Z" fill="#965F36"/>
</svg>
