<svg width="26" height="25" viewBox="0 0 26 25" fill="none" xmlns="http://www.w3.org/2000/svg">
<path d="M22.2377 9.34888H0.726182V12.3262C0.726182 12.4243 0.735079 12.5224 0.752872 12.6115H0.726182C0.726182 16.5249 2.80794 19.9479 5.91278 21.8378H1.9094C1.25107 21.8378 0.717285 22.3726 0.717285 23.0323C0.717285 23.6919 1.25107 24.2268 1.9094 24.2268H21.0455C21.7039 24.2268 22.2377 23.6919 22.2377 23.0323C22.2377 22.3726 21.7039 21.8378 21.0455 21.8378H17.0422C19.115 20.5808 20.7342 18.6375 21.5793 16.3198C21.7928 16.3555 22.0064 16.3822 22.2288 16.3822C24.1682 16.3822 25.7339 14.8044 25.7339 12.87C25.7339 10.9356 24.1593 9.35779 22.2288 9.35779L22.2377 9.34888ZM22.2377 14.2517C22.2377 14.2517 22.1576 14.2517 22.1131 14.2428C22.1932 13.7169 22.2377 13.1731 22.2377 12.6204H22.211C22.2288 12.5313 22.2377 12.4332 22.2377 12.3352V11.4883C23.0028 11.4883 23.6166 12.1123 23.6166 12.87C23.6166 13.6277 22.9939 14.2517 22.2377 14.2517Z" fill="#965F36"/>
<path d="M4.79199 4.45497C5.09447 4.5976 5.13895 4.87394 5.13895 4.98982C5.13895 5.10571 5.12116 5.38205 4.83648 5.55142L4.0447 6.01497C3.68884 6.21999 3.57319 6.67462 3.7867 7.03119C3.92904 7.26296 4.16925 7.39668 4.42724 7.39668C4.55179 7.39668 4.68524 7.36102 4.80089 7.28971L5.59267 6.82616C6.2599 6.43394 6.65134 5.70297 6.61576 4.92742C6.58017 4.15188 6.12645 3.45657 5.43253 3.12674C5.13895 2.98412 5.09447 2.71669 5.08557 2.60972C5.08557 2.50275 5.08558 2.2264 5.36136 2.04812L6.251 1.46869C6.58907 1.24583 6.68692 0.782293 6.46451 0.443551C6.24211 0.0958951 5.77949 0.00675269 5.44143 0.229609L4.55179 0.809036C3.91125 1.22801 3.55539 1.94115 3.60877 2.70777C3.66215 3.4744 4.09808 4.13406 4.79199 4.46388V4.45497Z" fill="#965F36"/>
<path d="M10.7969 4.45497C11.0994 4.5976 11.1438 4.87394 11.1438 4.98982C11.1438 5.10571 11.126 5.38205 10.8414 5.55142L10.0496 6.01497C9.69372 6.21999 9.57807 6.67462 9.79158 7.03119C9.93393 7.26296 10.1741 7.39668 10.4321 7.39668C10.5567 7.39668 10.6901 7.36102 10.8058 7.28971L11.5976 6.82616C12.2648 6.43394 12.6562 5.70297 12.6206 4.92742C12.5851 4.15188 12.1313 3.45657 11.4374 3.12674C11.1438 2.98412 11.0994 2.71669 11.0905 2.60972C11.0905 2.50275 11.0905 2.2264 11.3662 2.04812L12.2559 1.46869C12.5939 1.24583 12.6918 0.782293 12.4694 0.443551C12.247 0.0958951 11.7844 0.00675269 11.4463 0.229609L10.5567 0.809036C9.91613 1.22801 9.56028 1.94115 9.61366 2.70777C9.66703 3.4744 10.103 4.13406 10.7969 4.46388V4.45497Z" fill="#965F36"/>
<path d="M16.811 4.45497C17.1135 4.5976 17.158 4.87394 17.158 4.98982C17.158 5.10571 17.1402 5.38205 16.8555 5.55142L16.0637 6.01497C15.7079 6.21999 15.5922 6.67462 15.8057 7.03119C15.9481 7.26296 16.1883 7.39668 16.4463 7.39668C16.5708 7.39668 16.7043 7.36102 16.8199 7.28971L17.6117 6.82616C18.2789 6.43394 18.6704 5.70297 18.6348 4.92742C18.5992 4.15188 18.1455 3.45657 17.4516 3.12674C17.158 2.98412 17.1135 2.71669 17.1046 2.60972C17.1046 2.50275 17.1046 2.2264 17.3804 2.04812L18.27 1.46869C18.6081 1.24583 18.706 0.782293 18.4836 0.443551C18.2612 0.0958951 17.7985 0.00675269 17.4605 0.229609L16.5708 0.809036C15.9303 1.22801 15.5744 1.94115 15.6278 2.70777C15.6812 3.4744 16.1171 4.13406 16.811 4.46388V4.45497Z" fill="#965F36"/>
</svg>
