<svg width="24" height="24" viewBox="0 0 24 24" fill="none" xmlns="http://www.w3.org/2000/svg">
<path d="M13.125 6.59014C13.125 5.97523 12.63 5.47211 12 5.47211C11.3813 5.47211 10.875 5.96405 10.875 6.59014V8.8262H8.625C8.00625 8.8262 7.5 9.31813 7.5 9.94423C7.5 10.5591 7.995 11.0623 8.625 11.0623H10.875V13.2983C10.875 13.9132 11.37 14.4163 12 14.4163C12.6187 14.4163 13.125 13.9244 13.125 13.2983V11.0623H15.375C15.9937 11.0623 16.5 10.5703 16.5 9.94423C16.5 9.32931 16.005 8.8262 15.375 8.8262H13.125V6.59014ZM12 1C16.725 1 21 4.60005 21 10.1678C21 13.7232 18.2437 17.9046 12.7425 22.7233C12.315 23.0922 11.6737 23.0922 11.2463 22.7233C5.75625 17.9046 3 13.7232 3 10.1678C3 4.60005 7.275 1 12 1Z" fill="#333333"/>
</svg>
