<svg width="48" height="48" viewBox="0 0 48 48" fill="none" xmlns="http://www.w3.org/2000/svg">
<path d="M46 24C46 36.1503 36.1503 46 24 46C11.8497 46 2 36.1503 2 24C2 11.8497 11.8497 2 24 2C36.1503 2 46 11.8497 46 24Z" fill="#F1F2F5"/>
<path d="M33.4657 17.9136C33.4657 14.9116 31.01 12.4762 27.9781 12.4762L23.9989 12.5296L20.0197 12.4762C16.99 12.4762 14.5321 14.9094 14.5321 17.9136L13.4855 19.6647L14.299 27.0628C14.4976 28.876 15.2248 30.5951 16.3901 32.0084L16.6188 32.2864C18.4272 34.4823 21.1375 35.7566 23.9989 35.7566C26.8603 35.7566 29.5707 34.4823 31.379 32.2864L31.6078 32.0084C32.7731 30.5951 33.4981 28.876 33.6988 27.0628L34.5123 19.6647L33.4657 17.9136Z" fill="white"/>
<path d="M19.1069 22.6624C19.9912 22.6624 20.7081 21.9521 20.7081 21.0759C20.7081 20.1997 19.9912 19.4894 19.1069 19.4894C18.2226 19.4894 17.5057 20.1997 17.5057 21.0759C17.5057 21.9521 18.2226 22.6624 19.1069 22.6624Z" fill="#A7ABB5"/>
<path d="M28.8953 22.6624C29.7796 22.6624 30.4964 21.9521 30.4964 21.0759C30.4964 20.1997 29.7796 19.4894 28.8953 19.4894C28.011 19.4894 27.2941 20.1997 27.2941 21.0759C27.2941 21.9521 28.011 22.6624 28.8953 22.6624Z" fill="#A7ABB5"/>
<path d="M26.6791 27.9181C27.594 26.3465 26.4503 24.3815 24.6182 24.3815H23.3839C21.5518 24.3815 20.4081 26.3465 21.3231 27.9181C22.5121 29.96 25.4879 29.96 26.6791 27.9181Z" fill="#A7ABB5"/>
<path d="M15.7448 14.5032L7.81663 22.1642C7.14335 22.8143 7.04625 23.8513 7.58573 24.6146L11.0535 29.5196C11.9124 30.734 13.7833 30.548 14.381 29.1881C14.4652 28.9979 14.517 28.7969 14.5343 28.5895L15.7448 14.5032Z" fill="#A7ABB5"/>
<path d="M32.2573 14.5032L40.1834 22.1642C40.8567 22.8143 40.9538 23.8513 40.4143 24.6146L36.9465 29.5196C36.0876 30.734 34.2167 30.548 33.619 29.1881C33.5348 28.9979 33.483 28.7969 33.4657 28.5895L32.2551 14.5032H32.2573Z" fill="#A7ABB5"/>
<circle cx="24" cy="24" r="23" stroke="white" stroke-width="2"/>
</svg>
