<svg width="24" height="24" viewBox="0 0 24 24" fill="none" xmlns="http://www.w3.org/2000/svg">
<path d="M13.7558 12.0041C13.7558 12.9764 12.9681 13.7647 11.9964 13.7647C11.0247 13.7647 10.237 12.9764 10.237 12.0041C10.237 11.0317 11.0247 10.2434 11.9964 10.2434C12.9681 10.2434 13.7558 11.0317 13.7558 12.0041Z" fill="#A7ABB5"/>
<path fill-rule="evenodd" clip-rule="evenodd" d="M20.7293 5.34658C19.0981 3.18246 16.9355 1.8253 14.2872 1.24759C13.9855 1.1837 13.68 1.14557 13.3755 1.10755C13.1992 1.08555 13.0233 1.06358 12.8486 1.03668C12.8119 1.0321 12.7775 1.02522 12.7432 1.01834C12.7088 1.01146 12.6744 1.00458 12.6378 1H11.3457C11.2365 1.01457 11.1266 1.02851 11.0164 1.04247C10.7107 1.08124 10.4026 1.1203 10.0995 1.17423C7.57031 1.62356 5.44435 2.82483 3.73992 4.75053C2.19127 6.502 1.31156 8.56525 1.05498 10.8944L1 11.3621V12.6551C1.01456 12.7644 1.02849 12.8743 1.04245 12.9846C1.08118 13.2905 1.12022 13.5988 1.17411 13.9022C1.62313 16.4423 2.83272 18.5789 4.76625 20.2753C6.5165 21.8251 8.56915 22.7237 10.8967 22.9438C13.7741 23.2189 16.3857 22.4853 18.6858 20.7155C20.8301 19.0649 22.2138 16.9008 22.7544 14.2506C23.4142 10.9953 22.7453 8.00588 20.7384 5.34658H20.7293ZM18.3104 6.12593C18.2371 5.69494 17.8064 5.54822 17.3574 5.78664C14.9477 7.07942 12.5381 8.38137 10.1284 9.68332L10.1273 9.68389C9.95322 9.77559 9.78828 9.94982 9.68748 10.1332C8.76074 11.8367 7.84342 13.5449 6.9254 15.2545L6.92403 15.257C6.56259 15.9301 6.20104 16.6034 5.83876 17.2766C5.79294 17.3592 5.74712 17.4509 5.71047 17.5426C5.58218 17.9369 5.87541 18.3312 6.34276 18.322L6.37052 18.3117C6.44573 18.2837 6.55718 18.2423 6.65432 18.1936L7.72884 17.6174C9.78267 16.5161 11.8402 15.4129 13.8844 14.2964C14.0585 14.2047 14.2051 14.0396 14.3059 13.8654C14.4866 13.5546 14.6569 13.2369 14.8274 12.9186C14.9336 12.7204 15.04 12.5219 15.149 12.3248C15.5461 11.5843 15.9446 10.8437 16.3434 10.1026C16.957 8.96246 17.5713 7.82098 18.1822 6.67613C18.2738 6.51107 18.3379 6.29099 18.3104 6.11676V6.12593Z" fill="#A7ABB5"/>
</svg>
