<svg width="70" height="79" viewBox="0 0 70 79" fill="none" xmlns="http://www.w3.org/2000/svg">
<g filter="url(#filter0_d_3070_48511)">
<path d="M62 26.069C62 46.9837 35 63 35 63C35 63 8 46.9837 8 26.069C8 11.6715 20.0883 0 35 0C49.9117 0 62 11.6715 62 26.069Z" fill="white"/>
</g>
<circle opacity="0.1" cx="35" cy="27" r="22" fill="#13CEA1"/>
<path d="M33.272 15.4848C35.1965 15.1571 37.1746 15.3635 38.9897 16.0816C40.8047 16.7994 42.387 18.0011 43.5636 19.5555C44.7402 21.1098 45.4657 22.9567 45.6612 24.8948C45.4287 24.9082 45.1972 24.9334 44.9639 24.9334H44.9641C42.2237 24.9377 39.5658 24.0007 37.4363 22.2801C35.307 20.5592 33.8366 18.1598 33.2722 15.4848L33.272 15.4848ZM44.9641 27.0666C41.7529 27.071 38.6369 25.9789 36.1343 23.972C33.6316 21.965 31.8929 19.164 31.2071 16.0349C29.587 16.652 28.1421 17.6538 26.9979 18.9536C25.8535 20.2534 25.044 21.8119 24.6396 23.4942C24.6631 23.494 24.6867 23.4902 24.7101 23.4902L24.7103 23.4904C28.1772 23.4951 31.521 24.7731 34.1033 27.0807C36.6855 29.3881 38.3256 32.5635 38.7102 36.0001C40.5973 35.307 42.2508 34.0979 43.4812 32.511C44.7115 30.9242 45.4689 29.0238 45.6668 27.0277C45.4323 27.0393 45.1989 27.0666 44.964 27.0666L44.9641 27.0666ZM24.7108 25.6234C24.5919 25.6234 24.4727 25.6395 24.3533 25.6431C24.3494 25.7629 24.3338 25.8793 24.3338 26C24.3186 28.056 24.9038 30.072 26.0181 31.8019C27.1322 33.5317 28.7272 34.9004 30.608 35.7411C32.489 36.5818 34.5747 36.858 36.6103 36.5361C36.3547 33.562 34.991 30.7913 32.788 28.7713C30.5851 26.751 27.7031 25.628 24.7107 25.6235L24.7108 25.6234Z" fill="#13CEA1"/>
<defs>
<filter id="filter0_d_3070_48511" x="0" y="0" width="70" height="79" filterUnits="userSpaceOnUse" color-interpolation-filters="sRGB">
<feFlood flood-opacity="0" result="BackgroundImageFix"/>
<feColorMatrix in="SourceAlpha" type="matrix" values="0 0 0 0 0 0 0 0 0 0 0 0 0 0 0 0 0 0 127 0" result="hardAlpha"/>
<feOffset dy="8"/>
<feGaussianBlur stdDeviation="4"/>
<feColorMatrix type="matrix" values="0 0 0 0 0.295833 0 0 0 0 0.295833 0 0 0 0 0.295833 0 0 0 0.16 0"/>
<feBlend mode="normal" in2="BackgroundImageFix" result="effect1_dropShadow_3070_48511"/>
<feBlend mode="normal" in="SourceGraphic" in2="effect1_dropShadow_3070_48511" result="shape"/>
</filter>
</defs>
</svg>
