<svg width="80" height="90" viewBox="0 0 80 90" fill="none" xmlns="http://www.w3.org/2000/svg">
<g filter="url(#filter0_d_3490_54202)">
<path d="M37.6309 13.3738C24.2151 13.3738 13.3438 24.267 13.3438 37.7097C13.3438 43.8249 15.6034 49.4052 19.3221 53.6841L19.42 53.791C19.8114 54.2368 20.2118 54.6646 20.6388 55.0836L35.4157 70.7371C36.6256 72.0207 38.654 72.0207 39.8639 70.7371L54.6497 55.0836C55.0678 54.6736 55.4682 54.2457 55.8507 53.8089L55.9575 53.7019H55.9486C59.6673 49.4231 61.927 43.8427 61.927 37.7275C61.927 24.2938 51.0556 13.3916 37.6398 13.3916L37.6309 13.3738Z" fill="#D4D8E1"/>
</g>
<path d="M37.6307 57.0805C48.3074 57.0805 56.9626 48.4079 56.9626 37.7098C56.9626 27.0117 48.3074 18.3391 37.6307 18.3391C26.954 18.3391 18.2988 27.0117 18.2988 37.7098C18.2988 48.4079 26.954 57.0805 37.6307 57.0805Z" fill="white"/>
<path d="M41.1098 29.8205L40.7628 28.0822C40.6327 27.4159 40.04 26.9233 39.346 26.9233H28.9662C28.1711 26.9233 27.5205 27.5752 27.5205 28.3719V50.1004C27.5205 50.8971 28.1711 51.549 28.9662 51.549C29.7613 51.549 30.4118 50.8971 30.4118 50.1004V41.409H38.5076L38.8545 43.1473C38.9846 43.8281 39.5773 44.3062 40.2713 44.3062H47.7598C48.5549 44.3062 49.2055 43.6543 49.2055 42.8576V31.269C49.2055 30.4723 48.5549 29.8205 47.7598 29.8205H41.1098Z" fill="#D4D8E1"/>
<defs>
<filter id="filter0_d_3490_54202" x="4.83375" y="4.86378" width="71.263" height="81.0059" filterUnits="userSpaceOnUse" color-interpolation-filters="sRGB">
<feFlood flood-opacity="0" result="BackgroundImageFix"/>
<feColorMatrix in="SourceAlpha" type="matrix" values="0 0 0 0 0 0 0 0 0 0 0 0 0 0 0 0 0 0 127 0" result="hardAlpha"/>
<feOffset dx="2.83" dy="2.83"/>
<feGaussianBlur stdDeviation="5.67"/>
<feColorMatrix type="matrix" values="0 0 0 0 0 0 0 0 0 0 0 0 0 0 0 0 0 0 0.15 0"/>
<feBlend mode="normal" in2="BackgroundImageFix" result="effect1_dropShadow_3490_54202"/>
<feBlend mode="normal" in="SourceGraphic" in2="effect1_dropShadow_3490_54202" result="shape"/>
</filter>
</defs>
</svg>
