<svg width="72" height="72" viewBox="0 0 72 72" fill="none" xmlns="http://www.w3.org/2000/svg">
<path fill-rule="evenodd" clip-rule="evenodd" d="M36 55C47.0457 55 56 46.0457 56 35C56 23.9543 47.0457 15 36 15C24.9543 15 16 23.9543 16 35C16 46.0457 24.9543 55 36 55Z" fill="#1F78FF"/>
<path fill-rule="evenodd" clip-rule="evenodd" d="M33.0137 30.9872C34.2067 30.9872 35.1739 30.0201 35.1739 28.8271C35.1739 27.6341 34.2067 26.667 33.0137 26.667C31.8207 26.667 30.8536 27.6341 30.8536 28.8271C30.8536 30.0201 31.8207 30.9872 33.0137 30.9872ZM38.9862 30.9872C40.1792 30.9872 41.1463 30.0201 41.1463 28.8271C41.1463 27.6341 40.1792 26.667 38.9862 26.667C37.7932 26.667 36.8261 27.6341 36.8261 28.8271C36.8261 30.0201 37.7932 30.9872 38.9862 30.9872ZM31.2253 32.8058C31.2253 33.9988 30.2582 34.9659 29.0652 34.9659C27.8722 34.9659 26.905 33.9988 26.905 32.8058C26.905 31.6128 27.8722 30.6457 29.0652 30.6457C30.2582 30.6457 31.2253 31.6128 31.2253 32.8058ZM42.9356 34.9659C44.1286 34.9659 45.0957 33.9988 45.0957 32.8058C45.0957 31.6128 44.1286 30.6457 42.9356 30.6457C41.7426 30.6457 40.7755 31.6128 40.7755 32.8058C40.7755 33.9988 41.7426 34.9659 42.9356 34.9659ZM39.3506 33.7772C39.8735 34.6867 40.5254 35.3764 41.4273 35.9146V35.8994C43.3222 37.0288 43.8982 39.4845 42.7992 41.4096C41.6926 43.3424 39.4112 43.9866 37.4178 42.8876C36.4022 42.3343 35.4851 42.395 34.477 42.9255C31.7333 44.3732 28.6409 42.4632 28.6409 39.1586C28.6636 37.8322 29.2927 36.627 30.6191 35.8615C31.4907 35.3613 32.0971 34.6943 32.5897 33.8227C34.0905 31.1699 37.8271 31.1396 39.3506 33.7772Z" fill="white"/>
</svg>
