<svg width="24" height="24" viewBox="0 0 24 24" fill="none" xmlns="http://www.w3.org/2000/svg">
<path fill-rule="evenodd" clip-rule="evenodd" d="M5.89983 7.41627C6.95028 7.61547 7.854 6.71162 7.65508 5.66113C7.54379 5.07416 7.07057 4.60093 6.4836 4.48964C5.43315 4.29045 4.52943 5.1943 4.72834 6.24479C4.83964 6.83176 5.31316 7.30498 5.89983 7.41627ZM20.9597 10.514C20.561 10.3316 20.0961 10.4969 19.9207 10.868C19.3558 12.0755 17.9925 12.8959 16.4321 12.8959C15.1345 12.8959 13.6955 12.2338 13.0382 11.0555C13.1357 10.997 13.2281 10.9289 13.3134 10.851L13.7687 10.4396L14.1779 10.0694C14.7428 9.55816 14.8571 8.93005 14.5164 8.37023C14.4313 8.22901 14.3191 8.09505 14.1779 7.96849L13.9758 7.78586L13.3137 7.18695C12.608 6.54869 11.4532 6.54869 10.7475 7.18695L9.90776 7.94654L9.88335 7.96848C9.74212 8.09517 9.63011 8.22899 9.54482 8.37022C9.20411 8.93018 9.31845 9.55825 9.88335 10.0694L10.2925 10.4396L11.0252 11.0482C11.0252 11.0483 11.0252 11.0485 11.0252 11.0486C11.0252 11.0487 11.0253 11.0488 11.0253 11.0488C10.6679 11.9774 9.00983 12.6597 8.77811 12.7403C8.42025 12.8644 8.00386 12.8961 7.62897 12.8961C6.0787 12.8961 4.72068 12.0865 4.14677 10.8895C4.04013 10.6672 3.83396 10.4994 3.5916 10.4539C3.31482 10.402 3.05998 10.4947 2.88635 10.6685C2.74498 10.8095 2.65723 11.0044 2.65723 11.221V11.9829C2.65723 15.7857 5.39379 18.1832 9.16481 19.2909C9.65909 20.2963 10.7569 21 12.0278 21C13.3011 21 14.399 20.2963 14.8932 19.2909C18.6644 18.1832 21.4034 15.7859 21.4034 11.9829V11.2451C21.4034 10.9378 21.2392 10.6417 20.9597 10.5138L20.9597 10.514ZM14.0582 18.098C14.0582 19.0815 13.1478 19.8802 12.0278 19.8802C10.9103 19.8802 10.0021 19.0817 10.0021 18.098V14.145C10.0021 13.8242 10.176 13.5336 10.4497 13.3667C10.6188 13.2635 10.7807 13.151 10.9344 13.03C11.0559 12.9348 11.1727 12.8353 11.2837 12.7307C11.3433 12.6745 11.4408 12.714 11.4408 12.7961V16.96C11.4408 17.2162 11.5943 17.4596 11.8381 17.5374C12.2431 17.6666 12.6165 17.3677 12.6165 16.9787L12.6166 12.7955C12.6166 12.7137 12.7137 12.674 12.7735 12.7298C12.8856 12.8348 13.004 12.9345 13.1256 13.03C13.2794 13.151 13.4412 13.2634 13.6103 13.3666C13.884 13.5337 14.0579 13.8243 14.0579 14.1449L14.0578 18.0984L14.0582 18.098ZM19.3314 5.66113C19.5304 6.71162 18.6267 7.61547 17.5762 7.41627H17.5762C16.9894 7.30498 16.5161 6.83176 16.4046 6.24479C16.2057 5.1943 17.1094 4.29045 18.1599 4.48964C18.7468 4.60093 19.2201 5.07416 19.3314 5.66113Z" fill="#333333"/>
</svg>
