<svg width="28" height="28" viewBox="0 0 28 28" fill="none" xmlns="http://www.w3.org/2000/svg">
<path d="M25.6663 8.45833V21.2083C25.6663 22.3815 24.6865 23.3333 23.4788 23.3333H4.52051C3.31283 23.3333 2.33301 22.3815 2.33301 21.2083V8.45833C2.33301 7.28516 3.31283 6.33333 4.52051 6.33333H8.53092L9.09147 4.87682C9.41048 4.04896 10.2262 3.5 11.1377 3.5H16.8571C17.7686 3.5 18.5843 4.04896 18.9033 4.87682L19.4684 6.33333H23.4788C24.6865 6.33333 25.6663 7.28516 25.6663 8.45833ZM19.4684 14.8333C19.4684 11.9026 17.0166 9.52083 13.9997 9.52083C10.9827 9.52083 8.53092 11.9026 8.53092 14.8333C8.53092 17.7641 10.9827 20.1458 13.9997 20.1458C17.0166 20.1458 19.4684 17.7641 19.4684 14.8333ZM18.0101 14.8333C18.0101 16.9805 16.21 18.7292 13.9997 18.7292C11.7894 18.7292 9.98926 16.9805 9.98926 14.8333C9.98926 12.6862 11.7894 10.9375 13.9997 10.9375C16.21 10.9375 18.0101 12.6862 18.0101 14.8333Z" fill="white"/>
</svg>
