<svg width="64" height="64" viewBox="0 0 64 64" fill="none" xmlns="http://www.w3.org/2000/svg">
<path d="M58.6693 19.3333V48.4762C58.6693 51.1577 56.4297 53.3333 53.6693 53.3333H10.3359C7.57552 53.3333 5.33594 51.1577 5.33594 48.4762V19.3333C5.33594 16.6518 7.57552 14.4762 10.3359 14.4762H19.5026L20.7839 11.147C21.513 9.25476 23.3776 8 25.4609 8H38.5339C40.6172 8 42.4818 9.25476 43.2109 11.147L44.5026 14.4762H53.6693C56.4297 14.4762 58.6693 16.6518 58.6693 19.3333ZM44.5026 33.9048C44.5026 27.206 38.8984 21.7619 32.0026 21.7619C25.1068 21.7619 19.5026 27.206 19.5026 33.9048C19.5026 40.6036 25.1068 46.0476 32.0026 46.0476C38.8984 46.0476 44.5026 40.6036 44.5026 33.9048ZM41.1693 33.9048C41.1693 38.8125 37.0547 42.8095 32.0026 42.8095C26.9505 42.8095 22.8359 38.8125 22.8359 33.9048C22.8359 28.997 26.9505 25 32.0026 25C37.0547 25 41.1693 28.997 41.1693 33.9048Z" fill="#F0802F"/>
</svg>
