<svg width="70" height="78" viewBox="0 0 70 78" fill="none" xmlns="http://www.w3.org/2000/svg">
<g filter="url(#filter0_dd_3530_55066)">
<path d="M57.3464 39.2359L48.7393 28.0732C48.0764 26.9753 47.2991 25.9459 46.3732 25.0195C43.3099 21.8972 39.2407 20.1816 34.9314 20.1816C28.8733 20.1816 23.581 23.6128 20.7692 28.6794L12.6765 39.2473C10.9962 41.4318 10.0589 44.2453 10.0017 47.1732C9.95602 50.1011 10.8133 52.9604 12.4136 55.2135C13.3966 56.5974 14.7796 57.3408 16.2542 57.3408C16.6199 57.3408 16.9971 57.2951 17.3858 57.1921C19.4661 56.6546 20.9978 54.7331 21.2835 52.297L21.5464 50.0554C22.438 50.8331 23.4553 51.5651 24.6326 52.2399C28.0503 54.207 32.3824 55.5223 35.4229 55.5223C38.4634 55.5223 42.7841 54.1842 46.2132 52.1941C47.0705 51.7023 47.8249 51.1648 48.5221 50.6272L48.7165 52.3085C49.0022 54.7446 50.5339 56.666 52.6142 57.2036C52.9914 57.2951 53.3686 57.3522 53.7458 57.3522C55.2204 57.3522 56.6034 56.5974 57.5864 55.2249C59.1867 52.9718 60.044 50.1126 59.9983 47.1847C59.9525 44.2568 59.0038 41.4432 57.3235 39.2473L57.3464 39.2359Z" stroke="white" stroke-width="5" stroke-linecap="round" stroke-linejoin="round" shape-rendering="crispEdges"/>
</g>
<path d="M23.993 25.2588L20.8039 52.2618C20.2667 56.8595 15.3288 58.5179 12.7912 54.9495C9.59072 50.4547 9.70503 43.8898 13.0313 39.5437L23.9816 25.2588H23.993Z" fill="#BD8556"/>
<path d="M16.2542 57.3518C14.7796 57.3518 13.3966 56.597 12.4136 55.2245C10.8133 52.9714 9.95602 50.1121 10.0017 47.1842C10.0475 44.2563 10.9962 41.4428 12.6764 39.2583L23.6268 24.9734C23.7525 24.8018 23.9811 24.7446 24.1754 24.8247C24.3697 24.9047 24.4955 25.1106 24.4726 25.3165L21.2835 52.3195C20.9978 54.7556 19.4661 56.677 17.3858 57.2146C17.0086 57.3061 16.6314 57.3632 16.2542 57.3632V57.3518ZM23.3296 26.9062L13.4309 39.8302C10.2418 43.9933 10.1389 50.3752 13.1908 54.6755C14.1853 56.0709 15.6598 56.677 17.1457 56.2882C18.8489 55.8535 20.1062 54.2524 20.3462 52.2051L23.3296 26.9062Z" fill="#231916"/>
<path d="M46.0078 25.3398L49.1969 52.2628C49.7341 56.8605 54.672 58.5189 57.2096 54.9505C60.4101 50.4557 60.2958 43.8908 56.9696 39.5447L46.0192 25.3398H46.0078Z" fill="#BD8556"/>
<path d="M53.7575 57.3525C53.3917 57.3525 53.0145 57.3068 52.6259 57.2038C50.5455 56.6663 49.0139 54.7449 48.7281 52.3088L45.539 25.3858C45.5162 25.1685 45.6305 24.9741 45.8248 24.894C46.0191 24.814 46.2477 24.8711 46.3734 25.0427L57.3238 39.2476C59.004 41.4321 59.9527 44.2456 59.9985 47.1849C60.0442 50.1128 59.1869 52.9721 57.5867 55.2252C56.6036 56.6091 55.2206 57.3525 53.746 57.3525H53.7575ZM46.6821 26.987L49.6654 52.2058C49.9054 54.2531 51.1628 55.8543 52.8659 56.2889C54.3519 56.6663 55.8378 56.0601 56.8208 54.6762C59.8727 50.3759 59.7813 43.994 56.5808 39.8309L46.6821 26.987Z" fill="#231916"/>
<path d="M34.9202 53.2807C43.6572 53.2807 50.7399 45.9788 50.7399 36.9714C50.7399 27.964 43.6572 20.6621 34.9202 20.6621C26.1833 20.6621 19.1006 27.964 19.1006 36.9714C19.1006 45.9788 26.1833 53.2807 34.9202 53.2807Z" fill="#F8CFAF"/>
<path d="M52.7056 42.3355V42.3126C52.7056 42.244 52.7056 42.1753 52.7056 42.0953C52.7056 42.061 52.7056 42.0267 52.7056 41.9923C52.7056 41.9466 52.7056 41.9009 52.7056 41.8551C52.7056 41.8208 52.7056 41.775 52.7056 41.7407C52.7056 41.695 52.7056 41.6607 52.7056 41.6149C52.7056 41.5806 52.7056 41.5349 52.6941 41.5005C52.6941 41.4662 52.6941 41.4205 52.6827 41.3862C52.6827 41.3404 52.6827 41.3061 52.6713 41.2604C52.6713 41.2261 52.6713 41.1803 52.6598 41.146C52.6598 41.1003 52.6484 41.0659 52.637 41.0202C52.637 40.9859 52.6255 40.9516 52.6141 40.9173C52.6141 40.8715 52.6027 40.8372 52.5913 40.7915C52.5913 40.7571 52.5798 40.7228 52.5684 40.6885C52.5684 40.6428 52.5455 40.6085 52.5455 40.5627C52.5455 40.5284 52.5341 40.4941 52.5227 40.4598C52.5227 40.414 52.4998 40.3683 52.4884 40.334C52.4884 40.2997 52.477 40.2653 52.4655 40.2425C52.4655 40.1967 52.4427 40.151 52.4312 40.1052C52.4312 40.0709 52.4198 40.048 52.4084 40.0137C52.3969 39.968 52.3855 39.9222 52.3741 39.8765C52.3741 39.8536 52.3626 39.8193 52.3512 39.7964C52.3398 39.7507 52.3284 39.7049 52.3055 39.6592C52.3055 39.6363 52.2941 39.602 52.2826 39.5791C52.2712 39.5334 52.2483 39.4876 52.2369 39.4419C52.2369 39.419 52.2255 39.3961 52.2141 39.3732C52.1912 39.3275 52.1798 39.2703 52.1569 39.2246C52.1569 39.2017 52.1455 39.1903 52.134 39.1674C52.1112 39.1102 52.0883 39.0644 52.0769 39.0073C52.0769 38.9958 52.0769 38.9844 52.0655 38.9729C52.0426 38.9158 52.0197 38.8586 51.9969 38.8014C51.7683 38.2524 51.4825 37.7377 51.1625 37.2574C51.1282 37.2002 51.0824 37.143 51.0482 37.0858C51.0024 37.0286 50.9681 36.9715 50.9224 36.9143C50.8767 36.8571 50.8424 36.7999 50.7967 36.7427C50.751 36.6855 50.7052 36.6283 50.6595 36.5712C49.0021 34.5125 46.5332 33.1515 43.7327 32.9799C43.527 32.9685 43.3326 32.957 43.1269 32.957C40.0293 32.957 37.2631 34.421 35.5028 36.6855C33.7311 34.421 30.9764 32.957 27.8788 32.957C27.4101 32.957 26.9529 32.9913 26.5071 33.0485C23.7752 33.4374 21.4092 34.97 19.9118 37.1544C19.8775 37.2116 19.8432 37.2574 19.8089 37.3146C19.8089 37.3146 19.8089 37.326 19.7975 37.3374C19.7632 37.3832 19.7289 37.4404 19.6946 37.4976C19.6946 37.4976 19.6946 37.5204 19.6832 37.5204C19.6489 37.5662 19.6146 37.6234 19.5917 37.6806C19.5917 37.6806 19.5917 37.7034 19.5803 37.7034C19.546 37.7606 19.5231 37.8064 19.4889 37.8636C19.4889 37.8636 19.4889 37.875 19.4889 37.8864C19.3288 38.1724 19.1802 38.4697 19.0431 38.7785C19.0431 38.79 19.0316 38.8128 19.0202 38.8243C18.9973 38.87 18.9859 38.9158 18.9631 38.9615C18.9631 38.9844 18.9402 39.0073 18.9402 39.0301C18.9173 39.0759 18.9059 39.1216 18.883 39.1674C18.883 39.1903 18.8602 39.2131 18.8602 39.236C18.8488 39.2818 18.8259 39.3275 18.8145 39.3732C18.8145 39.3961 18.7916 39.4304 18.7916 39.4533C18.7802 39.4991 18.7573 39.5448 18.7459 39.5791C18.7459 39.602 18.723 39.6363 18.723 39.6592C18.7116 39.7049 18.7002 39.7507 18.6773 39.7964C18.6773 39.8193 18.6659 39.8536 18.6544 39.8765C18.643 39.9222 18.6316 39.968 18.6201 40.0137C18.6201 40.0366 18.6087 40.0595 18.5973 40.0823C18.5744 40.1853 18.5401 40.2768 18.5173 40.3797C18.5173 40.4026 18.5173 40.414 18.5058 40.4369C18.5058 40.4826 18.483 40.517 18.483 40.5627C18.483 40.597 18.4715 40.6313 18.4601 40.6656C18.4601 40.7 18.4487 40.7457 18.4373 40.78C18.4373 40.8143 18.4258 40.8486 18.4144 40.8944C18.4144 40.9287 18.403 40.9744 18.3915 41.0088C18.3915 41.0431 18.3801 41.0888 18.3687 41.1231C18.3687 41.1574 18.3572 41.2032 18.3572 41.2375C18.3572 41.2718 18.3572 41.3176 18.3458 41.3519C18.3458 41.3862 18.3458 41.4205 18.3344 41.4662C18.3344 41.512 18.3344 41.5463 18.323 41.592C18.323 41.6264 18.323 41.6607 18.323 41.695C18.323 41.7407 18.323 41.7865 18.3115 41.8208C18.3115 41.8551 18.3115 41.8894 18.3115 41.9237C18.3115 41.9695 18.3115 42.0152 18.3115 42.0724C18.3115 42.1067 18.3115 42.1296 18.3115 42.1639C18.3115 42.2325 18.3115 42.3126 18.3115 42.3812C18.3115 42.3812 18.3115 42.3926 18.3115 42.4041C18.3115 42.4841 18.3115 42.5756 18.3115 42.6557C18.3115 42.7472 18.3115 42.8387 18.3115 42.9416C18.3115 43.0217 18.3115 43.1017 18.3115 43.1704C18.6544 50.5244 30.142 55.1221 35.5943 55.1221C41.0466 55.1221 52.5341 50.3986 52.877 43.1475V43.1246C52.877 43.056 52.877 42.9988 52.877 42.9302C52.877 42.8387 52.877 42.7358 52.877 42.6443C52.877 42.5642 52.877 42.4727 52.877 42.3926L52.7056 42.3355Z" fill="#F8CFAF"/>
<path d="M35.4233 55.5452C32.3828 55.5452 28.0392 54.2299 24.633 52.2627C20.3009 49.7694 17.8319 46.5327 17.6719 43.1359V43.1016C17.6719 43.033 17.6719 42.9644 17.6719 42.8843C17.6719 42.7814 17.6719 42.6899 17.6719 42.5869C17.6719 42.5069 17.6719 42.4497 17.6719 42.3811V42.2896C17.6719 42.2095 17.6719 42.1295 17.6719 42.0608V41.9693C17.6719 41.9121 17.6833 41.8664 17.6833 41.8206L17.7862 40.9743L17.9005 40.3681C17.9005 40.3681 17.9119 40.2995 17.9233 40.2652V40.208C17.9576 40.1051 17.9919 40.0021 18.0148 39.8992L18.0376 39.8192C18.0376 39.8192 18.0605 39.7391 18.0719 39.6933L18.5292 39.8077L18.0719 39.6705L18.0948 39.5904C18.0948 39.5904 18.1291 39.4989 18.1405 39.4532L18.1634 39.3731C18.1634 39.3731 18.1977 39.2816 18.2091 39.2359L18.2434 39.1558C18.2434 39.1558 18.2777 39.0643 18.2891 39.0186L18.3234 38.9385C18.3234 38.9385 18.3577 38.847 18.3806 38.8013L18.4034 38.7326C18.4034 38.7326 18.4491 38.6297 18.472 38.5839L18.4949 38.5382C18.552 38.4124 18.6092 38.2866 18.6777 38.1493C18.6435 37.7147 18.632 37.3259 18.632 36.9599C18.632 27.7073 25.9475 20.1816 34.9318 20.1816C39.241 20.1816 43.3102 21.8972 46.3736 25.0195C49.4026 28.0961 51.1172 32.1906 51.2086 36.5596C51.2086 36.5596 51.2201 36.571 51.2315 36.5825C51.2772 36.6511 51.3229 36.7083 51.3687 36.7654C51.4144 36.8341 51.4601 36.8913 51.4944 36.9599C51.8373 37.4745 52.1231 38.0007 52.3631 38.5611V38.5954C52.4088 38.6526 52.4317 38.7212 52.4545 38.7784V38.8127C52.4888 38.8699 52.5117 38.9271 52.5346 38.9842L52.5574 39.0414C52.5574 39.0414 52.5917 39.1444 52.6146 39.2016L52.6374 39.2702C52.6374 39.2702 52.6717 39.3731 52.6832 39.4189L52.706 39.4989C52.706 39.4989 52.7403 39.5904 52.7517 39.6476L52.8432 39.9678C52.8432 39.9678 52.866 40.0593 52.8775 40.1051L52.9003 40.208C52.9003 40.208 52.9232 40.2995 52.9346 40.3453L53.0489 40.9171C53.0489 40.9743 53.0604 41.0201 53.0718 41.0658L53.1747 42.0608C53.1747 42.1409 53.1747 42.2095 53.1747 42.2896V42.4039C53.1747 42.4611 53.1747 42.5183 53.1747 42.5869V42.6212C53.1747 42.7127 53.1747 42.8042 53.1747 42.8957C53.1747 42.9644 53.1747 43.033 53.1747 43.1016V43.1245C53.0146 46.4755 50.5457 49.7008 46.2136 52.217C42.7844 54.207 38.4409 55.5452 35.4233 55.5452ZM18.5977 42.5755C18.5977 42.6784 18.5977 42.7699 18.5977 42.8614C18.5977 42.93 18.5977 42.9987 18.5977 43.0673V43.1016C18.9406 50.2612 30.4396 54.6073 35.4004 54.6073C37.7894 54.6073 41.9043 53.6123 45.722 51.4049C48.0653 50.0439 52.0088 47.1618 52.2145 43.1016V43.0673C52.2145 43.0101 52.2145 42.9415 52.2145 42.8843C52.2145 42.7928 52.2145 42.7013 52.2145 42.6098V42.5755C52.2145 42.5755 52.2145 42.484 52.2145 42.4383V42.3353C52.2145 42.2667 52.2145 42.1981 52.2145 42.1294L52.1231 41.2259L51.9973 40.574C51.9973 40.574 51.9745 40.4939 51.963 40.4482L51.8259 39.9335C51.8259 39.9335 51.803 39.842 51.7802 39.8077L51.7573 39.7277C51.7573 39.7277 51.723 39.6362 51.7116 39.5904L51.6887 39.5218C51.6887 39.5218 51.6544 39.4303 51.643 39.3845L51.6201 39.3274C51.6201 39.3274 51.5858 39.2244 51.563 39.1787V39.1444C51.563 39.1444 51.5173 39.0529 51.4944 39.0186L51.4715 38.9728C51.2544 38.4696 50.9915 37.9778 50.6828 37.5089C50.6371 37.4517 50.6028 37.3945 50.5685 37.3373C50.5228 37.2687 50.4885 37.2229 50.4428 37.1657C50.3971 37.1086 50.3628 37.0628 50.3399 37.0171L50.2485 36.8913V36.7311C50.1227 28.1304 43.2417 21.1309 34.8975 21.1309C26.5533 21.1309 19.5465 28.2334 19.5465 36.9599C19.5465 37.3373 19.5579 37.7376 19.6036 38.2065V38.3323L19.5579 38.4467C19.4779 38.6068 19.4093 38.7555 19.3407 38.9042L19.3179 38.9499C19.3179 38.9499 19.2836 39.0414 19.2607 39.0872L19.2378 39.1444C19.2378 39.1444 19.2035 39.2244 19.1921 39.2702L19.1693 39.3388C19.1693 39.3388 19.135 39.4189 19.1235 39.4646L19.1007 39.5218C19.0778 39.579 19.0664 39.6247 19.055 39.659L18.9064 40.1394C18.8835 40.2309 18.8606 40.3224 18.8378 40.4253L18.7006 41.123L18.6092 41.8893C18.6092 41.8893 18.6092 41.9693 18.6092 42.0151V42.1066C18.6092 42.1752 18.5977 42.2438 18.5977 42.3124V42.3925C18.5977 42.3925 18.5977 42.4954 18.5977 42.5526V42.5755Z" fill="#231916"/>
<path d="M28.4043 35.6333C29.5154 35.6333 30.4161 34.7321 30.4161 33.6204C30.4161 32.5086 29.5154 31.6074 28.4043 31.6074C27.2933 31.6074 26.3926 32.5086 26.3926 33.6204C26.3926 34.7321 27.2933 35.6333 28.4043 35.6333Z" fill="black"/>
<path d="M41.3321 35.6333C42.4431 35.6333 43.3438 34.7321 43.3438 33.6204C43.3438 32.5086 42.4431 31.6074 41.3321 31.6074C40.221 31.6074 39.3203 32.5086 39.3203 33.6204C39.3203 34.7321 40.221 35.6333 41.3321 35.6333Z" fill="black"/>
<path d="M34.8968 47.9626C36.337 47.9626 37.6058 46.7732 38.3259 44.9775C38.3259 44.9775 37.6629 45.8239 37.1486 45.8239C36.6342 45.8239 34.8053 44.9775 34.8053 44.9775C34.8053 44.9775 33.1251 45.7781 32.6564 45.7781C32.1878 45.7781 31.502 45.3092 31.502 45.3092C31.662 45.6981 31.7991 45.721 32.0049 46.0526C32.7479 47.2306 33.7652 47.9626 34.8968 47.9626Z" fill="#CF7A8D"/>
<path d="M35.0346 36.7535C34.0287 36.3989 31.4454 36.5019 31.2854 40.0931C31.1254 43.6844 34.7602 44.7823 35.1717 44.668C35.5832 44.5536 37.755 42.5979 38.0522 42.1289C38.3494 41.66 39.4924 38.938 37.7207 38.0573C35.949 37.1767 35.9833 37.0966 35.046 36.7535H35.0346Z" fill="#ED7C2E"/>
<path d="M32.8738 46.0978C31.0106 46.0978 30.3019 44.8169 30.2676 44.7597C30.1419 44.5195 30.2334 44.2221 30.462 44.0963C30.702 43.9705 30.9992 44.0506 31.1249 44.2908C31.1478 44.3365 31.6164 45.1142 32.8623 45.1142C33.1595 45.1142 33.5024 45.0227 33.8911 44.8626C32.6109 44.0048 31.2049 42.8154 30.862 40.8482C30.5877 39.2584 31.0678 37.8288 32.2108 36.9253C33.1824 36.1475 34.4512 35.9417 35.4913 36.3763C35.9828 36.5822 36.3372 36.8452 36.5887 37.1083C37.0116 37.154 37.4459 37.3141 37.8689 37.5886C39.2519 38.4807 39.412 40.0133 39.1376 41.0541C38.7604 42.438 37.4574 43.5359 36.9659 43.9477L36.8744 44.0163C36.5315 44.3136 35.88 44.8626 35.1256 45.3201C35.1256 45.3201 35.1141 45.3201 35.1027 45.3201C34.2569 45.8348 33.5139 46.0864 32.8623 46.0864L32.8738 46.0978ZM34.3597 37.1197C33.8339 37.1197 33.2853 37.3141 32.8281 37.6801C31.9822 38.3549 31.6164 39.4414 31.8336 40.6652C32.1537 42.4608 33.6053 43.4902 34.8627 44.3136C35.4456 43.9248 35.9486 43.5016 36.2343 43.2614L36.3143 43.1928C36.7487 42.8268 37.8803 41.8775 38.1775 40.7796C38.3718 40.059 38.2689 38.9954 37.3316 38.3892C37.2859 38.3549 37.2402 38.332 37.183 38.2977C37.2745 38.9496 37.0802 39.6473 36.6229 40.242C35.7542 41.3743 34.7484 41.2714 34.1426 40.8368C33.8568 40.6309 33.6853 40.2763 33.651 39.8417C33.5939 39.1784 33.8797 38.4807 34.4169 37.9317C34.6798 37.6687 34.9541 37.4628 35.2513 37.3256C35.2056 37.3027 35.1599 37.2798 35.1141 37.2684C34.8741 37.1654 34.6226 37.1197 34.3597 37.1197ZM36.1086 38.0804C35.7542 38.1376 35.4228 38.3206 35.1256 38.6294C34.6341 39.1326 34.6226 39.6359 34.6455 39.7731C34.6569 39.9561 34.7255 40.0362 34.7484 40.059C35.2056 40.3907 35.6399 39.9561 35.8685 39.6587C36.2 39.2241 36.3258 38.7438 36.2115 38.3206C36.1886 38.2405 36.1657 38.1605 36.12 38.0919L36.1086 38.0804Z" fill="#231916"/>
<path d="M36.8635 46.0975C36.212 46.0975 35.4576 45.8345 34.6232 45.3198C34.3946 45.1825 34.3146 44.8737 34.4631 44.645C34.6003 44.4163 34.9089 44.3362 35.1375 44.4849C35.8234 44.9081 36.4063 45.1139 36.875 45.1139C38.1323 45.1139 38.6009 44.3248 38.6124 44.2904C38.7495 44.0617 39.0467 43.9702 39.2753 44.1075C39.5154 44.2333 39.5954 44.5306 39.4697 44.7708C39.4354 44.828 38.7267 46.1089 36.8635 46.1089V46.0975Z" fill="#231916"/>
<defs>
<filter id="filter0_dd_3530_55066" x="2.5" y="12.6816" width="65" height="53.1709" filterUnits="userSpaceOnUse" color-interpolation-filters="sRGB">
<feFlood flood-opacity="0" result="BackgroundImageFix"/>
<feColorMatrix in="SourceAlpha" type="matrix" values="0 0 0 0 0 0 0 0 0 0 0 0 0 0 0 0 0 0 127 0" result="hardAlpha"/>
<feOffset dy="2"/>
<feGaussianBlur stdDeviation="2"/>
<feComposite in2="hardAlpha" operator="out"/>
<feColorMatrix type="matrix" values="0 0 0 0 0 0 0 0 0 0 0 0 0 0 0 0 0 0 0.2 0"/>
<feBlend mode="normal" in2="BackgroundImageFix" result="effect1_dropShadow_3530_55066"/>
<feColorMatrix in="SourceAlpha" type="matrix" values="0 0 0 0 0 0 0 0 0 0 0 0 0 0 0 0 0 0 127 0" result="hardAlpha"/>
<feOffset/>
<feGaussianBlur stdDeviation="2.5"/>
<feComposite in2="hardAlpha" operator="out"/>
<feColorMatrix type="matrix" values="0 0 0 0 1 0 0 0 0 0.490083 0 0 0 0 0.120833 0 0 0 1 0"/>
<feBlend mode="normal" in2="effect1_dropShadow_3530_55066" result="effect2_dropShadow_3530_55066"/>
<feBlend mode="normal" in="SourceGraphic" in2="effect2_dropShadow_3530_55066" result="shape"/>
</filter>
</defs>
</svg>
