<svg width="24" height="24" viewBox="0 0 24 24" fill="none" xmlns="http://www.w3.org/2000/svg">
<path d="M12 6.49L19.53 19.5H4.47L12 6.49ZM12.8654 3.99482C12.4803 3.32954 11.5197 3.32954 11.1346 3.99483L1.86902 19.999C1.48306 20.6656 1.96411 21.5 2.73445 21.5H21.2656C22.0359 21.5 22.5169 20.6656 22.131 19.999L12.8654 3.99482ZM13 16.5H11V18.5H13V16.5ZM13 11.5C13 10.9477 12.5523 10.5 12 10.5C11.4477 10.5 11 10.9477 11 11.5V13.5C11 14.0523 11.4477 14.5 12 14.5C12.5523 14.5 13 14.0523 13 13.5V11.5Z" fill="#333333"/>
</svg>
