<svg width="40" height="40" viewBox="0 0 40 40" fill="none" xmlns="http://www.w3.org/2000/svg">
<path fill-rule="evenodd" clip-rule="evenodd" d="M33.0443 8.01452C32.6232 4.07586 29.289 1 25.2271 1C23.2188 1 21.3884 1.75189 20 2.98819C18.6116 1.75189 16.7812 1 14.7729 1C10.711 1 7.37684 4.07586 6.95569 8.01452C3.03598 8.46398 0 11.7929 0 15.8217C0 18.7378 1.59059 21.2872 3.9556 22.6434C3.36901 23.9668 3.06299 25.4011 3.03771 26.8763L3.03711 26.9111V26.946C3.03711 35.5397 11.4895 41.2347 19.2377 37.1468C19.7273 36.8893 19.9518 36.8733 20.0056 36.8719L20.008 36.8719C20.0375 36.8709 20.179 36.8662 20.5184 37.0502C25.938 40.0316 32.3888 38.244 35.4413 32.9106L35.4439 32.9061C37.2711 29.7042 37.4068 25.8823 35.9829 22.6783C38.3818 21.3312 40 18.763 40 15.8217C40 11.7929 36.964 8.46398 33.0443 8.01452ZM7.47472 24.8393C7.24821 25.5092 7.13118 26.2171 7.11868 26.946C7.11868 32.7317 12.5308 36.0758 17.3328 33.5412C19.0971 32.6123 20.7022 32.5062 22.4797 33.4749C25.9684 35.399 29.9612 34.2711 31.8979 30.8872C32.1337 30.4741 32.3254 30.0469 32.4742 29.6118C32.3255 30.0465 32.1339 30.4731 31.8984 30.8859C29.9617 34.2697 25.9689 35.3976 22.4801 33.4735C20.7026 32.5048 19.0975 32.6109 17.3333 33.5398C12.5313 36.0744 7.11915 32.7304 7.11915 26.9447C7.13163 26.2163 7.24852 25.5088 7.47472 24.8393ZM35.7935 14.8541C35.3881 13.3204 34.0437 12.1687 32.413 12.0515L32.4139 12.0497C34.0447 12.1674 35.3888 13.3199 35.7935 14.8541ZM28.9998 8.61364L28.9987 8.61409C28.9436 7.74528 28.5952 6.95618 28.0515 6.34475C28.5955 6.95595 28.9442 7.7449 28.9998 8.61364ZM7.58613 12.0497L7.58699 12.0516C5.62771 12.1928 4.08204 13.8276 4.08204 15.8236C4.08204 16.1272 4.11779 16.4224 4.18532 16.7053C4.11749 16.4218 4.08157 16.1259 4.08157 15.8217C4.08157 13.8258 5.62704 12.1911 7.58613 12.0497ZM11.0006 8.6138C11.0231 8.25897 11.0946 7.91743 11.2083 7.59587C11.0945 7.91737 11.0229 8.25885 11.0002 8.61364L11.0006 8.6138Z" fill="#51DF8A"/>
<path d="M14.7747 12.6423C16.8626 12.6423 18.5553 10.9495 18.5553 8.86121C18.5553 6.77295 16.8626 5.08008 14.7747 5.08008C12.6868 5.08008 10.9941 6.77295 10.9941 8.86121C10.9941 10.9495 12.6868 12.6423 14.7747 12.6423Z" fill="#333333"/>
<path d="M25.2278 12.6423C27.3158 12.6423 29.0084 10.9495 29.0084 8.86121C29.0084 6.77295 27.3158 5.08008 25.2278 5.08008C23.1399 5.08008 21.4473 6.77295 21.4473 8.86121C21.4473 10.9495 23.1399 12.6423 25.2278 12.6423Z" fill="#333333"/>
<path d="M7.86259 19.606C9.95053 19.606 11.6431 17.9131 11.6431 15.8248C11.6431 13.7366 9.95053 12.0437 7.86259 12.0437C5.77464 12.0437 4.08203 13.7366 4.08203 15.8248C4.08203 17.9131 5.77464 19.606 7.86259 19.606Z" fill="#333333"/>
<path d="M32.138 19.606C34.2259 19.606 35.9185 17.9131 35.9185 15.8248C35.9185 13.7366 34.2259 12.0437 32.138 12.0437C30.05 12.0437 28.3574 13.7366 28.3574 15.8248C28.3574 17.9131 30.05 19.606 32.138 19.606Z" fill="#333333"/>
<path d="M29.4974 21.2642C27.9188 20.3222 26.778 19.1149 25.8627 17.5229C23.1965 12.9059 16.6568 12.959 14.0303 17.6025C13.168 19.1282 12.1068 20.2957 10.5813 21.1713C8.25994 22.5113 7.15894 24.6208 7.11914 26.9425C7.11914 32.727 12.5313 36.0703 17.3333 33.5363C19.0975 32.6076 20.7026 32.5015 22.4801 33.47C25.9689 35.3937 29.9617 34.266 31.8984 30.8829C33.8218 27.513 32.8137 23.2145 29.4974 21.2377V21.2642Z" fill="#333333"/>
</svg>
