<svg width="70" height="78" viewBox="0 0 70 78" fill="none" xmlns="http://www.w3.org/2000/svg">
<g filter="url(#filter0_dd_3531_55475)">
<path d="M50.2821 45.2799C50.3147 44.8887 50.3365 44.5083 50.3365 44.117C50.3365 42.465 50.0975 40.8673 49.6413 39.3457C51.4118 35.4222 51.7268 31.0421 50.4559 26.9012L49.1416 22.619C48.5007 20.5322 47.143 18.7498 45.2964 17.5977C44.1124 16.8587 42.7112 16.6304 41.3534 16.9565C39.9957 17.2934 38.8551 18.1412 38.1491 19.3476C37.052 21.217 36.4763 23.3472 36.4763 25.5101V30.7052C35.9441 30.727 35.401 30.7487 34.8579 30.7487C34.3691 30.7487 33.8911 30.727 33.4132 30.7052V25.5209C33.4132 23.3581 32.8375 21.2278 31.7404 19.3584C31.0344 18.152 29.8938 17.3043 28.5361 16.9674C27.1783 16.6304 25.7771 16.8587 24.5931 17.6086C22.7466 18.7715 21.3888 20.554 20.7479 22.6299L19.4336 26.9121C18.1953 30.9769 18.4669 35.2809 20.1614 39.1501C19.6508 40.7369 19.3793 42.4215 19.3793 44.1279C19.3793 44.7039 19.4119 45.2691 19.4662 45.8234C18.2605 48.8774 18.1736 52.6162 19.2598 56.4963C19.8246 58.5178 21.5952 60.072 23.659 60.3764C24.7561 60.5394 25.788 60.322 26.6461 59.7786C29.1987 60.5503 32.251 60.735 35.2706 60.735C38.1165 60.735 40.995 60.5503 43.4173 59.8221C44.069 60.2133 44.8185 60.4307 45.6223 60.4307C45.8612 60.4307 46.1002 60.409 46.3392 60.3764C48.403 60.072 50.1735 58.507 50.7383 56.4963C51.8897 52.388 51.7051 48.4427 50.2821 45.2908V45.2799Z" stroke="white" stroke-width="5" stroke-linecap="round" stroke-linejoin="round" shape-rendering="crispEdges"/>
</g>
<path d="M20.9365 39.8207C18.9384 35.8547 18.5474 31.2802 19.8506 27.0426L21.1646 22.7614C21.7727 20.7839 23.065 19.0888 24.8133 17.9913C27.0504 16.5897 30.0041 17.3068 31.3398 19.5886C32.3932 21.3923 32.9579 23.4351 32.9579 25.5214V33.8771L20.9474 39.8316L20.9365 39.8207Z" fill="#2E3234"/>
<path d="M21.8823 36.2792C21.8823 36.2792 20.3511 34.8775 21.1873 30.3138C22.0343 25.761 24.7166 20.4368 27.3011 20.9584C29.8857 21.4799 31.6123 24.2942 31.2214 30.9766C30.8304 37.6591 21.8823 36.2683 21.8823 36.2683V36.2792Z" fill="#A5999A"/>
<path d="M48.9325 39.8207C50.9306 35.8547 51.3216 31.2802 50.0184 27.0426L48.7045 22.7614C48.0963 20.7839 46.8041 19.0888 45.0557 17.9913C42.8187 16.5897 39.8649 17.3068 38.5292 19.5886C37.4758 21.3923 36.9111 23.4351 36.9111 25.5214V33.8771L48.9217 39.8316L48.9325 39.8207Z" fill="#2E3234"/>
<path d="M48.0749 36.2792C48.0749 36.2792 49.6061 34.8775 48.7699 30.3138C47.9229 25.761 45.2406 20.4368 42.6561 20.9584C40.0715 21.4799 38.3449 24.2942 38.7358 30.9766C39.1268 37.6591 48.0749 36.2683 48.0749 36.2683V36.2792Z" fill="#A5999A"/>
<path d="M23.7826 36.8552C22.6858 36.8552 21.9039 36.7357 21.817 36.7248L21.6867 36.7031L21.589 36.6162C21.5238 36.551 19.884 34.9863 20.7636 30.238C21.4043 26.7718 23.1962 22.4906 25.3789 21.0129C26.063 20.5565 26.7363 20.3935 27.3987 20.5239C30.6023 21.1759 32.0466 24.7073 31.6773 31.0094C31.5688 32.7806 30.8955 34.1714 29.6684 35.171C27.9309 36.5727 25.4875 36.8552 23.7826 36.8552ZM22.1211 35.8556C22.9572 35.9534 26.8449 36.3011 29.1037 34.4756C30.1245 33.6498 30.6891 32.4654 30.776 30.966C31.0041 26.9891 30.5805 22.0995 27.2141 21.4149C26.8015 21.328 26.3454 21.4475 25.8676 21.7735C24.1518 22.9361 22.3274 26.6522 21.6324 30.4118C20.97 33.9867 21.8387 35.497 22.1102 35.8664L22.1211 35.8556Z" fill="#231916"/>
<path d="M46.1749 36.8552C44.4699 36.8552 42.0157 36.5727 40.2891 35.171C39.062 34.1822 38.3887 32.7806 38.2801 31.0094C37.9108 24.7073 39.3552 21.1759 42.5587 20.5239C43.2211 20.3935 43.9053 20.5565 44.5785 21.0129C46.7613 22.4906 48.5531 26.7718 49.1938 30.238C50.0734 34.9863 48.4336 36.551 48.3685 36.6162L48.2707 36.7031L48.1404 36.7248C48.0644 36.7357 47.2717 36.8552 46.1749 36.8552ZM43.0039 21.3823C42.917 21.3823 42.8302 21.3823 42.7433 21.4041C39.3769 22.0886 38.9534 26.9782 39.1814 30.9551C39.2683 32.4546 39.833 33.639 40.8538 34.4648C43.1234 36.3011 47.011 35.9534 47.8364 35.8447C48.1078 35.4753 48.9766 33.9649 48.3142 30.3901C47.6192 26.6196 45.7948 22.9144 44.079 21.7518C43.6989 21.5019 43.3406 21.3715 43.0039 21.3715V21.3823Z" fill="#231916"/>
<path d="M20.7416 40.4187L20.5352 40.0166C18.4828 35.9311 18.081 31.2697 19.4167 26.9016L20.7307 22.6205C21.3714 20.5342 22.7289 18.7523 24.575 17.6005C25.7586 16.8616 27.1595 16.6334 28.5169 16.9594C29.8744 17.2962 31.0146 18.1438 31.7205 19.3499C32.8173 21.2188 33.3928 23.3485 33.3928 25.5108V34.1491L20.7307 40.4295L20.7416 40.4187ZM27.2898 17.7091C26.5079 17.7091 25.7369 17.9264 25.0528 18.3611C23.3913 19.4042 22.1642 21.0123 21.5886 22.8813L20.2746 27.1624C19.0475 31.1719 19.3624 35.4313 21.1434 39.2126L32.5023 33.5841V25.5108C32.5023 23.5006 31.9702 21.5339 30.9494 19.8062C30.363 18.8066 29.4291 18.1112 28.3106 17.8395C27.974 17.7526 27.6373 17.72 27.3007 17.72L27.2898 17.7091Z" fill="#231916"/>
<path d="M49.1289 40.4188L36.4668 34.1384V25.5C36.4668 23.3377 37.0424 21.208 38.1392 19.3391C38.845 18.133 39.9853 17.2855 41.3427 16.9487C42.7001 16.6118 44.101 16.84 45.2846 17.5897C47.1307 18.7524 48.4882 20.5344 49.1289 22.6097L50.4429 26.8909C51.7786 31.2698 51.3876 35.9203 49.3243 40.0059L49.118 40.4079L49.1289 40.4188ZM37.3681 33.5842L48.7271 39.2127C50.508 35.4314 50.8121 31.172 49.5958 27.1625L48.2819 22.8814C47.7063 21.0016 46.4792 19.4043 44.8177 18.3612C43.8403 17.7527 42.6892 17.5571 41.5707 17.8288C40.4522 18.1004 39.5074 18.7958 38.9319 19.7955C37.9111 21.5232 37.379 23.5007 37.379 25.5V33.5733L37.3681 33.5842Z" fill="#231916"/>
<path d="M49.8881 44.1244C49.8881 39.6911 48.0746 35.6925 45.1751 32.8674C42.482 30.2488 38.8549 31.205 34.8478 31.205C31.0687 31.205 27.6263 30.0749 24.9875 32.4437C21.8165 35.2796 19.8184 39.463 19.8184 44.1353C19.8184 52.6867 26.5512 59.6299 34.8478 59.6299C43.1444 59.6299 49.8773 52.6975 49.8773 44.1353L49.8881 44.1244Z" fill="#6C6F73"/>
<path d="M34.8478 60.0639C26.3123 60.0639 19.3623 52.9142 19.3623 44.1237C19.3623 39.5166 21.2953 35.1269 24.6834 32.0953C26.801 30.1938 29.3747 30.3894 32.1004 30.6067C32.9909 30.6719 33.9139 30.7479 34.8478 30.7479C35.7057 30.7479 36.5419 30.7045 37.3672 30.661C40.3861 30.498 43.2313 30.3459 45.4901 32.5408C48.6176 35.5832 50.3334 39.7014 50.3334 44.1237C50.3334 52.9142 43.3833 60.0639 34.8478 60.0639ZM29.6027 31.3782C27.9738 31.3782 26.5295 31.6607 25.2807 32.769C22.088 35.6267 20.2636 39.7666 20.2636 44.1237C20.2636 52.4144 26.801 59.162 34.8478 59.162C42.8947 59.162 49.432 52.4144 49.432 44.1237C49.432 39.9404 47.8031 36.0613 44.8602 33.1819C42.8947 31.2695 40.3536 31.3999 37.4107 31.552C36.5853 31.5955 35.7274 31.6389 34.8478 31.6389C33.8813 31.6389 32.9366 31.5629 32.0352 31.4977C31.1882 31.4325 30.3738 31.3673 29.6027 31.3673V31.3782Z" fill="#231916"/>
<path d="M49.2039 51.3279V51.3062C49.2039 51.241 49.2039 51.1758 49.2039 51.0998C49.2039 51.0672 49.2039 51.0346 49.2039 51.002C49.2039 50.9585 49.2039 50.915 49.2039 50.8716C49.2039 50.839 49.2039 50.7955 49.2039 50.7629C49.2039 50.7194 49.2039 50.6868 49.2039 50.6434C49.2039 50.6108 49.2039 50.5673 49.2039 50.5347C49.2039 50.5021 49.204 50.4587 49.1931 50.4261C49.1931 50.3826 49.1931 50.35 49.1822 50.3065C49.1822 50.2739 49.1822 50.2305 49.1714 50.1979C49.1714 50.1544 49.1714 50.1218 49.1605 50.0784C49.1605 50.0458 49.1605 50.0132 49.1497 49.9806C49.1497 49.9371 49.1388 49.9045 49.1279 49.8611C49.1279 49.8285 49.1279 49.7959 49.1171 49.7633C49.1171 49.7198 49.1062 49.6872 49.0954 49.6437C49.0954 49.6111 49.0845 49.5785 49.0736 49.5459C49.0736 49.5025 49.0628 49.459 49.0519 49.4264C49.0519 49.3938 49.0411 49.3612 49.0302 49.3395C49.0302 49.296 49.0085 49.2526 48.9976 49.2091C48.9976 49.1765 48.9868 49.1548 48.9759 49.1222C48.9759 49.0787 48.9542 49.0352 48.9433 48.9918C48.9433 48.9701 48.9325 48.9375 48.9216 48.9157C48.9108 48.8723 48.8999 48.8288 48.889 48.7853C48.889 48.7636 48.8782 48.731 48.8673 48.7093C48.8565 48.6658 48.8456 48.6223 48.8239 48.5789C48.8239 48.5572 48.813 48.5354 48.8022 48.5137C48.7913 48.4702 48.7696 48.4159 48.7587 48.3724C48.7587 48.3507 48.7479 48.3398 48.737 48.3181C48.7153 48.2638 48.7044 48.2203 48.6827 48.166C48.6827 48.1551 48.6827 48.1443 48.6718 48.1334C48.6501 48.0791 48.6284 48.0247 48.6175 47.9704C48.4221 47.4488 48.194 46.9599 47.9334 46.5035C47.9008 46.4492 47.8682 46.3949 47.8357 46.3405C47.8031 46.2862 47.7705 46.2319 47.7379 46.1775C47.7054 46.1232 47.6728 46.0689 47.6293 46.0146C47.5968 45.9602 47.5533 45.9059 47.5208 45.8516C46.1633 43.8957 44.1326 42.6027 41.8304 42.4397C41.6675 42.4288 41.4938 42.418 41.3309 42.418C38.7789 42.418 36.5202 43.8088 35.065 45.9602C33.6098 43.8088 31.3402 42.418 28.7991 42.418C28.419 42.418 28.0389 42.4506 27.6697 42.5049C25.4218 42.8743 23.478 44.3304 22.2509 46.4057C22.2183 46.4601 22.1966 46.5035 22.164 46.5578C22.164 46.5578 22.164 46.5687 22.1531 46.5796C22.1206 46.623 22.0988 46.6774 22.0663 46.7317C22.0663 46.7317 22.0663 46.7534 22.0554 46.7534C22.0337 46.7969 22.0011 46.8512 21.9794 46.9056C21.9794 46.9056 21.9794 46.9273 21.9685 46.9273C21.9468 46.9816 21.9142 47.0251 21.8925 47.0794C21.8925 47.0794 21.8925 47.0903 21.8925 47.1011C21.7622 47.3728 21.6319 47.6553 21.5233 47.9487C21.5233 47.9595 21.5124 47.9813 21.5016 47.9921C21.4798 48.0356 21.469 48.0791 21.4581 48.1225C21.4581 48.1442 21.4473 48.166 21.4364 48.1877C21.4256 48.2312 21.4038 48.2746 21.393 48.3181C21.393 48.3398 21.3821 48.3616 21.3713 48.3833C21.3604 48.4268 21.3495 48.4702 21.3278 48.5137C21.3278 48.5354 21.317 48.568 21.3061 48.5897C21.2952 48.6332 21.2844 48.6767 21.2735 48.7093C21.2735 48.731 21.2627 48.7636 21.2518 48.7853C21.2409 48.8288 21.2301 48.8723 21.2192 48.9157C21.2192 48.9375 21.2084 48.9701 21.1975 48.9918C21.1866 49.0352 21.1758 49.0787 21.1649 49.1222C21.1649 49.1439 21.1541 49.1656 21.1432 49.1874C21.1215 49.2852 21.0998 49.3721 21.0781 49.4699C21.0781 49.4916 21.0781 49.5025 21.0672 49.5242C21.0672 49.5677 21.0563 49.6003 21.0455 49.6437C21.0455 49.6763 21.0346 49.7089 21.0238 49.7415C21.0238 49.7741 21.0129 49.8176 21.002 49.8502C21.002 49.8828 20.9912 49.9154 20.9803 49.9588C20.9803 49.9914 20.9695 50.0349 20.9586 50.0675C20.9586 50.1001 20.9586 50.1436 20.9477 50.1762C20.9477 50.2088 20.9477 50.2522 20.9369 50.2848C20.9369 50.3174 20.9369 50.3609 20.926 50.3935C20.926 50.4261 20.926 50.4587 20.9152 50.5021C20.9152 50.5456 20.9152 50.5782 20.9043 50.6217C20.9043 50.6543 20.9043 50.6868 20.9043 50.7194C20.9043 50.7629 20.9043 50.8064 20.9043 50.839C20.9043 50.8716 20.9043 50.9042 20.9043 50.9368C20.9043 50.9802 20.9043 51.0237 20.9043 51.078C20.9043 51.1106 20.9043 51.1323 20.9043 51.1649C20.9043 51.2301 20.9043 51.3062 20.9043 51.3714C20.9043 51.3714 20.9043 51.3823 20.9043 51.3931C20.9043 51.4692 20.9043 51.5561 20.9043 51.6322C20.9043 51.7191 20.9043 51.806 20.9043 51.9038C20.9043 51.9799 20.9043 52.0559 20.9043 52.1211C21.1866 59.1078 27.7132 60.3357 35.3799 60.3357C43.0467 60.3357 49.0302 58.9883 49.3126 52.0994V52.0777C49.3126 52.0125 49.3126 51.9581 49.3126 51.893C49.3126 51.806 49.3126 51.7082 49.3126 51.6213C49.3126 51.5452 49.3126 51.4583 49.3126 51.3823L49.2039 51.3279Z" fill="#2E3234"/>
<path d="M35.2607 60.7374C28.0609 60.7374 20.6548 59.7052 20.3398 52.0882V52.0556C20.3398 51.9904 20.3398 51.9253 20.3398 51.8601C20.3398 51.7623 20.3398 51.6645 20.3398 51.5775C20.3398 51.5123 20.3398 51.458 20.3398 51.3928V51.3059C20.3398 51.2298 20.3398 51.1646 20.3398 51.0886V51.0017C20.3398 51.0017 20.3398 50.9039 20.3507 50.8604L20.4593 49.839L20.5462 49.3392C20.5679 49.2414 20.5896 49.1436 20.6113 49.0458L20.633 48.9697C20.633 48.9697 20.6548 48.8828 20.6656 48.8394L20.8068 48.3395C20.8068 48.3395 20.8394 48.2526 20.8502 48.2091L20.8719 48.1331C20.8719 48.1331 20.9045 48.0462 20.9154 48.0027L20.9371 47.9375C20.9371 47.9375 20.9697 47.8397 20.9914 47.7962L21.0131 47.7528C21.1217 47.4485 21.252 47.1552 21.3932 46.8618V46.8401C21.3932 46.8401 21.4584 46.7314 21.4801 46.6771V46.6553C21.4801 46.6553 21.5452 46.5467 21.5778 46.5032V46.4815C21.5778 46.4815 21.6538 46.3728 21.6755 46.3294V46.3076C21.6755 46.3076 21.7516 46.199 21.7841 46.1446C23.0655 43.9823 25.0637 42.5046 27.3007 42.07L27.5288 42.0265C27.9306 41.9613 28.3324 41.9287 28.7233 41.9287C31.145 41.9287 33.4037 43.0914 34.9892 45.1559C36.5855 43.1022 38.8334 41.9287 41.2551 41.9287C41.4288 41.9287 41.6026 41.9287 41.7872 41.9504H41.9609C44.2523 42.1786 46.3807 43.4825 47.8142 45.5579V45.5796C47.8142 45.5796 47.8902 45.6774 47.9336 45.7317C47.9771 45.7969 48.0096 45.8513 48.0422 45.9056C48.0857 45.9708 48.1182 46.0251 48.1508 46.0903C48.1942 46.1555 48.2268 46.2098 48.2594 46.275C48.5418 46.764 48.7807 47.2856 48.987 47.818C49.0087 47.894 49.0304 47.9375 49.0413 47.9918V48.0244C49.0413 48.0244 49.0956 48.1331 49.1064 48.1874L49.1282 48.2417C49.1282 48.2417 49.1607 48.3395 49.1716 48.3939L49.1933 48.4591C49.1933 48.4591 49.2259 48.5569 49.2368 48.6003L49.4214 49.3501L49.5734 50.2737L49.6386 51.0995C49.6386 51.1755 49.6386 51.2407 49.6386 51.3168V51.4146C49.6386 51.4689 49.6386 51.5341 49.6386 51.5884C49.6386 51.6862 49.6386 51.784 49.6386 51.8709C49.6386 51.9361 49.6386 52.0013 49.6386 52.0665V52.0882C49.3236 59.7269 42.189 60.7483 35.2607 60.7483V60.7374ZM21.8819 46.8944L22.2837 47.1008C22.2837 47.1008 22.2402 47.1986 22.2076 47.2421V47.2638C22.0773 47.5246 21.9579 47.7962 21.8493 48.0679V48.1114C21.8493 48.1114 21.8059 48.1983 21.7841 48.2417L21.7624 48.2961C21.7624 48.2961 21.7298 48.383 21.719 48.4156L21.4801 49.2414C21.4584 49.3283 21.4366 49.4261 21.4149 49.513L21.2846 50.2845L21.2086 51.1212C21.2086 51.1864 21.2086 51.2516 21.2086 51.3168V51.3928C21.2086 51.4472 21.2086 51.5015 21.2086 51.5558C21.2086 51.6427 21.2086 51.7297 21.2086 51.8166C21.2086 51.8818 21.2086 51.947 21.2086 52.0122V52.0448C21.4909 58.8902 28.1152 59.8247 35.2281 59.8247C44.5781 59.8247 48.4766 57.5646 48.7047 52.0339V52.0122H48.7915H49.1499L48.7047 51.9904C48.7047 51.9361 48.7047 51.8709 48.7047 51.8166C48.7047 51.7297 48.7047 51.6427 48.7047 51.5558C48.7047 51.5015 48.7047 51.4472 48.7047 51.3928V51.3276H49.1499H48.7047C48.7047 51.2516 48.7047 51.1864 48.7047 51.1212L48.6178 50.1541L48.4875 49.4261L48.3354 48.8285C48.3354 48.8285 48.3137 48.7416 48.3029 48.6981L48.2811 48.6329C48.2811 48.6329 48.2485 48.546 48.2377 48.5025L48.216 48.4482C48.216 48.4482 48.1834 48.3504 48.1725 48.3069V48.2743C48.1725 48.2743 48.1182 48.1765 48.1074 48.1222C47.9228 47.6333 47.7056 47.1552 47.4558 46.7205C47.4232 46.6662 47.3907 46.6119 47.3581 46.5575C47.3255 46.4924 47.2929 46.4489 47.2603 46.3946C47.2278 46.3402 47.1843 46.2859 47.1517 46.2316C47.1192 46.1772 47.0757 46.1229 47.0432 46.0686C45.7183 44.1671 43.7636 42.9936 41.6895 42.8414H41.6026C41.4723 42.8306 41.342 42.8197 41.2225 42.8197C38.9095 42.8197 36.7593 44.0367 35.3258 46.1664L34.9566 46.7205L34.5874 46.1664C33.154 44.0367 31.0038 42.8197 28.6907 42.8197C28.3649 42.8197 28.0392 42.8414 27.7134 42.8958H27.6374C25.5849 43.2435 23.7171 44.5908 22.5226 46.5901C22.49 46.6445 22.4683 46.6879 22.4357 46.7423L22.0339 46.5358L22.4249 46.7531C22.4249 46.7531 22.3705 46.8509 22.3488 46.8944V46.9161C22.3488 46.9161 22.2837 47.003 22.2619 47.0574L21.8493 46.8727L21.8819 46.8944Z" fill="#231916"/>
<path d="M27.3009 39.897C28.3565 39.897 29.2122 39.0408 29.2122 37.9846C29.2122 36.9285 28.3565 36.0723 27.3009 36.0723C26.2453 36.0723 25.3896 36.9285 25.3896 37.9846C25.3896 39.0408 26.2453 39.897 27.3009 39.897Z" fill="black"/>
<path d="M42.3956 39.897C43.4512 39.897 44.3069 39.0408 44.3069 37.9846C44.3069 36.9285 43.4512 36.0723 42.3956 36.0723C41.3401 36.0723 40.4844 36.9285 40.4844 37.9846C40.4844 39.0408 41.3401 39.897 42.3956 39.897Z" fill="black"/>
<path d="M34.9782 50.8174C36.3465 50.8174 37.5519 49.6874 38.236 47.9814C38.236 47.9814 37.6062 48.7855 37.1175 48.7855C36.6288 48.7855 34.8913 47.9814 34.8913 47.9814C34.8913 47.9814 33.295 48.742 32.8497 48.742C32.4045 48.742 31.7529 48.2966 31.7529 48.2966C31.905 48.666 32.0353 48.6877 32.2307 49.0028C32.9366 50.122 33.9031 50.8174 34.9782 50.8174Z" fill="#CF7A8D"/>
<path d="M34.9894 37.9844C20.0686 37.9844 17.332 47.9809 19.6885 56.3693C20.6876 59.9224 25.5309 61.498 27.7136 58.0752C29.6032 55.098 28.8539 48.3069 34.8591 48.3069C40.8644 48.3069 40.3866 55.098 42.287 58.0752C44.4589 61.4871 49.313 59.9116 50.3121 56.3693C52.6686 47.9918 49.932 37.9844 35.0112 37.9844H34.9894Z" fill="#6C6F73"/>
<path d="M45.6205 60.4226C44.1002 60.4226 42.7753 59.6837 41.9066 58.3146C41.3202 57.391 40.9618 56.174 40.5818 54.8919C39.6913 51.8821 38.7791 48.7636 34.8588 48.7636C30.9386 48.7636 30.1893 51.8169 29.3965 54.7724C29.0382 56.1089 28.7015 57.3693 28.0934 58.3146C27.0943 59.8902 25.4763 60.6399 23.6628 60.3682C21.5995 60.064 19.8294 58.4993 19.2647 56.4892C17.8095 51.3279 18.4502 46.4166 21.0239 43.0156C23.7822 39.3755 28.4844 37.5283 35 37.5283C41.5157 37.5283 46.2178 39.3755 48.9761 43.0156C51.5498 46.4166 52.1905 51.317 50.7353 56.4892C50.1706 58.5102 48.4005 60.064 46.3372 60.3682C46.0983 60.4008 45.8594 60.4226 45.6205 60.4226ZM35 38.4302C28.7776 38.4302 24.3143 40.1578 21.7406 43.5588C19.3407 46.7317 18.7543 51.3496 20.1335 56.2392C20.6113 57.9234 22.0773 59.2165 23.7931 59.4773C25.2374 59.6946 26.5296 59.0861 27.3332 57.8256C27.8654 56.989 28.1803 55.7937 28.5169 54.5333C29.3097 51.5561 30.2979 47.8508 34.848 47.8508C39.3981 47.8508 40.5383 51.6104 41.4288 54.6202C41.7871 55.8481 42.1346 56.9999 42.645 57.8148C43.4486 59.0752 44.7409 59.6728 46.1852 59.4664C47.901 59.2165 49.3779 57.9126 49.8448 56.2284C51.224 51.3388 50.6267 46.7208 48.2376 43.548C45.6639 40.147 41.2007 38.4193 34.9783 38.4193L35 38.4302Z" fill="#231916"/>
<path d="M34.5758 47.9916C35.7921 47.1658 37.4319 46.5356 38.192 45.449C39.9404 42.939 38.0943 41.6134 37.0083 41.0267C36.0419 40.5051 34.3261 41.0484 33.9786 42.6674C33.6311 44.2864 35.2708 43.4497 35.6509 42.5044C36.0419 41.5591 35.9441 40.3204 34.9776 40.2009C34.0112 40.0813 32.2302 40.3312 31.7198 42.2328C31.2746 43.917 31.5461 46.3074 33.4139 47.5244L34.5541 47.9916H34.5758Z" fill="#EE7C2C"/>
<path d="M34.0007 48.1444C33.5446 47.7967 31.3944 46.1343 31.0578 44.211C30.7863 42.6355 31.2641 41.2121 32.3935 40.3211C33.36 39.5496 34.6088 39.3431 35.6513 39.7778C36.14 39.9842 36.4875 40.2341 36.7372 40.5058C37.1608 40.5492 37.5843 40.7014 37.9861 40.973C39.3652 41.864 39.5281 43.3852 39.2458 44.4175C38.8765 45.7866 37.5843 46.8731 37.1065 47.286L37.0196 47.3621C36.759 47.5794 36.1943 47.9923 35.6079 48.3726C35.2278 48.6225 34.7391 48.6443 34.359 48.4052C34.2396 48.3292 34.1201 48.2531 34.0007 48.1662V48.1444ZM34.5219 40.5927C34.0115 40.5927 33.4794 40.7774 33.0342 41.136C32.2197 41.7879 31.8614 42.8528 32.0786 44.0372C32.3826 45.7757 33.74 46.7536 35.0214 47.5903C35.5861 47.2208 36.0748 46.8079 36.3463 46.5689L36.4332 46.5037C36.8567 46.1451 37.9644 45.2107 38.2467 44.1567C38.4313 43.4613 38.3336 42.4399 37.4214 41.8531C37.3997 41.8314 37.3671 41.8205 37.3454 41.8097C37.4105 42.4399 37.2151 43.1027 36.7698 43.6786C35.9554 44.7434 34.9346 44.7434 34.2939 44.2653C34.0007 44.0589 33.8269 43.7003 33.7943 43.2657C33.74 42.6029 34.0115 41.9075 34.5545 41.3642C34.7934 41.1251 35.054 40.9295 35.3255 40.7883C35.3038 40.7883 35.2821 40.7666 35.2604 40.7557C35.0323 40.6579 34.7825 40.6144 34.5328 40.6144L34.5219 40.5927ZM36.216 41.538C35.8902 41.5924 35.5753 41.7662 35.2929 42.0596C34.8151 42.5486 34.8151 43.0158 34.826 43.1462C34.8368 43.32 34.8911 43.3961 34.9129 43.4069C35.3364 43.7112 35.749 43.2983 35.9554 43.0266C36.2703 42.6137 36.3897 42.1465 36.292 41.7445C36.2703 41.6793 36.2486 41.6141 36.216 41.5489V41.538Z" fill="#231F20"/>
<defs>
<filter id="filter0_dd_3531_55475" x="11" y="9.31152" width="47.9902" height="59.9238" filterUnits="userSpaceOnUse" color-interpolation-filters="sRGB">
<feFlood flood-opacity="0" result="BackgroundImageFix"/>
<feColorMatrix in="SourceAlpha" type="matrix" values="0 0 0 0 0 0 0 0 0 0 0 0 0 0 0 0 0 0 127 0" result="hardAlpha"/>
<feOffset dy="2"/>
<feGaussianBlur stdDeviation="2"/>
<feComposite in2="hardAlpha" operator="out"/>
<feColorMatrix type="matrix" values="0 0 0 0 0 0 0 0 0 0 0 0 0 0 0 0 0 0 0.2 0"/>
<feBlend mode="normal" in2="BackgroundImageFix" result="effect1_dropShadow_3531_55475"/>
<feColorMatrix in="SourceAlpha" type="matrix" values="0 0 0 0 0 0 0 0 0 0 0 0 0 0 0 0 0 0 127 0" result="hardAlpha"/>
<feOffset/>
<feGaussianBlur stdDeviation="2.5"/>
<feComposite in2="hardAlpha" operator="out"/>
<feColorMatrix type="matrix" values="0 0 0 0 1 0 0 0 0 0.490083 0 0 0 0 0.120833 0 0 0 1 0"/>
<feBlend mode="normal" in2="effect1_dropShadow_3531_55475" result="effect2_dropShadow_3531_55475"/>
<feBlend mode="normal" in="SourceGraphic" in2="effect2_dropShadow_3531_55475" result="shape"/>
</filter>
</defs>
</svg>
