<svg width="26" height="26" viewBox="0 0 26 26" fill="none" xmlns="http://www.w3.org/2000/svg">
<g filter="url(#filter0_d_2_654)">
<path d="M13 23C19.0751 23 24 18.0751 24 12C24 5.92487 19.0751 1 13 1C6.92487 1 2 5.92487 2 12C2 18.0751 6.92487 23 13 23Z" fill="url(#paint0_linear_2_654)"/>
</g>
<circle cx="13.061" cy="12.061" r="10.2056" fill="url(#paint1_linear_2_654)"/>
<ellipse cx="13.0007" cy="11.9997" rx="8.77018" ry="8.77018" fill="url(#paint2_linear_2_654)"/>
<path opacity="0.32" fill-rule="evenodd" clip-rule="evenodd" d="M12.3688 20.1381C17.2125 20.1381 21.139 16.2115 21.139 11.3679C21.139 9.10675 20.2833 7.04549 18.8781 5.49023C20.6544 7.09519 21.7707 9.417 21.7707 11.9995C21.7707 16.8432 17.8441 20.7697 13.0005 20.7697C10.418 20.7697 8.09617 19.6535 6.49121 17.8772C8.04646 19.2824 10.1077 20.1381 12.3688 20.1381Z" fill="#FFC56F"/>
<path opacity="0.61" fill-rule="evenodd" clip-rule="evenodd" d="M19.5089 6.12202C17.9537 4.71682 15.8924 3.86113 13.6313 3.86113C8.78768 3.86113 4.86113 7.78768 4.86113 12.6313C4.86113 14.8924 5.71682 16.9537 7.12204 18.509C5.34572 16.904 4.22949 14.5822 4.22949 11.9997C4.22949 7.15604 8.15604 3.22949 12.9997 3.22949C15.5822 3.22949 17.904 4.34572 19.5089 6.12202Z" fill="#FFA133"/>
<mask id="mask0_2_654" style="mask-type:alpha" maskUnits="userSpaceOnUse" x="4" y="3" width="18" height="18">
<circle cx="13.0313" cy="12.0879" r="8.46783" fill="#FFCC49"/>
</mask>
<g mask="url(#mask0_2_654)">
<path d="M13.1895 16.9233C13.098 16.9238 13.0074 16.9063 12.9227 16.8718C12.8381 16.8372 12.7611 16.7863 12.6962 16.722L10.8203 14.841H9.71555C9.61948 14.8453 9.52356 14.8297 9.43386 14.795C9.34416 14.7604 9.26264 14.7075 9.19446 14.6397C8.30513 13.7444 7.01283 11.669 8.49967 10.1837C8.56459 10.1194 8.64159 10.0685 8.72624 10.0339C8.81089 9.99939 8.90153 9.98188 8.99297 9.98241C10.3061 9.98241 10.5007 9.73254 10.855 9.28832C10.9858 9.11539 11.1274 8.9508 11.2788 8.79552C11.7758 8.43969 12.3402 8.18904 12.9376 8.05895C13.535 7.92885 14.1526 7.92205 14.7527 8.03897C15.434 8.13417 16.0811 8.39631 16.6363 8.80202C17.1916 9.20772 17.6377 9.74439 17.9349 10.3642C18.537 11.751 19.6342 12.8643 21.0128 13.4875C21.1878 13.5465 21.3323 13.6724 21.4144 13.8377C21.4965 14.003 21.5094 14.1942 21.4505 14.369C21.3915 14.5439 21.2654 14.6882 21.0999 14.7702C20.9345 14.8522 20.7432 14.8652 20.5681 14.8063C18.8664 14.0636 17.5018 12.7153 16.7398 11.0235C16.5386 10.6006 16.235 10.2344 15.8565 9.95812C15.478 9.68181 15.0366 9.50409 14.5721 9.44102C13.792 9.29266 12.9845 9.42547 12.2932 9.81583C12.1805 9.93299 12.0739 10.0558 11.9736 10.1837C11.4456 10.8778 10.9314 11.3428 9.36121 11.3983C8.96518 12.0924 9.67386 13.0711 10.056 13.4806H11.1051C11.1966 13.4801 11.2872 13.4976 11.3719 13.5321C11.4565 13.5667 11.5335 13.6176 11.5984 13.6819L13.6828 15.7642C13.7479 15.8287 13.7996 15.9054 13.8349 15.99C13.8701 16.0746 13.8883 16.1653 13.8883 16.257C13.8883 16.3486 13.8701 16.4393 13.8349 16.5239C13.7996 16.6085 13.7479 16.6852 13.6828 16.7498C13.5472 16.8696 13.3703 16.9318 13.1895 16.9233Z" fill="white"/>
<path d="M14.5784 14.1468C14.2701 14.1727 13.9606 14.1155 13.682 13.9812C13.4034 13.8469 13.1659 13.6405 12.9943 13.3833C12.3412 12.3214 13.1054 10.6833 13.2652 10.3641C13.3485 10.2006 13.4932 10.0767 13.6677 10.0195C13.8421 9.96225 14.0322 9.97634 14.1963 10.0587C14.2824 10.099 14.3594 10.1567 14.4223 10.228C14.4853 10.2993 14.5329 10.3828 14.5622 10.4733C14.5915 10.5637 14.6019 10.6592 14.5927 10.7539C14.5836 10.8485 14.555 10.9403 14.5089 11.0234C14.2104 11.5217 14.095 12.1082 14.1824 12.6823C14.2379 12.7795 14.4811 12.7934 14.5784 12.7934C14.8193 12.8177 15.0624 12.7837 15.2874 12.6943C15.5123 12.6049 15.7124 12.4627 15.8707 12.2797C16.2385 11.6128 16.3379 10.8309 16.1486 10.0934C16.0998 9.91573 16.1236 9.72598 16.2148 9.56588C16.306 9.40577 16.4571 9.28842 16.635 9.23964C16.8128 9.19086 17.0027 9.21464 17.163 9.30576C17.3232 9.39688 17.4407 9.54786 17.4895 9.7255C17.6367 10.2944 17.667 10.8872 17.5787 11.4682C17.4903 12.0491 17.2851 12.6061 16.9754 13.1057C16.6869 13.4565 16.3192 13.7337 15.9025 13.9147C15.4857 14.0958 15.0319 14.1753 14.5784 14.1468Z" fill="white"/>
</g>
<defs>
<filter id="filter0_d_2_654" x="0.888889" y="1" width="24.2222" height="24.2222" filterUnits="userSpaceOnUse" color-interpolation-filters="sRGB">
<feFlood flood-opacity="0" result="BackgroundImageFix"/>
<feColorMatrix in="SourceAlpha" type="matrix" values="0 0 0 0 0 0 0 0 0 0 0 0 0 0 0 0 0 0 127 0" result="hardAlpha"/>
<feOffset dy="1.11111"/>
<feGaussianBlur stdDeviation="0.555556"/>
<feColorMatrix type="matrix" values="0 0 0 0 0.333594 0 0 0 0 0.427953 0 0 0 0 0.7625 0 0 0 0.12 0"/>
<feBlend mode="normal" in2="BackgroundImageFix" result="effect1_dropShadow_2_654"/>
<feBlend mode="normal" in="SourceGraphic" in2="effect1_dropShadow_2_654" result="shape"/>
</filter>
<linearGradient id="paint0_linear_2_654" x1="5.66667" y1="3.44444" x2="20.3333" y2="19.9444" gradientUnits="userSpaceOnUse">
<stop stop-color="#FA8316"/>
<stop offset="1" stop-color="#EF6416"/>
</linearGradient>
<linearGradient id="paint1_linear_2_654" x1="6.64413" y1="4.11227" x2="19.2414" y2="19.5038" gradientUnits="userSpaceOnUse">
<stop stop-color="#FFBE16"/>
<stop offset="1" stop-color="#FF7A00"/>
</linearGradient>
<linearGradient id="paint2_linear_2_654" x1="8.84929" y1="6.88844" x2="17.9339" y2="18.6391" gradientUnits="userSpaceOnUse">
<stop stop-color="#F97903"/>
<stop offset="0.938927" stop-color="#FFA41B"/>
</linearGradient>
</defs>
</svg>
