<svg width="71" height="78" viewBox="0 0 71 78" fill="none" xmlns="http://www.w3.org/2000/svg">
<g filter="url(#filter0_d_3531_55397)">
<path d="M50.6276 36.642C50.6486 36.5894 50.6802 36.5262 50.6697 36.4631C50.4277 30.1165 49.3127 23.8436 47.3562 17.8127L46.3674 14.7499C46.0308 13.7184 45.1157 13.0343 44.0428 12.9922C42.9593 12.9501 42.0021 13.5816 41.6024 14.5815L38.4152 22.5279C37.5316 22.3911 36.6164 22.3069 35.6908 22.3069C34.7546 22.3069 33.85 22.3911 32.9664 22.5279L29.7792 14.5815C29.3795 13.5816 28.4223 12.9606 27.3388 12.9922C26.2554 13.0343 25.3402 13.7184 25.0141 14.7499L24.0254 17.8127C22.0689 23.8436 20.9538 30.127 20.7119 36.4631C20.7119 36.5262 20.733 36.5894 20.754 36.642C20.733 37.0104 20.7119 37.3788 20.7119 37.7577C20.7119 44.1569 22.6053 50.9035 25.8977 56.2502C28.9061 61.1443 32.6719 64.1861 35.7118 64.1861C38.7518 64.1861 42.507 61.1443 45.5259 56.2502C48.8183 50.9035 50.7117 44.1569 50.7117 37.7577C50.7117 37.3788 50.6907 37.0104 50.6697 36.642H50.6276Z" stroke="white" stroke-width="5" stroke-linecap="round" stroke-linejoin="round" shape-rendering="crispEdges"/>
</g>
<path d="M45.9996 14.881L46.9884 17.9438C48.9344 23.9431 50.0389 30.1739 50.2808 36.4784L37.4268 26.2691L42.0551 14.7547C42.7914 12.9339 45.4001 13.0181 46.0102 14.8915L45.9996 14.881Z" fill="#555269"/>
<path d="M50.2805 36.91C50.1858 36.91 50.0912 36.8784 50.007 36.8153L37.1529 26.606C37.0057 26.4902 36.9426 26.2797 37.0162 26.1008L41.6445 14.5864C42.0442 13.5865 43.0014 12.955 44.0849 12.9971C45.1683 13.0392 46.0835 13.7233 46.4096 14.7548L47.3983 17.8176C49.3548 23.8484 50.4698 30.1319 50.7118 36.468C50.7118 36.6364 50.6276 36.7942 50.4698 36.8784C50.4067 36.91 50.3436 36.9205 50.27 36.9205L50.2805 36.91ZM37.9524 26.1218L49.8072 35.5312C49.5021 29.5951 48.4187 23.7221 46.5779 18.0702L45.5891 15.0074C45.3261 14.1864 44.6213 13.8707 44.0638 13.8602C43.5063 13.8496 42.7805 14.1022 42.465 14.9021L37.9629 26.1218H37.9524Z" fill="#231916"/>
<path d="M25.4452 14.881L24.4565 17.9438C22.5105 23.9431 21.406 30.1739 21.1641 36.4784L34.0181 26.2691L29.3898 14.7547C28.6535 12.9339 26.0448 13.0181 25.4347 14.8915L25.4452 14.881Z" fill="#555269"/>
<path d="M26.8966 17.1546L25.6659 20.9541C24.5403 24.4064 23.9092 28.0059 23.7725 31.6371V31.816L31.4092 25.743L27.9484 17.123C27.7486 16.6389 27.0543 16.6599 26.8966 17.1546Z" fill="#BC8455"/>
<path d="M44.4843 17.1546L45.715 20.9541C46.8405 24.4064 47.4716 28.0059 47.6084 31.6371V31.816L39.9717 25.743L43.4324 17.123C43.6322 16.6389 44.3265 16.6599 44.4843 17.1546Z" fill="#BC8455"/>
<path d="M21.1644 36.91C21.1013 36.91 21.0277 36.8994 20.9646 36.8679C20.8173 36.7942 20.7227 36.6363 20.7227 36.4574C20.9646 30.1108 22.0796 23.8378 24.0361 17.807L25.0249 14.7442C25.3615 13.7127 26.2766 13.0286 27.3495 12.9865C28.433 12.9549 29.3902 13.5759 29.7899 14.5758L34.4182 26.0902C34.4919 26.2691 34.4393 26.4691 34.2815 26.5954L21.4274 36.8047C21.3538 36.8679 21.2486 36.8994 21.1539 36.8994L21.1644 36.91ZM25.8664 15.0178L24.8776 18.0806C23.0473 23.7326 21.9534 29.6056 21.6483 35.5417L33.5031 26.1323L29.001 14.9126C28.6749 14.1127 27.9596 13.8496 27.4021 13.8706C26.8341 13.8917 26.1399 14.2074 25.8769 15.0178H25.8664Z" fill="#231916"/>
<path d="M35.7222 22.7539C27.6858 22.7539 21.1641 27.9428 21.1641 37.7626C21.1641 51.8136 29.9578 63.7595 35.7222 63.7595C41.4865 63.7595 50.2803 51.8136 50.2803 37.7626C50.2803 27.9533 43.7586 22.7539 35.7222 22.7539Z" fill="#555269"/>
<path d="M35.7117 63.7483C40.5714 63.7483 47.577 55.2651 49.6597 44.1823C48.9865 44.056 48.3133 43.9718 47.6506 43.9507C44.6317 43.8455 43.6114 47.1188 43.6114 51.3077C43.6114 60.0435 38.6675 61.7696 35.7117 61.7696C32.7454 61.7696 27.812 60.033 27.812 51.3077C27.812 47.1188 26.7917 43.8455 23.7728 43.9507C23.1101 43.9718 22.4369 44.056 21.7637 44.1823C23.8464 55.2651 30.852 63.7483 35.7117 63.7483Z" fill="#BC8455"/>
<path d="M35.7226 64.1909C32.6826 64.1909 28.9274 61.1492 25.9085 56.255C22.6161 50.9083 20.7227 44.1618 20.7227 37.7625C20.7227 32.9947 22.2479 29.0267 25.1195 26.2692C27.7703 23.7221 31.5361 22.3223 35.712 22.3223C39.888 22.3223 43.6538 23.7221 46.3046 26.2692C49.1867 29.0267 50.7014 33.0052 50.7014 37.7625C50.7014 44.1618 48.808 50.9083 45.5156 56.255C42.5072 61.1492 38.7415 64.1909 35.7015 64.1909H35.7226ZM35.7226 23.1958C27.1392 23.1958 21.5957 28.9109 21.5957 37.7625C21.5957 51.624 30.2738 63.3174 35.7226 63.3174C41.1713 63.3174 49.8494 51.624 49.8494 37.7625C49.8494 28.9109 44.306 23.1958 35.7226 23.1958Z" fill="#231916"/>
<path d="M29.6638 42.6667C30.6863 42.6667 31.5151 41.8374 31.5151 40.8143C31.5151 39.7913 30.6863 38.9619 29.6638 38.9619C28.6414 38.9619 27.8125 39.7913 27.8125 40.8143C27.8125 41.8374 28.6414 42.6667 29.6638 42.6667Z" fill="black"/>
<path d="M41.781 42.6667C42.8035 42.6667 43.6323 41.8374 43.6323 40.8143C43.6323 39.7913 42.8035 38.9619 41.781 38.9619C40.7586 38.9619 39.9297 39.7913 39.9297 40.8143C39.9297 41.8374 40.7586 42.6667 41.781 42.6667Z" fill="black"/>
<path d="M26.5183 36.8888C28.1908 35.4468 31.1151 34.1312 32.9348 36.0783C34.0393 37.3834 33.5975 39.3201 32.735 40.6041C32.5877 40.8041 32.4299 41.0146 32.2196 41.1514C32.451 40.7199 32.5456 40.2463 32.6298 39.7937C32.7771 38.9517 32.8297 37.9834 32.4825 37.2256C31.2623 35.1311 28.3802 36.4678 26.5078 36.8888H26.5183Z" fill="#BC8455"/>
<path d="M44.9158 36.8888C43.054 36.4678 40.1613 35.1311 38.9411 37.2256C38.594 37.9834 38.6466 38.9517 38.7938 39.7937C38.878 40.2463 38.9727 40.7199 39.2041 41.1514C38.9937 41.0146 38.8359 40.8041 38.6886 40.6041C37.8261 39.3201 37.3843 37.3834 38.4888 36.0783C40.3086 34.1312 43.2328 35.4468 44.9053 36.8888H44.9158Z" fill="#BC8455"/>
<path d="M35.8065 51.0659C34.8808 50.7397 32.5035 50.8344 32.3563 54.1393C32.209 57.4441 35.554 58.4545 35.9327 58.3493C36.3114 58.244 38.31 56.4442 38.5835 56.0127C38.8569 55.5812 39.9088 53.0762 38.2784 52.2658C36.648 51.4554 36.6795 51.3817 35.817 51.0659H35.8065Z" fill="#ED7C2E"/>
<path d="M33.8188 59.6651C32.1042 59.6651 31.4521 58.4863 31.4205 58.4336C31.3048 58.2126 31.3784 57.939 31.5993 57.8232C31.8202 57.7074 32.0937 57.7811 32.2094 58.0021C32.2305 58.0442 32.6617 58.7599 33.8083 58.7599C34.0818 58.7599 34.3973 58.6757 34.755 58.5284C33.5769 57.739 32.2831 56.6444 31.9675 54.8341C31.715 53.3711 32.1568 52.0555 33.2087 51.224C34.1028 50.5083 35.2704 50.3188 36.2276 50.7188C36.6799 50.9082 37.006 51.1503 37.2374 51.3924C37.6266 51.4345 38.0264 51.5818 38.4156 51.8344C39.6883 52.6554 39.8356 54.0657 39.5832 55.0235C39.236 56.2971 38.0369 57.3075 37.5846 57.6864L37.5004 57.7495C37.1743 58.0232 36.5853 58.5284 35.891 58.9494C35.891 58.9494 35.8805 58.9494 35.87 58.9494C35.0916 59.423 34.4079 59.6546 33.8083 59.6546L33.8188 59.6651ZM35.1863 51.4029C34.7024 51.4029 34.1975 51.5818 33.7767 51.9186C32.9983 52.5396 32.6617 53.5395 32.8616 54.6657C33.1561 56.3181 34.492 57.2654 35.6491 58.0232C36.1856 57.6653 36.6484 57.2759 36.9114 57.0549L36.985 56.9917C37.3847 56.6549 38.4261 55.7813 38.6996 54.7709C38.8784 54.1079 38.7837 53.129 37.9212 52.5712C37.8791 52.5396 37.837 52.5186 37.7844 52.487C37.8686 53.0869 37.6898 53.7289 37.269 54.2763C36.4696 55.3182 35.5439 55.2235 34.9864 54.8236C34.7234 54.6341 34.5656 54.3078 34.5236 53.9079C34.471 53.2974 34.734 52.6554 35.2283 52.1502C35.4703 51.9081 35.7227 51.7187 35.9962 51.5924C35.9541 51.5713 35.9121 51.5503 35.87 51.5397C35.6491 51.445 35.4177 51.4029 35.1757 51.4029H35.1863ZM36.7957 52.287C36.4696 52.3396 36.1645 52.508 35.891 52.7922C35.4387 53.2553 35.4282 53.7184 35.4387 53.8447C35.4492 54.0131 35.5124 54.0868 35.5334 54.1078C35.9436 54.4131 36.3539 54.0131 36.5642 53.7395C36.8693 53.3395 36.985 52.8975 36.8798 52.508C36.8588 52.4344 36.8377 52.3607 36.7957 52.2975V52.287Z" fill="#231916"/>
<path d="M37.4901 59.6648C36.8905 59.6648 36.1963 59.4227 35.4179 58.9491C35.2075 58.8228 35.1339 58.5386 35.2706 58.3281C35.3968 58.1176 35.6808 58.0439 35.8912 58.1807C36.5223 58.5702 37.0588 58.7596 37.4901 58.7596C38.6472 58.7596 39.089 58.0123 39.089 58.0123C39.2047 57.7913 39.4782 57.7071 39.6991 57.8334C39.9199 57.9492 40.0041 58.2228 39.8779 58.4439C39.8463 58.4965 39.1941 59.6753 37.4796 59.6753L37.4901 59.6648Z" fill="#231916"/>
<defs>
<filter id="filter0_d_3531_55397" x="14.2119" y="8.49023" width="43" height="64.1963" filterUnits="userSpaceOnUse" color-interpolation-filters="sRGB">
<feFlood flood-opacity="0" result="BackgroundImageFix"/>
<feColorMatrix in="SourceAlpha" type="matrix" values="0 0 0 0 0 0 0 0 0 0 0 0 0 0 0 0 0 0 127 0" result="hardAlpha"/>
<feOffset dy="2"/>
<feGaussianBlur stdDeviation="2"/>
<feComposite in2="hardAlpha" operator="out"/>
<feColorMatrix type="matrix" values="0 0 0 0 0 0 0 0 0 0 0 0 0 0 0 0 0 0 0.2 0"/>
<feBlend mode="normal" in2="BackgroundImageFix" result="effect1_dropShadow_3531_55397"/>
<feBlend mode="normal" in="SourceGraphic" in2="effect1_dropShadow_3531_55397" result="shape"/>
</filter>
</defs>
</svg>
