<svg width="24" height="24" viewBox="0 0 24 24" fill="none" xmlns="http://www.w3.org/2000/svg">
<path d="M10.7039 4.11357C12.1473 3.86782 13.6308 4.02264 14.9922 4.56116C16.3534 5.09953 17.5401 6.00084 18.4226 7.16665C19.305 8.33233 19.8492 9.7175 19.9958 11.1711C19.8214 11.1811 19.6478 11.2 19.4728 11.2H19.473C17.4176 11.2032 15.4242 10.5005 13.8271 9.21004C12.2301 7.9194 11.1273 6.11986 10.704 4.11363L10.7039 4.11357ZM19.4729 12.7999C17.0645 12.8033 14.7275 11.9842 12.8506 10.479C10.9736 8.97372 9.66953 6.87297 9.15519 4.52618C7.94016 4.98903 6.85645 5.74034 5.99828 6.71519C5.13997 7.69004 4.53286 8.85891 4.22959 10.1206C4.24717 10.1205 4.26489 10.1177 4.28248 10.1177L4.28262 10.1178C6.88275 10.1213 9.39062 11.0798 11.3274 12.8105C13.264 14.5411 14.4941 16.9226 14.7825 19.5001C16.1979 18.9802 17.438 18.0734 18.3607 16.8832C19.2835 15.6932 19.8515 14.2678 20 12.7708C19.8241 12.7795 19.6491 12.8 19.4729 12.8L19.4729 12.7999ZM4.28296 11.7176C4.19381 11.7176 4.1044 11.7296 4.01485 11.7323C4.0119 11.8222 4.00022 11.9095 4.00022 12C3.98881 13.542 4.42771 15.054 5.26344 16.3514C6.09903 17.6487 7.29526 18.6753 8.70589 19.3058C10.1167 19.9363 11.6809 20.1435 13.2076 19.902C13.0159 17.6715 11.9931 15.5935 10.3409 14.0784C8.68871 12.5632 6.52721 11.721 4.28287 11.7176L4.28296 11.7176Z" fill="#333333"/>
</svg>
